<?xml version="1.0" encoding="utf-8" standalone="no"?>
<!DOCTYPE svg PUBLIC "-//W3C//DTD SVG 1.1//EN"
  "http://www.w3.org/Graphics/SVG/1.1/DTD/svg11.dtd">
<svg xmlns:xlink="http://www.w3.org/1999/xlink" width="498.24pt" height="385.2pt" viewBox="0 0 498.24 385.2" xmlns="http://www.w3.org/2000/svg" version="1.1">
 <metadata>
  <rdf:RDF xmlns:dc="http://purl.org/dc/elements/1.1/" xmlns:cc="http://creativecommons.org/ns#" xmlns:rdf="http://www.w3.org/1999/02/22-rdf-syntax-ns#">
   <cc:Work>
    <dc:type rdf:resource="http://purl.org/dc/dcmitype/StillImage"/>
    <dc:date>2024-04-08T17:32:28.192142</dc:date>
    <dc:format>image/svg+xml</dc:format>
    <dc:creator>
     <cc:Agent>
      <dc:title>Matplotlib v3.7.4, https://matplotlib.org/</dc:title>
     </cc:Agent>
    </dc:creator>
   </cc:Work>
  </rdf:RDF>
 </metadata>
 <defs>
  <style type="text/css">*{stroke-linejoin: round; stroke-linecap: butt}</style>
 </defs>
 <g id="figure_1">
  <g id="patch_1">
   <path d="M 0 385.2 
L 498.24 385.2 
L 498.24 0 
L 0 0 
z
" style="fill: #ffffff"/>
  </g>
  <g id="axes_1">
   <g id="patch_2">
    <path d="M 58.527231 323.091633 
L 439.712769 323.091633 
L 439.712769 28.196733 
L 58.527231 28.196733 
z
" style="fill: #ffffff"/>
   </g>
   <g id="matplotlib.axis_1">
    <g id="xtick_1">
     <g id="text_1">
      <!-- Random -->
      <g style="fill: #262626" transform="translate(84.968549 352.450842) rotate(-15) scale(0.11 -0.11)">
       <defs>
        <path id="DejaVuSans-52" d="M 2841 2188 
Q 3044 2119 3236 1894 
Q 3428 1669 3622 1275 
L 4263 0 
L 3584 0 
L 2988 1197 
Q 2756 1666 2539 1819 
Q 2322 1972 1947 1972 
L 1259 1972 
L 1259 0 
L 628 0 
L 628 4666 
L 2053 4666 
Q 2853 4666 3247 4331 
Q 3641 3997 3641 3322 
Q 3641 2881 3436 2590 
Q 3231 2300 2841 2188 
z
M 1259 4147 
L 1259 2491 
L 2053 2491 
Q 2509 2491 2742 2702 
Q 2975 2913 2975 3322 
Q 2975 3731 2742 3939 
Q 2509 4147 2053 4147 
L 1259 4147 
z
" transform="scale(0.015625)"/>
        <path id="DejaVuSans-61" d="M 2194 1759 
Q 1497 1759 1228 1600 
Q 959 1441 959 1056 
Q 959 750 1161 570 
Q 1363 391 1709 391 
Q 2188 391 2477 730 
Q 2766 1069 2766 1631 
L 2766 1759 
L 2194 1759 
z
M 3341 1997 
L 3341 0 
L 2766 0 
L 2766 531 
Q 2569 213 2275 61 
Q 1981 -91 1556 -91 
Q 1019 -91 701 211 
Q 384 513 384 1019 
Q 384 1609 779 1909 
Q 1175 2209 1959 2209 
L 2766 2209 
L 2766 2266 
Q 2766 2663 2505 2880 
Q 2244 3097 1772 3097 
Q 1472 3097 1187 3025 
Q 903 2953 641 2809 
L 641 3341 
Q 956 3463 1253 3523 
Q 1550 3584 1831 3584 
Q 2591 3584 2966 3190 
Q 3341 2797 3341 1997 
z
" transform="scale(0.015625)"/>
        <path id="DejaVuSans-6e" d="M 3513 2113 
L 3513 0 
L 2938 0 
L 2938 2094 
Q 2938 2591 2744 2837 
Q 2550 3084 2163 3084 
Q 1697 3084 1428 2787 
Q 1159 2491 1159 1978 
L 1159 0 
L 581 0 
L 581 3500 
L 1159 3500 
L 1159 2956 
Q 1366 3272 1645 3428 
Q 1925 3584 2291 3584 
Q 2894 3584 3203 3211 
Q 3513 2838 3513 2113 
z
" transform="scale(0.015625)"/>
        <path id="DejaVuSans-64" d="M 2906 2969 
L 2906 4863 
L 3481 4863 
L 3481 0 
L 2906 0 
L 2906 525 
Q 2725 213 2448 61 
Q 2172 -91 1784 -91 
Q 1150 -91 751 415 
Q 353 922 353 1747 
Q 353 2572 751 3078 
Q 1150 3584 1784 3584 
Q 2172 3584 2448 3432 
Q 2725 3281 2906 2969 
z
M 947 1747 
Q 947 1113 1208 752 
Q 1469 391 1925 391 
Q 2381 391 2643 752 
Q 2906 1113 2906 1747 
Q 2906 2381 2643 2742 
Q 2381 3103 1925 3103 
Q 1469 3103 1208 2742 
Q 947 2381 947 1747 
z
" transform="scale(0.015625)"/>
        <path id="DejaVuSans-6f" d="M 1959 3097 
Q 1497 3097 1228 2736 
Q 959 2375 959 1747 
Q 959 1119 1226 758 
Q 1494 397 1959 397 
Q 2419 397 2687 759 
Q 2956 1122 2956 1747 
Q 2956 2369 2687 2733 
Q 2419 3097 1959 3097 
z
M 1959 3584 
Q 2709 3584 3137 3096 
Q 3566 2609 3566 1747 
Q 3566 888 3137 398 
Q 2709 -91 1959 -91 
Q 1206 -91 779 398 
Q 353 888 353 1747 
Q 353 2609 779 3096 
Q 1206 3584 1959 3584 
z
" transform="scale(0.015625)"/>
        <path id="DejaVuSans-6d" d="M 3328 2828 
Q 3544 3216 3844 3400 
Q 4144 3584 4550 3584 
Q 5097 3584 5394 3201 
Q 5691 2819 5691 2113 
L 5691 0 
L 5113 0 
L 5113 2094 
Q 5113 2597 4934 2840 
Q 4756 3084 4391 3084 
Q 3944 3084 3684 2787 
Q 3425 2491 3425 1978 
L 3425 0 
L 2847 0 
L 2847 2094 
Q 2847 2600 2669 2842 
Q 2491 3084 2119 3084 
Q 1678 3084 1418 2786 
Q 1159 2488 1159 1978 
L 1159 0 
L 581 0 
L 581 3500 
L 1159 3500 
L 1159 2956 
Q 1356 3278 1631 3431 
Q 1906 3584 2284 3584 
Q 2666 3584 2933 3390 
Q 3200 3197 3328 2828 
z
" transform="scale(0.015625)"/>
       </defs>
       <use xlink:href="#DejaVuSans-52"/>
       <use xlink:href="#DejaVuSans-61" x="67.232422"/>
       <use xlink:href="#DejaVuSans-6e" x="128.511719"/>
       <use xlink:href="#DejaVuSans-64" x="191.890625"/>
       <use xlink:href="#DejaVuSans-6f" x="255.367188"/>
       <use xlink:href="#DejaVuSans-6d" x="316.548828"/>
      </g>
     </g>
    </g>
    <g id="xtick_2">
     <g id="text_2">
      <!-- Grad-CAM++ random -->
      <g style="fill: #262626" transform="translate(144.287894 371.73088) rotate(-15) scale(0.11 -0.11)">
       <defs>
        <path id="DejaVuSans-47" d="M 3809 666 
L 3809 1919 
L 2778 1919 
L 2778 2438 
L 4434 2438 
L 4434 434 
Q 4069 175 3628 42 
Q 3188 -91 2688 -91 
Q 1594 -91 976 548 
Q 359 1188 359 2328 
Q 359 3472 976 4111 
Q 1594 4750 2688 4750 
Q 3144 4750 3555 4637 
Q 3966 4525 4313 4306 
L 4313 3634 
Q 3963 3931 3569 4081 
Q 3175 4231 2741 4231 
Q 1884 4231 1454 3753 
Q 1025 3275 1025 2328 
Q 1025 1384 1454 906 
Q 1884 428 2741 428 
Q 3075 428 3337 486 
Q 3600 544 3809 666 
z
" transform="scale(0.015625)"/>
        <path id="DejaVuSans-72" d="M 2631 2963 
Q 2534 3019 2420 3045 
Q 2306 3072 2169 3072 
Q 1681 3072 1420 2755 
Q 1159 2438 1159 1844 
L 1159 0 
L 581 0 
L 581 3500 
L 1159 3500 
L 1159 2956 
Q 1341 3275 1631 3429 
Q 1922 3584 2338 3584 
Q 2397 3584 2469 3576 
Q 2541 3569 2628 3553 
L 2631 2963 
z
" transform="scale(0.015625)"/>
        <path id="DejaVuSans-2d" d="M 313 2009 
L 1997 2009 
L 1997 1497 
L 313 1497 
L 313 2009 
z
" transform="scale(0.015625)"/>
        <path id="DejaVuSans-43" d="M 4122 4306 
L 4122 3641 
Q 3803 3938 3442 4084 
Q 3081 4231 2675 4231 
Q 1875 4231 1450 3742 
Q 1025 3253 1025 2328 
Q 1025 1406 1450 917 
Q 1875 428 2675 428 
Q 3081 428 3442 575 
Q 3803 722 4122 1019 
L 4122 359 
Q 3791 134 3420 21 
Q 3050 -91 2638 -91 
Q 1578 -91 968 557 
Q 359 1206 359 2328 
Q 359 3453 968 4101 
Q 1578 4750 2638 4750 
Q 3056 4750 3426 4639 
Q 3797 4528 4122 4306 
z
" transform="scale(0.015625)"/>
        <path id="DejaVuSans-41" d="M 2188 4044 
L 1331 1722 
L 3047 1722 
L 2188 4044 
z
M 1831 4666 
L 2547 4666 
L 4325 0 
L 3669 0 
L 3244 1197 
L 1141 1197 
L 716 0 
L 50 0 
L 1831 4666 
z
" transform="scale(0.015625)"/>
        <path id="DejaVuSans-4d" d="M 628 4666 
L 1569 4666 
L 2759 1491 
L 3956 4666 
L 4897 4666 
L 4897 0 
L 4281 0 
L 4281 4097 
L 3078 897 
L 2444 897 
L 1241 4097 
L 1241 0 
L 628 0 
L 628 4666 
z
" transform="scale(0.015625)"/>
        <path id="DejaVuSans-2b" d="M 2944 4013 
L 2944 2272 
L 4684 2272 
L 4684 1741 
L 2944 1741 
L 2944 0 
L 2419 0 
L 2419 1741 
L 678 1741 
L 678 2272 
L 2419 2272 
L 2419 4013 
L 2944 4013 
z
" transform="scale(0.015625)"/>
        <path id="DejaVuSans-20" transform="scale(0.015625)"/>
       </defs>
       <use xlink:href="#DejaVuSans-47"/>
       <use xlink:href="#DejaVuSans-72" x="77.490234"/>
       <use xlink:href="#DejaVuSans-61" x="118.603516"/>
       <use xlink:href="#DejaVuSans-64" x="179.882812"/>
       <use xlink:href="#DejaVuSans-2d" x="243.359375"/>
       <use xlink:href="#DejaVuSans-43" x="279.443359"/>
       <use xlink:href="#DejaVuSans-41" x="349.267578"/>
       <use xlink:href="#DejaVuSans-4d" x="417.675781"/>
       <use xlink:href="#DejaVuSans-2b" x="503.955078"/>
       <use xlink:href="#DejaVuSans-2b" x="587.744141"/>
       <use xlink:href="#DejaVuSans-20" x="671.533203"/>
       <use xlink:href="#DejaVuSans-72" x="703.320312"/>
       <use xlink:href="#DejaVuSans-61" x="744.433594"/>
       <use xlink:href="#DejaVuSans-6e" x="805.712891"/>
       <use xlink:href="#DejaVuSans-64" x="869.091797"/>
       <use xlink:href="#DejaVuSans-6f" x="932.568359"/>
       <use xlink:href="#DejaVuSans-6d" x="993.75"/>
      </g>
     </g>
    </g>
    <g id="xtick_3">
     <g id="text_3">
      <!-- Grad-CAM++ high -->
      <g style="fill: #262626" transform="translate(248.606554 366.895857) rotate(-15) scale(0.11 -0.11)">
       <defs>
        <path id="DejaVuSans-68" d="M 3513 2113 
L 3513 0 
L 2938 0 
L 2938 2094 
Q 2938 2591 2744 2837 
Q 2550 3084 2163 3084 
Q 1697 3084 1428 2787 
Q 1159 2491 1159 1978 
L 1159 0 
L 581 0 
L 581 4863 
L 1159 4863 
L 1159 2956 
Q 1366 3272 1645 3428 
Q 1925 3584 2291 3584 
Q 2894 3584 3203 3211 
Q 3513 2838 3513 2113 
z
" transform="scale(0.015625)"/>
        <path id="DejaVuSans-69" d="M 603 3500 
L 1178 3500 
L 1178 0 
L 603 0 
L 603 3500 
z
M 603 4863 
L 1178 4863 
L 1178 4134 
L 603 4134 
L 603 4863 
z
" transform="scale(0.015625)"/>
        <path id="DejaVuSans-67" d="M 2906 1791 
Q 2906 2416 2648 2759 
Q 2391 3103 1925 3103 
Q 1463 3103 1205 2759 
Q 947 2416 947 1791 
Q 947 1169 1205 825 
Q 1463 481 1925 481 
Q 2391 481 2648 825 
Q 2906 1169 2906 1791 
z
M 3481 434 
Q 3481 -459 3084 -895 
Q 2688 -1331 1869 -1331 
Q 1566 -1331 1297 -1286 
Q 1028 -1241 775 -1147 
L 775 -588 
Q 1028 -725 1275 -790 
Q 1522 -856 1778 -856 
Q 2344 -856 2625 -561 
Q 2906 -266 2906 331 
L 2906 616 
Q 2728 306 2450 153 
Q 2172 0 1784 0 
Q 1141 0 747 490 
Q 353 981 353 1791 
Q 353 2603 747 3093 
Q 1141 3584 1784 3584 
Q 2172 3584 2450 3431 
Q 2728 3278 2906 2969 
L 2906 3500 
L 3481 3500 
L 3481 434 
z
" transform="scale(0.015625)"/>
       </defs>
       <use xlink:href="#DejaVuSans-47"/>
       <use xlink:href="#DejaVuSans-72" x="77.490234"/>
       <use xlink:href="#DejaVuSans-61" x="118.603516"/>
       <use xlink:href="#DejaVuSans-64" x="179.882812"/>
       <use xlink:href="#DejaVuSans-2d" x="243.359375"/>
       <use xlink:href="#DejaVuSans-43" x="279.443359"/>
       <use xlink:href="#DejaVuSans-41" x="349.267578"/>
       <use xlink:href="#DejaVuSans-4d" x="417.675781"/>
       <use xlink:href="#DejaVuSans-2b" x="503.955078"/>
       <use xlink:href="#DejaVuSans-2b" x="587.744141"/>
       <use xlink:href="#DejaVuSans-20" x="671.533203"/>
       <use xlink:href="#DejaVuSans-68" x="703.320312"/>
       <use xlink:href="#DejaVuSans-69" x="766.699219"/>
       <use xlink:href="#DejaVuSans-67" x="794.482422"/>
       <use xlink:href="#DejaVuSans-68" x="857.958984"/>
      </g>
     </g>
    </g>
    <g id="xtick_4">
     <g id="text_4">
      <!-- Score-CAM random -->
      <g style="fill: #262626" transform="translate(341.835178 368.003966) rotate(-15) scale(0.11 -0.11)">
       <defs>
        <path id="DejaVuSans-53" d="M 3425 4513 
L 3425 3897 
Q 3066 4069 2747 4153 
Q 2428 4238 2131 4238 
Q 1616 4238 1336 4038 
Q 1056 3838 1056 3469 
Q 1056 3159 1242 3001 
Q 1428 2844 1947 2747 
L 2328 2669 
Q 3034 2534 3370 2195 
Q 3706 1856 3706 1288 
Q 3706 609 3251 259 
Q 2797 -91 1919 -91 
Q 1588 -91 1214 -16 
Q 841 59 441 206 
L 441 856 
Q 825 641 1194 531 
Q 1563 422 1919 422 
Q 2459 422 2753 634 
Q 3047 847 3047 1241 
Q 3047 1584 2836 1778 
Q 2625 1972 2144 2069 
L 1759 2144 
Q 1053 2284 737 2584 
Q 422 2884 422 3419 
Q 422 4038 858 4394 
Q 1294 4750 2059 4750 
Q 2388 4750 2728 4690 
Q 3069 4631 3425 4513 
z
" transform="scale(0.015625)"/>
        <path id="DejaVuSans-63" d="M 3122 3366 
L 3122 2828 
Q 2878 2963 2633 3030 
Q 2388 3097 2138 3097 
Q 1578 3097 1268 2742 
Q 959 2388 959 1747 
Q 959 1106 1268 751 
Q 1578 397 2138 397 
Q 2388 397 2633 464 
Q 2878 531 3122 666 
L 3122 134 
Q 2881 22 2623 -34 
Q 2366 -91 2075 -91 
Q 1284 -91 818 406 
Q 353 903 353 1747 
Q 353 2603 823 3093 
Q 1294 3584 2113 3584 
Q 2378 3584 2631 3529 
Q 2884 3475 3122 3366 
z
" transform="scale(0.015625)"/>
        <path id="DejaVuSans-65" d="M 3597 1894 
L 3597 1613 
L 953 1613 
Q 991 1019 1311 708 
Q 1631 397 2203 397 
Q 2534 397 2845 478 
Q 3156 559 3463 722 
L 3463 178 
Q 3153 47 2828 -22 
Q 2503 -91 2169 -91 
Q 1331 -91 842 396 
Q 353 884 353 1716 
Q 353 2575 817 3079 
Q 1281 3584 2069 3584 
Q 2775 3584 3186 3129 
Q 3597 2675 3597 1894 
z
M 3022 2063 
Q 3016 2534 2758 2815 
Q 2500 3097 2075 3097 
Q 1594 3097 1305 2825 
Q 1016 2553 972 2059 
L 3022 2063 
z
" transform="scale(0.015625)"/>
       </defs>
       <use xlink:href="#DejaVuSans-53"/>
       <use xlink:href="#DejaVuSans-63" x="63.476562"/>
       <use xlink:href="#DejaVuSans-6f" x="118.457031"/>
       <use xlink:href="#DejaVuSans-72" x="179.638672"/>
       <use xlink:href="#DejaVuSans-65" x="218.501953"/>
       <use xlink:href="#DejaVuSans-2d" x="280.025391"/>
       <use xlink:href="#DejaVuSans-43" x="316.109375"/>
       <use xlink:href="#DejaVuSans-41" x="385.933594"/>
       <use xlink:href="#DejaVuSans-4d" x="454.341797"/>
       <use xlink:href="#DejaVuSans-20" x="540.621094"/>
       <use xlink:href="#DejaVuSans-72" x="572.408203"/>
       <use xlink:href="#DejaVuSans-61" x="613.521484"/>
       <use xlink:href="#DejaVuSans-6e" x="674.800781"/>
       <use xlink:href="#DejaVuSans-64" x="738.179688"/>
       <use xlink:href="#DejaVuSans-6f" x="801.65625"/>
       <use xlink:href="#DejaVuSans-6d" x="862.837891"/>
      </g>
     </g>
    </g>
   </g>
   <g id="matplotlib.axis_2">
    <g id="ytick_1">
     <g id="line2d_1">
      <path d="M 58.527231 279.363648 
L 439.712769 279.363648 
" clip-path="url(#pb29590dc38)" style="fill: none; stroke: #cccccc; stroke-linecap: round"/>
     </g>
     <g id="line2d_2">
      <defs>
       <path id="m40f0b97110" d="M 0 0 
L -6 0 
" style="stroke: #262626; stroke-width: 1.25"/>
      </defs>
      <g>
       <use xlink:href="#m40f0b97110" x="58.527231" y="279.363648" style="fill: #262626; stroke: #262626; stroke-width: 1.25"/>
      </g>
     </g>
     <g id="text_5">
      <!-- −1.0 -->
      <g style="fill: #262626" transform="translate(22.316137 283.542789) scale(0.11 -0.11)">
       <defs>
        <path id="DejaVuSans-2212" d="M 678 2272 
L 4684 2272 
L 4684 1741 
L 678 1741 
L 678 2272 
z
" transform="scale(0.015625)"/>
        <path id="DejaVuSans-31" d="M 794 531 
L 1825 531 
L 1825 4091 
L 703 3866 
L 703 4441 
L 1819 4666 
L 2450 4666 
L 2450 531 
L 3481 531 
L 3481 0 
L 794 0 
L 794 531 
z
" transform="scale(0.015625)"/>
        <path id="DejaVuSans-2e" d="M 684 794 
L 1344 794 
L 1344 0 
L 684 0 
L 684 794 
z
" transform="scale(0.015625)"/>
        <path id="DejaVuSans-30" d="M 2034 4250 
Q 1547 4250 1301 3770 
Q 1056 3291 1056 2328 
Q 1056 1369 1301 889 
Q 1547 409 2034 409 
Q 2525 409 2770 889 
Q 3016 1369 3016 2328 
Q 3016 3291 2770 3770 
Q 2525 4250 2034 4250 
z
M 2034 4750 
Q 2819 4750 3233 4129 
Q 3647 3509 3647 2328 
Q 3647 1150 3233 529 
Q 2819 -91 2034 -91 
Q 1250 -91 836 529 
Q 422 1150 422 2328 
Q 422 3509 836 4129 
Q 1250 4750 2034 4750 
z
" transform="scale(0.015625)"/>
       </defs>
       <use xlink:href="#DejaVuSans-2212"/>
       <use xlink:href="#DejaVuSans-31" x="83.789062"/>
       <use xlink:href="#DejaVuSans-2e" x="147.412109"/>
       <use xlink:href="#DejaVuSans-30" x="179.199219"/>
      </g>
     </g>
    </g>
    <g id="ytick_2">
     <g id="line2d_3">
      <path d="M 58.527231 230.38237 
L 439.712769 230.38237 
" clip-path="url(#pb29590dc38)" style="fill: none; stroke: #cccccc; stroke-linecap: round"/>
     </g>
     <g id="line2d_4">
      <g>
       <use xlink:href="#m40f0b97110" x="58.527231" y="230.38237" style="fill: #262626; stroke: #262626; stroke-width: 1.25"/>
      </g>
     </g>
     <g id="text_6">
      <!-- −0.5 -->
      <g style="fill: #262626" transform="translate(22.316137 234.561511) scale(0.11 -0.11)">
       <defs>
        <path id="DejaVuSans-35" d="M 691 4666 
L 3169 4666 
L 3169 4134 
L 1269 4134 
L 1269 2991 
Q 1406 3038 1543 3061 
Q 1681 3084 1819 3084 
Q 2600 3084 3056 2656 
Q 3513 2228 3513 1497 
Q 3513 744 3044 326 
Q 2575 -91 1722 -91 
Q 1428 -91 1123 -41 
Q 819 9 494 109 
L 494 744 
Q 775 591 1075 516 
Q 1375 441 1709 441 
Q 2250 441 2565 725 
Q 2881 1009 2881 1497 
Q 2881 1984 2565 2268 
Q 2250 2553 1709 2553 
Q 1456 2553 1204 2497 
Q 953 2441 691 2322 
L 691 4666 
z
" transform="scale(0.015625)"/>
       </defs>
       <use xlink:href="#DejaVuSans-2212"/>
       <use xlink:href="#DejaVuSans-30" x="83.789062"/>
       <use xlink:href="#DejaVuSans-2e" x="147.412109"/>
       <use xlink:href="#DejaVuSans-35" x="179.199219"/>
      </g>
     </g>
    </g>
    <g id="ytick_3">
     <g id="line2d_5">
      <path d="M 58.527231 181.401092 
L 439.712769 181.401092 
" clip-path="url(#pb29590dc38)" style="fill: none; stroke: #cccccc; stroke-linecap: round"/>
     </g>
     <g id="line2d_6">
      <g>
       <use xlink:href="#m40f0b97110" x="58.527231" y="181.401092" style="fill: #262626; stroke: #262626; stroke-width: 1.25"/>
      </g>
     </g>
     <g id="text_7">
      <!-- 0.0 -->
      <g style="fill: #262626" transform="translate(31.533793 185.580233) scale(0.11 -0.11)">
       <use xlink:href="#DejaVuSans-30"/>
       <use xlink:href="#DejaVuSans-2e" x="63.623047"/>
       <use xlink:href="#DejaVuSans-30" x="95.410156"/>
      </g>
     </g>
    </g>
    <g id="ytick_4">
     <g id="line2d_7">
      <path d="M 58.527231 132.419814 
L 439.712769 132.419814 
" clip-path="url(#pb29590dc38)" style="fill: none; stroke: #cccccc; stroke-linecap: round"/>
     </g>
     <g id="line2d_8">
      <g>
       <use xlink:href="#m40f0b97110" x="58.527231" y="132.419814" style="fill: #262626; stroke: #262626; stroke-width: 1.25"/>
      </g>
     </g>
     <g id="text_8">
      <!-- 0.5 -->
      <g style="fill: #262626" transform="translate(31.533793 136.598955) scale(0.11 -0.11)">
       <use xlink:href="#DejaVuSans-30"/>
       <use xlink:href="#DejaVuSans-2e" x="63.623047"/>
       <use xlink:href="#DejaVuSans-35" x="95.410156"/>
      </g>
     </g>
    </g>
    <g id="ytick_5">
     <g id="line2d_9">
      <path d="M 58.527231 83.438536 
L 439.712769 83.438536 
" clip-path="url(#pb29590dc38)" style="fill: none; stroke: #cccccc; stroke-linecap: round"/>
     </g>
     <g id="line2d_10">
      <g>
       <use xlink:href="#m40f0b97110" x="58.527231" y="83.438536" style="fill: #262626; stroke: #262626; stroke-width: 1.25"/>
      </g>
     </g>
     <g id="text_9">
      <!-- 1.0 -->
      <g style="fill: #262626" transform="translate(31.533793 87.617677) scale(0.11 -0.11)">
       <use xlink:href="#DejaVuSans-31"/>
       <use xlink:href="#DejaVuSans-2e" x="63.623047"/>
       <use xlink:href="#DejaVuSans-30" x="95.410156"/>
      </g>
     </g>
    </g>
    <g id="ytick_6">
     <g id="line2d_11">
      <path d="M 58.527231 34.457258 
L 439.712769 34.457258 
" clip-path="url(#pb29590dc38)" style="fill: none; stroke: #cccccc; stroke-linecap: round"/>
     </g>
     <g id="line2d_12">
      <g>
       <use xlink:href="#m40f0b97110" x="58.527231" y="34.457258" style="fill: #262626; stroke: #262626; stroke-width: 1.25"/>
      </g>
     </g>
     <g id="text_10">
      <!-- 1.5 -->
      <g style="fill: #262626" transform="translate(31.533793 38.636399) scale(0.11 -0.11)">
       <use xlink:href="#DejaVuSans-31"/>
       <use xlink:href="#DejaVuSans-2e" x="63.623047"/>
       <use xlink:href="#DejaVuSans-35" x="95.410156"/>
      </g>
     </g>
    </g>
    <g id="text_11">
     <!-- DQD of CTEs -->
     <g style="fill: #262626" transform="translate(15.820512 213.975746) rotate(-90) scale(0.12 -0.12)">
      <defs>
       <path id="DejaVuSans-44" d="M 1259 4147 
L 1259 519 
L 2022 519 
Q 2988 519 3436 956 
Q 3884 1394 3884 2338 
Q 3884 3275 3436 3711 
Q 2988 4147 2022 4147 
L 1259 4147 
z
M 628 4666 
L 1925 4666 
Q 3281 4666 3915 4102 
Q 4550 3538 4550 2338 
Q 4550 1131 3912 565 
Q 3275 0 1925 0 
L 628 0 
L 628 4666 
z
" transform="scale(0.015625)"/>
       <path id="DejaVuSans-51" d="M 2522 4238 
Q 1834 4238 1429 3725 
Q 1025 3213 1025 2328 
Q 1025 1447 1429 934 
Q 1834 422 2522 422 
Q 3209 422 3611 934 
Q 4013 1447 4013 2328 
Q 4013 3213 3611 3725 
Q 3209 4238 2522 4238 
z
M 3406 84 
L 4238 -825 
L 3475 -825 
L 2784 -78 
Q 2681 -84 2626 -87 
Q 2572 -91 2522 -91 
Q 1538 -91 948 567 
Q 359 1225 359 2328 
Q 359 3434 948 4092 
Q 1538 4750 2522 4750 
Q 3503 4750 4090 4092 
Q 4678 3434 4678 2328 
Q 4678 1516 4351 937 
Q 4025 359 3406 84 
z
" transform="scale(0.015625)"/>
       <path id="DejaVuSans-66" d="M 2375 4863 
L 2375 4384 
L 1825 4384 
Q 1516 4384 1395 4259 
Q 1275 4134 1275 3809 
L 1275 3500 
L 2222 3500 
L 2222 3053 
L 1275 3053 
L 1275 0 
L 697 0 
L 697 3053 
L 147 3053 
L 147 3500 
L 697 3500 
L 697 3744 
Q 697 4328 969 4595 
Q 1241 4863 1831 4863 
L 2375 4863 
z
" transform="scale(0.015625)"/>
       <path id="DejaVuSans-54" d="M -19 4666 
L 3928 4666 
L 3928 4134 
L 2272 4134 
L 2272 0 
L 1638 0 
L 1638 4134 
L -19 4134 
L -19 4666 
z
" transform="scale(0.015625)"/>
       <path id="DejaVuSans-45" d="M 628 4666 
L 3578 4666 
L 3578 4134 
L 1259 4134 
L 1259 2753 
L 3481 2753 
L 3481 2222 
L 1259 2222 
L 1259 531 
L 3634 531 
L 3634 0 
L 628 0 
L 628 4666 
z
" transform="scale(0.015625)"/>
       <path id="DejaVuSans-73" d="M 2834 3397 
L 2834 2853 
Q 2591 2978 2328 3040 
Q 2066 3103 1784 3103 
Q 1356 3103 1142 2972 
Q 928 2841 928 2578 
Q 928 2378 1081 2264 
Q 1234 2150 1697 2047 
L 1894 2003 
Q 2506 1872 2764 1633 
Q 3022 1394 3022 966 
Q 3022 478 2636 193 
Q 2250 -91 1575 -91 
Q 1294 -91 989 -36 
Q 684 19 347 128 
L 347 722 
Q 666 556 975 473 
Q 1284 391 1588 391 
Q 1994 391 2212 530 
Q 2431 669 2431 922 
Q 2431 1156 2273 1281 
Q 2116 1406 1581 1522 
L 1381 1569 
Q 847 1681 609 1914 
Q 372 2147 372 2553 
Q 372 3047 722 3315 
Q 1072 3584 1716 3584 
Q 2034 3584 2315 3537 
Q 2597 3491 2834 3397 
z
" transform="scale(0.015625)"/>
      </defs>
      <use xlink:href="#DejaVuSans-44"/>
      <use xlink:href="#DejaVuSans-51" x="77.001953"/>
      <use xlink:href="#DejaVuSans-44" x="155.712891"/>
      <use xlink:href="#DejaVuSans-20" x="232.714844"/>
      <use xlink:href="#DejaVuSans-6f" x="264.501953"/>
      <use xlink:href="#DejaVuSans-66" x="325.683594"/>
      <use xlink:href="#DejaVuSans-20" x="360.888672"/>
      <use xlink:href="#DejaVuSans-43" x="392.675781"/>
      <use xlink:href="#DejaVuSans-54" x="462.5"/>
      <use xlink:href="#DejaVuSans-45" x="523.583984"/>
      <use xlink:href="#DejaVuSans-73" x="586.767578"/>
     </g>
    </g>
   </g>
   <g id="PolyCollection_1">
    <defs>
     <path id="m234a48da5f" d="M 68.089567 -95.071284 
L 68.056869 -95.071284 
L 68.056869 -97.286306 
L 68.056869 -99.501327 
L 68.056869 -101.716349 
L 68.056869 -103.931371 
L 68.056869 -106.146392 
L 68.056869 -108.361414 
L 68.056869 -110.576436 
L 68.056869 -112.791457 
L 68.056869 -115.006479 
L 68.056869 -117.221501 
L 68.056869 -119.436522 
L 68.056869 -121.651544 
L 68.056869 -123.866566 
L 68.056869 -126.081588 
L 68.056869 -128.296609 
L 68.056869 -130.511631 
L 68.056869 -132.726653 
L 68.056869 -134.941674 
L 68.056869 -137.156696 
L 68.056869 -139.371718 
L 68.056869 -141.586739 
L 68.056869 -143.801761 
L 68.056869 -146.016783 
L 68.056869 -148.231804 
L 68.056869 -150.446826 
L 68.056869 -152.661848 
L 68.056869 -154.876869 
L 68.056869 -157.091891 
L 68.056869 -159.306913 
L 68.056869 -161.521935 
L 68.056869 -163.736956 
L 68.056869 -165.951978 
L 68.056869 -168.167 
L 68.056869 -170.382021 
L 68.056869 -172.597043 
L 68.056869 -174.812065 
L 68.056869 -177.027086 
L 68.056869 -179.242108 
L 68.056869 -181.45713 
L 68.056869 -183.672151 
L 68.056869 -185.887173 
L 68.056869 -188.102195 
L 68.056869 -190.317217 
L 68.056869 -192.532238 
L 68.056869 -194.74726 
L 68.056869 -196.962282 
L 68.056869 -199.177303 
L 68.056869 -201.392325 
L 68.056869 -203.607347 
L 68.056869 -205.822368 
L 68.056869 -208.03739 
L 68.056869 -210.252412 
L 68.056869 -212.467433 
L 68.056869 -214.682455 
L 68.056869 -216.897477 
L 68.056869 -219.112499 
L 68.056869 -221.32752 
L 68.056869 -223.542542 
L 68.056869 -225.757564 
L 68.056869 -227.972585 
L 68.056869 -230.187607 
L 68.056869 -232.402629 
L 68.056869 -234.61765 
L 68.056869 -236.832672 
L 68.056869 -239.047694 
L 68.056869 -241.262715 
L 68.056869 -243.477737 
L 68.056869 -245.692759 
L 68.056869 -247.90778 
L 68.056869 -250.122802 
L 68.056869 -252.337824 
L 68.056869 -254.552846 
L 68.056869 -256.767867 
L 68.056869 -258.982889 
L 68.056869 -261.197911 
L 68.056869 -263.412932 
L 68.056869 -265.627954 
L 68.056869 -267.842976 
L 68.056869 -270.057997 
L 68.056869 -272.273019 
L 68.056869 -274.488041 
L 68.056869 -276.703062 
L 68.056869 -278.918084 
L 68.056869 -281.133106 
L 68.056869 -283.348128 
L 68.056869 -285.563149 
L 68.056869 -287.778171 
L 68.056869 -289.993193 
L 68.056869 -292.208214 
L 68.056869 -294.423236 
L 68.056869 -296.638258 
L 68.056869 -298.853279 
L 68.056869 -301.068301 
L 68.056869 -303.283323 
L 68.056869 -305.498344 
L 68.056869 -307.713366 
L 68.056869 -309.928388 
L 68.056869 -312.14341 
L 68.056869 -314.358431 
L 68.123719 -314.358431 
L 68.123719 -314.358431 
L 68.186094 -312.14341 
L 68.286516 -309.928388 
L 68.43297 -307.713366 
L 68.626312 -305.498344 
L 68.857246 -303.283323 
L 69.106904 -301.068301 
L 69.351982 -298.853279 
L 69.572829 -296.638258 
L 69.760884 -294.423236 
L 69.921741 -292.208214 
L 70.07222 -289.993193 
L 70.232789 -287.778171 
L 70.418833 -285.563149 
L 70.634728 -283.348128 
L 70.873412 -281.133106 
L 71.121986 -278.918084 
L 71.371171 -276.703062 
L 71.624217 -274.488041 
L 71.900263 -272.273019 
L 72.229354 -270.057997 
L 72.640714 -267.842976 
L 73.149937 -265.627954 
L 73.751825 -263.412932 
L 74.422683 -261.197911 
L 75.130642 -258.982889 
L 75.847862 -256.767867 
L 76.557472 -254.552846 
L 77.252043 -252.337824 
L 77.927434 -250.122802 
L 78.58042 -247.90778 
L 79.21569 -245.692759 
L 79.858251 -243.477737 
L 80.559157 -241.262715 
L 81.384471 -239.047694 
L 82.390719 -236.832672 
L 83.604938 -234.61765 
L 85.030328 -232.402629 
L 86.684116 -230.187607 
L 88.650629 -227.972585 
L 91.116819 -225.757564 
L 94.361098 -223.542542 
L 98.686577 -221.32752 
L 104.31244 -219.112499 
L 111.250686 -216.897477 
L 119.20098 -214.682455 
L 127.501537 -212.467433 
L 135.176792 -210.252412 
L 141.106533 -208.03739 
L 144.293977 -205.822368 
L 144.148896 -203.607347 
L 140.67031 -201.392325 
L 134.446012 -199.177303 
L 126.471283 -196.962282 
L 117.871914 -194.74726 
L 109.644903 -192.532238 
L 102.495468 -190.317217 
L 96.787193 -188.102195 
L 92.576456 -185.887173 
L 89.690801 -183.672151 
L 87.82166 -181.45713 
L 86.614335 -179.242108 
L 85.742933 -177.027086 
L 84.959643 -174.812065 
L 84.113506 -172.597043 
L 83.143367 -170.382021 
L 82.056162 -168.167 
L 80.900734 -165.951978 
L 79.74209 -163.736956 
L 78.6378 -161.521935 
L 77.619753 -159.306913 
L 76.686807 -157.091891 
L 75.812146 -154.876869 
L 74.962635 -152.661848 
L 74.120596 -150.446826 
L 73.29633 -148.231804 
L 72.524502 -146.016783 
L 71.846484 -143.801761 
L 71.288653 -141.586739 
L 70.848645 -139.371718 
L 70.496552 -137.156696 
L 70.189307 -134.941674 
L 69.889632 -132.726653 
L 69.579841 -130.511631 
L 69.265022 -128.296609 
L 68.966366 -126.081588 
L 68.709588 -123.866566 
L 68.514167 -121.651544 
L 68.387057 -119.436522 
L 68.321695 -117.221501 
L 68.301154 -115.006479 
L 68.303638 -112.791457 
L 68.308564 -110.576436 
L 68.301636 -108.361414 
L 68.277443 -106.146392 
L 68.238834 -103.931371 
L 68.193618 -101.716349 
L 68.150305 -99.501327 
L 68.114869 -97.286306 
L 68.089567 -95.071284 
z
" style="stroke: #858585; stroke-width: 1.25"/>
    </defs>
    <g clip-path="url(#pb29590dc38)">
     <use xlink:href="#m234a48da5f" x="0" y="385.2" style="fill: #d3c4f6; stroke: #858585; stroke-width: 1.25"/>
    </g>
   </g>
   <g id="PolyCollection_2">
    <defs>
     <path id="m128527351a" d="M 163.397874 -75.512681 
L 163.353254 -75.512681 
L 163.353254 -78.115305 
L 163.353254 -80.71793 
L 163.353254 -83.320555 
L 163.353254 -85.923179 
L 163.353254 -88.525804 
L 163.353254 -91.128428 
L 163.353254 -93.731053 
L 163.353254 -96.333678 
L 163.353254 -98.936302 
L 163.353254 -101.538927 
L 163.353254 -104.141552 
L 163.353254 -106.744176 
L 163.353254 -109.346801 
L 163.353254 -111.949425 
L 163.353254 -114.55205 
L 163.353254 -117.154675 
L 163.353254 -119.757299 
L 163.353254 -122.359924 
L 163.353254 -124.962549 
L 163.353254 -127.565173 
L 163.353254 -130.167798 
L 163.353254 -132.770422 
L 163.353254 -135.373047 
L 163.353254 -137.975672 
L 163.353254 -140.578296 
L 163.353254 -143.180921 
L 163.353254 -145.783546 
L 163.353254 -148.38617 
L 163.353254 -150.988795 
L 163.353254 -153.59142 
L 163.353254 -156.194044 
L 163.353254 -158.796669 
L 163.353254 -161.399293 
L 163.353254 -164.001918 
L 163.353254 -166.604543 
L 163.353254 -169.207167 
L 163.353254 -171.809792 
L 163.353254 -174.412417 
L 163.353254 -177.015041 
L 163.353254 -179.617666 
L 163.353254 -182.22029 
L 163.353254 -184.822915 
L 163.353254 -187.42554 
L 163.353254 -190.028164 
L 163.353254 -192.630789 
L 163.353254 -195.233414 
L 163.353254 -197.836038 
L 163.353254 -200.438663 
L 163.353254 -203.041288 
L 163.353254 -205.643912 
L 163.353254 -208.246537 
L 163.353254 -210.849161 
L 163.353254 -213.451786 
L 163.353254 -216.054411 
L 163.353254 -218.657035 
L 163.353254 -221.25966 
L 163.353254 -223.862285 
L 163.353254 -226.464909 
L 163.353254 -229.067534 
L 163.353254 -231.670158 
L 163.353254 -234.272783 
L 163.353254 -236.875408 
L 163.353254 -239.478032 
L 163.353254 -242.080657 
L 163.353254 -244.683282 
L 163.353254 -247.285906 
L 163.353254 -249.888531 
L 163.353254 -252.491155 
L 163.353254 -255.09378 
L 163.353254 -257.696405 
L 163.353254 -260.299029 
L 163.353254 -262.901654 
L 163.353254 -265.504279 
L 163.353254 -268.106903 
L 163.353254 -270.709528 
L 163.353254 -273.312153 
L 163.353254 -275.914777 
L 163.353254 -278.517402 
L 163.353254 -281.120026 
L 163.353254 -283.722651 
L 163.353254 -286.325276 
L 163.353254 -288.9279 
L 163.353254 -291.530525 
L 163.353254 -294.13315 
L 163.353254 -296.735774 
L 163.353254 -299.338399 
L 163.353254 -301.941023 
L 163.353254 -304.543648 
L 163.353254 -307.146273 
L 163.353254 -309.748897 
L 163.353254 -312.351522 
L 163.353254 -314.954147 
L 163.353254 -317.556771 
L 163.353254 -320.159396 
L 163.353254 -322.76202 
L 163.353254 -325.364645 
L 163.353254 -327.96727 
L 163.353254 -330.569894 
L 163.353254 -333.172519 
L 163.406984 -333.172519 
L 163.406984 -333.172519 
L 163.450112 -330.569894 
L 163.517358 -327.96727 
L 163.615756 -325.364645 
L 163.751592 -322.76202 
L 163.929401 -320.159396 
L 164.150989 -317.556771 
L 164.414593 -314.954147 
L 164.71453 -312.351522 
L 165.041955 -309.748897 
L 165.387212 -307.146273 
L 165.743431 -304.543648 
L 166.109779 -301.941023 
L 166.492368 -299.338399 
L 166.901741 -296.735774 
L 167.347826 -294.13315 
L 167.83472 -291.530525 
L 168.357467 -288.9279 
L 168.901488 -286.325276 
L 169.443875 -283.722651 
L 169.955653 -281.120026 
L 170.405196 -278.517402 
L 170.763708 -275.914777 
L 171.013052 -273.312153 
L 171.154271 -270.709528 
L 171.213443 -268.106903 
L 171.24147 -265.504279 
L 171.306474 -262.901654 
L 171.480617 -260.299029 
L 171.825891 -257.696405 
L 172.384286 -255.09378 
L 173.176211 -252.491155 
L 174.207235 -249.888531 
L 175.478496 -247.285906 
L 176.993247 -244.683282 
L 178.753888 -242.080657 
L 180.751028 -239.478032 
L 182.954431 -236.875408 
L 185.31825 -234.272783 
L 187.805679 -231.670158 
L 190.424074 -229.067534 
L 193.249957 -226.464909 
L 196.422299 -223.862285 
L 200.093843 -221.25966 
L 204.348401 -218.657035 
L 209.109795 -216.054411 
L 214.078708 -213.451786 
L 218.732507 -210.849161 
L 222.406537 -208.246537 
L 224.445221 -205.643912 
L 224.378396 -203.041288 
L 222.060149 -200.438663 
L 217.717344 -197.836038 
L 211.890602 -195.233414 
L 205.293476 -192.630789 
L 198.643576 -190.028164 
L 192.520925 -187.42554 
L 187.288309 -184.822915 
L 183.080227 -182.22029 
L 179.844657 -179.617666 
L 177.411887 -177.015041 
L 175.566027 -174.412417 
L 174.102781 -171.809792 
L 172.865987 -169.207167 
L 171.761934 -166.604543 
L 170.754294 -164.001918 
L 169.845163 -161.399293 
L 169.050399 -158.796669 
L 168.378761 -156.194044 
L 167.822196 -153.59142 
L 167.358738 -150.988795 
L 166.962753 -148.38617 
L 166.614253 -145.783546 
L 166.301423 -143.180921 
L 166.016505 -140.578296 
L 165.750002 -137.975672 
L 165.488696 -135.373047 
L 165.219275 -132.770422 
L 164.934848 -130.167798 
L 164.639583 -127.565173 
L 164.348223 -124.962549 
L 164.080784 -122.359924 
L 163.855522 -119.757299 
L 163.683741 -117.154675 
L 163.568253 -114.55205 
L 163.505012 -111.949425 
L 163.485949 -109.346801 
L 163.501142 -106.744176 
L 163.539603 -104.141552 
L 163.589244 -101.538927 
L 163.637221 -98.936302 
L 163.671459 -96.333678 
L 163.683144 -93.731053 
L 163.669013 -91.128428 
L 163.632114 -88.525804 
L 163.580435 -85.923179 
L 163.523974 -83.320555 
L 163.47159 -80.71793 
L 163.428914 -78.115305 
L 163.397874 -75.512681 
z
" style="stroke: #858585; stroke-width: 1.25"/>
    </defs>
    <g clip-path="url(#pb29590dc38)">
     <use xlink:href="#m128527351a" x="0" y="385.2" style="fill: #d3c4f6; stroke: #858585; stroke-width: 1.25"/>
    </g>
   </g>
   <g id="PolyCollection_3">
    <defs>
     <path id="m19da4a1ff9" d="M 258.697159 -91.564794 
L 258.649638 -91.564794 
L 258.649638 -93.928826 
L 258.649638 -96.292858 
L 258.649638 -98.65689 
L 258.649638 -101.020922 
L 258.649638 -103.384954 
L 258.649638 -105.748986 
L 258.649638 -108.113018 
L 258.649638 -110.47705 
L 258.649638 -112.841082 
L 258.649638 -115.205114 
L 258.649638 -117.569146 
L 258.649638 -119.933178 
L 258.649638 -122.29721 
L 258.649638 -124.661242 
L 258.649638 -127.025274 
L 258.649638 -129.389306 
L 258.649638 -131.753338 
L 258.649638 -134.11737 
L 258.649638 -136.481402 
L 258.649638 -138.845434 
L 258.649638 -141.209466 
L 258.649638 -143.573498 
L 258.649638 -145.93753 
L 258.649638 -148.301562 
L 258.649638 -150.665594 
L 258.649638 -153.029626 
L 258.649638 -155.393658 
L 258.649638 -157.75769 
L 258.649638 -160.121722 
L 258.649638 -162.485754 
L 258.649638 -164.849786 
L 258.649638 -167.213818 
L 258.649638 -169.57785 
L 258.649638 -171.941882 
L 258.649638 -174.305914 
L 258.649638 -176.669946 
L 258.649638 -179.033978 
L 258.649638 -181.39801 
L 258.649638 -183.762042 
L 258.649638 -186.126074 
L 258.649638 -188.490106 
L 258.649638 -190.854138 
L 258.649638 -193.21817 
L 258.649638 -195.582202 
L 258.649638 -197.946234 
L 258.649638 -200.310266 
L 258.649638 -202.674298 
L 258.649638 -205.03833 
L 258.649638 -207.402362 
L 258.649638 -209.766394 
L 258.649638 -212.130427 
L 258.649638 -214.494459 
L 258.649638 -216.858491 
L 258.649638 -219.222523 
L 258.649638 -221.586555 
L 258.649638 -223.950587 
L 258.649638 -226.314619 
L 258.649638 -228.678651 
L 258.649638 -231.042683 
L 258.649638 -233.406715 
L 258.649638 -235.770747 
L 258.649638 -238.134779 
L 258.649638 -240.498811 
L 258.649638 -242.862843 
L 258.649638 -245.226875 
L 258.649638 -247.590907 
L 258.649638 -249.954939 
L 258.649638 -252.318971 
L 258.649638 -254.683003 
L 258.649638 -257.047035 
L 258.649638 -259.411067 
L 258.649638 -261.775099 
L 258.649638 -264.139131 
L 258.649638 -266.503163 
L 258.649638 -268.867195 
L 258.649638 -271.231227 
L 258.649638 -273.595259 
L 258.649638 -275.959291 
L 258.649638 -278.323323 
L 258.649638 -280.687355 
L 258.649638 -283.051387 
L 258.649638 -285.415419 
L 258.649638 -287.779451 
L 258.649638 -290.143483 
L 258.649638 -292.507515 
L 258.649638 -294.871547 
L 258.649638 -297.235579 
L 258.649638 -299.599611 
L 258.649638 -301.963643 
L 258.649638 -304.327675 
L 258.649638 -306.691707 
L 258.649638 -309.055739 
L 258.649638 -311.419771 
L 258.649638 -313.783803 
L 258.649638 -316.147835 
L 258.649638 -318.511867 
L 258.649638 -320.875899 
L 258.649638 -323.239931 
L 258.649638 -325.603963 
L 258.766002 -325.603963 
L 258.766002 -325.603963 
L 258.854282 -323.239931 
L 258.987526 -320.875899 
L 259.174776 -318.511867 
L 259.420488 -316.147835 
L 259.722997 -313.783803 
L 260.075052 -311.419771 
L 260.466562 -309.055739 
L 260.888337 -306.691707 
L 261.33467 -304.327675 
L 261.802824 -301.963643 
L 262.289091 -299.599611 
L 262.783321 -297.235579 
L 263.26529 -294.871547 
L 263.705918 -292.507515 
L 264.074075 -290.143483 
L 264.346651 -287.779451 
L 264.517564 -285.415419 
L 264.601699 -283.051387 
L 264.632171 -280.687355 
L 264.652428 -278.323323 
L 264.706503 -275.959291 
L 264.830746 -273.595259 
L 265.048956 -271.231227 
L 265.37157 -268.867195 
L 265.798807 -266.503163 
L 266.327164 -264.139131 
L 266.957579 -261.775099 
L 267.702123 -259.411067 
L 268.585443 -257.047035 
L 269.638575 -254.683003 
L 270.886156 -252.318971 
L 272.331836 -249.954939 
L 273.948533 -247.590907 
L 275.678856 -245.226875 
L 277.447091 -242.862843 
L 279.179713 -240.498811 
L 280.828446 -238.134779 
L 282.389511 -235.770747 
L 283.914185 -233.406715 
L 285.508059 -231.042683 
L 287.318298 -228.678651 
L 289.509603 -226.314619 
L 292.230855 -223.950587 
L 295.575792 -221.586555 
L 299.54286 -219.222523 
L 304.001449 -216.858491 
L 308.67406 -214.494459 
L 313.145339 -212.130427 
L 316.906935 -209.766394 
L 319.439222 -207.402362 
L 320.316998 -205.03833 
L 319.31179 -202.674298 
L 316.456769 -200.310266 
L 312.048502 -197.946234 
L 306.581357 -195.582202 
L 300.635638 -193.21817 
L 294.756568 -190.854138 
L 289.360383 -188.490106 
L 284.688439 -186.126074 
L 280.810037 -183.762042 
L 277.659884 -181.39801 
L 275.091429 -179.033978 
L 272.930467 -176.669946 
L 271.019146 -174.305914 
L 269.24502 -171.941882 
L 267.552844 -169.57785 
L 265.939771 -167.213818 
L 264.438273 -164.849786 
L 263.094097 -162.485754 
L 261.94698 -160.121722 
L 261.019301 -157.75769 
L 260.313636 -155.393658 
L 259.8166 -153.029626 
L 259.50491 -150.665594 
L 259.350371 -148.301562 
L 259.322345 -145.93753 
L 259.388189 -143.573498 
L 259.513143 -141.209466 
L 259.661221 -138.845434 
L 259.797877 -136.481402 
L 259.894133 -134.11737 
L 259.930959 -131.753338 
L 259.902359 -129.389306 
L 259.815829 -127.025274 
L 259.689677 -124.661242 
L 259.547641 -122.29721 
L 259.412289 -119.933178 
L 259.299202 -117.569146 
L 259.213841 -115.205114 
L 259.15204 -112.841082 
L 259.103658 -110.47705 
L 259.057662 -108.113018 
L 259.006514 -105.748986 
L 258.948242 -103.384954 
L 258.885876 -101.020922 
L 258.825082 -98.65689 
L 258.77143 -96.292858 
L 258.728475 -93.928826 
L 258.697159 -91.564794 
z
" style="stroke: #858585; stroke-width: 1.25"/>
    </defs>
    <g clip-path="url(#pb29590dc38)">
     <use xlink:href="#m19da4a1ff9" x="0" y="385.2" style="fill: #d3c4f6; stroke: #858585; stroke-width: 1.25"/>
    </g>
   </g>
   <g id="PolyCollection_4">
    <defs>
     <path id="ma07e3887fe" d="M 354.011937 -116.232497 
L 353.946023 -116.232497 
L 353.946023 -118.529128 
L 353.946023 -120.825759 
L 353.946023 -123.12239 
L 353.946023 -125.41902 
L 353.946023 -127.715651 
L 353.946023 -130.012282 
L 353.946023 -132.308913 
L 353.946023 -134.605544 
L 353.946023 -136.902175 
L 353.946023 -139.198806 
L 353.946023 -141.495437 
L 353.946023 -143.792067 
L 353.946023 -146.088698 
L 353.946023 -148.385329 
L 353.946023 -150.68196 
L 353.946023 -152.978591 
L 353.946023 -155.275222 
L 353.946023 -157.571853 
L 353.946023 -159.868483 
L 353.946023 -162.165114 
L 353.946023 -164.461745 
L 353.946023 -166.758376 
L 353.946023 -169.055007 
L 353.946023 -171.351638 
L 353.946023 -173.648269 
L 353.946023 -175.9449 
L 353.946023 -178.24153 
L 353.946023 -180.538161 
L 353.946023 -182.834792 
L 353.946023 -185.131423 
L 353.946023 -187.428054 
L 353.946023 -189.724685 
L 353.946023 -192.021316 
L 353.946023 -194.317947 
L 353.946023 -196.614577 
L 353.946023 -198.911208 
L 353.946023 -201.207839 
L 353.946023 -203.50447 
L 353.946023 -205.801101 
L 353.946023 -208.097732 
L 353.946023 -210.394363 
L 353.946023 -212.690994 
L 353.946023 -214.987624 
L 353.946023 -217.284255 
L 353.946023 -219.580886 
L 353.946023 -221.877517 
L 353.946023 -224.174148 
L 353.946023 -226.470779 
L 353.946023 -228.76741 
L 353.946023 -231.06404 
L 353.946023 -233.360671 
L 353.946023 -235.657302 
L 353.946023 -237.953933 
L 353.946023 -240.250564 
L 353.946023 -242.547195 
L 353.946023 -244.843826 
L 353.946023 -247.140457 
L 353.946023 -249.437087 
L 353.946023 -251.733718 
L 353.946023 -254.030349 
L 353.946023 -256.32698 
L 353.946023 -258.623611 
L 353.946023 -260.920242 
L 353.946023 -263.216873 
L 353.946023 -265.513504 
L 353.946023 -267.810134 
L 353.946023 -270.106765 
L 353.946023 -272.403396 
L 353.946023 -274.700027 
L 353.946023 -276.996658 
L 353.946023 -279.293289 
L 353.946023 -281.58992 
L 353.946023 -283.886551 
L 353.946023 -286.183181 
L 353.946023 -288.479812 
L 353.946023 -290.776443 
L 353.946023 -293.073074 
L 353.946023 -295.369705 
L 353.946023 -297.666336 
L 353.946023 -299.962967 
L 353.946023 -302.259597 
L 353.946023 -304.556228 
L 353.946023 -306.852859 
L 353.946023 -309.14949 
L 353.946023 -311.446121 
L 353.946023 -313.742752 
L 353.946023 -316.039383 
L 353.946023 -318.336014 
L 353.946023 -320.632644 
L 353.946023 -322.929275 
L 353.946023 -325.225906 
L 353.946023 -327.522537 
L 353.946023 -329.819168 
L 353.946023 -332.115799 
L 353.946023 -334.41243 
L 353.946023 -336.709061 
L 353.946023 -339.005691 
L 353.946023 -341.302322 
L 353.946023 -343.598953 
L 353.994804 -343.598953 
L 353.994804 -343.598953 
L 354.022484 -341.302322 
L 354.06067 -339.005691 
L 354.110849 -336.709061 
L 354.173921 -334.41243 
L 354.250232 -332.115799 
L 354.33992 -329.819168 
L 354.44358 -327.522537 
L 354.563121 -325.225906 
L 354.702594 -322.929275 
L 354.868719 -320.632644 
L 355.070815 -318.336014 
L 355.319914 -316.039383 
L 355.626916 -313.742752 
L 355.999908 -311.446121 
L 356.441039 -309.14949 
L 356.943737 -306.852859 
L 357.491281 -304.556228 
L 358.057622 -302.259597 
L 358.610791 -299.962967 
L 359.118304 -297.666336 
L 359.553139 -295.369705 
L 359.898452 -293.073074 
L 360.149626 -290.776443 
L 360.313236 -288.479812 
L 360.403736 -286.183181 
L 360.43946 -283.886551 
L 360.4395 -281.58992 
L 360.422366 -279.293289 
L 360.40628 -276.996658 
L 360.410193 -274.700027 
L 360.4544 -272.403396 
L 360.560016 -270.106765 
L 360.747233 -267.810134 
L 361.032953 -265.513504 
L 361.428653 -263.216873 
L 361.939259 -260.920242 
L 362.56337 -258.623611 
L 363.2946 -256.32698 
L 364.123359 -254.030349 
L 365.038239 -251.733718 
L 366.026471 -249.437087 
L 367.073609 -247.140457 
L 368.163391 -244.843826 
L 369.27917 -242.547195 
L 370.408079 -240.250564 
L 371.548014 -237.953933 
L 372.716015 -235.657302 
L 373.955213 -233.360671 
L 375.336964 -231.06404 
L 376.955358 -228.76741 
L 378.913012 -226.470779 
L 381.299345 -224.174148 
L 384.164824 -221.877517 
L 387.496326 -219.580886 
L 391.19944 -217.284255 
L 395.093046 -214.987624 
L 398.919722 -212.690994 
L 402.372687 -210.394363 
L 405.136282 -208.097732 
L 406.933396 -205.801101 
L 407.570622 -203.50447 
L 406.971454 -201.207839 
L 405.189866 -198.911208 
L 402.400921 -196.614577 
L 398.870418 -194.317947 
L 394.910541 -192.021316 
L 390.83144 -189.724685 
L 386.898964 -187.428054 
L 383.30626 -185.131423 
L 380.162705 -182.834792 
L 377.499017 -180.538161 
L 375.283866 -178.24153 
L 373.445824 -175.9449 
L 371.895121 -173.648269 
L 370.541537 -171.351638 
L 369.306957 -169.055007 
L 368.132617 -166.758376 
L 366.981718 -164.461745 
L 365.838199 -162.165114 
L 364.702515 -159.868483 
L 363.585543 -157.571853 
L 362.502121 -155.275222 
L 361.465816 -152.978591 
L 360.486106 -150.68196 
L 359.568183 -148.385329 
L 358.714648 -146.088698 
L 357.927719 -143.792067 
L 357.210708 -141.495437 
L 356.568105 -139.198806 
L 356.004429 -136.902175 
L 355.522564 -134.605544 
L 355.122371 -132.308913 
L 354.800115 -130.012282 
L 354.548783 -127.715651 
L 354.359047 -125.41902 
L 354.220465 -123.12239 
L 354.122602 -120.825759 
L 354.055851 -118.529128 
L 354.011937 -116.232497 
z
" style="stroke: #858585; stroke-width: 1.25"/>
    </defs>
    <g clip-path="url(#pb29590dc38)">
     <use xlink:href="#ma07e3887fe" x="0" y="385.2" style="fill: #d3c4f6; stroke: #858585; stroke-width: 1.25"/>
    </g>
   </g>
   <g id="patch_3">
    <path d="M 106.175423 181.401092 
L 106.175423 181.401092 
L 106.175423 181.401092 
L 106.175423 181.401092 
z
" clip-path="url(#pb29590dc38)" style="fill: #d3c4f6; stroke: #858585; stroke-width: 1.25; stroke-linejoin: miter"/>
   </g>
   <g id="patch_4">
    <path d="M 106.175423 181.401092 
L 106.175423 181.401092 
L 106.175423 181.401092 
L 106.175423 181.401092 
z
" clip-path="url(#pb29590dc38)" style="fill: #d3c4f6; stroke: #858585; stroke-width: 1.25; stroke-linejoin: miter"/>
   </g>
   <g id="line2d_13">
    <path d="M 68.056869 189.67403 
L 120.895096 189.67403 
" clip-path="url(#pb29590dc38)" style="fill: none; stroke-dasharray: 1.5625,0.9375; stroke-dashoffset: 0; stroke: #858585; stroke-width: 1.25"/>
   </g>
   <g id="line2d_14">
    <path d="M 68.056869 180.191255 
L 144.240686 180.191255 
" clip-path="url(#pb29590dc38)" style="fill: none; stroke-dasharray: 3.125,1.25; stroke-dashoffset: 0; stroke: #858585; stroke-width: 1.25"/>
   </g>
   <g id="line2d_15">
    <path d="M 68.056869 169.302717 
L 114.840643 169.302717 
" clip-path="url(#pb29590dc38)" style="fill: none; stroke-dasharray: 1.5625,0.9375; stroke-dashoffset: 0; stroke: #858585; stroke-width: 1.25"/>
   </g>
   <g id="line2d_16">
    <path d="M 163.353254 187.474771 
L 217.469265 187.474771 
" clip-path="url(#pb29590dc38)" style="fill: none; stroke-dasharray: 1.5625,0.9375; stroke-dashoffset: 0; stroke: #858585; stroke-width: 1.25"/>
   </g>
   <g id="line2d_17">
    <path d="M 163.353254 178.217309 
L 223.396531 178.217309 
" clip-path="url(#pb29590dc38)" style="fill: none; stroke-dasharray: 3.125,1.25; stroke-dashoffset: 0; stroke: #858585; stroke-width: 1.25"/>
   </g>
   <g id="line2d_18">
    <path d="M 163.353254 158.090902 
L 192.550508 158.090902 
" clip-path="url(#pb29590dc38)" style="fill: none; stroke-dasharray: 1.5625,0.9375; stroke-dashoffset: 0; stroke: #858585; stroke-width: 1.25"/>
   </g>
   <g id="line2d_19">
    <path d="M 258.649638 185.69675 
L 314.951905 185.69675 
" clip-path="url(#pb29590dc38)" style="fill: none; stroke-dasharray: 1.5625,0.9375; stroke-dashoffset: 0; stroke: #858585; stroke-width: 1.25"/>
   </g>
   <g id="line2d_20">
    <path d="M 258.649638 176.625418 
L 318.183572 176.625418 
" clip-path="url(#pb29590dc38)" style="fill: none; stroke-dasharray: 3.125,1.25; stroke-dashoffset: 0; stroke: #858585; stroke-width: 1.25"/>
   </g>
   <g id="line2d_21">
    <path d="M 258.649638 155.835314 
L 286.792972 155.835314 
" clip-path="url(#pb29590dc38)" style="fill: none; stroke-dasharray: 1.5625,0.9375; stroke-dashoffset: 0; stroke: #858585; stroke-width: 1.25"/>
   </g>
   <g id="line2d_22">
    <path d="M 353.946023 190.509161 
L 399.443648 190.509161 
" clip-path="url(#pb29590dc38)" style="fill: none; stroke-dasharray: 1.5625,0.9375; stroke-dashoffset: 0; stroke: #858585; stroke-width: 1.25"/>
   </g>
   <g id="line2d_23">
    <path d="M 353.946023 179.779812 
L 407.039085 179.779812 
" clip-path="url(#pb29590dc38)" style="fill: none; stroke-dasharray: 3.125,1.25; stroke-dashoffset: 0; stroke: #858585; stroke-width: 1.25"/>
   </g>
   <g id="line2d_24">
    <path d="M 353.946023 157.086786 
L 377.512996 157.086786 
" clip-path="url(#pb29590dc38)" style="fill: none; stroke-dasharray: 1.5625,0.9375; stroke-dashoffset: 0; stroke: #858585; stroke-width: 1.25"/>
   </g>
   <g id="line2d_25">
    <defs>
     <path id="m2e37313e1e" d="M 10 0 
L -10 -0 
" style="stroke: #8b0000; stroke-width: 3"/>
    </defs>
    <g clip-path="url(#pb29590dc38)">
     <use xlink:href="#m2e37313e1e" x="106.175423" y="178.902581" style="fill: #8b0000; stroke: #8b0000; stroke-width: 3"/>
     <use xlink:href="#m2e37313e1e" x="201.471808" y="172.253792" style="fill: #8b0000; stroke: #8b0000; stroke-width: 3"/>
     <use xlink:href="#m2e37313e1e" x="296.768192" y="169.909138" style="fill: #8b0000; stroke: #8b0000; stroke-width: 3"/>
     <use xlink:href="#m2e37313e1e" x="392.064577" y="173.523526" style="fill: #8b0000; stroke: #8b0000; stroke-width: 3"/>
    </g>
   </g>
   <g id="line2d_26">
    <path d="M 106.175423 180.759314 
L 106.175423 177.04532 
" clip-path="url(#pb29590dc38)" style="fill: none; stroke: #8b0000; stroke-width: 2.7; stroke-linecap: round"/>
   </g>
   <g id="line2d_27">
    <path d="M 201.471808 175.213812 
L 201.471808 169.164278 
" clip-path="url(#pb29590dc38)" style="fill: none; stroke: #8b0000; stroke-width: 2.7; stroke-linecap: round"/>
   </g>
   <g id="line2d_28">
    <path d="M 296.768192 172.500512 
L 296.768192 167.037267 
" clip-path="url(#pb29590dc38)" style="fill: none; stroke: #8b0000; stroke-width: 2.7; stroke-linecap: round"/>
   </g>
   <g id="line2d_29">
    <path d="M 392.064577 176.993187 
L 392.064577 170.012098 
" clip-path="url(#pb29590dc38)" style="fill: none; stroke: #8b0000; stroke-width: 2.7; stroke-linecap: round"/>
   </g>
   <g id="patch_5">
    <path d="M 58.527231 323.091633 
L 58.527231 28.196733 
" style="fill: none; stroke: #cccccc; stroke-width: 1.25; stroke-linejoin: miter; stroke-linecap: square"/>
   </g>
   <g id="patch_6">
    <path d="M 439.712769 323.091633 
L 439.712769 28.196733 
" style="fill: none; stroke: #cccccc; stroke-width: 1.25; stroke-linejoin: miter; stroke-linecap: square"/>
   </g>
   <g id="patch_7">
    <path d="M 58.527231 323.091633 
L 439.712769 323.091633 
" style="fill: none; stroke: #cccccc; stroke-width: 1.25; stroke-linejoin: miter; stroke-linecap: square"/>
   </g>
   <g id="patch_8">
    <path d="M 58.527231 28.196733 
L 439.712769 28.196733 
" style="fill: none; stroke: #cccccc; stroke-width: 1.25; stroke-linejoin: miter; stroke-linecap: square"/>
   </g>
   <g id="text_12">
    <!-- Driving Quality Degradations -->
    <g style="fill: #262626" transform="translate(161.914688 22.196733) scale(0.12 -0.12)">
     <defs>
      <path id="DejaVuSans-76" d="M 191 3500 
L 800 3500 
L 1894 563 
L 2988 3500 
L 3597 3500 
L 2284 0 
L 1503 0 
L 191 3500 
z
" transform="scale(0.015625)"/>
      <path id="DejaVuSans-75" d="M 544 1381 
L 544 3500 
L 1119 3500 
L 1119 1403 
Q 1119 906 1312 657 
Q 1506 409 1894 409 
Q 2359 409 2629 706 
Q 2900 1003 2900 1516 
L 2900 3500 
L 3475 3500 
L 3475 0 
L 2900 0 
L 2900 538 
Q 2691 219 2414 64 
Q 2138 -91 1772 -91 
Q 1169 -91 856 284 
Q 544 659 544 1381 
z
M 1991 3584 
L 1991 3584 
z
" transform="scale(0.015625)"/>
      <path id="DejaVuSans-6c" d="M 603 4863 
L 1178 4863 
L 1178 0 
L 603 0 
L 603 4863 
z
" transform="scale(0.015625)"/>
      <path id="DejaVuSans-74" d="M 1172 4494 
L 1172 3500 
L 2356 3500 
L 2356 3053 
L 1172 3053 
L 1172 1153 
Q 1172 725 1289 603 
Q 1406 481 1766 481 
L 2356 481 
L 2356 0 
L 1766 0 
Q 1100 0 847 248 
Q 594 497 594 1153 
L 594 3053 
L 172 3053 
L 172 3500 
L 594 3500 
L 594 4494 
L 1172 4494 
z
" transform="scale(0.015625)"/>
      <path id="DejaVuSans-79" d="M 2059 -325 
Q 1816 -950 1584 -1140 
Q 1353 -1331 966 -1331 
L 506 -1331 
L 506 -850 
L 844 -850 
Q 1081 -850 1212 -737 
Q 1344 -625 1503 -206 
L 1606 56 
L 191 3500 
L 800 3500 
L 1894 763 
L 2988 3500 
L 3597 3500 
L 2059 -325 
z
" transform="scale(0.015625)"/>
     </defs>
     <use xlink:href="#DejaVuSans-44"/>
     <use xlink:href="#DejaVuSans-72" x="77.001953"/>
     <use xlink:href="#DejaVuSans-69" x="118.115234"/>
     <use xlink:href="#DejaVuSans-76" x="145.898438"/>
     <use xlink:href="#DejaVuSans-69" x="205.078125"/>
     <use xlink:href="#DejaVuSans-6e" x="232.861328"/>
     <use xlink:href="#DejaVuSans-67" x="296.240234"/>
     <use xlink:href="#DejaVuSans-20" x="359.716797"/>
     <use xlink:href="#DejaVuSans-51" x="391.503906"/>
     <use xlink:href="#DejaVuSans-75" x="470.214844"/>
     <use xlink:href="#DejaVuSans-61" x="533.59375"/>
     <use xlink:href="#DejaVuSans-6c" x="594.873047"/>
     <use xlink:href="#DejaVuSans-69" x="622.65625"/>
     <use xlink:href="#DejaVuSans-74" x="650.439453"/>
     <use xlink:href="#DejaVuSans-79" x="689.648438"/>
     <use xlink:href="#DejaVuSans-20" x="748.828125"/>
     <use xlink:href="#DejaVuSans-44" x="780.615234"/>
     <use xlink:href="#DejaVuSans-65" x="857.617188"/>
     <use xlink:href="#DejaVuSans-67" x="919.140625"/>
     <use xlink:href="#DejaVuSans-72" x="982.617188"/>
     <use xlink:href="#DejaVuSans-61" x="1023.730469"/>
     <use xlink:href="#DejaVuSans-64" x="1085.009766"/>
     <use xlink:href="#DejaVuSans-61" x="1148.486328"/>
     <use xlink:href="#DejaVuSans-74" x="1209.765625"/>
     <use xlink:href="#DejaVuSans-69" x="1248.974609"/>
     <use xlink:href="#DejaVuSans-6f" x="1276.757812"/>
     <use xlink:href="#DejaVuSans-6e" x="1337.939453"/>
     <use xlink:href="#DejaVuSans-73" x="1401.318359"/>
    </g>
   </g>
   <g id="legend_1">
    <g id="patch_9">
     <path d="M 66.227231 53.142671 
L 122.777543 53.142671 
Q 124.977543 53.142671 124.977543 50.942671 
L 124.977543 35.896733 
Q 124.977543 33.696733 122.777543 33.696733 
L 66.227231 33.696733 
Q 64.027231 33.696733 64.027231 35.896733 
L 64.027231 50.942671 
Q 64.027231 53.142671 66.227231 53.142671 
z
" style="fill: #ffffff; opacity: 0.8; stroke: #cccccc; stroke-linejoin: miter"/>
    </g>
    <g id="patch_10">
     <path d="M 68.427231 46.455014 
L 90.427231 46.455014 
L 90.427231 38.755014 
L 68.427231 38.755014 
z
" style="fill: #d3c4f6; stroke: #858585; stroke-width: 1.25; stroke-linejoin: miter"/>
    </g>
    <g id="text_13">
     <!-- CTE -->
     <g style="fill: #262626" transform="translate(99.227231 46.455014) scale(0.11 -0.11)">
      <use xlink:href="#DejaVuSans-43"/>
      <use xlink:href="#DejaVuSans-54" x="69.824219"/>
      <use xlink:href="#DejaVuSans-45" x="130.908203"/>
     </g>
    </g>
   </g>
  </g>
  <g id="axes_2">
   <g id="matplotlib.axis_3">
    <g id="ytick_7">
     <g id="line2d_30">
      <path d="M 58.527231 287.198029 
L 439.712769 287.198029 
" clip-path="url(#pb29590dc38)" style="fill: none; stroke: #cccccc; stroke-linecap: round"/>
     </g>
     <g id="line2d_31">
      <defs>
       <path id="m68d59558b5" d="M 0 0 
L 6 0 
" style="stroke: #262626; stroke-width: 1.25"/>
      </defs>
      <g>
       <use xlink:href="#m68d59558b5" x="439.712769" y="287.198029" style="fill: #262626; stroke: #262626; stroke-width: 1.25"/>
      </g>
     </g>
     <g id="text_14">
      <!-- −0.2 -->
      <g style="fill: #262626" transform="translate(449.212769 291.37717) scale(0.11 -0.11)">
       <defs>
        <path id="DejaVuSans-32" d="M 1228 531 
L 3431 531 
L 3431 0 
L 469 0 
L 469 531 
Q 828 903 1448 1529 
Q 2069 2156 2228 2338 
Q 2531 2678 2651 2914 
Q 2772 3150 2772 3378 
Q 2772 3750 2511 3984 
Q 2250 4219 1831 4219 
Q 1534 4219 1204 4116 
Q 875 4013 500 3803 
L 500 4441 
Q 881 4594 1212 4672 
Q 1544 4750 1819 4750 
Q 2544 4750 2975 4387 
Q 3406 4025 3406 3419 
Q 3406 3131 3298 2873 
Q 3191 2616 2906 2266 
Q 2828 2175 2409 1742 
Q 1991 1309 1228 531 
z
" transform="scale(0.015625)"/>
       </defs>
       <use xlink:href="#DejaVuSans-2212"/>
       <use xlink:href="#DejaVuSans-30" x="83.789062"/>
       <use xlink:href="#DejaVuSans-2e" x="147.412109"/>
       <use xlink:href="#DejaVuSans-32" x="179.199219"/>
      </g>
     </g>
    </g>
    <g id="ytick_8">
     <g id="line2d_32">
      <path d="M 58.527231 240.856939 
L 439.712769 240.856939 
" clip-path="url(#pb29590dc38)" style="fill: none; stroke: #cccccc; stroke-linecap: round"/>
     </g>
     <g id="line2d_33">
      <g>
       <use xlink:href="#m68d59558b5" x="439.712769" y="240.856939" style="fill: #262626; stroke: #262626; stroke-width: 1.25"/>
      </g>
     </g>
     <g id="text_15">
      <!-- 0.0 -->
      <g style="fill: #262626" transform="translate(449.212769 245.03608) scale(0.11 -0.11)">
       <use xlink:href="#DejaVuSans-30"/>
       <use xlink:href="#DejaVuSans-2e" x="63.623047"/>
       <use xlink:href="#DejaVuSans-30" x="95.410156"/>
      </g>
     </g>
    </g>
    <g id="ytick_9">
     <g id="line2d_34">
      <path d="M 58.527231 194.51585 
L 439.712769 194.51585 
" clip-path="url(#pb29590dc38)" style="fill: none; stroke: #cccccc; stroke-linecap: round"/>
     </g>
     <g id="line2d_35">
      <g>
       <use xlink:href="#m68d59558b5" x="439.712769" y="194.51585" style="fill: #262626; stroke: #262626; stroke-width: 1.25"/>
      </g>
     </g>
     <g id="text_16">
      <!-- 0.2 -->
      <g style="fill: #262626" transform="translate(449.212769 198.69499) scale(0.11 -0.11)">
       <use xlink:href="#DejaVuSans-30"/>
       <use xlink:href="#DejaVuSans-2e" x="63.623047"/>
       <use xlink:href="#DejaVuSans-32" x="95.410156"/>
      </g>
     </g>
    </g>
    <g id="ytick_10">
     <g id="line2d_36">
      <path d="M 58.527231 148.17476 
L 439.712769 148.17476 
" clip-path="url(#pb29590dc38)" style="fill: none; stroke: #cccccc; stroke-linecap: round"/>
     </g>
     <g id="line2d_37">
      <g>
       <use xlink:href="#m68d59558b5" x="439.712769" y="148.17476" style="fill: #262626; stroke: #262626; stroke-width: 1.25"/>
      </g>
     </g>
     <g id="text_17">
      <!-- 0.4 -->
      <g style="fill: #262626" transform="translate(449.212769 152.353901) scale(0.11 -0.11)">
       <defs>
        <path id="DejaVuSans-34" d="M 2419 4116 
L 825 1625 
L 2419 1625 
L 2419 4116 
z
M 2253 4666 
L 3047 4666 
L 3047 1625 
L 3713 1625 
L 3713 1100 
L 3047 1100 
L 3047 0 
L 2419 0 
L 2419 1100 
L 313 1100 
L 313 1709 
L 2253 4666 
z
" transform="scale(0.015625)"/>
       </defs>
       <use xlink:href="#DejaVuSans-30"/>
       <use xlink:href="#DejaVuSans-2e" x="63.623047"/>
       <use xlink:href="#DejaVuSans-34" x="95.410156"/>
      </g>
     </g>
    </g>
    <g id="ytick_11">
     <g id="line2d_38">
      <path d="M 58.527231 101.833671 
L 439.712769 101.833671 
" clip-path="url(#pb29590dc38)" style="fill: none; stroke: #cccccc; stroke-linecap: round"/>
     </g>
     <g id="line2d_39">
      <g>
       <use xlink:href="#m68d59558b5" x="439.712769" y="101.833671" style="fill: #262626; stroke: #262626; stroke-width: 1.25"/>
      </g>
     </g>
     <g id="text_18">
      <!-- 0.6 -->
      <g style="fill: #262626" transform="translate(449.212769 106.012811) scale(0.11 -0.11)">
       <defs>
        <path id="DejaVuSans-36" d="M 2113 2584 
Q 1688 2584 1439 2293 
Q 1191 2003 1191 1497 
Q 1191 994 1439 701 
Q 1688 409 2113 409 
Q 2538 409 2786 701 
Q 3034 994 3034 1497 
Q 3034 2003 2786 2293 
Q 2538 2584 2113 2584 
z
M 3366 4563 
L 3366 3988 
Q 3128 4100 2886 4159 
Q 2644 4219 2406 4219 
Q 1781 4219 1451 3797 
Q 1122 3375 1075 2522 
Q 1259 2794 1537 2939 
Q 1816 3084 2150 3084 
Q 2853 3084 3261 2657 
Q 3669 2231 3669 1497 
Q 3669 778 3244 343 
Q 2819 -91 2113 -91 
Q 1303 -91 875 529 
Q 447 1150 447 2328 
Q 447 3434 972 4092 
Q 1497 4750 2381 4750 
Q 2619 4750 2861 4703 
Q 3103 4656 3366 4563 
z
" transform="scale(0.015625)"/>
       </defs>
       <use xlink:href="#DejaVuSans-30"/>
       <use xlink:href="#DejaVuSans-2e" x="63.623047"/>
       <use xlink:href="#DejaVuSans-36" x="95.410156"/>
      </g>
     </g>
    </g>
    <g id="ytick_12">
     <g id="line2d_40">
      <path d="M 58.527231 55.492581 
L 439.712769 55.492581 
" clip-path="url(#pb29590dc38)" style="fill: none; stroke: #cccccc; stroke-linecap: round"/>
     </g>
     <g id="line2d_41">
      <g>
       <use xlink:href="#m68d59558b5" x="439.712769" y="55.492581" style="fill: #262626; stroke: #262626; stroke-width: 1.25"/>
      </g>
     </g>
     <g id="text_19">
      <!-- 0.8 -->
      <g style="fill: #262626" transform="translate(449.212769 59.671722) scale(0.11 -0.11)">
       <defs>
        <path id="DejaVuSans-38" d="M 2034 2216 
Q 1584 2216 1326 1975 
Q 1069 1734 1069 1313 
Q 1069 891 1326 650 
Q 1584 409 2034 409 
Q 2484 409 2743 651 
Q 3003 894 3003 1313 
Q 3003 1734 2745 1975 
Q 2488 2216 2034 2216 
z
M 1403 2484 
Q 997 2584 770 2862 
Q 544 3141 544 3541 
Q 544 4100 942 4425 
Q 1341 4750 2034 4750 
Q 2731 4750 3128 4425 
Q 3525 4100 3525 3541 
Q 3525 3141 3298 2862 
Q 3072 2584 2669 2484 
Q 3125 2378 3379 2068 
Q 3634 1759 3634 1313 
Q 3634 634 3220 271 
Q 2806 -91 2034 -91 
Q 1263 -91 848 271 
Q 434 634 434 1313 
Q 434 1759 690 2068 
Q 947 2378 1403 2484 
z
M 1172 3481 
Q 1172 3119 1398 2916 
Q 1625 2713 2034 2713 
Q 2441 2713 2670 2916 
Q 2900 3119 2900 3481 
Q 2900 3844 2670 4047 
Q 2441 4250 2034 4250 
Q 1625 4250 1398 4047 
Q 1172 3844 1172 3481 
z
" transform="scale(0.015625)"/>
       </defs>
       <use xlink:href="#DejaVuSans-30"/>
       <use xlink:href="#DejaVuSans-2e" x="63.623047"/>
       <use xlink:href="#DejaVuSans-38" x="95.410156"/>
      </g>
     </g>
    </g>
    <g id="text_20">
     <!-- DQD of Steering Angles -->
     <g style="fill: #262626" transform="translate(489.041988 246.601683) rotate(-90) scale(0.12 -0.12)">
      <use xlink:href="#DejaVuSans-44"/>
      <use xlink:href="#DejaVuSans-51" x="77.001953"/>
      <use xlink:href="#DejaVuSans-44" x="155.712891"/>
      <use xlink:href="#DejaVuSans-20" x="232.714844"/>
      <use xlink:href="#DejaVuSans-6f" x="264.501953"/>
      <use xlink:href="#DejaVuSans-66" x="325.683594"/>
      <use xlink:href="#DejaVuSans-20" x="360.888672"/>
      <use xlink:href="#DejaVuSans-53" x="392.675781"/>
      <use xlink:href="#DejaVuSans-74" x="456.152344"/>
      <use xlink:href="#DejaVuSans-65" x="495.361328"/>
      <use xlink:href="#DejaVuSans-65" x="556.884766"/>
      <use xlink:href="#DejaVuSans-72" x="618.408203"/>
      <use xlink:href="#DejaVuSans-69" x="659.521484"/>
      <use xlink:href="#DejaVuSans-6e" x="687.304688"/>
      <use xlink:href="#DejaVuSans-67" x="750.683594"/>
      <use xlink:href="#DejaVuSans-20" x="814.160156"/>
      <use xlink:href="#DejaVuSans-41" x="845.947266"/>
      <use xlink:href="#DejaVuSans-6e" x="914.355469"/>
      <use xlink:href="#DejaVuSans-67" x="977.734375"/>
      <use xlink:href="#DejaVuSans-6c" x="1041.210938"/>
      <use xlink:href="#DejaVuSans-65" x="1068.994141"/>
      <use xlink:href="#DejaVuSans-73" x="1130.517578"/>
     </g>
    </g>
   </g>
   <g id="PolyCollection_5">
    <defs>
     <path id="m22d0ddf835" d="M 144.293977 -75.512681 
L 144.269502 -75.512681 
L 144.240651 -77.969736 
L 144.197989 -80.426792 
L 144.151181 -82.883848 
L 144.11814 -85.340904 
L 144.113565 -87.79796 
L 144.135396 -90.255015 
L 144.161292 -92.712071 
L 144.156967 -95.169127 
L 144.086492 -97.626183 
L 143.916067 -100.083239 
L 143.612604 -102.540294 
L 143.145413 -104.99735 
L 142.499182 -107.454406 
L 141.696117 -109.911462 
L 140.80453 -112.368517 
L 139.900839 -114.825573 
L 138.981923 -117.282629 
L 137.886336 -119.739685 
L 136.306037 -122.196741 
L 133.891875 -124.653796 
L 130.332748 -127.110852 
L 125.285529 -129.567908 
L 118.235885 -132.024964 
L 108.618672 -134.48202 
L 96.47713 -136.939075 
L 83.383687 -139.396131 
L 72.657514 -141.853187 
L 68.056869 -144.310243 
L 71.508418 -146.767298 
L 81.741599 -149.224354 
L 95.114374 -151.68141 
L 107.856732 -154.138466 
L 117.815576 -156.595522 
L 124.668752 -159.052577 
L 129.096492 -161.509633 
L 131.928714 -163.966689 
L 133.782377 -166.423745 
L 135.071077 -168.880801 
L 136.089022 -171.337856 
L 137.041926 -173.794912 
L 138.053042 -176.251968 
L 139.16976 -178.709024 
L 140.361825 -181.16608 
L 141.527155 -183.623135 
L 142.535057 -186.080191 
L 143.291643 -188.537247 
L 143.777569 -190.994303 
L 144.036223 -193.451358 
L 144.137155 -195.908414 
L 144.148299 -198.36547 
L 144.125991 -200.822526 
L 144.111355 -203.279582 
L 144.124715 -205.736637 
L 144.16343 -208.193693 
L 144.210492 -210.650749 
L 144.249059 -213.107805 
L 144.271055 -215.564861 
L 144.275443 -218.021916 
L 144.262443 -220.478972 
L 144.23184 -222.936028 
L 144.187409 -225.393084 
L 144.141763 -227.85014 
L 144.112977 -230.307195 
L 144.111413 -232.764251 
L 144.127156 -235.221307 
L 144.131122 -237.678363 
L 144.092066 -240.135418 
L 143.999687 -242.592474 
L 143.879337 -245.04953 
L 143.784692 -247.506586 
L 143.76606 -249.963642 
L 143.834748 -252.420697 
L 143.954032 -254.877753 
L 144.06392 -257.334809 
L 144.115428 -259.791865 
L 144.089709 -262.248921 
L 144.000458 -264.705976 
L 143.887559 -267.163032 
L 143.801279 -269.620088 
L 143.776545 -272.077144 
L 143.811675 -274.5342 
L 143.869913 -276.991255 
L 143.903669 -279.448311 
L 143.881989 -281.905367 
L 143.803765 -284.362423 
L 143.695625 -286.819478 
L 143.601297 -289.276534 
L 143.564275 -291.73359 
L 143.605878 -294.190646 
L 143.711466 -296.647702 
L 143.838804 -299.104757 
L 143.945355 -301.561813 
L 144.013797 -304.018869 
L 144.056101 -306.475925 
L 144.095299 -308.932981 
L 144.143554 -311.390036 
L 144.195855 -313.847092 
L 144.240152 -316.304148 
L 144.269405 -318.761204 
L 144.293977 -318.761204 
L 144.293977 -318.761204 
L 144.293977 -316.304148 
L 144.293977 -313.847092 
L 144.293977 -311.390036 
L 144.293977 -308.932981 
L 144.293977 -306.475925 
L 144.293977 -304.018869 
L 144.293977 -301.561813 
L 144.293977 -299.104757 
L 144.293977 -296.647702 
L 144.293977 -294.190646 
L 144.293977 -291.73359 
L 144.293977 -289.276534 
L 144.293977 -286.819478 
L 144.293977 -284.362423 
L 144.293977 -281.905367 
L 144.293977 -279.448311 
L 144.293977 -276.991255 
L 144.293977 -274.5342 
L 144.293977 -272.077144 
L 144.293977 -269.620088 
L 144.293977 -267.163032 
L 144.293977 -264.705976 
L 144.293977 -262.248921 
L 144.293977 -259.791865 
L 144.293977 -257.334809 
L 144.293977 -254.877753 
L 144.293977 -252.420697 
L 144.293977 -249.963642 
L 144.293977 -247.506586 
L 144.293977 -245.04953 
L 144.293977 -242.592474 
L 144.293977 -240.135418 
L 144.293977 -237.678363 
L 144.293977 -235.221307 
L 144.293977 -232.764251 
L 144.293977 -230.307195 
L 144.293977 -227.85014 
L 144.293977 -225.393084 
L 144.293977 -222.936028 
L 144.293977 -220.478972 
L 144.293977 -218.021916 
L 144.293977 -215.564861 
L 144.293977 -213.107805 
L 144.293977 -210.650749 
L 144.293977 -208.193693 
L 144.293977 -205.736637 
L 144.293977 -203.279582 
L 144.293977 -200.822526 
L 144.293977 -198.36547 
L 144.293977 -195.908414 
L 144.293977 -193.451358 
L 144.293977 -190.994303 
L 144.293977 -188.537247 
L 144.293977 -186.080191 
L 144.293977 -183.623135 
L 144.293977 -181.16608 
L 144.293977 -178.709024 
L 144.293977 -176.251968 
L 144.293977 -173.794912 
L 144.293977 -171.337856 
L 144.293977 -168.880801 
L 144.293977 -166.423745 
L 144.293977 -163.966689 
L 144.293977 -161.509633 
L 144.293977 -159.052577 
L 144.293977 -156.595522 
L 144.293977 -154.138466 
L 144.293977 -151.68141 
L 144.293977 -149.224354 
L 144.293977 -146.767298 
L 144.293977 -144.310243 
L 144.293977 -141.853187 
L 144.293977 -139.396131 
L 144.293977 -136.939075 
L 144.293977 -134.48202 
L 144.293977 -132.024964 
L 144.293977 -129.567908 
L 144.293977 -127.110852 
L 144.293977 -124.653796 
L 144.293977 -122.196741 
L 144.293977 -119.739685 
L 144.293977 -117.282629 
L 144.293977 -114.825573 
L 144.293977 -112.368517 
L 144.293977 -109.911462 
L 144.293977 -107.454406 
L 144.293977 -104.99735 
L 144.293977 -102.540294 
L 144.293977 -100.083239 
L 144.293977 -97.626183 
L 144.293977 -95.169127 
L 144.293977 -92.712071 
L 144.293977 -90.255015 
L 144.293977 -87.79796 
L 144.293977 -85.340904 
L 144.293977 -82.883848 
L 144.293977 -80.426792 
L 144.293977 -77.969736 
L 144.293977 -75.512681 
z
" style="stroke: #6f6f6f; stroke-width: 1.25"/>
    </defs>
    <g clip-path="url(#pb29590dc38)">
     <use xlink:href="#m22d0ddf835" x="0" y="385.2" style="fill: #98daa7; stroke: #6f6f6f; stroke-width: 1.25"/>
    </g>
   </g>
   <g id="PolyCollection_6">
    <defs>
     <path id="m1d0e7ae389" d="M 239.590362 -81.250396 
L 239.559578 -81.250396 
L 239.532909 -83.900382 
L 239.492473 -86.550367 
L 239.436416 -89.200352 
L 239.363053 -91.850338 
L 239.26778 -94.500323 
L 239.138803 -97.150309 
L 238.954563 -99.800294 
L 238.685842 -102.45028 
L 238.302758 -105.100265 
L 237.782506 -107.75025 
L 237.110948 -110.400236 
L 236.272258 -113.050221 
L 235.225689 -115.700207 
L 233.874934 -118.350192 
L 232.041525 -121.000178 
L 229.459218 -123.650163 
L 225.810703 -126.300148 
L 220.825835 -128.950134 
L 214.440282 -131.600119 
L 206.969119 -134.250105 
L 199.199685 -136.90009 
L 192.29903 -139.550076 
L 187.504296 -142.200061 
L 185.699936 -144.850046 
L 187.089775 -147.500032 
L 191.145777 -150.150017 
L 196.856486 -152.800003 
L 203.121786 -155.449988 
L 209.080823 -158.099973 
L 214.246819 -160.749959 
L 218.464866 -163.399944 
L 221.792663 -166.04993 
L 224.3926 -168.699915 
L 226.464359 -171.349901 
L 228.204059 -173.999886 
L 229.772097 -176.649871 
L 231.268277 -179.299857 
L 232.723088 -181.949842 
L 234.109777 -184.599828 
L 235.371306 -187.249813 
L 236.450372 -189.899799 
L 237.31217 -192.549784 
L 237.954858 -195.199769 
L 238.407338 -197.849755 
L 238.717317 -200.49974 
L 238.935147 -203.149726 
L 239.100172 -205.799711 
L 239.234667 -208.449697 
L 239.346132 -211.099682 
L 239.434341 -213.749667 
L 239.498103 -216.399653 
L 239.5385 -219.049638 
L 239.558461 -221.699624 
L 239.560561 -224.349609 
L 239.545186 -226.999595 
L 239.510367 -229.64958 
L 239.453533 -232.299565 
L 239.374368 -234.949551 
L 239.277104 -237.599536 
L 239.17048 -240.249522 
L 239.064761 -242.899507 
L 238.967371 -245.549492 
L 238.880107 -248.199478 
L 238.800005 -250.849463 
L 238.723063 -253.499449 
L 238.647822 -256.149434 
L 238.576267 -258.79942 
L 238.512257 -261.449405 
L 238.459696 -264.09939 
L 238.422173 -266.749376 
L 238.403688 -269.399361 
L 238.408871 -272.049347 
L 238.441821 -274.699332 
L 238.504091 -277.349318 
L 238.592978 -279.999303 
L 238.70102 -282.649288 
L 238.817127 -285.299274 
L 238.929247 -287.949259 
L 239.027618 -290.599245 
L 239.106965 -293.24923 
L 239.166593 -295.899216 
L 239.208886 -298.549201 
L 239.237855 -301.199186 
L 239.258552 -303.849172 
L 239.276516 -306.499157 
L 239.296076 -309.149143 
L 239.317995 -311.799128 
L 239.338634 -314.449113 
L 239.352283 -317.099099 
L 239.355695 -319.749084 
L 239.351574 -322.39907 
L 239.348174 -325.049055 
L 239.354996 -327.699041 
L 239.377482 -330.349026 
L 239.41424 -332.999011 
L 239.458293 -335.648997 
L 239.501009 -338.298982 
L 239.535942 -340.948968 
L 239.560557 -343.598953 
L 239.590362 -343.598953 
L 239.590362 -343.598953 
L 239.590362 -340.948968 
L 239.590362 -338.298982 
L 239.590362 -335.648997 
L 239.590362 -332.999011 
L 239.590362 -330.349026 
L 239.590362 -327.699041 
L 239.590362 -325.049055 
L 239.590362 -322.39907 
L 239.590362 -319.749084 
L 239.590362 -317.099099 
L 239.590362 -314.449113 
L 239.590362 -311.799128 
L 239.590362 -309.149143 
L 239.590362 -306.499157 
L 239.590362 -303.849172 
L 239.590362 -301.199186 
L 239.590362 -298.549201 
L 239.590362 -295.899216 
L 239.590362 -293.24923 
L 239.590362 -290.599245 
L 239.590362 -287.949259 
L 239.590362 -285.299274 
L 239.590362 -282.649288 
L 239.590362 -279.999303 
L 239.590362 -277.349318 
L 239.590362 -274.699332 
L 239.590362 -272.049347 
L 239.590362 -269.399361 
L 239.590362 -266.749376 
L 239.590362 -264.09939 
L 239.590362 -261.449405 
L 239.590362 -258.79942 
L 239.590362 -256.149434 
L 239.590362 -253.499449 
L 239.590362 -250.849463 
L 239.590362 -248.199478 
L 239.590362 -245.549492 
L 239.590362 -242.899507 
L 239.590362 -240.249522 
L 239.590362 -237.599536 
L 239.590362 -234.949551 
L 239.590362 -232.299565 
L 239.590362 -229.64958 
L 239.590362 -226.999595 
L 239.590362 -224.349609 
L 239.590362 -221.699624 
L 239.590362 -219.049638 
L 239.590362 -216.399653 
L 239.590362 -213.749667 
L 239.590362 -211.099682 
L 239.590362 -208.449697 
L 239.590362 -205.799711 
L 239.590362 -203.149726 
L 239.590362 -200.49974 
L 239.590362 -197.849755 
L 239.590362 -195.199769 
L 239.590362 -192.549784 
L 239.590362 -189.899799 
L 239.590362 -187.249813 
L 239.590362 -184.599828 
L 239.590362 -181.949842 
L 239.590362 -179.299857 
L 239.590362 -176.649871 
L 239.590362 -173.999886 
L 239.590362 -171.349901 
L 239.590362 -168.699915 
L 239.590362 -166.04993 
L 239.590362 -163.399944 
L 239.590362 -160.749959 
L 239.590362 -158.099973 
L 239.590362 -155.449988 
L 239.590362 -152.800003 
L 239.590362 -150.150017 
L 239.590362 -147.500032 
L 239.590362 -144.850046 
L 239.590362 -142.200061 
L 239.590362 -139.550076 
L 239.590362 -136.90009 
L 239.590362 -134.250105 
L 239.590362 -131.600119 
L 239.590362 -128.950134 
L 239.590362 -126.300148 
L 239.590362 -123.650163 
L 239.590362 -121.000178 
L 239.590362 -118.350192 
L 239.590362 -115.700207 
L 239.590362 -113.050221 
L 239.590362 -110.400236 
L 239.590362 -107.75025 
L 239.590362 -105.100265 
L 239.590362 -102.45028 
L 239.590362 -99.800294 
L 239.590362 -97.150309 
L 239.590362 -94.500323 
L 239.590362 -91.850338 
L 239.590362 -89.200352 
L 239.590362 -86.550367 
L 239.590362 -83.900382 
L 239.590362 -81.250396 
z
" style="stroke: #6f6f6f; stroke-width: 1.25"/>
    </defs>
    <g clip-path="url(#pb29590dc38)">
     <use xlink:href="#m1d0e7ae389" x="0" y="385.2" style="fill: #98daa7; stroke: #6f6f6f; stroke-width: 1.25"/>
    </g>
   </g>
   <g id="PolyCollection_7">
    <defs>
     <path id="m8cb5b73daa" d="M 334.886746 -83.58959 
L 334.852639 -83.58959 
L 334.822335 -86.108338 
L 334.776658 -88.627085 
L 334.715497 -91.145832 
L 334.642199 -93.66458 
L 334.561912 -96.183327 
L 334.477416 -98.702075 
L 334.383904 -101.220822 
L 334.265085 -103.73957 
L 334.092501 -106.258317 
L 333.828109 -108.777064 
L 333.427648 -111.295812 
L 332.840127 -113.814559 
L 331.998693 -116.333307 
L 330.802134 -118.852054 
L 329.093752 -121.370801 
L 326.651644 -123.889549 
L 323.207922 -126.408296 
L 318.512364 -128.927044 
L 312.446139 -131.445791 
L 305.167344 -133.964539 
L 297.231443 -136.483286 
L 289.597854 -139.002033 
L 283.451405 -141.520781 
L 279.857264 -144.039528 
L 279.387892 -146.558276 
L 281.915032 -149.077023 
L 286.684704 -151.595771 
L 292.630366 -154.114518 
L 298.749948 -156.633265 
L 304.366219 -159.152013 
L 309.190389 -161.67076 
L 313.225763 -164.189508 
L 316.607938 -166.708255 
L 319.470933 -169.227002 
L 321.886213 -171.74575 
L 323.874814 -174.264497 
L 325.45857 -176.783245 
L 326.704269 -179.301992 
L 327.728282 -181.82074 
L 328.660272 -184.339487 
L 329.592661 -186.858234 
L 330.549365 -189.376982 
L 331.490978 -191.895729 
L 332.348608 -194.414477 
L 333.063151 -196.933224 
L 333.608839 -199.451971 
L 333.994265 -201.970719 
L 334.248481 -204.489466 
L 334.405309 -207.008214 
L 334.494614 -209.526961 
L 334.540896 -212.045709 
L 334.564212 -214.564456 
L 334.579274 -217.083203 
L 334.593019 -219.601951 
L 334.60401 -222.120698 
L 334.605781 -224.639446 
L 334.592392 -227.158193 
L 334.562074 -229.67694 
L 334.516512 -232.195688 
L 334.457405 -234.714435 
L 334.384505 -237.233183 
L 334.297872 -239.75193 
L 334.202858 -242.270678 
L 334.113303 -244.789425 
L 334.049224 -247.308172 
L 334.029207 -249.82692 
L 334.061526 -252.345667 
L 334.139073 -254.864415 
L 334.240998 -257.383162 
L 334.340351 -259.90191 
L 334.413849 -262.420657 
L 334.44893 -264.939404 
L 334.44487 -267.458152 
L 334.408277 -269.976899 
L 334.346595 -272.495647 
L 334.26428 -275.014394 
L 334.16427 -277.533141 
L 334.0535 -280.051889 
L 333.948018 -282.570636 
L 333.872784 -285.089384 
L 333.854211 -287.608131 
L 333.908482 -290.126879 
L 334.032382 -292.645626 
L 334.202632 -295.164373 
L 334.384424 -297.683121 
L 334.54411 -300.201868 
L 334.659194 -302.720616 
L 334.721912 -305.239363 
L 334.737364 -307.75811 
L 334.719412 -310.276858 
L 334.686483 -312.795605 
L 334.657323 -315.314353 
L 334.646391 -317.8331 
L 334.659939 -320.351848 
L 334.694875 -322.870595 
L 334.741436 -325.389342 
L 334.788271 -327.90809 
L 334.827036 -330.426837 
L 334.854354 -332.945585 
L 334.886746 -332.945585 
L 334.886746 -332.945585 
L 334.886746 -330.426837 
L 334.886746 -327.90809 
L 334.886746 -325.389342 
L 334.886746 -322.870595 
L 334.886746 -320.351848 
L 334.886746 -317.8331 
L 334.886746 -315.314353 
L 334.886746 -312.795605 
L 334.886746 -310.276858 
L 334.886746 -307.75811 
L 334.886746 -305.239363 
L 334.886746 -302.720616 
L 334.886746 -300.201868 
L 334.886746 -297.683121 
L 334.886746 -295.164373 
L 334.886746 -292.645626 
L 334.886746 -290.126879 
L 334.886746 -287.608131 
L 334.886746 -285.089384 
L 334.886746 -282.570636 
L 334.886746 -280.051889 
L 334.886746 -277.533141 
L 334.886746 -275.014394 
L 334.886746 -272.495647 
L 334.886746 -269.976899 
L 334.886746 -267.458152 
L 334.886746 -264.939404 
L 334.886746 -262.420657 
L 334.886746 -259.90191 
L 334.886746 -257.383162 
L 334.886746 -254.864415 
L 334.886746 -252.345667 
L 334.886746 -249.82692 
L 334.886746 -247.308172 
L 334.886746 -244.789425 
L 334.886746 -242.270678 
L 334.886746 -239.75193 
L 334.886746 -237.233183 
L 334.886746 -234.714435 
L 334.886746 -232.195688 
L 334.886746 -229.67694 
L 334.886746 -227.158193 
L 334.886746 -224.639446 
L 334.886746 -222.120698 
L 334.886746 -219.601951 
L 334.886746 -217.083203 
L 334.886746 -214.564456 
L 334.886746 -212.045709 
L 334.886746 -209.526961 
L 334.886746 -207.008214 
L 334.886746 -204.489466 
L 334.886746 -201.970719 
L 334.886746 -199.451971 
L 334.886746 -196.933224 
L 334.886746 -194.414477 
L 334.886746 -191.895729 
L 334.886746 -189.376982 
L 334.886746 -186.858234 
L 334.886746 -184.339487 
L 334.886746 -181.82074 
L 334.886746 -179.301992 
L 334.886746 -176.783245 
L 334.886746 -174.264497 
L 334.886746 -171.74575 
L 334.886746 -169.227002 
L 334.886746 -166.708255 
L 334.886746 -164.189508 
L 334.886746 -161.67076 
L 334.886746 -159.152013 
L 334.886746 -156.633265 
L 334.886746 -154.114518 
L 334.886746 -151.595771 
L 334.886746 -149.077023 
L 334.886746 -146.558276 
L 334.886746 -144.039528 
L 334.886746 -141.520781 
L 334.886746 -139.002033 
L 334.886746 -136.483286 
L 334.886746 -133.964539 
L 334.886746 -131.445791 
L 334.886746 -128.927044 
L 334.886746 -126.408296 
L 334.886746 -123.889549 
L 334.886746 -121.370801 
L 334.886746 -118.852054 
L 334.886746 -116.333307 
L 334.886746 -113.814559 
L 334.886746 -111.295812 
L 334.886746 -108.777064 
L 334.886746 -106.258317 
L 334.886746 -103.73957 
L 334.886746 -101.220822 
L 334.886746 -98.702075 
L 334.886746 -96.183327 
L 334.886746 -93.66458 
L 334.886746 -91.145832 
L 334.886746 -88.627085 
L 334.886746 -86.108338 
L 334.886746 -83.58959 
z
" style="stroke: #6f6f6f; stroke-width: 1.25"/>
    </defs>
    <g clip-path="url(#pb29590dc38)">
     <use xlink:href="#m8cb5b73daa" x="0" y="385.2" style="fill: #98daa7; stroke: #6f6f6f; stroke-width: 1.25"/>
    </g>
   </g>
   <g id="PolyCollection_8">
    <defs>
     <path id="m603fc4d907" d="M 430.183131 -84.57073 
L 430.100109 -84.57073 
L 430.035551 -87.151408 
L 429.931276 -89.732086 
L 429.770053 -92.312763 
L 429.53116 -94.893441 
L 429.191363 -97.474119 
L 428.726317 -100.054796 
L 428.111908 -102.635474 
L 427.324791 -105.216152 
L 426.341394 -107.796829 
L 425.135128 -110.377507 
L 423.672433 -112.958185 
L 421.909515 -115.538862 
L 419.792664 -118.11954 
L 417.265328 -120.700217 
L 414.283971 -123.280895 
L 410.842 -125.861573 
L 406.997106 -128.44225 
L 402.893578 -131.022928 
L 398.769381 -133.603606 
L 394.939697 -136.184283 
L 391.754765 -138.764961 
L 389.538703 -141.345639 
L 388.524266 -143.926316 
L 388.802387 -146.506994 
L 390.302428 -149.087672 
L 392.809796 -151.668349 
L 396.015438 -154.249027 
L 399.581728 -156.829704 
L 403.205307 -159.410382 
L 406.660683 -161.99106 
L 409.816826 -164.571737 
L 412.628553 -167.152415 
L 415.111518 -169.733093 
L 417.312075 -172.31377 
L 419.281449 -174.894448 
L 421.059414 -177.475126 
L 422.668197 -180.055803 
L 424.114232 -182.636481 
L 425.394157 -185.217159 
L 426.501766 -187.797836 
L 427.433731 -190.378514 
L 428.193057 -192.959191 
L 428.790208 -195.539869 
L 429.242293 -198.120547 
L 429.571004 -200.701224 
L 429.800014 -203.281902 
L 429.952447 -205.86258 
L 430.048892 -208.443257 
L 430.10619 -211.023935 
L 430.137017 -213.604613 
L 430.150111 -216.18529 
L 430.150937 -218.765968 
L 430.142548 -221.346646 
L 430.126479 -223.927323 
L 430.103485 -226.508001 
L 430.074047 -229.088678 
L 430.038532 -231.669356 
L 429.997009 -234.250034 
L 429.948804 -236.830711 
L 429.891989 -239.411389 
L 429.823085 -241.992067 
L 429.737256 -244.572744 
L 429.629098 -247.153422 
L 429.493946 -249.7341 
L 429.3294 -252.314777 
L 429.136644 -254.895455 
L 428.921186 -257.476133 
L 428.692792 -260.05681 
L 428.46459 -262.637488 
L 428.251507 -265.218165 
L 428.068297 -267.798843 
L 427.9275 -270.379521 
L 427.837666 -272.960198 
L 427.802171 -275.540876 
L 427.818888 -278.121554 
L 427.88079 -280.702231 
L 427.977384 -283.282909 
L 428.096646 -285.863587 
L 428.227047 -288.444264 
L 428.359235 -291.024942 
L 428.487098 -293.60562 
L 428.608047 -296.186297 
L 428.722585 -298.766975 
L 428.83331 -301.347652 
L 428.943641 -303.92833 
L 429.056564 -306.509008 
L 429.173688 -309.089685 
L 429.294789 -311.670363 
L 429.417881 -314.251041 
L 429.539698 -316.831718 
L 429.656389 -319.412396 
L 429.764231 -321.993074 
L 429.860195 -324.573751 
L 429.942303 -327.154429 
L 430.009761 -329.735107 
L 430.062902 -332.315784 
L 430.102978 -334.896462 
L 430.131861 -337.477139 
L 430.151723 -340.057817 
L 430.183131 -340.057817 
L 430.183131 -340.057817 
L 430.183131 -337.477139 
L 430.183131 -334.896462 
L 430.183131 -332.315784 
L 430.183131 -329.735107 
L 430.183131 -327.154429 
L 430.183131 -324.573751 
L 430.183131 -321.993074 
L 430.183131 -319.412396 
L 430.183131 -316.831718 
L 430.183131 -314.251041 
L 430.183131 -311.670363 
L 430.183131 -309.089685 
L 430.183131 -306.509008 
L 430.183131 -303.92833 
L 430.183131 -301.347652 
L 430.183131 -298.766975 
L 430.183131 -296.186297 
L 430.183131 -293.60562 
L 430.183131 -291.024942 
L 430.183131 -288.444264 
L 430.183131 -285.863587 
L 430.183131 -283.282909 
L 430.183131 -280.702231 
L 430.183131 -278.121554 
L 430.183131 -275.540876 
L 430.183131 -272.960198 
L 430.183131 -270.379521 
L 430.183131 -267.798843 
L 430.183131 -265.218165 
L 430.183131 -262.637488 
L 430.183131 -260.05681 
L 430.183131 -257.476133 
L 430.183131 -254.895455 
L 430.183131 -252.314777 
L 430.183131 -249.7341 
L 430.183131 -247.153422 
L 430.183131 -244.572744 
L 430.183131 -241.992067 
L 430.183131 -239.411389 
L 430.183131 -236.830711 
L 430.183131 -234.250034 
L 430.183131 -231.669356 
L 430.183131 -229.088678 
L 430.183131 -226.508001 
L 430.183131 -223.927323 
L 430.183131 -221.346646 
L 430.183131 -218.765968 
L 430.183131 -216.18529 
L 430.183131 -213.604613 
L 430.183131 -211.023935 
L 430.183131 -208.443257 
L 430.183131 -205.86258 
L 430.183131 -203.281902 
L 430.183131 -200.701224 
L 430.183131 -198.120547 
L 430.183131 -195.539869 
L 430.183131 -192.959191 
L 430.183131 -190.378514 
L 430.183131 -187.797836 
L 430.183131 -185.217159 
L 430.183131 -182.636481 
L 430.183131 -180.055803 
L 430.183131 -177.475126 
L 430.183131 -174.894448 
L 430.183131 -172.31377 
L 430.183131 -169.733093 
L 430.183131 -167.152415 
L 430.183131 -164.571737 
L 430.183131 -161.99106 
L 430.183131 -159.410382 
L 430.183131 -156.829704 
L 430.183131 -154.249027 
L 430.183131 -151.668349 
L 430.183131 -149.087672 
L 430.183131 -146.506994 
L 430.183131 -143.926316 
L 430.183131 -141.345639 
L 430.183131 -138.764961 
L 430.183131 -136.184283 
L 430.183131 -133.603606 
L 430.183131 -131.022928 
L 430.183131 -128.44225 
L 430.183131 -125.861573 
L 430.183131 -123.280895 
L 430.183131 -120.700217 
L 430.183131 -118.11954 
L 430.183131 -115.538862 
L 430.183131 -112.958185 
L 430.183131 -110.377507 
L 430.183131 -107.796829 
L 430.183131 -105.216152 
L 430.183131 -102.635474 
L 430.183131 -100.054796 
L 430.183131 -97.474119 
L 430.183131 -94.893441 
L 430.183131 -92.312763 
L 430.183131 -89.732086 
L 430.183131 -87.151408 
L 430.183131 -84.57073 
z
" style="stroke: #6f6f6f; stroke-width: 1.25"/>
    </defs>
    <g clip-path="url(#pb29590dc38)">
     <use xlink:href="#m603fc4d907" x="0" y="385.2" style="fill: #98daa7; stroke: #6f6f6f; stroke-width: 1.25"/>
    </g>
   </g>
   <g id="line2d_42">
    <path d="M 77.954955 244.560304 
L 144.293977 244.560304 
" clip-path="url(#pb29590dc38)" style="fill: none; stroke-dasharray: 1.5625,0.9375; stroke-dashoffset: 0; stroke: #6f6f6f; stroke-width: 1.25"/>
   </g>
   <g id="line2d_43">
    <path d="M 68.505257 240.570563 
L 144.293977 240.570563 
" clip-path="url(#pb29590dc38)" style="fill: none; stroke-dasharray: 3.125,1.25; stroke-dashoffset: 0; stroke: #6f6f6f; stroke-width: 1.25"/>
   </g>
   <g id="line2d_44">
    <path d="M 84.044657 235.552492 
L 144.293977 235.552492 
" clip-path="url(#pb29590dc38)" style="fill: none; stroke-dasharray: 1.5625,0.9375; stroke-dashoffset: 0; stroke: #6f6f6f; stroke-width: 1.25"/>
   </g>
   <g id="line2d_45">
    <path d="M 188.521951 243.562383 
L 239.590362 243.562383 
" clip-path="url(#pb29590dc38)" style="fill: none; stroke-dasharray: 1.5625,0.9375; stroke-dashoffset: 0; stroke: #6f6f6f; stroke-width: 1.25"/>
   </g>
   <g id="line2d_46">
    <path d="M 186.03787 239.70562 
L 239.590362 239.70562 
" clip-path="url(#pb29590dc38)" style="fill: none; stroke-dasharray: 3.125,1.25; stroke-dashoffset: 0; stroke: #6f6f6f; stroke-width: 1.25"/>
   </g>
   <g id="line2d_47">
    <path d="M 206.901849 228.069017 
L 239.590362 228.069017 
" clip-path="url(#pb29590dc38)" style="fill: none; stroke-dasharray: 1.5625,0.9375; stroke-dashoffset: 0; stroke: #6f6f6f; stroke-width: 1.25"/>
   </g>
   <g id="line2d_48">
    <path d="M 282.282461 242.860032 
L 334.886746 242.860032 
" clip-path="url(#pb29590dc38)" style="fill: none; stroke-dasharray: 1.5625,0.9375; stroke-dashoffset: 0; stroke: #6f6f6f; stroke-width: 1.25"/>
   </g>
   <g id="line2d_49">
    <path d="M 279.957202 238.074304 
L 334.886746 238.074304 
" clip-path="url(#pb29590dc38)" style="fill: none; stroke-dasharray: 3.125,1.25; stroke-dashoffset: 0; stroke: #6f6f6f; stroke-width: 1.25"/>
   </g>
   <g id="line2d_50">
    <path d="M 301.490096 227.337852 
L 334.886746 227.337852 
" clip-path="url(#pb29590dc38)" style="fill: none; stroke-dasharray: 1.5625,0.9375; stroke-dashoffset: 0; stroke: #6f6f6f; stroke-width: 1.25"/>
   </g>
   <g id="line2d_51">
    <path d="M 390.521514 244.998877 
L 430.183131 244.998877 
" clip-path="url(#pb29590dc38)" style="fill: none; stroke-dasharray: 1.5625,0.9375; stroke-dashoffset: 0; stroke: #6f6f6f; stroke-width: 1.25"/>
   </g>
   <g id="line2d_52">
    <path d="M 388.701763 239.626694 
L 430.183131 239.626694 
" clip-path="url(#pb29590dc38)" style="fill: none; stroke-dasharray: 3.125,1.25; stroke-dashoffset: 0; stroke: #6f6f6f; stroke-width: 1.25"/>
   </g>
   <g id="line2d_53">
    <path d="M 400.762552 227.529324 
L 430.183131 227.529324 
" clip-path="url(#pb29590dc38)" style="fill: none; stroke-dasharray: 1.5625,0.9375; stroke-dashoffset: 0; stroke: #6f6f6f; stroke-width: 1.25"/>
   </g>
   <g id="line2d_54">
    <defs>
     <path id="m714acf8736" d="M 10 0 
L -10 -0 
" style="stroke: #232724; stroke-width: 3"/>
    </defs>
    <g clip-path="url(#pb29590dc38)">
     <use xlink:href="#m714acf8736" x="106.175423" y="237.547183" style="fill: #232724; stroke: #232724; stroke-width: 3"/>
     <use xlink:href="#m714acf8736" x="201.471808" y="232.47127" style="fill: #232724; stroke: #232724; stroke-width: 3"/>
     <use xlink:href="#m714acf8736" x="296.768192" y="231.667439" style="fill: #232724; stroke: #232724; stroke-width: 3"/>
     <use xlink:href="#m714acf8736" x="392.064577" y="229.999146" style="fill: #232724; stroke: #232724; stroke-width: 3"/>
    </g>
   </g>
   <g id="line2d_55">
    <path d="M 106.175423 238.972841 
L 106.175423 236.011655 
" clip-path="url(#pb29590dc38)" style="fill: none; stroke: #232724; stroke-width: 2.7; stroke-linecap: round"/>
   </g>
   <g id="line2d_56">
    <path d="M 201.471808 235.006029 
L 201.471808 229.786261 
" clip-path="url(#pb29590dc38)" style="fill: none; stroke: #232724; stroke-width: 2.7; stroke-linecap: round"/>
   </g>
   <g id="line2d_57">
    <path d="M 296.768192 233.919196 
L 296.768192 228.881326 
" clip-path="url(#pb29590dc38)" style="fill: none; stroke: #232724; stroke-width: 2.7; stroke-linecap: round"/>
   </g>
   <g id="line2d_58">
    <path d="M 392.064577 233.718723 
L 392.064577 226.311881 
" clip-path="url(#pb29590dc38)" style="fill: none; stroke: #232724; stroke-width: 2.7; stroke-linecap: round"/>
   </g>
   <g id="patch_11">
    <path d="M 58.527231 323.091633 
L 58.527231 28.196733 
" style="fill: none; stroke: #cccccc; stroke-width: 1.25; stroke-linejoin: miter; stroke-linecap: square"/>
   </g>
   <g id="patch_12">
    <path d="M 439.712769 323.091633 
L 439.712769 28.196733 
" style="fill: none; stroke: #cccccc; stroke-width: 1.25; stroke-linejoin: miter; stroke-linecap: square"/>
   </g>
   <g id="patch_13">
    <path d="M 58.527231 323.091633 
L 439.712769 323.091633 
" style="fill: none; stroke: #cccccc; stroke-width: 1.25; stroke-linejoin: miter; stroke-linecap: square"/>
   </g>
   <g id="patch_14">
    <path d="M 58.527231 28.196733 
L 439.712769 28.196733 
" style="fill: none; stroke: #cccccc; stroke-width: 1.25; stroke-linejoin: miter; stroke-linecap: square"/>
   </g>
   <g id="legend_2">
    <g id="patch_15">
     <path d="M 350.447769 53.142671 
L 432.012769 53.142671 
Q 434.212769 53.142671 434.212769 50.942671 
L 434.212769 35.896733 
Q 434.212769 33.696733 432.012769 33.696733 
L 350.447769 33.696733 
Q 348.247769 33.696733 348.247769 35.896733 
L 348.247769 50.942671 
Q 348.247769 53.142671 350.447769 53.142671 
z
" style="fill: #ffffff; opacity: 0.8; stroke: #cccccc; stroke-linejoin: miter"/>
    </g>
    <g id="patch_16">
     <path d="M 352.647769 46.455014 
L 374.647769 46.455014 
L 374.647769 38.755014 
L 352.647769 38.755014 
z
" style="fill: #98daa7; stroke: #6f6f6f; stroke-width: 1.25; stroke-linejoin: miter"/>
    </g>
    <g id="text_21">
     <!-- Steering -->
     <g style="fill: #262626" transform="translate(383.447769 46.455014) scale(0.11 -0.11)">
      <use xlink:href="#DejaVuSans-53"/>
      <use xlink:href="#DejaVuSans-74" x="63.476562"/>
      <use xlink:href="#DejaVuSans-65" x="102.685547"/>
      <use xlink:href="#DejaVuSans-65" x="164.208984"/>
      <use xlink:href="#DejaVuSans-72" x="225.732422"/>
      <use xlink:href="#DejaVuSans-69" x="266.845703"/>
      <use xlink:href="#DejaVuSans-6e" x="294.628906"/>
      <use xlink:href="#DejaVuSans-67" x="358.007812"/>
     </g>
    </g>
   </g>
  </g>
 </g>
 <defs>
  <clipPath id="pb29590dc38">
   <rect x="58.527231" y="28.196733" width="381.185538" height="294.8949"/>
  </clipPath>
 </defs>
</svg>
