<?xml version="1.0" encoding="utf-8" standalone="no"?>
<!DOCTYPE svg PUBLIC "-//W3C//DTD SVG 1.1//EN"
  "http://www.w3.org/Graphics/SVG/1.1/DTD/svg11.dtd">
<svg xmlns:xlink="http://www.w3.org/1999/xlink" width="927.36pt" height="226.08pt" viewBox="0 0 927.36 226.08" xmlns="http://www.w3.org/2000/svg" version="1.1">
 <metadata>
  <rdf:RDF xmlns:dc="http://purl.org/dc/elements/1.1/" xmlns:cc="http://creativecommons.org/ns#" xmlns:rdf="http://www.w3.org/1999/02/22-rdf-syntax-ns#">
   <cc:Work>
    <dc:type rdf:resource="http://purl.org/dc/dcmitype/StillImage"/>
    <dc:date>2024-09-12T21:12:22.651653</dc:date>
    <dc:format>image/svg+xml</dc:format>
    <dc:creator>
     <cc:Agent>
      <dc:title>Matplotlib v3.7.4, https://matplotlib.org/</dc:title>
     </cc:Agent>
    </dc:creator>
   </cc:Work>
  </rdf:RDF>
 </metadata>
 <defs>
  <style type="text/css">*{stroke-linejoin: round; stroke-linecap: butt}</style>
 </defs>
 <g id="figure_1">
  <g id="patch_1">
   <path d="M 0 226.08 
L 927.36 226.08 
L 927.36 0 
L 0 0 
z
" style="fill: #ffffff"/>
  </g>
  <g id="axes_1">
   <g id="patch_2">
    <path d="M 174.432 206.956853 
L 891.618 206.956853 
L 891.618 31.758857 
L 174.432 31.758857 
z
" style="fill: #ffffff"/>
   </g>
   <g id="matplotlib.axis_1">
    <g id="xtick_1">
     <g id="line2d_1">
      <path d="M 379.342286 206.956853 
L 379.342286 31.758857 
" clip-path="url(#p3f714c185a)" style="fill: none; stroke: #cccccc; stroke-linecap: round"/>
     </g>
     <g id="line2d_2">
      <defs>
       <path id="m372c35c672" d="M 0 0 
L 0 6 
" style="stroke: #262626; stroke-width: 1.25"/>
      </defs>
      <g>
       <use xlink:href="#m372c35c672" x="379.342286" y="206.956853" style="fill: #262626; stroke: #262626; stroke-width: 1.25"/>
      </g>
     </g>
     <g id="text_1">
      <!-- −1.0 -->
      <g style="fill: #262626" transform="translate(365.986739 224.815134) scale(0.11 -0.11)">
       <defs>
        <path id="DejaVuSans-2212" d="M 678 2272 
L 4684 2272 
L 4684 1741 
L 678 1741 
L 678 2272 
z
" transform="scale(0.015625)"/>
        <path id="DejaVuSans-31" d="M 794 531 
L 1825 531 
L 1825 4091 
L 703 3866 
L 703 4441 
L 1819 4666 
L 2450 4666 
L 2450 531 
L 3481 531 
L 3481 0 
L 794 0 
L 794 531 
z
" transform="scale(0.015625)"/>
        <path id="DejaVuSans-2e" d="M 684 794 
L 1344 794 
L 1344 0 
L 684 0 
L 684 794 
z
" transform="scale(0.015625)"/>
        <path id="DejaVuSans-30" d="M 2034 4250 
Q 1547 4250 1301 3770 
Q 1056 3291 1056 2328 
Q 1056 1369 1301 889 
Q 1547 409 2034 409 
Q 2525 409 2770 889 
Q 3016 1369 3016 2328 
Q 3016 3291 2770 3770 
Q 2525 4250 2034 4250 
z
M 2034 4750 
Q 2819 4750 3233 4129 
Q 3647 3509 3647 2328 
Q 3647 1150 3233 529 
Q 2819 -91 2034 -91 
Q 1250 -91 836 529 
Q 422 1150 422 2328 
Q 422 3509 836 4129 
Q 1250 4750 2034 4750 
z
" transform="scale(0.015625)"/>
       </defs>
       <use xlink:href="#DejaVuSans-2212"/>
       <use xlink:href="#DejaVuSans-31" x="83.789062"/>
       <use xlink:href="#DejaVuSans-2e" x="147.412109"/>
       <use xlink:href="#DejaVuSans-30" x="179.199219"/>
      </g>
     </g>
    </g>
    <g id="xtick_2">
     <g id="line2d_3">
      <path d="M 481.797429 206.956853 
L 481.797429 31.758857 
" clip-path="url(#p3f714c185a)" style="fill: none; stroke: #cccccc; stroke-linecap: round"/>
     </g>
     <g id="line2d_4">
      <g>
       <use xlink:href="#m372c35c672" x="481.797429" y="206.956853" style="fill: #262626; stroke: #262626; stroke-width: 1.25"/>
      </g>
     </g>
     <g id="text_2">
      <!-- −0.5 -->
      <g style="fill: #262626" transform="translate(468.441882 224.815134) scale(0.11 -0.11)">
       <defs>
        <path id="DejaVuSans-35" d="M 691 4666 
L 3169 4666 
L 3169 4134 
L 1269 4134 
L 1269 2991 
Q 1406 3038 1543 3061 
Q 1681 3084 1819 3084 
Q 2600 3084 3056 2656 
Q 3513 2228 3513 1497 
Q 3513 744 3044 326 
Q 2575 -91 1722 -91 
Q 1428 -91 1123 -41 
Q 819 9 494 109 
L 494 744 
Q 775 591 1075 516 
Q 1375 441 1709 441 
Q 2250 441 2565 725 
Q 2881 1009 2881 1497 
Q 2881 1984 2565 2268 
Q 2250 2553 1709 2553 
Q 1456 2553 1204 2497 
Q 953 2441 691 2322 
L 691 4666 
z
" transform="scale(0.015625)"/>
       </defs>
       <use xlink:href="#DejaVuSans-2212"/>
       <use xlink:href="#DejaVuSans-30" x="83.789062"/>
       <use xlink:href="#DejaVuSans-2e" x="147.412109"/>
       <use xlink:href="#DejaVuSans-35" x="179.199219"/>
      </g>
     </g>
    </g>
    <g id="xtick_3">
     <g id="line2d_5">
      <path d="M 584.252571 206.956853 
L 584.252571 31.758857 
" clip-path="url(#p3f714c185a)" style="fill: none; stroke: #cccccc; stroke-linecap: round"/>
     </g>
     <g id="line2d_6">
      <g>
       <use xlink:href="#m372c35c672" x="584.252571" y="206.956853" style="fill: #262626; stroke: #262626; stroke-width: 1.25"/>
      </g>
     </g>
     <g id="text_3">
      <!-- 0.0 -->
      <g style="fill: #262626" transform="translate(575.505853 224.815134) scale(0.11 -0.11)">
       <use xlink:href="#DejaVuSans-30"/>
       <use xlink:href="#DejaVuSans-2e" x="63.623047"/>
       <use xlink:href="#DejaVuSans-30" x="95.410156"/>
      </g>
     </g>
    </g>
    <g id="xtick_4">
     <g id="line2d_7">
      <path d="M 686.707714 206.956853 
L 686.707714 31.758857 
" clip-path="url(#p3f714c185a)" style="fill: none; stroke: #cccccc; stroke-linecap: round"/>
     </g>
     <g id="line2d_8">
      <g>
       <use xlink:href="#m372c35c672" x="686.707714" y="206.956853" style="fill: #262626; stroke: #262626; stroke-width: 1.25"/>
      </g>
     </g>
     <g id="text_4">
      <!-- 0.5 -->
      <g style="fill: #262626" transform="translate(677.960996 224.815134) scale(0.11 -0.11)">
       <use xlink:href="#DejaVuSans-30"/>
       <use xlink:href="#DejaVuSans-2e" x="63.623047"/>
       <use xlink:href="#DejaVuSans-35" x="95.410156"/>
      </g>
     </g>
    </g>
    <g id="xtick_5">
     <g id="line2d_9">
      <path d="M 789.162857 206.956853 
L 789.162857 31.758857 
" clip-path="url(#p3f714c185a)" style="fill: none; stroke: #cccccc; stroke-linecap: round"/>
     </g>
     <g id="line2d_10">
      <g>
       <use xlink:href="#m372c35c672" x="789.162857" y="206.956853" style="fill: #262626; stroke: #262626; stroke-width: 1.25"/>
      </g>
     </g>
     <g id="text_5">
      <!-- 1.0 -->
      <g style="fill: #262626" transform="translate(780.416138 224.815134) scale(0.11 -0.11)">
       <use xlink:href="#DejaVuSans-31"/>
       <use xlink:href="#DejaVuSans-2e" x="63.623047"/>
       <use xlink:href="#DejaVuSans-30" x="95.410156"/>
      </g>
     </g>
    </g>
    <g id="xtick_6">
     <g id="line2d_11">
      <path d="M 891.618 206.956853 
L 891.618 31.758857 
" clip-path="url(#p3f714c185a)" style="fill: none; stroke: #cccccc; stroke-linecap: round"/>
     </g>
     <g id="line2d_12">
      <g>
       <use xlink:href="#m372c35c672" x="891.618" y="206.956853" style="fill: #262626; stroke: #262626; stroke-width: 1.25"/>
      </g>
     </g>
     <g id="text_6">
      <!-- 1.5 -->
      <g style="fill: #262626" transform="translate(882.871281 224.815134) scale(0.11 -0.11)">
       <use xlink:href="#DejaVuSans-31"/>
       <use xlink:href="#DejaVuSans-2e" x="63.623047"/>
       <use xlink:href="#DejaVuSans-35" x="95.410156"/>
      </g>
     </g>
    </g>
    <g id="text_7">
     <!-- DQD of CTEs -->
     <g style="fill: #262626" transform="translate(207.819038 220.454928) scale(0.12 -0.12)">
      <defs>
       <path id="DejaVuSans-44" d="M 1259 4147 
L 1259 519 
L 2022 519 
Q 2988 519 3436 956 
Q 3884 1394 3884 2338 
Q 3884 3275 3436 3711 
Q 2988 4147 2022 4147 
L 1259 4147 
z
M 628 4666 
L 1925 4666 
Q 3281 4666 3915 4102 
Q 4550 3538 4550 2338 
Q 4550 1131 3912 565 
Q 3275 0 1925 0 
L 628 0 
L 628 4666 
z
" transform="scale(0.015625)"/>
       <path id="DejaVuSans-51" d="M 2522 4238 
Q 1834 4238 1429 3725 
Q 1025 3213 1025 2328 
Q 1025 1447 1429 934 
Q 1834 422 2522 422 
Q 3209 422 3611 934 
Q 4013 1447 4013 2328 
Q 4013 3213 3611 3725 
Q 3209 4238 2522 4238 
z
M 3406 84 
L 4238 -825 
L 3475 -825 
L 2784 -78 
Q 2681 -84 2626 -87 
Q 2572 -91 2522 -91 
Q 1538 -91 948 567 
Q 359 1225 359 2328 
Q 359 3434 948 4092 
Q 1538 4750 2522 4750 
Q 3503 4750 4090 4092 
Q 4678 3434 4678 2328 
Q 4678 1516 4351 937 
Q 4025 359 3406 84 
z
" transform="scale(0.015625)"/>
       <path id="DejaVuSans-20" transform="scale(0.015625)"/>
       <path id="DejaVuSans-6f" d="M 1959 3097 
Q 1497 3097 1228 2736 
Q 959 2375 959 1747 
Q 959 1119 1226 758 
Q 1494 397 1959 397 
Q 2419 397 2687 759 
Q 2956 1122 2956 1747 
Q 2956 2369 2687 2733 
Q 2419 3097 1959 3097 
z
M 1959 3584 
Q 2709 3584 3137 3096 
Q 3566 2609 3566 1747 
Q 3566 888 3137 398 
Q 2709 -91 1959 -91 
Q 1206 -91 779 398 
Q 353 888 353 1747 
Q 353 2609 779 3096 
Q 1206 3584 1959 3584 
z
" transform="scale(0.015625)"/>
       <path id="DejaVuSans-66" d="M 2375 4863 
L 2375 4384 
L 1825 4384 
Q 1516 4384 1395 4259 
Q 1275 4134 1275 3809 
L 1275 3500 
L 2222 3500 
L 2222 3053 
L 1275 3053 
L 1275 0 
L 697 0 
L 697 3053 
L 147 3053 
L 147 3500 
L 697 3500 
L 697 3744 
Q 697 4328 969 4595 
Q 1241 4863 1831 4863 
L 2375 4863 
z
" transform="scale(0.015625)"/>
       <path id="DejaVuSans-43" d="M 4122 4306 
L 4122 3641 
Q 3803 3938 3442 4084 
Q 3081 4231 2675 4231 
Q 1875 4231 1450 3742 
Q 1025 3253 1025 2328 
Q 1025 1406 1450 917 
Q 1875 428 2675 428 
Q 3081 428 3442 575 
Q 3803 722 4122 1019 
L 4122 359 
Q 3791 134 3420 21 
Q 3050 -91 2638 -91 
Q 1578 -91 968 557 
Q 359 1206 359 2328 
Q 359 3453 968 4101 
Q 1578 4750 2638 4750 
Q 3056 4750 3426 4639 
Q 3797 4528 4122 4306 
z
" transform="scale(0.015625)"/>
       <path id="DejaVuSans-54" d="M -19 4666 
L 3928 4666 
L 3928 4134 
L 2272 4134 
L 2272 0 
L 1638 0 
L 1638 4134 
L -19 4134 
L -19 4666 
z
" transform="scale(0.015625)"/>
       <path id="DejaVuSans-45" d="M 628 4666 
L 3578 4666 
L 3578 4134 
L 1259 4134 
L 1259 2753 
L 3481 2753 
L 3481 2222 
L 1259 2222 
L 1259 531 
L 3634 531 
L 3634 0 
L 628 0 
L 628 4666 
z
" transform="scale(0.015625)"/>
       <path id="DejaVuSans-73" d="M 2834 3397 
L 2834 2853 
Q 2591 2978 2328 3040 
Q 2066 3103 1784 3103 
Q 1356 3103 1142 2972 
Q 928 2841 928 2578 
Q 928 2378 1081 2264 
Q 1234 2150 1697 2047 
L 1894 2003 
Q 2506 1872 2764 1633 
Q 3022 1394 3022 966 
Q 3022 478 2636 193 
Q 2250 -91 1575 -91 
Q 1294 -91 989 -36 
Q 684 19 347 128 
L 347 722 
Q 666 556 975 473 
Q 1284 391 1588 391 
Q 1994 391 2212 530 
Q 2431 669 2431 922 
Q 2431 1156 2273 1281 
Q 2116 1406 1581 1522 
L 1381 1569 
Q 847 1681 609 1914 
Q 372 2147 372 2553 
Q 372 3047 722 3315 
Q 1072 3584 1716 3584 
Q 2034 3584 2315 3537 
Q 2597 3491 2834 3397 
z
" transform="scale(0.015625)"/>
      </defs>
      <use xlink:href="#DejaVuSans-44"/>
      <use xlink:href="#DejaVuSans-51" x="77.001953"/>
      <use xlink:href="#DejaVuSans-44" x="155.712891"/>
      <use xlink:href="#DejaVuSans-20" x="232.714844"/>
      <use xlink:href="#DejaVuSans-6f" x="264.501953"/>
      <use xlink:href="#DejaVuSans-66" x="325.683594"/>
      <use xlink:href="#DejaVuSans-20" x="360.888672"/>
      <use xlink:href="#DejaVuSans-43" x="392.675781"/>
      <use xlink:href="#DejaVuSans-54" x="462.5"/>
      <use xlink:href="#DejaVuSans-45" x="523.583984"/>
      <use xlink:href="#DejaVuSans-73" x="586.767578"/>
     </g>
    </g>
   </g>
   <g id="matplotlib.axis_2">
    <g id="ytick_1">
     <g id="text_8">
      <!-- DeepJanus -->
      <g style="fill: #262626" transform="translate(90.287937 66.277429) scale(0.14 -0.14)">
       <defs>
        <path id="DejaVuSans-65" d="M 3597 1894 
L 3597 1613 
L 953 1613 
Q 991 1019 1311 708 
Q 1631 397 2203 397 
Q 2534 397 2845 478 
Q 3156 559 3463 722 
L 3463 178 
Q 3153 47 2828 -22 
Q 2503 -91 2169 -91 
Q 1331 -91 842 396 
Q 353 884 353 1716 
Q 353 2575 817 3079 
Q 1281 3584 2069 3584 
Q 2775 3584 3186 3129 
Q 3597 2675 3597 1894 
z
M 3022 2063 
Q 3016 2534 2758 2815 
Q 2500 3097 2075 3097 
Q 1594 3097 1305 2825 
Q 1016 2553 972 2059 
L 3022 2063 
z
" transform="scale(0.015625)"/>
        <path id="DejaVuSans-70" d="M 1159 525 
L 1159 -1331 
L 581 -1331 
L 581 3500 
L 1159 3500 
L 1159 2969 
Q 1341 3281 1617 3432 
Q 1894 3584 2278 3584 
Q 2916 3584 3314 3078 
Q 3713 2572 3713 1747 
Q 3713 922 3314 415 
Q 2916 -91 2278 -91 
Q 1894 -91 1617 61 
Q 1341 213 1159 525 
z
M 3116 1747 
Q 3116 2381 2855 2742 
Q 2594 3103 2138 3103 
Q 1681 3103 1420 2742 
Q 1159 2381 1159 1747 
Q 1159 1113 1420 752 
Q 1681 391 2138 391 
Q 2594 391 2855 752 
Q 3116 1113 3116 1747 
z
" transform="scale(0.015625)"/>
        <path id="DejaVuSans-4a" d="M 628 4666 
L 1259 4666 
L 1259 325 
Q 1259 -519 939 -900 
Q 619 -1281 -91 -1281 
L -331 -1281 
L -331 -750 
L -134 -750 
Q 284 -750 456 -515 
Q 628 -281 628 325 
L 628 4666 
z
" transform="scale(0.015625)"/>
        <path id="DejaVuSans-61" d="M 2194 1759 
Q 1497 1759 1228 1600 
Q 959 1441 959 1056 
Q 959 750 1161 570 
Q 1363 391 1709 391 
Q 2188 391 2477 730 
Q 2766 1069 2766 1631 
L 2766 1759 
L 2194 1759 
z
M 3341 1997 
L 3341 0 
L 2766 0 
L 2766 531 
Q 2569 213 2275 61 
Q 1981 -91 1556 -91 
Q 1019 -91 701 211 
Q 384 513 384 1019 
Q 384 1609 779 1909 
Q 1175 2209 1959 2209 
L 2766 2209 
L 2766 2266 
Q 2766 2663 2505 2880 
Q 2244 3097 1772 3097 
Q 1472 3097 1187 3025 
Q 903 2953 641 2809 
L 641 3341 
Q 956 3463 1253 3523 
Q 1550 3584 1831 3584 
Q 2591 3584 2966 3190 
Q 3341 2797 3341 1997 
z
" transform="scale(0.015625)"/>
        <path id="DejaVuSans-6e" d="M 3513 2113 
L 3513 0 
L 2938 0 
L 2938 2094 
Q 2938 2591 2744 2837 
Q 2550 3084 2163 3084 
Q 1697 3084 1428 2787 
Q 1159 2491 1159 1978 
L 1159 0 
L 581 0 
L 581 3500 
L 1159 3500 
L 1159 2956 
Q 1366 3272 1645 3428 
Q 1925 3584 2291 3584 
Q 2894 3584 3203 3211 
Q 3513 2838 3513 2113 
z
" transform="scale(0.015625)"/>
        <path id="DejaVuSans-75" d="M 544 1381 
L 544 3500 
L 1119 3500 
L 1119 1403 
Q 1119 906 1312 657 
Q 1506 409 1894 409 
Q 2359 409 2629 706 
Q 2900 1003 2900 1516 
L 2900 3500 
L 3475 3500 
L 3475 0 
L 2900 0 
L 2900 538 
Q 2691 219 2414 64 
Q 2138 -91 1772 -91 
Q 1169 -91 856 284 
Q 544 659 544 1381 
z
M 1991 3584 
L 1991 3584 
z
" transform="scale(0.015625)"/>
       </defs>
       <use xlink:href="#DejaVuSans-44"/>
       <use xlink:href="#DejaVuSans-65" x="77.001953"/>
       <use xlink:href="#DejaVuSans-65" x="138.525391"/>
       <use xlink:href="#DejaVuSans-70" x="200.048828"/>
       <use xlink:href="#DejaVuSans-4a" x="263.525391"/>
       <use xlink:href="#DejaVuSans-61" x="293.017578"/>
       <use xlink:href="#DejaVuSans-6e" x="354.296875"/>
       <use xlink:href="#DejaVuSans-75" x="417.675781"/>
       <use xlink:href="#DejaVuSans-73" x="481.054688"/>
      </g>
     </g>
    </g>
    <g id="ytick_2">
     <g id="text_9">
      <!-- Grad-CAM++ random -->
      <g style="fill: #262626" transform="translate(12.167937 124.676761) scale(0.14 -0.14)">
       <defs>
        <path id="DejaVuSans-47" d="M 3809 666 
L 3809 1919 
L 2778 1919 
L 2778 2438 
L 4434 2438 
L 4434 434 
Q 4069 175 3628 42 
Q 3188 -91 2688 -91 
Q 1594 -91 976 548 
Q 359 1188 359 2328 
Q 359 3472 976 4111 
Q 1594 4750 2688 4750 
Q 3144 4750 3555 4637 
Q 3966 4525 4313 4306 
L 4313 3634 
Q 3963 3931 3569 4081 
Q 3175 4231 2741 4231 
Q 1884 4231 1454 3753 
Q 1025 3275 1025 2328 
Q 1025 1384 1454 906 
Q 1884 428 2741 428 
Q 3075 428 3337 486 
Q 3600 544 3809 666 
z
" transform="scale(0.015625)"/>
        <path id="DejaVuSans-72" d="M 2631 2963 
Q 2534 3019 2420 3045 
Q 2306 3072 2169 3072 
Q 1681 3072 1420 2755 
Q 1159 2438 1159 1844 
L 1159 0 
L 581 0 
L 581 3500 
L 1159 3500 
L 1159 2956 
Q 1341 3275 1631 3429 
Q 1922 3584 2338 3584 
Q 2397 3584 2469 3576 
Q 2541 3569 2628 3553 
L 2631 2963 
z
" transform="scale(0.015625)"/>
        <path id="DejaVuSans-64" d="M 2906 2969 
L 2906 4863 
L 3481 4863 
L 3481 0 
L 2906 0 
L 2906 525 
Q 2725 213 2448 61 
Q 2172 -91 1784 -91 
Q 1150 -91 751 415 
Q 353 922 353 1747 
Q 353 2572 751 3078 
Q 1150 3584 1784 3584 
Q 2172 3584 2448 3432 
Q 2725 3281 2906 2969 
z
M 947 1747 
Q 947 1113 1208 752 
Q 1469 391 1925 391 
Q 2381 391 2643 752 
Q 2906 1113 2906 1747 
Q 2906 2381 2643 2742 
Q 2381 3103 1925 3103 
Q 1469 3103 1208 2742 
Q 947 2381 947 1747 
z
" transform="scale(0.015625)"/>
        <path id="DejaVuSans-2d" d="M 313 2009 
L 1997 2009 
L 1997 1497 
L 313 1497 
L 313 2009 
z
" transform="scale(0.015625)"/>
        <path id="DejaVuSans-41" d="M 2188 4044 
L 1331 1722 
L 3047 1722 
L 2188 4044 
z
M 1831 4666 
L 2547 4666 
L 4325 0 
L 3669 0 
L 3244 1197 
L 1141 1197 
L 716 0 
L 50 0 
L 1831 4666 
z
" transform="scale(0.015625)"/>
        <path id="DejaVuSans-4d" d="M 628 4666 
L 1569 4666 
L 2759 1491 
L 3956 4666 
L 4897 4666 
L 4897 0 
L 4281 0 
L 4281 4097 
L 3078 897 
L 2444 897 
L 1241 4097 
L 1241 0 
L 628 0 
L 628 4666 
z
" transform="scale(0.015625)"/>
        <path id="DejaVuSans-2b" d="M 2944 4013 
L 2944 2272 
L 4684 2272 
L 4684 1741 
L 2944 1741 
L 2944 0 
L 2419 0 
L 2419 1741 
L 678 1741 
L 678 2272 
L 2419 2272 
L 2419 4013 
L 2944 4013 
z
" transform="scale(0.015625)"/>
        <path id="DejaVuSans-6d" d="M 3328 2828 
Q 3544 3216 3844 3400 
Q 4144 3584 4550 3584 
Q 5097 3584 5394 3201 
Q 5691 2819 5691 2113 
L 5691 0 
L 5113 0 
L 5113 2094 
Q 5113 2597 4934 2840 
Q 4756 3084 4391 3084 
Q 3944 3084 3684 2787 
Q 3425 2491 3425 1978 
L 3425 0 
L 2847 0 
L 2847 2094 
Q 2847 2600 2669 2842 
Q 2491 3084 2119 3084 
Q 1678 3084 1418 2786 
Q 1159 2488 1159 1978 
L 1159 0 
L 581 0 
L 581 3500 
L 1159 3500 
L 1159 2956 
Q 1356 3278 1631 3431 
Q 1906 3584 2284 3584 
Q 2666 3584 2933 3390 
Q 3200 3197 3328 2828 
z
" transform="scale(0.015625)"/>
       </defs>
       <use xlink:href="#DejaVuSans-47"/>
       <use xlink:href="#DejaVuSans-72" x="77.490234"/>
       <use xlink:href="#DejaVuSans-61" x="118.603516"/>
       <use xlink:href="#DejaVuSans-64" x="179.882812"/>
       <use xlink:href="#DejaVuSans-2d" x="243.359375"/>
       <use xlink:href="#DejaVuSans-43" x="279.443359"/>
       <use xlink:href="#DejaVuSans-41" x="349.267578"/>
       <use xlink:href="#DejaVuSans-4d" x="417.675781"/>
       <use xlink:href="#DejaVuSans-2b" x="503.955078"/>
       <use xlink:href="#DejaVuSans-2b" x="587.744141"/>
       <use xlink:href="#DejaVuSans-20" x="671.533203"/>
       <use xlink:href="#DejaVuSans-72" x="703.320312"/>
       <use xlink:href="#DejaVuSans-61" x="744.433594"/>
       <use xlink:href="#DejaVuSans-6e" x="805.712891"/>
       <use xlink:href="#DejaVuSans-64" x="869.091797"/>
       <use xlink:href="#DejaVuSans-6f" x="932.568359"/>
       <use xlink:href="#DejaVuSans-6d" x="993.75"/>
      </g>
     </g>
    </g>
    <g id="ytick_3">
     <g id="text_10">
      <!-- Grad-CAM++ high -->
      <g style="fill: #262626" transform="translate(35.943875 183.076093) scale(0.14 -0.14)">
       <defs>
        <path id="DejaVuSans-68" d="M 3513 2113 
L 3513 0 
L 2938 0 
L 2938 2094 
Q 2938 2591 2744 2837 
Q 2550 3084 2163 3084 
Q 1697 3084 1428 2787 
Q 1159 2491 1159 1978 
L 1159 0 
L 581 0 
L 581 4863 
L 1159 4863 
L 1159 2956 
Q 1366 3272 1645 3428 
Q 1925 3584 2291 3584 
Q 2894 3584 3203 3211 
Q 3513 2838 3513 2113 
z
" transform="scale(0.015625)"/>
        <path id="DejaVuSans-69" d="M 603 3500 
L 1178 3500 
L 1178 0 
L 603 0 
L 603 3500 
z
M 603 4863 
L 1178 4863 
L 1178 4134 
L 603 4134 
L 603 4863 
z
" transform="scale(0.015625)"/>
        <path id="DejaVuSans-67" d="M 2906 1791 
Q 2906 2416 2648 2759 
Q 2391 3103 1925 3103 
Q 1463 3103 1205 2759 
Q 947 2416 947 1791 
Q 947 1169 1205 825 
Q 1463 481 1925 481 
Q 2391 481 2648 825 
Q 2906 1169 2906 1791 
z
M 3481 434 
Q 3481 -459 3084 -895 
Q 2688 -1331 1869 -1331 
Q 1566 -1331 1297 -1286 
Q 1028 -1241 775 -1147 
L 775 -588 
Q 1028 -725 1275 -790 
Q 1522 -856 1778 -856 
Q 2344 -856 2625 -561 
Q 2906 -266 2906 331 
L 2906 616 
Q 2728 306 2450 153 
Q 2172 0 1784 0 
Q 1141 0 747 490 
Q 353 981 353 1791 
Q 353 2603 747 3093 
Q 1141 3584 1784 3584 
Q 2172 3584 2450 3431 
Q 2728 3278 2906 2969 
L 2906 3500 
L 3481 3500 
L 3481 434 
z
" transform="scale(0.015625)"/>
       </defs>
       <use xlink:href="#DejaVuSans-47"/>
       <use xlink:href="#DejaVuSans-72" x="77.490234"/>
       <use xlink:href="#DejaVuSans-61" x="118.603516"/>
       <use xlink:href="#DejaVuSans-64" x="179.882812"/>
       <use xlink:href="#DejaVuSans-2d" x="243.359375"/>
       <use xlink:href="#DejaVuSans-43" x="279.443359"/>
       <use xlink:href="#DejaVuSans-41" x="349.267578"/>
       <use xlink:href="#DejaVuSans-4d" x="417.675781"/>
       <use xlink:href="#DejaVuSans-2b" x="503.955078"/>
       <use xlink:href="#DejaVuSans-2b" x="587.744141"/>
       <use xlink:href="#DejaVuSans-20" x="671.533203"/>
       <use xlink:href="#DejaVuSans-68" x="703.320312"/>
       <use xlink:href="#DejaVuSans-69" x="766.699219"/>
       <use xlink:href="#DejaVuSans-67" x="794.482422"/>
       <use xlink:href="#DejaVuSans-68" x="857.958984"/>
      </g>
     </g>
    </g>
   </g>
   <g id="PolyCollection_1">
    <defs>
     <path id="mb4fdd3d260" d="M 356.824773 -141.761744 
L 356.824773 -141.781782 
L 361.457979 -141.797287 
L 366.091185 -141.819003 
L 370.724391 -141.845546 
L 375.357598 -141.873256 
L 379.990804 -141.896916 
L 384.62401 -141.911742 
L 389.257216 -141.915987 
L 393.890423 -141.912968 
L 398.523629 -141.911446 
L 403.156835 -141.924034 
L 407.790042 -141.964089 
L 412.423248 -142.041984 
L 417.056454 -142.161742 
L 421.68966 -142.3191 
L 426.322867 -142.502122 
L 430.956073 -142.695048 
L 435.589279 -142.884894 
L 440.222485 -143.06854 
L 444.855692 -143.256826 
L 449.488898 -143.472594 
L 454.122104 -143.742239 
L 458.75531 -144.084088 
L 463.388517 -144.499589 
L 468.021723 -144.97258 
L 472.654929 -145.477705 
L 477.288135 -145.993721 
L 481.921342 -146.514317 
L 486.554548 -147.050325 
L 491.187754 -147.622051 
L 495.820961 -148.245928 
L 500.454167 -148.922657 
L 505.087373 -149.632695 
L 509.720579 -150.340761 
L 514.353786 -151.00702 
L 518.986992 -151.601539 
L 523.620198 -152.120067 
L 528.253404 -152.600081 
L 532.886611 -153.134092 
L 537.519817 -153.873962 
L 542.153023 -155.019405 
L 546.786229 -156.787786 
L 551.419436 -159.368201 
L 556.052642 -162.866335 
L 560.685848 -167.247636 
L 565.319054 -172.289296 
L 569.952261 -177.559143 
L 574.585467 -182.4462 
L 579.218673 -186.260561 
L 583.851879 -188.392301 
L 588.485086 -188.48121 
L 593.118292 -186.527887 
L 597.751498 -182.894036 
L 602.384705 -178.190501 
L 607.017911 -173.103772 
L 611.651117 -168.231689 
L 616.284323 -163.979807 
L 620.91753 -160.532178 
L 625.550736 -157.881447 
L 630.183942 -155.893295 
L 634.817148 -154.381969 
L 639.450355 -153.176855 
L 644.083561 -152.163384 
L 648.716767 -151.289879 
L 653.349973 -150.545784 
L 657.98318 -149.929137 
L 662.616386 -149.42337 
L 667.249592 -148.993842 
L 671.882798 -148.600069 
L 676.516005 -148.210765 
L 681.149211 -147.810603 
L 685.782417 -147.396711 
L 690.415623 -146.971066 
L 695.04883 -146.536204 
L 699.682036 -146.096679 
L 704.315242 -145.662829 
L 708.948449 -145.251715 
L 713.581655 -144.882868 
L 718.214861 -144.570806 
L 722.848067 -144.318717 
L 727.481274 -144.117045 
L 732.11448 -143.947879 
L 736.747686 -143.792808 
L 741.380892 -143.640102 
L 746.014099 -143.487772 
L 750.647305 -143.341502 
L 755.280511 -143.209198 
L 759.913717 -143.095186 
L 764.546924 -142.996787 
L 769.18013 -142.904571 
L 773.813336 -142.805995 
L 778.446542 -142.690752 
L 783.079749 -142.555413 
L 787.712955 -142.405224 
L 792.346161 -142.252229 
L 796.979367 -142.110709 
L 801.612574 -141.992225 
L 806.24578 -141.902476 
L 810.878986 -141.840936 
L 815.512193 -141.802711 
L 815.512193 -141.761744 
L 815.512193 -141.761744 
L 810.878986 -141.761744 
L 806.24578 -141.761744 
L 801.612574 -141.761744 
L 796.979367 -141.761744 
L 792.346161 -141.761744 
L 787.712955 -141.761744 
L 783.079749 -141.761744 
L 778.446542 -141.761744 
L 773.813336 -141.761744 
L 769.18013 -141.761744 
L 764.546924 -141.761744 
L 759.913717 -141.761744 
L 755.280511 -141.761744 
L 750.647305 -141.761744 
L 746.014099 -141.761744 
L 741.380892 -141.761744 
L 736.747686 -141.761744 
L 732.11448 -141.761744 
L 727.481274 -141.761744 
L 722.848067 -141.761744 
L 718.214861 -141.761744 
L 713.581655 -141.761744 
L 708.948449 -141.761744 
L 704.315242 -141.761744 
L 699.682036 -141.761744 
L 695.04883 -141.761744 
L 690.415623 -141.761744 
L 685.782417 -141.761744 
L 681.149211 -141.761744 
L 676.516005 -141.761744 
L 671.882798 -141.761744 
L 667.249592 -141.761744 
L 662.616386 -141.761744 
L 657.98318 -141.761744 
L 653.349973 -141.761744 
L 648.716767 -141.761744 
L 644.083561 -141.761744 
L 639.450355 -141.761744 
L 634.817148 -141.761744 
L 630.183942 -141.761744 
L 625.550736 -141.761744 
L 620.91753 -141.761744 
L 616.284323 -141.761744 
L 611.651117 -141.761744 
L 607.017911 -141.761744 
L 602.384705 -141.761744 
L 597.751498 -141.761744 
L 593.118292 -141.761744 
L 588.485086 -141.761744 
L 583.851879 -141.761744 
L 579.218673 -141.761744 
L 574.585467 -141.761744 
L 569.952261 -141.761744 
L 565.319054 -141.761744 
L 560.685848 -141.761744 
L 556.052642 -141.761744 
L 551.419436 -141.761744 
L 546.786229 -141.761744 
L 542.153023 -141.761744 
L 537.519817 -141.761744 
L 532.886611 -141.761744 
L 528.253404 -141.761744 
L 523.620198 -141.761744 
L 518.986992 -141.761744 
L 514.353786 -141.761744 
L 509.720579 -141.761744 
L 505.087373 -141.761744 
L 500.454167 -141.761744 
L 495.820961 -141.761744 
L 491.187754 -141.761744 
L 486.554548 -141.761744 
L 481.921342 -141.761744 
L 477.288135 -141.761744 
L 472.654929 -141.761744 
L 468.021723 -141.761744 
L 463.388517 -141.761744 
L 458.75531 -141.761744 
L 454.122104 -141.761744 
L 449.488898 -141.761744 
L 444.855692 -141.761744 
L 440.222485 -141.761744 
L 435.589279 -141.761744 
L 430.956073 -141.761744 
L 426.322867 -141.761744 
L 421.68966 -141.761744 
L 417.056454 -141.761744 
L 412.423248 -141.761744 
L 407.790042 -141.761744 
L 403.156835 -141.761744 
L 398.523629 -141.761744 
L 393.890423 -141.761744 
L 389.257216 -141.761744 
L 384.62401 -141.761744 
L 379.990804 -141.761744 
L 375.357598 -141.761744 
L 370.724391 -141.761744 
L 366.091185 -141.761744 
L 361.457979 -141.761744 
L 356.824773 -141.761744 
z
" style="stroke: #858585; stroke-width: 0.5"/>
    </defs>
    <g clip-path="url(#p3f714c185a)">
     <use xlink:href="#mb4fdd3d260" x="0" y="226.08" style="fill: #d3c4f6; stroke: #858585; stroke-width: 0.5"/>
    </g>
   </g>
   <g id="PolyCollection_2">
    <defs>
     <path id="m5b7a64088d" d="M 315.913641 -83.362412 
L 315.913641 -83.389756 
L 321.357605 -83.408778 
L 326.801568 -83.434931 
L 332.245531 -83.467033 
L 337.689495 -83.501633 
L 343.133458 -83.533303 
L 348.577421 -83.555915 
L 354.021384 -83.564575 
L 359.465348 -83.557414 
L 364.909311 -83.536432 
L 370.353274 -83.507031 
L 375.797238 -83.47661 
L 381.241201 -83.453041 
L 386.685164 -83.44373 
L 392.129127 -83.455412 
L 397.573091 -83.494167 
L 403.017054 -83.56494 
L 408.461017 -83.670211 
L 413.90498 -83.808256 
L 419.348944 -83.972147 
L 424.792907 -84.150698 
L 430.23687 -84.331642 
L 435.680834 -84.505943 
L 441.124797 -84.671049 
L 446.56876 -84.831182 
L 452.012723 -84.9945 
L 457.456687 -85.169103 
L 462.90065 -85.360811 
L 468.344613 -85.574378 
L 473.788576 -85.817045 
L 479.23254 -86.10106 
L 484.676503 -86.442133 
L 490.120466 -86.853725 
L 495.56443 -87.34077 
L 501.008393 -87.897902 
L 506.452356 -88.515402 
L 511.896319 -89.191985 
L 517.340283 -89.949915 
L 522.784246 -90.846618 
L 528.228209 -91.977795 
L 533.672172 -93.46864 
L 539.116136 -95.451455 
L 544.560099 -98.030243 
L 550.004062 -101.236883 
L 555.448026 -104.988954 
L 560.891989 -109.064132 
L 566.335952 -113.106969 
L 571.779915 -116.677701 
L 577.223879 -119.33905 
L 582.667842 -120.759713 
L 588.111805 -120.800665 
L 593.555768 -119.551322 
L 598.999732 -117.299811 
L 604.443695 -114.447879 
L 609.887658 -111.40284 
L 615.331622 -108.484973 
L 620.775585 -105.877703 
L 626.219548 -103.627716 
L 631.663511 -101.683647 
L 637.107475 -99.951896 
L 642.551438 -98.347296 
L 647.995401 -96.822956 
L 653.439364 -95.374365 
L 658.883328 -94.02408 
L 664.327291 -92.800196 
L 669.771254 -91.721245 
L 675.215218 -90.792978 
L 680.659181 -90.013926 
L 686.103144 -89.382096 
L 691.547107 -88.896791 
L 696.991071 -88.554596 
L 702.435034 -88.343006 
L 707.878997 -88.236288 
L 713.32296 -88.196453 
L 718.766924 -88.179277 
L 724.210887 -88.143015 
L 729.65485 -88.056474 
L 735.098814 -87.903671 
L 740.542777 -87.683969 
L 745.98674 -87.408481 
L 751.430703 -87.094854 
L 756.874667 -86.76247 
L 762.31863 -86.429084 
L 767.762593 -86.108735 
L 773.206556 -85.810358 
L 778.65052 -85.536989 
L 784.094483 -85.286118 
L 789.538446 -85.05166 
L 794.98241 -84.827156 
L 800.426373 -84.608858 
L 805.870336 -84.397278 
L 811.314299 -84.196627 
L 816.758263 -84.01282 
L 822.202226 -83.851278 
L 827.646189 -83.715486 
L 833.090152 -83.606521 
L 838.534116 -83.523278 
L 843.978079 -83.462978 
L 849.422042 -83.421768 
L 854.866006 -83.395339 
L 854.866006 -83.362412 
L 854.866006 -83.362412 
L 849.422042 -83.362412 
L 843.978079 -83.362412 
L 838.534116 -83.362412 
L 833.090152 -83.362412 
L 827.646189 -83.362412 
L 822.202226 -83.362412 
L 816.758263 -83.362412 
L 811.314299 -83.362412 
L 805.870336 -83.362412 
L 800.426373 -83.362412 
L 794.98241 -83.362412 
L 789.538446 -83.362412 
L 784.094483 -83.362412 
L 778.65052 -83.362412 
L 773.206556 -83.362412 
L 767.762593 -83.362412 
L 762.31863 -83.362412 
L 756.874667 -83.362412 
L 751.430703 -83.362412 
L 745.98674 -83.362412 
L 740.542777 -83.362412 
L 735.098814 -83.362412 
L 729.65485 -83.362412 
L 724.210887 -83.362412 
L 718.766924 -83.362412 
L 713.32296 -83.362412 
L 707.878997 -83.362412 
L 702.435034 -83.362412 
L 696.991071 -83.362412 
L 691.547107 -83.362412 
L 686.103144 -83.362412 
L 680.659181 -83.362412 
L 675.215218 -83.362412 
L 669.771254 -83.362412 
L 664.327291 -83.362412 
L 658.883328 -83.362412 
L 653.439364 -83.362412 
L 647.995401 -83.362412 
L 642.551438 -83.362412 
L 637.107475 -83.362412 
L 631.663511 -83.362412 
L 626.219548 -83.362412 
L 620.775585 -83.362412 
L 615.331622 -83.362412 
L 609.887658 -83.362412 
L 604.443695 -83.362412 
L 598.999732 -83.362412 
L 593.555768 -83.362412 
L 588.111805 -83.362412 
L 582.667842 -83.362412 
L 577.223879 -83.362412 
L 571.779915 -83.362412 
L 566.335952 -83.362412 
L 560.891989 -83.362412 
L 555.448026 -83.362412 
L 550.004062 -83.362412 
L 544.560099 -83.362412 
L 539.116136 -83.362412 
L 533.672172 -83.362412 
L 528.228209 -83.362412 
L 522.784246 -83.362412 
L 517.340283 -83.362412 
L 511.896319 -83.362412 
L 506.452356 -83.362412 
L 501.008393 -83.362412 
L 495.56443 -83.362412 
L 490.120466 -83.362412 
L 484.676503 -83.362412 
L 479.23254 -83.362412 
L 473.788576 -83.362412 
L 468.344613 -83.362412 
L 462.90065 -83.362412 
L 457.456687 -83.362412 
L 452.012723 -83.362412 
L 446.56876 -83.362412 
L 441.124797 -83.362412 
L 435.680834 -83.362412 
L 430.23687 -83.362412 
L 424.792907 -83.362412 
L 419.348944 -83.362412 
L 413.90498 -83.362412 
L 408.461017 -83.362412 
L 403.017054 -83.362412 
L 397.573091 -83.362412 
L 392.129127 -83.362412 
L 386.685164 -83.362412 
L 381.241201 -83.362412 
L 375.797238 -83.362412 
L 370.353274 -83.362412 
L 364.909311 -83.362412 
L 359.465348 -83.362412 
L 354.021384 -83.362412 
L 348.577421 -83.362412 
L 343.133458 -83.362412 
L 337.689495 -83.362412 
L 332.245531 -83.362412 
L 326.801568 -83.362412 
L 321.357605 -83.362412 
L 315.913641 -83.362412 
z
" style="stroke: #858585; stroke-width: 0.5"/>
    </defs>
    <g clip-path="url(#p3f714c185a)">
     <use xlink:href="#m5b7a64088d" x="0" y="226.08" style="fill: #d3c4f6; stroke: #858585; stroke-width: 0.5"/>
    </g>
   </g>
   <g id="PolyCollection_3">
    <defs>
     <path id="m170d523e89" d="M 349.490175 -24.96308 
L 349.490175 -24.992202 
L 354.435069 -25.011393 
L 359.379964 -25.037716 
L 364.324858 -25.070595 
L 369.269752 -25.107851 
L 374.214646 -25.14607 
L 379.15954 -25.18178 
L 384.104435 -25.213124 
L 389.049329 -25.241311 
L 393.994223 -25.270961 
L 398.939117 -25.308834 
L 403.884012 -25.361144 
L 408.828906 -25.430446 
L 413.7738 -25.513392 
L 418.718694 -25.600434 
L 423.663588 -25.677743 
L 428.608483 -25.73077 
L 433.553377 -25.748297 
L 438.498271 -25.725729 
L 443.443165 -25.666742 
L 448.38806 -25.582996 
L 453.332954 -25.492251 
L 458.277848 -25.415677 
L 463.222742 -25.375327 
L 468.167636 -25.392501 
L 473.112531 -25.487206 
L 478.057425 -25.678215 
L 483.002319 -25.982808 
L 487.947213 -26.415252 
L 492.892107 -26.98375 
L 497.837002 -27.686724 
L 502.781896 -28.510459 
L 507.72679 -29.430604 
L 512.671684 -30.419124 
L 517.616579 -31.45612 
L 522.561473 -32.543336 
L 527.506367 -33.714628 
L 532.451261 -35.038904 
L 537.396155 -36.612899 
L 542.34105 -38.54337 
L 547.285944 -40.920124 
L 552.230838 -43.783175 
L 557.175732 -47.090054 
L 562.120626 -50.692853 
L 567.065521 -54.336496 
L 572.010415 -57.686861 
L 576.955309 -60.388326 
L 581.900203 -62.137934 
L 586.845098 -62.753943 
L 591.789992 -62.216026 
L 596.734886 -60.664196 
L 601.67978 -58.359022 
L 606.624674 -55.618942 
L 611.569569 -52.755482 
L 616.514463 -50.023179 
L 621.459357 -47.592089 
L 626.404251 -45.542251 
L 631.349146 -43.874619 
L 636.29404 -42.531748 
L 641.238934 -41.422402 
L 646.183828 -40.445647 
L 651.128722 -39.5113 
L 656.073617 -38.554651 
L 661.018511 -37.544278 
L 665.963405 -36.482496 
L 670.908299 -35.39889 
L 675.853193 -34.338517 
L 680.798088 -33.347776 
L 685.742982 -32.461837 
L 690.687876 -31.697297 
L 695.63277 -31.051919 
L 700.577665 -30.510605 
L 705.522559 -30.054335 
L 710.467453 -29.668006 
L 715.412347 -29.344219 
L 720.357241 -29.0824 
L 725.302136 -28.884697 
L 730.24703 -28.750974 
L 735.191924 -28.674836 
L 740.136818 -28.641697 
L 745.081712 -28.629284 
L 750.026607 -28.610609 
L 754.971501 -28.55905 
L 759.916395 -28.454311 
L 764.861289 -28.287272 
L 769.806184 -28.061659 
L 774.751078 -27.791634 
L 779.695972 -27.496275 
L 784.640866 -27.193402 
L 789.58576 -26.895409 
L 794.530655 -26.608516 
L 799.475549 -26.334995 
L 804.420443 -26.076524 
L 809.365337 -25.836599 
L 814.310232 -25.620854 
L 819.255126 -25.435471 
L 824.20002 -25.284894 
L 829.144914 -25.170144 
L 834.089808 -25.088489 
L 839.034703 -25.03439 
L 839.034703 -24.96308 
L 839.034703 -24.96308 
L 834.089808 -24.96308 
L 829.144914 -24.96308 
L 824.20002 -24.96308 
L 819.255126 -24.96308 
L 814.310232 -24.96308 
L 809.365337 -24.96308 
L 804.420443 -24.96308 
L 799.475549 -24.96308 
L 794.530655 -24.96308 
L 789.58576 -24.96308 
L 784.640866 -24.96308 
L 779.695972 -24.96308 
L 774.751078 -24.96308 
L 769.806184 -24.96308 
L 764.861289 -24.96308 
L 759.916395 -24.96308 
L 754.971501 -24.96308 
L 750.026607 -24.96308 
L 745.081712 -24.96308 
L 740.136818 -24.96308 
L 735.191924 -24.96308 
L 730.24703 -24.96308 
L 725.302136 -24.96308 
L 720.357241 -24.96308 
L 715.412347 -24.96308 
L 710.467453 -24.96308 
L 705.522559 -24.96308 
L 700.577665 -24.96308 
L 695.63277 -24.96308 
L 690.687876 -24.96308 
L 685.742982 -24.96308 
L 680.798088 -24.96308 
L 675.853193 -24.96308 
L 670.908299 -24.96308 
L 665.963405 -24.96308 
L 661.018511 -24.96308 
L 656.073617 -24.96308 
L 651.128722 -24.96308 
L 646.183828 -24.96308 
L 641.238934 -24.96308 
L 636.29404 -24.96308 
L 631.349146 -24.96308 
L 626.404251 -24.96308 
L 621.459357 -24.96308 
L 616.514463 -24.96308 
L 611.569569 -24.96308 
L 606.624674 -24.96308 
L 601.67978 -24.96308 
L 596.734886 -24.96308 
L 591.789992 -24.96308 
L 586.845098 -24.96308 
L 581.900203 -24.96308 
L 576.955309 -24.96308 
L 572.010415 -24.96308 
L 567.065521 -24.96308 
L 562.120626 -24.96308 
L 557.175732 -24.96308 
L 552.230838 -24.96308 
L 547.285944 -24.96308 
L 542.34105 -24.96308 
L 537.396155 -24.96308 
L 532.451261 -24.96308 
L 527.506367 -24.96308 
L 522.561473 -24.96308 
L 517.616579 -24.96308 
L 512.671684 -24.96308 
L 507.72679 -24.96308 
L 502.781896 -24.96308 
L 497.837002 -24.96308 
L 492.892107 -24.96308 
L 487.947213 -24.96308 
L 483.002319 -24.96308 
L 478.057425 -24.96308 
L 473.112531 -24.96308 
L 468.167636 -24.96308 
L 463.222742 -24.96308 
L 458.277848 -24.96308 
L 453.332954 -24.96308 
L 448.38806 -24.96308 
L 443.443165 -24.96308 
L 438.498271 -24.96308 
L 433.553377 -24.96308 
L 428.608483 -24.96308 
L 423.663588 -24.96308 
L 418.718694 -24.96308 
L 413.7738 -24.96308 
L 408.828906 -24.96308 
L 403.884012 -24.96308 
L 398.939117 -24.96308 
L 393.994223 -24.96308 
L 389.049329 -24.96308 
L 384.104435 -24.96308 
L 379.15954 -24.96308 
L 374.214646 -24.96308 
L 369.269752 -24.96308 
L 364.324858 -24.96308 
L 359.379964 -24.96308 
L 354.435069 -24.96308 
L 349.490175 -24.96308 
z
" style="stroke: #858585; stroke-width: 0.5"/>
    </defs>
    <g clip-path="url(#p3f714c185a)">
     <use xlink:href="#m170d523e89" x="0" y="226.08" style="fill: #d3c4f6; stroke: #858585; stroke-width: 0.5"/>
    </g>
   </g>
   <g id="patch_3">
    <path d="M 584.252571 60.958523 
L 584.252571 60.958523 
L 584.252571 60.958523 
L 584.252571 60.958523 
z
" clip-path="url(#p3f714c185a)" style="fill: #d3c4f6; stroke: #858585; stroke-width: 0.5; stroke-linejoin: miter"/>
   </g>
   <g id="patch_4">
    <path d="M 584.252571 60.958523 
L 584.252571 60.958523 
L 584.252571 60.958523 
L 584.252571 60.958523 
z
" clip-path="url(#p3f714c185a)" style="fill: #d3c4f6; stroke: #858585; stroke-width: 0.5; stroke-linejoin: miter"/>
   </g>
   <g id="line2d_13">
    <path d="M 566.947898 51.938044 
L 566.947898 84.318256 
" clip-path="url(#p3f714c185a)" style="fill: none; stroke-dasharray: 0.625,0.375; stroke-dashoffset: 0; stroke: #858585; stroke-width: 0.5"/>
   </g>
   <g id="line2d_14">
    <path d="M 586.783213 37.631448 
L 586.783213 84.318256 
" clip-path="url(#p3f714c185a)" style="fill: none; stroke-dasharray: 1.25,0.5; stroke-dashoffset: 0; stroke: #858585; stroke-width: 0.5"/>
   </g>
   <g id="line2d_15">
    <path d="M 609.558992 55.648321 
L 609.558992 84.318256 
" clip-path="url(#p3f714c185a)" style="fill: none; stroke-dasharray: 0.625,0.375; stroke-dashoffset: 0; stroke: #858585; stroke-width: 0.5"/>
   </g>
   <g id="line2d_16">
    <path d="M 571.548134 109.554327 
L 571.548134 142.717588 
" clip-path="url(#p3f714c185a)" style="fill: none; stroke-dasharray: 0.625,0.375; stroke-dashoffset: 0; stroke: #858585; stroke-width: 0.5"/>
   </g>
   <g id="line2d_17">
    <path d="M 590.912156 105.921992 
L 590.912156 142.717588 
" clip-path="url(#p3f714c185a)" style="fill: none; stroke-dasharray: 1.25,0.5; stroke-dashoffset: 0; stroke: #858585; stroke-width: 0.5"/>
   </g>
   <g id="line2d_18">
    <path d="M 633.010974 124.824987 
L 633.010974 142.717588 
" clip-path="url(#p3f714c185a)" style="fill: none; stroke-dasharray: 0.625,0.375; stroke-dashoffset: 0; stroke: #858585; stroke-width: 0.5"/>
   </g>
   <g id="line2d_19">
    <path d="M 575.267255 166.613882 
L 575.267255 201.11692 
" clip-path="url(#p3f714c185a)" style="fill: none; stroke-dasharray: 0.625,0.375; stroke-dashoffset: 0; stroke: #858585; stroke-width: 0.5"/>
   </g>
   <g id="line2d_20">
    <path d="M 594.241948 164.633459 
L 594.241948 201.11692 
" clip-path="url(#p3f714c185a)" style="fill: none; stroke-dasharray: 1.25,0.5; stroke-dashoffset: 0; stroke: #858585; stroke-width: 0.5"/>
   </g>
   <g id="line2d_21">
    <path d="M 637.729033 183.870181 
L 637.729033 201.11692 
" clip-path="url(#p3f714c185a)" style="fill: none; stroke-dasharray: 0.625,0.375; stroke-dashoffset: 0; stroke: #858585; stroke-width: 0.5"/>
   </g>
   <g id="line2d_22">
    <defs>
     <path id="m71d4f1f09b" d="M 0 10 
L 0 -10 
" style="stroke: #8b0000; stroke-width: 3"/>
    </defs>
    <g clip-path="url(#p3f714c185a)">
     <use xlink:href="#m71d4f1f09b" x="589.478758" y="60.958523" style="fill: #8b0000; stroke: #8b0000; stroke-width: 3"/>
     <use xlink:href="#m71d4f1f09b" x="603.386167" y="119.357855" style="fill: #8b0000; stroke: #8b0000; stroke-width: 3"/>
     <use xlink:href="#m71d4f1f09b" x="608.290528" y="177.757187" style="fill: #8b0000; stroke: #8b0000; stroke-width: 3"/>
    </g>
   </g>
   <g id="line2d_23">
    <path d="M 585.529863 60.958523 
L 593.504878 60.958523 
" clip-path="url(#p3f714c185a)" style="fill: none; stroke: #8b0000; stroke-width: 2.7; stroke-linecap: round"/>
   </g>
   <g id="line2d_24">
    <path d="M 597.33128 119.357855 
L 609.234322 119.357855 
" clip-path="url(#p3f714c185a)" style="fill: none; stroke: #8b0000; stroke-width: 2.7; stroke-linecap: round"/>
   </g>
   <g id="line2d_25">
    <path d="M 602.36908 177.757187 
L 614.308707 177.757187 
" clip-path="url(#p3f714c185a)" style="fill: none; stroke: #8b0000; stroke-width: 2.7; stroke-linecap: round"/>
   </g>
   <g id="patch_5">
    <path d="M 174.432 206.956853 
L 174.432 31.758857 
" style="fill: none; stroke: #cccccc; stroke-width: 1.25; stroke-linejoin: miter; stroke-linecap: square"/>
   </g>
   <g id="patch_6">
    <path d="M 891.618 206.956853 
L 891.618 31.758857 
" style="fill: none; stroke: #cccccc; stroke-width: 1.25; stroke-linejoin: miter; stroke-linecap: square"/>
   </g>
   <g id="patch_7">
    <path d="M 174.432 206.956853 
L 891.618 206.956853 
" style="fill: none; stroke: #cccccc; stroke-width: 1.25; stroke-linejoin: miter; stroke-linecap: square"/>
   </g>
   <g id="patch_8">
    <path d="M 174.432 31.758857 
L 891.618 31.758857 
" style="fill: none; stroke: #cccccc; stroke-width: 1.25; stroke-linejoin: miter; stroke-linecap: square"/>
   </g>
   <g id="legend_1">
    <g id="patch_9">
     <path d="M 765.32452 189.437053 
L 837.297645 189.437053 
Q 840.097645 189.437053 840.097645 186.637053 
L 840.097645 167.487678 
Q 840.097645 164.687678 837.297645 164.687678 
L 765.32452 164.687678 
Q 762.52452 164.687678 762.52452 167.487678 
L 762.52452 186.637053 
Q 762.52452 189.437053 765.32452 189.437053 
z
" style="fill: #ffffff; opacity: 0.8; stroke: #cccccc; stroke-linejoin: miter"/>
    </g>
    <g id="patch_10">
     <path d="M 768.12452 180.925491 
L 796.12452 180.925491 
L 796.12452 171.125491 
L 768.12452 171.125491 
z
" style="fill: #d3c4f6; stroke: #858585; stroke-width: 0.5; stroke-linejoin: miter"/>
    </g>
    <g id="text_11">
     <!-- CTE -->
     <g style="fill: #262626" transform="translate(807.32452 180.925491) scale(0.14 -0.14)">
      <use xlink:href="#DejaVuSans-43"/>
      <use xlink:href="#DejaVuSans-54" x="69.824219"/>
      <use xlink:href="#DejaVuSans-45" x="130.908203"/>
     </g>
    </g>
   </g>
  </g>
  <g id="axes_2">
   <g id="matplotlib.axis_3">
    <g id="xtick_7">
     <g id="line2d_26">
      <path d="M 241.668187 206.956853 
L 241.668187 31.758857 
" clip-path="url(#p3f714c185a)" style="fill: none; stroke: #cccccc; stroke-linecap: round"/>
     </g>
     <g id="line2d_27">
      <defs>
       <path id="m02c387c866" d="M 0 0 
L 0 -6 
" style="stroke: #262626; stroke-width: 1.25"/>
      </defs>
      <g>
       <use xlink:href="#m02c387c866" x="241.668187" y="31.758857" style="fill: #262626; stroke: #262626; stroke-width: 1.25"/>
      </g>
     </g>
     <g id="text_12">
      <!-- −0.25 -->
      <g style="fill: #262626" transform="translate(224.813266 19.971201) scale(0.11 -0.11)">
       <defs>
        <path id="DejaVuSans-32" d="M 1228 531 
L 3431 531 
L 3431 0 
L 469 0 
L 469 531 
Q 828 903 1448 1529 
Q 2069 2156 2228 2338 
Q 2531 2678 2651 2914 
Q 2772 3150 2772 3378 
Q 2772 3750 2511 3984 
Q 2250 4219 1831 4219 
Q 1534 4219 1204 4116 
Q 875 4013 500 3803 
L 500 4441 
Q 881 4594 1212 4672 
Q 1544 4750 1819 4750 
Q 2544 4750 2975 4387 
Q 3406 4025 3406 3419 
Q 3406 3131 3298 2873 
Q 3191 2616 2906 2266 
Q 2828 2175 2409 1742 
Q 1991 1309 1228 531 
z
" transform="scale(0.015625)"/>
       </defs>
       <use xlink:href="#DejaVuSans-2212"/>
       <use xlink:href="#DejaVuSans-30" x="83.789062"/>
       <use xlink:href="#DejaVuSans-2e" x="147.412109"/>
       <use xlink:href="#DejaVuSans-32" x="179.199219"/>
       <use xlink:href="#DejaVuSans-35" x="242.822266"/>
      </g>
     </g>
    </g>
    <g id="xtick_8">
     <g id="line2d_28">
      <path d="M 353.7285 206.956853 
L 353.7285 31.758857 
" clip-path="url(#p3f714c185a)" style="fill: none; stroke: #cccccc; stroke-linecap: round"/>
     </g>
     <g id="line2d_29">
      <g>
       <use xlink:href="#m02c387c866" x="353.7285" y="31.758857" style="fill: #262626; stroke: #262626; stroke-width: 1.25"/>
      </g>
     </g>
     <g id="text_13">
      <!-- 0.00 -->
      <g style="fill: #262626" transform="translate(341.482406 19.971201) scale(0.11 -0.11)">
       <use xlink:href="#DejaVuSans-30"/>
       <use xlink:href="#DejaVuSans-2e" x="63.623047"/>
       <use xlink:href="#DejaVuSans-30" x="95.410156"/>
       <use xlink:href="#DejaVuSans-30" x="159.033203"/>
      </g>
     </g>
    </g>
    <g id="xtick_9">
     <g id="line2d_30">
      <path d="M 465.788812 206.956853 
L 465.788812 31.758857 
" clip-path="url(#p3f714c185a)" style="fill: none; stroke: #cccccc; stroke-linecap: round"/>
     </g>
     <g id="line2d_31">
      <g>
       <use xlink:href="#m02c387c866" x="465.788812" y="31.758857" style="fill: #262626; stroke: #262626; stroke-width: 1.25"/>
      </g>
     </g>
     <g id="text_14">
      <!-- 0.25 -->
      <g style="fill: #262626" transform="translate(453.542719 19.971201) scale(0.11 -0.11)">
       <use xlink:href="#DejaVuSans-30"/>
       <use xlink:href="#DejaVuSans-2e" x="63.623047"/>
       <use xlink:href="#DejaVuSans-32" x="95.410156"/>
       <use xlink:href="#DejaVuSans-35" x="159.033203"/>
      </g>
     </g>
    </g>
    <g id="xtick_10">
     <g id="line2d_32">
      <path d="M 577.849125 206.956853 
L 577.849125 31.758857 
" clip-path="url(#p3f714c185a)" style="fill: none; stroke: #cccccc; stroke-linecap: round"/>
     </g>
     <g id="line2d_33">
      <g>
       <use xlink:href="#m02c387c866" x="577.849125" y="31.758857" style="fill: #262626; stroke: #262626; stroke-width: 1.25"/>
      </g>
     </g>
     <g id="text_15">
      <!-- 0.50 -->
      <g style="fill: #262626" transform="translate(565.603031 19.971201) scale(0.11 -0.11)">
       <use xlink:href="#DejaVuSans-30"/>
       <use xlink:href="#DejaVuSans-2e" x="63.623047"/>
       <use xlink:href="#DejaVuSans-35" x="95.410156"/>
       <use xlink:href="#DejaVuSans-30" x="159.033203"/>
      </g>
     </g>
    </g>
    <g id="xtick_11">
     <g id="line2d_34">
      <path d="M 689.909437 206.956853 
L 689.909437 31.758857 
" clip-path="url(#p3f714c185a)" style="fill: none; stroke: #cccccc; stroke-linecap: round"/>
     </g>
     <g id="line2d_35">
      <g>
       <use xlink:href="#m02c387c866" x="689.909437" y="31.758857" style="fill: #262626; stroke: #262626; stroke-width: 1.25"/>
      </g>
     </g>
     <g id="text_16">
      <!-- 0.75 -->
      <g style="fill: #262626" transform="translate(677.663344 19.971201) scale(0.11 -0.11)">
       <defs>
        <path id="DejaVuSans-37" d="M 525 4666 
L 3525 4666 
L 3525 4397 
L 1831 0 
L 1172 0 
L 2766 4134 
L 525 4134 
L 525 4666 
z
" transform="scale(0.015625)"/>
       </defs>
       <use xlink:href="#DejaVuSans-30"/>
       <use xlink:href="#DejaVuSans-2e" x="63.623047"/>
       <use xlink:href="#DejaVuSans-37" x="95.410156"/>
       <use xlink:href="#DejaVuSans-35" x="159.033203"/>
      </g>
     </g>
    </g>
    <g id="text_17">
     <!-- DQD of Steering Angles -->
     <g style="fill: #262626" transform="translate(713.0826 27.378907) scale(0.12 -0.12)">
      <defs>
       <path id="DejaVuSans-53" d="M 3425 4513 
L 3425 3897 
Q 3066 4069 2747 4153 
Q 2428 4238 2131 4238 
Q 1616 4238 1336 4038 
Q 1056 3838 1056 3469 
Q 1056 3159 1242 3001 
Q 1428 2844 1947 2747 
L 2328 2669 
Q 3034 2534 3370 2195 
Q 3706 1856 3706 1288 
Q 3706 609 3251 259 
Q 2797 -91 1919 -91 
Q 1588 -91 1214 -16 
Q 841 59 441 206 
L 441 856 
Q 825 641 1194 531 
Q 1563 422 1919 422 
Q 2459 422 2753 634 
Q 3047 847 3047 1241 
Q 3047 1584 2836 1778 
Q 2625 1972 2144 2069 
L 1759 2144 
Q 1053 2284 737 2584 
Q 422 2884 422 3419 
Q 422 4038 858 4394 
Q 1294 4750 2059 4750 
Q 2388 4750 2728 4690 
Q 3069 4631 3425 4513 
z
" transform="scale(0.015625)"/>
       <path id="DejaVuSans-74" d="M 1172 4494 
L 1172 3500 
L 2356 3500 
L 2356 3053 
L 1172 3053 
L 1172 1153 
Q 1172 725 1289 603 
Q 1406 481 1766 481 
L 2356 481 
L 2356 0 
L 1766 0 
Q 1100 0 847 248 
Q 594 497 594 1153 
L 594 3053 
L 172 3053 
L 172 3500 
L 594 3500 
L 594 4494 
L 1172 4494 
z
" transform="scale(0.015625)"/>
       <path id="DejaVuSans-6c" d="M 603 4863 
L 1178 4863 
L 1178 0 
L 603 0 
L 603 4863 
z
" transform="scale(0.015625)"/>
      </defs>
      <use xlink:href="#DejaVuSans-44"/>
      <use xlink:href="#DejaVuSans-51" x="77.001953"/>
      <use xlink:href="#DejaVuSans-44" x="155.712891"/>
      <use xlink:href="#DejaVuSans-20" x="232.714844"/>
      <use xlink:href="#DejaVuSans-6f" x="264.501953"/>
      <use xlink:href="#DejaVuSans-66" x="325.683594"/>
      <use xlink:href="#DejaVuSans-20" x="360.888672"/>
      <use xlink:href="#DejaVuSans-53" x="392.675781"/>
      <use xlink:href="#DejaVuSans-74" x="456.152344"/>
      <use xlink:href="#DejaVuSans-65" x="495.361328"/>
      <use xlink:href="#DejaVuSans-65" x="556.884766"/>
      <use xlink:href="#DejaVuSans-72" x="618.408203"/>
      <use xlink:href="#DejaVuSans-69" x="659.521484"/>
      <use xlink:href="#DejaVuSans-6e" x="687.304688"/>
      <use xlink:href="#DejaVuSans-67" x="750.683594"/>
      <use xlink:href="#DejaVuSans-20" x="814.160156"/>
      <use xlink:href="#DejaVuSans-41" x="845.947266"/>
      <use xlink:href="#DejaVuSans-6e" x="914.355469"/>
      <use xlink:href="#DejaVuSans-67" x="977.734375"/>
      <use xlink:href="#DejaVuSans-6c" x="1041.210938"/>
      <use xlink:href="#DejaVuSans-65" x="1068.994141"/>
      <use xlink:href="#DejaVuSans-73" x="1130.517578"/>
     </g>
    </g>
   </g>
   <g id="PolyCollection_4">
    <defs>
     <path id="m4829518edc" d="M 220.574032 -188.466211 
L 220.574032 -188.48121 
L 225.327282 -188.48121 
L 230.080531 -188.48121 
L 234.83378 -188.48121 
L 239.58703 -188.48121 
L 244.340279 -188.48121 
L 249.093528 -188.48121 
L 253.846777 -188.48121 
L 258.600027 -188.48121 
L 263.353276 -188.48121 
L 268.106525 -188.48121 
L 272.859775 -188.48121 
L 277.613024 -188.48121 
L 282.366273 -188.48121 
L 287.119523 -188.48121 
L 291.872772 -188.48121 
L 296.626021 -188.48121 
L 301.37927 -188.48121 
L 306.13252 -188.48121 
L 310.885769 -188.48121 
L 315.639018 -188.48121 
L 320.392268 -188.48121 
L 325.145517 -188.48121 
L 329.898766 -188.48121 
L 334.652016 -188.48121 
L 339.405265 -188.48121 
L 344.158514 -188.48121 
L 348.911764 -188.48121 
L 353.665013 -188.48121 
L 358.418262 -188.48121 
L 363.171511 -188.48121 
L 367.924761 -188.48121 
L 372.67801 -188.48121 
L 377.431259 -188.48121 
L 382.184509 -188.48121 
L 386.937758 -188.48121 
L 391.691007 -188.48121 
L 396.444257 -188.48121 
L 401.197506 -188.48121 
L 405.950755 -188.48121 
L 410.704004 -188.48121 
L 415.457254 -188.48121 
L 420.210503 -188.48121 
L 424.963752 -188.48121 
L 429.717002 -188.48121 
L 434.470251 -188.48121 
L 439.2235 -188.48121 
L 443.97675 -188.48121 
L 448.729999 -188.48121 
L 453.483248 -188.48121 
L 458.236497 -188.48121 
L 462.989747 -188.48121 
L 467.742996 -188.48121 
L 472.496245 -188.48121 
L 477.249495 -188.48121 
L 482.002744 -188.48121 
L 486.755993 -188.48121 
L 491.509243 -188.48121 
L 496.262492 -188.48121 
L 501.015741 -188.48121 
L 505.768991 -188.48121 
L 510.52224 -188.48121 
L 515.275489 -188.48121 
L 520.028738 -188.48121 
L 524.781988 -188.48121 
L 529.535237 -188.48121 
L 534.288486 -188.48121 
L 539.041736 -188.48121 
L 543.794985 -188.48121 
L 548.548234 -188.48121 
L 553.301484 -188.48121 
L 558.054733 -188.48121 
L 562.807982 -188.48121 
L 567.561231 -188.48121 
L 572.314481 -188.48121 
L 577.06773 -188.48121 
L 581.820979 -188.48121 
L 586.574229 -188.48121 
L 591.327478 -188.48121 
L 596.080727 -188.48121 
L 600.833977 -188.48121 
L 605.587226 -188.48121 
L 610.340475 -188.48121 
L 615.093724 -188.48121 
L 619.846974 -188.48121 
L 624.600223 -188.48121 
L 629.353472 -188.48121 
L 634.106722 -188.48121 
L 638.859971 -188.48121 
L 643.61322 -188.48121 
L 648.36647 -188.48121 
L 653.119719 -188.48121 
L 657.872968 -188.48121 
L 662.626218 -188.48121 
L 667.379467 -188.48121 
L 672.132716 -188.48121 
L 676.885965 -188.48121 
L 681.639215 -188.48121 
L 686.392464 -188.48121 
L 691.145713 -188.48121 
L 691.145713 -188.466151 
L 691.145713 -188.466151 
L 686.392464 -188.448225 
L 681.639215 -188.421079 
L 676.885965 -188.389028 
L 672.132716 -188.359456 
L 667.379467 -188.335435 
L 662.626218 -188.30951 
L 657.872968 -188.267568 
L 653.119719 -188.202271 
L 648.36647 -188.124236 
L 643.61322 -188.05953 
L 638.859971 -188.034035 
L 634.106722 -188.056723 
L 629.353472 -188.114529 
L 624.600223 -188.180799 
L 619.846974 -188.228736 
L 615.093724 -188.242022 
L 610.340475 -188.221336 
L 605.587226 -188.185647 
L 600.833977 -188.164118 
L 596.080727 -188.179275 
L 591.327478 -188.232149 
L 586.574229 -188.301336 
L 581.820979 -188.356031 
L 577.06773 -188.371792 
L 572.314481 -188.340226 
L 567.561231 -188.272886 
L 562.807982 -188.199786 
L 558.054733 -188.157693 
L 553.301484 -188.169111 
L 548.548234 -188.227111 
L 543.794985 -188.300864 
L 539.041736 -188.357475 
L 534.288486 -188.381409 
L 529.535237 -188.378979 
L 524.781988 -188.369332 
L 520.028738 -188.370289 
L 515.275489 -188.38793 
L 510.52224 -188.415903 
L 505.768991 -188.443131 
L 501.015741 -188.461885 
L 496.262492 -188.469852 
L 491.509243 -188.467163 
L 486.755993 -188.453683 
L 482.002744 -188.430049 
L 477.249495 -188.401208 
L 472.496245 -188.377483 
L 467.742996 -188.369296 
L 462.989747 -188.378265 
L 458.236497 -188.391936 
L 453.483248 -188.385106 
L 448.729999 -188.323253 
L 443.97675 -188.164745 
L 439.2235 -187.866961 
L 434.470251 -187.403312 
L 429.717002 -186.785652 
L 424.963752 -186.071516 
L 420.210503 -185.340997 
L 415.457254 -184.656653 
L 410.704004 -184.037023 
L 405.950755 -183.453067 
L 401.197506 -182.829252 
L 396.444257 -182.039513 
L 391.691007 -180.903555 
L 386.937758 -179.167918 
L 382.184509 -176.45452 
L 377.431259 -172.254771 
L 372.67801 -166.151813 
L 367.924761 -158.343068 
L 363.171511 -150.147992 
L 358.418262 -143.876915 
L 353.665013 -141.761744 
L 348.911764 -144.581102 
L 344.158514 -151.154293 
L 339.405265 -159.178189 
L 334.652016 -166.618743 
L 329.898766 -172.512344 
L 325.145517 -176.832492 
L 320.392268 -179.925518 
L 315.639018 -182.106615 
L 310.885769 -183.586057 
L 306.13252 -184.554493 
L 301.37927 -185.225888 
L 296.626021 -185.789016 
L 291.872772 -186.342814 
L 287.119523 -186.889195 
L 282.366273 -187.381327 
L 277.613024 -187.777349 
L 272.859775 -188.063652 
L 268.106525 -188.24962 
L 263.353276 -188.354059 
L 258.600027 -188.397247 
L 253.846777 -188.399898 
L 249.093528 -188.384028 
L 244.340279 -188.37065 
L 239.58703 -188.373454 
L 234.83378 -188.393702 
L 230.080531 -188.422386 
L 225.327282 -188.44853 
L 220.574032 -188.466211 
z
" style="stroke: #6f6f6f; stroke-width: 0.5"/>
    </defs>
    <g clip-path="url(#p3f714c185a)">
     <use xlink:href="#m4829518edc" x="0" y="226.08" style="fill: #98daa7; stroke: #6f6f6f; stroke-width: 0.5"/>
    </g>
   </g>
   <g id="PolyCollection_5">
    <defs>
     <path id="m580d2ef9bb" d="M 231.673818 -130.063013 
L 231.673818 -130.081878 
L 236.800296 -130.081878 
L 241.926773 -130.081878 
L 247.053251 -130.081878 
L 252.179728 -130.081878 
L 257.306206 -130.081878 
L 262.432683 -130.081878 
L 267.559161 -130.081878 
L 272.685638 -130.081878 
L 277.812116 -130.081878 
L 282.938594 -130.081878 
L 288.065071 -130.081878 
L 293.191549 -130.081878 
L 298.318026 -130.081878 
L 303.444504 -130.081878 
L 308.570981 -130.081878 
L 313.697459 -130.081878 
L 318.823937 -130.081878 
L 323.950414 -130.081878 
L 329.076892 -130.081878 
L 334.203369 -130.081878 
L 339.329847 -130.081878 
L 344.456324 -130.081878 
L 349.582802 -130.081878 
L 354.709279 -130.081878 
L 359.835757 -130.081878 
L 364.962235 -130.081878 
L 370.088712 -130.081878 
L 375.21519 -130.081878 
L 380.341667 -130.081878 
L 385.468145 -130.081878 
L 390.594622 -130.081878 
L 395.7211 -130.081878 
L 400.847578 -130.081878 
L 405.974055 -130.081878 
L 411.100533 -130.081878 
L 416.22701 -130.081878 
L 421.353488 -130.081878 
L 426.479965 -130.081878 
L 431.606443 -130.081878 
L 436.73292 -130.081878 
L 441.859398 -130.081878 
L 446.985876 -130.081878 
L 452.112353 -130.081878 
L 457.238831 -130.081878 
L 462.365308 -130.081878 
L 467.491786 -130.081878 
L 472.618263 -130.081878 
L 477.744741 -130.081878 
L 482.871218 -130.081878 
L 487.997696 -130.081878 
L 493.124174 -130.081878 
L 498.250651 -130.081878 
L 503.377129 -130.081878 
L 508.503606 -130.081878 
L 513.630084 -130.081878 
L 518.756561 -130.081878 
L 523.883039 -130.081878 
L 529.009517 -130.081878 
L 534.135994 -130.081878 
L 539.262472 -130.081878 
L 544.388949 -130.081878 
L 549.515427 -130.081878 
L 554.641904 -130.081878 
L 559.768382 -130.081878 
L 564.894859 -130.081878 
L 570.021337 -130.081878 
L 575.147815 -130.081878 
L 580.274292 -130.081878 
L 585.40077 -130.081878 
L 590.527247 -130.081878 
L 595.653725 -130.081878 
L 600.780202 -130.081878 
L 605.90668 -130.081878 
L 611.033158 -130.081878 
L 616.159635 -130.081878 
L 621.286113 -130.081878 
L 626.41259 -130.081878 
L 631.539068 -130.081878 
L 636.665545 -130.081878 
L 641.792023 -130.081878 
L 646.9185 -130.081878 
L 652.044978 -130.081878 
L 657.171456 -130.081878 
L 662.297933 -130.081878 
L 667.424411 -130.081878 
L 672.550888 -130.081878 
L 677.677366 -130.081878 
L 682.803843 -130.081878 
L 687.930321 -130.081878 
L 693.056799 -130.081878 
L 698.183276 -130.081878 
L 703.309754 -130.081878 
L 708.436231 -130.081878 
L 713.562709 -130.081878 
L 718.689186 -130.081878 
L 723.815664 -130.081878 
L 728.942141 -130.081878 
L 734.068619 -130.081878 
L 739.195097 -130.081878 
L 739.195097 -130.063613 
L 739.195097 -130.063613 
L 734.068619 -130.048528 
L 728.942141 -130.027121 
L 723.815664 -130.000944 
L 718.689186 -129.973947 
L 713.562709 -129.951422 
L 708.436231 -129.937641 
L 703.309754 -129.933461 
L 698.183276 -129.935544 
L 693.056799 -129.93807 
L 687.930321 -129.935979 
L 682.803843 -129.927615 
L 677.677366 -129.914967 
L 672.550888 -129.901534 
L 667.424411 -129.889547 
L 662.297933 -129.878539 
L 657.171456 -129.865856 
L 652.044978 -129.848103 
L 646.9185 -129.822185 
L 641.792023 -129.785644 
L 636.665545 -129.737018 
L 631.539068 -129.676735 
L 626.41259 -129.608025 
L 621.286113 -129.536873 
L 616.159635 -129.470663 
L 611.033158 -129.416192 
L 605.90668 -129.378031 
L 600.780202 -129.357839 
L 595.653725 -129.354663 
L 590.527247 -129.365991 
L 585.40077 -129.388985 
L 580.274292 -129.421196 
L 575.147815 -129.460423 
L 570.021337 -129.504273 
L 564.894859 -129.550382 
L 559.768382 -129.597533 
L 554.641904 -129.646621 
L 549.515427 -129.700098 
L 544.388949 -129.75978 
L 539.262472 -129.824567 
L 534.135994 -129.889908 
L 529.009517 -129.949513 
L 523.883039 -129.998027 
L 518.756561 -130.032855 
L 513.630084 -130.054193 
L 508.503606 -130.063616 
L 503.377129 -130.062328 
L 498.250651 -130.050096 
L 493.124174 -130.02534 
L 487.997696 -129.986266 
L 482.871218 -129.932209 
L 477.744741 -129.863902 
L 472.618263 -129.781481 
L 467.491786 -129.68035 
L 462.365308 -129.54686 
L 457.238831 -129.3569 
L 452.112353 -129.079612 
L 446.985876 -128.685761 
L 441.859398 -128.157636 
L 436.73292 -127.496365 
L 431.606443 -126.723277 
L 426.479965 -125.87349 
L 421.353488 -124.981955 
L 416.22701 -124.06507 
L 411.100533 -123.104147 
L 405.974055 -122.038028 
L 400.847578 -120.768417 
L 395.7211 -119.175129 
L 390.594622 -117.135796 
L 385.468145 -114.550901 
L 380.341667 -111.385086 
L 375.21519 -107.733281 
L 370.088712 -103.893793 
L 364.962235 -100.394168 
L 359.835757 -97.908578 
L 354.709279 -97.05686 
L 349.582802 -98.162604 
L 344.456324 -101.100903 
L 339.329847 -105.329747 
L 334.203369 -110.090996 
L 329.076892 -114.669459 
L 323.950414 -118.582639 
L 318.823937 -121.637456 
L 313.697459 -123.873331 
L 308.570981 -125.455815 
L 303.444504 -126.579361 
L 298.318026 -127.407128 
L 293.191549 -128.048485 
L 288.065071 -128.562449 
L 282.938594 -128.973991 
L 277.812116 -129.292811 
L 272.685638 -129.527572 
L 267.559161 -129.692249 
L 262.432683 -129.805155 
L 257.306206 -129.884194 
L 252.179728 -129.942579 
L 247.053251 -129.987537 
L 241.926773 -130.02189 
L 236.800296 -130.04667 
L 231.673818 -130.063013 
z
" style="stroke: #6f6f6f; stroke-width: 0.5"/>
    </defs>
    <g clip-path="url(#p3f714c185a)">
     <use xlink:href="#m580d2ef9bb" x="0" y="226.08" style="fill: #98daa7; stroke: #6f6f6f; stroke-width: 0.5"/>
    </g>
   </g>
   <g id="PolyCollection_6">
    <defs>
     <path id="m11fffbdd0e" d="M 236.19906 -71.661645 
L 236.19906 -71.682546 
L 241.071654 -71.682546 
L 245.944247 -71.682546 
L 250.816841 -71.682546 
L 255.689435 -71.682546 
L 260.562028 -71.682546 
L 265.434622 -71.682546 
L 270.307216 -71.682546 
L 275.179809 -71.682546 
L 280.052403 -71.682546 
L 284.924997 -71.682546 
L 289.79759 -71.682546 
L 294.670184 -71.682546 
L 299.542777 -71.682546 
L 304.415371 -71.682546 
L 309.287965 -71.682546 
L 314.160558 -71.682546 
L 319.033152 -71.682546 
L 323.905746 -71.682546 
L 328.778339 -71.682546 
L 333.650933 -71.682546 
L 338.523527 -71.682546 
L 343.39612 -71.682546 
L 348.268714 -71.682546 
L 353.141307 -71.682546 
L 358.013901 -71.682546 
L 362.886495 -71.682546 
L 367.759088 -71.682546 
L 372.631682 -71.682546 
L 377.504276 -71.682546 
L 382.376869 -71.682546 
L 387.249463 -71.682546 
L 392.122057 -71.682546 
L 396.99465 -71.682546 
L 401.867244 -71.682546 
L 406.739838 -71.682546 
L 411.612431 -71.682546 
L 416.485025 -71.682546 
L 421.357618 -71.682546 
L 426.230212 -71.682546 
L 431.102806 -71.682546 
L 435.975399 -71.682546 
L 440.847993 -71.682546 
L 445.720587 -71.682546 
L 450.59318 -71.682546 
L 455.465774 -71.682546 
L 460.338368 -71.682546 
L 465.210961 -71.682546 
L 470.083555 -71.682546 
L 474.956149 -71.682546 
L 479.828742 -71.682546 
L 484.701336 -71.682546 
L 489.573929 -71.682546 
L 494.446523 -71.682546 
L 499.319117 -71.682546 
L 504.19171 -71.682546 
L 509.064304 -71.682546 
L 513.936898 -71.682546 
L 518.809491 -71.682546 
L 523.682085 -71.682546 
L 528.554679 -71.682546 
L 533.427272 -71.682546 
L 538.299866 -71.682546 
L 543.172459 -71.682546 
L 548.045053 -71.682546 
L 552.917647 -71.682546 
L 557.79024 -71.682546 
L 562.662834 -71.682546 
L 567.535428 -71.682546 
L 572.408021 -71.682546 
L 577.280615 -71.682546 
L 582.153209 -71.682546 
L 587.025802 -71.682546 
L 591.898396 -71.682546 
L 596.77099 -71.682546 
L 601.643583 -71.682546 
L 606.516177 -71.682546 
L 611.38877 -71.682546 
L 616.261364 -71.682546 
L 621.133958 -71.682546 
L 626.006551 -71.682546 
L 630.879145 -71.682546 
L 635.751739 -71.682546 
L 640.624332 -71.682546 
L 645.496926 -71.682546 
L 650.36952 -71.682546 
L 655.242113 -71.682546 
L 660.114707 -71.682546 
L 664.987301 -71.682546 
L 669.859894 -71.682546 
L 674.732488 -71.682546 
L 679.605081 -71.682546 
L 684.477675 -71.682546 
L 689.350269 -71.682546 
L 694.222862 -71.682546 
L 699.095456 -71.682546 
L 703.96805 -71.682546 
L 708.840643 -71.682546 
L 713.713237 -71.682546 
L 718.585831 -71.682546 
L 718.585831 -71.662695 
L 718.585831 -71.662695 
L 713.713237 -71.645954 
L 708.840643 -71.622198 
L 703.96805 -71.593497 
L 699.095456 -71.564964 
L 694.222862 -71.543555 
L 689.350269 -71.535252 
L 684.477675 -71.541951 
L 679.605081 -71.559821 
L 674.732488 -71.580001 
L 669.859894 -71.591002 
L 664.987301 -71.581532 
L 660.114707 -71.543097 
L 655.242113 -71.472572 
L 650.36952 -71.374714 
L 645.496926 -71.263308 
L 640.624332 -71.158976 
L 635.751739 -71.083048 
L 630.879145 -71.04979 
L 626.006551 -71.061171 
L 621.133958 -71.107276 
L 616.261364 -71.171918 
L 611.38877 -71.239799 
L 606.516177 -71.301087 
L 601.643583 -71.351531 
L 596.77099 -71.389331 
L 591.898396 -71.411756 
L 587.025802 -71.414244 
L 582.153209 -71.392746 
L 577.280615 -71.347705 
L 572.408021 -71.28682 
L 567.535428 -71.224358 
L 562.662834 -71.176836 
L 557.79024 -71.15703 
L 552.917647 -71.169297 
L 548.045053 -71.208566 
L 543.172459 -71.263447 
L 538.299866 -71.321673 
L 533.427272 -71.374764 
L 528.554679 -71.419438 
L 523.682085 -71.45566 
L 518.809491 -71.483581 
L 513.936898 -71.502161 
L 509.064304 -71.510366 
L 504.19171 -71.50928 
L 499.319117 -71.502545 
L 494.446523 -71.494121 
L 489.573929 -71.484891 
L 484.701336 -71.470603 
L 479.828742 -71.44224 
L 474.956149 -71.387512 
L 470.083555 -71.291406 
L 465.210961 -71.135617 
L 460.338368 -70.899421 
L 455.465774 -70.565014 
L 450.59318 -70.127129 
L 445.720587 -69.601558 
L 440.847993 -69.024521 
L 435.975399 -68.438235 
L 431.102806 -67.866851 
L 426.230212 -67.295711 
L 421.357618 -66.668177 
L 416.485025 -65.904791 
L 411.612431 -64.934237 
L 406.739838 -63.715586 
L 401.867244 -62.235459 
L 396.99465 -60.480964 
L 392.122057 -58.408307 
L 387.249463 -55.935358 
L 382.376869 -52.97902 
L 377.504276 -49.537269 
L 372.631682 -45.787079 
L 367.759088 -42.143471 
L 362.886495 -39.22053 
L 358.013901 -37.671853 
L 353.141307 -37.959493 
L 348.268714 -40.162047 
L 343.39612 -43.928701 
L 338.523527 -48.606701 
L 333.650933 -53.469964 
L 328.778339 -57.93054 
L 323.905746 -61.648031 
L 319.033152 -64.525553 
L 314.160558 -66.635928 
L 309.287965 -68.132495 
L 304.415371 -69.179423 
L 299.542777 -69.912695 
L 294.670184 -70.428341 
L 289.79759 -70.788385 
L 284.924997 -71.033794 
L 280.052403 -71.195818 
L 275.179809 -71.301581 
L 270.307216 -71.374395 
L 265.434622 -71.431701 
L 260.562028 -71.483481 
L 255.689435 -71.532683 
L 250.816841 -71.577602 
L 245.944247 -71.615082 
L 241.071654 -71.643073 
L 236.19906 -71.661645 
z
" style="stroke: #6f6f6f; stroke-width: 0.5"/>
    </defs>
    <g clip-path="url(#p3f714c185a)">
     <use xlink:href="#m11fffbdd0e" x="0" y="226.08" style="fill: #98daa7; stroke: #6f6f6f; stroke-width: 0.5"/>
    </g>
   </g>
   <g id="line2d_36">
    <path d="M 346.564229 37.59879 
L 346.564229 78.252531 
" clip-path="url(#p3f714c185a)" style="fill: none; stroke-dasharray: 0.625,0.375; stroke-dashoffset: 0; stroke: #6f6f6f; stroke-width: 0.5"/>
   </g>
   <g id="line2d_37">
    <path d="M 354.282504 37.59879 
L 354.282504 84.043476 
" clip-path="url(#p3f714c185a)" style="fill: none; stroke-dasharray: 1.25,0.5; stroke-dashoffset: 0; stroke: #6f6f6f; stroke-width: 0.5"/>
   </g>
   <g id="line2d_38">
    <path d="M 363.990116 37.59879 
L 363.990116 74.520653 
" clip-path="url(#p3f714c185a)" style="fill: none; stroke-dasharray: 0.625,0.375; stroke-dashoffset: 0; stroke: #6f6f6f; stroke-width: 0.5"/>
   </g>
   <g id="line2d_39">
    <path d="M 348.494736 95.998122 
L 348.494736 127.293759 
" clip-path="url(#p3f714c185a)" style="fill: none; stroke-dasharray: 0.625,0.375; stroke-dashoffset: 0; stroke: #6f6f6f; stroke-width: 0.5"/>
   </g>
   <g id="line2d_40">
    <path d="M 355.955763 95.998122 
L 355.955763 128.816048 
" clip-path="url(#p3f714c185a)" style="fill: none; stroke-dasharray: 1.25,0.5; stroke-dashoffset: 0; stroke: #6f6f6f; stroke-width: 0.5"/>
   </g>
   <g id="line2d_41">
    <path d="M 378.467126 95.998122 
L 378.467126 116.030228 
" clip-path="url(#p3f714c185a)" style="fill: none; stroke-dasharray: 0.625,0.375; stroke-dashoffset: 0; stroke: #6f6f6f; stroke-width: 0.5"/>
   </g>
   <g id="line2d_42">
    <path d="M 349.853457 154.397454 
L 349.853457 186.634303 
" clip-path="url(#p3f714c185a)" style="fill: none; stroke-dasharray: 0.625,0.375; stroke-dashoffset: 0; stroke: #6f6f6f; stroke-width: 0.5"/>
   </g>
   <g id="line2d_43">
    <path d="M 359.111592 154.397454 
L 359.111592 188.059263 
" clip-path="url(#p3f714c185a)" style="fill: none; stroke-dasharray: 1.25,0.5; stroke-dashoffset: 0; stroke: #6f6f6f; stroke-width: 0.5"/>
   </g>
   <g id="line2d_44">
    <path d="M 379.881587 154.397454 
L 379.881587 174.86352 
" clip-path="url(#p3f714c185a)" style="fill: none; stroke-dasharray: 0.625,0.375; stroke-dashoffset: 0; stroke: #6f6f6f; stroke-width: 0.5"/>
   </g>
   <g id="line2d_45">
    <defs>
     <path id="m1710093586" d="M 0 10 
L 0 -10 
" style="stroke: #232724; stroke-width: 3"/>
    </defs>
    <g clip-path="url(#p3f714c185a)">
     <use xlink:href="#m1710093586" x="360.131326" y="60.958523" style="fill: #232724; stroke: #232724; stroke-width: 3"/>
     <use xlink:href="#m1710093586" x="369.950833" y="119.357855" style="fill: #232724; stroke: #232724; stroke-width: 3"/>
     <use xlink:href="#m1710093586" x="371.505868" y="177.757187" style="fill: #232724; stroke: #232724; stroke-width: 3"/>
    </g>
   </g>
   <g id="line2d_46">
    <path d="M 357.31697 60.958523 
L 363.086581 60.958523 
" clip-path="url(#p3f714c185a)" style="fill: none; stroke: #232724; stroke-width: 2.7; stroke-linecap: round"/>
   </g>
   <g id="line2d_47">
    <path d="M 365.344416 119.357855 
L 375.407738 119.357855 
" clip-path="url(#p3f714c185a)" style="fill: none; stroke: #232724; stroke-width: 2.7; stroke-linecap: round"/>
   </g>
   <g id="line2d_48">
    <path d="M 366.877222 177.757187 
L 376.489877 177.757187 
" clip-path="url(#p3f714c185a)" style="fill: none; stroke: #232724; stroke-width: 2.7; stroke-linecap: round"/>
   </g>
   <g id="patch_11">
    <path d="M 174.432 206.956853 
L 174.432 31.758857 
" style="fill: none; stroke: #cccccc; stroke-width: 1.25; stroke-linejoin: miter; stroke-linecap: square"/>
   </g>
   <g id="patch_12">
    <path d="M 891.618 206.956853 
L 891.618 31.758857 
" style="fill: none; stroke: #cccccc; stroke-width: 1.25; stroke-linejoin: miter; stroke-linecap: square"/>
   </g>
   <g id="patch_13">
    <path d="M 174.432 206.956853 
L 891.618 206.956853 
" style="fill: none; stroke: #cccccc; stroke-width: 1.25; stroke-linejoin: miter; stroke-linecap: square"/>
   </g>
   <g id="patch_14">
    <path d="M 174.432 31.758857 
L 891.618 31.758857 
" style="fill: none; stroke: #cccccc; stroke-width: 1.25; stroke-linejoin: miter; stroke-linecap: square"/>
   </g>
   <g id="legend_2">
    <g id="patch_15">
     <path d="M 191.57572 74.028032 
L 295.38572 74.028032 
Q 298.18572 74.028032 298.18572 71.228032 
L 298.18572 52.078657 
Q 298.18572 49.278657 295.38572 49.278657 
L 191.57572 49.278657 
Q 188.77572 49.278657 188.77572 52.078657 
L 188.77572 71.228032 
Q 188.77572 74.028032 191.57572 74.028032 
z
" style="fill: #ffffff; opacity: 0.8; stroke: #cccccc; stroke-linejoin: miter"/>
    </g>
    <g id="patch_16">
     <path d="M 194.37572 65.516469 
L 222.37572 65.516469 
L 222.37572 55.716469 
L 194.37572 55.716469 
z
" style="fill: #98daa7; stroke: #6f6f6f; stroke-width: 0.5; stroke-linejoin: miter"/>
    </g>
    <g id="text_18">
     <!-- Steering -->
     <g style="fill: #262626" transform="translate(233.57572 65.516469) scale(0.14 -0.14)">
      <use xlink:href="#DejaVuSans-53"/>
      <use xlink:href="#DejaVuSans-74" x="63.476562"/>
      <use xlink:href="#DejaVuSans-65" x="102.685547"/>
      <use xlink:href="#DejaVuSans-65" x="164.208984"/>
      <use xlink:href="#DejaVuSans-72" x="225.732422"/>
      <use xlink:href="#DejaVuSans-69" x="266.845703"/>
      <use xlink:href="#DejaVuSans-6e" x="294.628906"/>
      <use xlink:href="#DejaVuSans-67" x="358.007812"/>
     </g>
    </g>
   </g>
  </g>
 </g>
 <defs>
  <clipPath id="p3f714c185a">
   <rect x="174.432" y="31.758857" width="717.186" height="175.197996"/>
  </clipPath>
 </defs>
</svg>
