<?xml version="1.0" encoding="utf-8" standalone="no"?>
<!DOCTYPE svg PUBLIC "-//W3C//DTD SVG 1.1//EN"
  "http://www.w3.org/Graphics/SVG/1.1/DTD/svg11.dtd">
<svg xmlns:xlink="http://www.w3.org/1999/xlink" width="572.04pt" height="174.24pt" viewBox="0 0 572.04 174.24" xmlns="http://www.w3.org/2000/svg" version="1.1">
 <metadata>
  <rdf:RDF xmlns:dc="http://purl.org/dc/elements/1.1/" xmlns:cc="http://creativecommons.org/ns#" xmlns:rdf="http://www.w3.org/1999/02/22-rdf-syntax-ns#">
   <cc:Work>
    <dc:type rdf:resource="http://purl.org/dc/dcmitype/StillImage"/>
    <dc:date>2024-04-12T17:48:08.415917</dc:date>
    <dc:format>image/svg+xml</dc:format>
    <dc:creator>
     <cc:Agent>
      <dc:title>Matplotlib v3.7.3, https://matplotlib.org/</dc:title>
     </cc:Agent>
    </dc:creator>
   </cc:Work>
  </rdf:RDF>
 </metadata>
 <defs>
  <style type="text/css">*{stroke-linejoin: round; stroke-linecap: butt}</style>
 </defs>
 <g id="figure_1">
  <g id="patch_1">
   <path d="M 0 174.24 
L 572.04 174.24 
L 572.04 0 
L 0 0 
z
" style="fill: #ffffff"/>
  </g>
  <g id="axes_1">
   <g id="patch_2">
    <path d="M 30.503929 140.556659 
L 417.078001 140.556659 
L 417.078001 20.9088 
L 30.503929 20.9088 
z
" style="fill: #ffffff"/>
   </g>
   <g id="PolyCollection_1">
    <defs>
     <path id="mc435765e96" d="M 39.008558 -151.646019 
L 39.008558 -151.646019 
L 39.395132 -151.646019 
L 40.16828 -151.646019 
L 40.554854 -123.559667 
L 41.328003 -127.572003 
L 41.714577 -130.581255 
L 42.101151 -132.921784 
L 42.487725 -134.794208 
L 42.874299 -136.326191 
L 43.260873 -131.175525 
L 43.647447 -132.637703 
L 44.420595 -133.904924 
L 44.807169 -135.992112 
L 45.193743 -137.639892 
L 45.580317 -134.604664 
L 45.966891 -136.024777 
L 46.74004 -136.649627 
L 47.513188 -137.760471 
L 48.286336 -138.256383 
L 48.67291 -139.149025 
L 49.832632 -139.552154 
L 50.219206 -140.380705 
L 50.992354 -140.69363 
L 51.378929 -140.989641 
L 52.538651 -136.50505 
L 52.925225 -136.89328 
L 53.311799 -137.612926 
L 53.698373 -137.947047 
L 54.084947 -134.346602 
L 54.858095 -134.352189 
L 55.244669 -134.728141 
L 56.017817 -135.088096 
L 56.404391 -134.036736 
L 56.790966 -133.310462 
L 57.17754 -134.329104 
L 57.564114 -134.643957 
L 58.337262 -134.947565 
L 58.723836 -135.24052 
L 59.11041 -134.213111 
L 59.496984 -134.794208 
L 59.883558 -135.070467 
L 60.270132 -135.337815 
L 60.656706 -132.371024 
L 61.429854 -132.658711 
L 62.203003 -133.209068 
L 62.589577 -133.728418 
L 62.976151 -133.977274 
L 63.749299 -134.454808 
L 64.135873 -134.684024 
L 64.522447 -134.907208 
L 64.909021 -134.020078 
L 65.295595 -134.460726 
L 67.228465 -134.672891 
L 68.001614 -135.081882 
L 68.388188 -135.471626 
L 68.774762 -135.6597 
L 69.161336 -136.023026 
L 69.54791 -136.198565 
L 70.321058 -136.53807 
L 70.707632 -137.020238 
L 71.867354 -137.174194 
L 72.640502 -136.738005 
L 74.186799 -136.890128 
L 74.573373 -137.039177 
L 74.959947 -137.46879 
L 75.346521 -137.606433 
L 75.733095 -137.873854 
L 77.665965 -138.00378 
L 79.212262 -138.499862 
L 79.98541 -138.618295 
L 80.371984 -138.734614 
L 80.758558 -138.848875 
L 81.145132 -138.090235 
L 81.531706 -138.208112 
L 81.91828 -138.323956 
L 82.304854 -138.437819 
L 82.691428 -138.549753 
L 83.078002 -138.659806 
L 83.464577 -138.768024 
L 83.851151 -138.874454 
L 84.237725 -137.644371 
L 85.010873 -137.756385 
L 85.784021 -138.072986 
L 86.170595 -138.179026 
L 86.557169 -138.48743 
L 87.716891 -138.445785 
L 88.103465 -138.545035 
L 88.876614 -137.594923 
L 90.42291 -137.697486 
L 91.196058 -137.798562 
L 91.582632 -137.996383 
L 92.35578 -138.093189 
L 92.742354 -138.188632 
L 93.128928 -138.000582 
L 93.515502 -138.095342 
L 95.448373 -138.188795 
L 98.154391 -137.631795 
L 98.540965 -136.663492 
L 99.314113 -136.764046 
L 99.700688 -136.863259 
L 100.86041 -136.961158 
L 101.246984 -135.990109 
L 101.633558 -136.092436 
L 103.566428 -135.519198 
L 105.499299 -134.645708 
L 105.885873 -134.231472 
L 106.272447 -133.749525 
L 107.045595 -133.3904 
L 108.205317 -133.502398 
L 110.138188 -133.124502 
L 110.524762 -133.236077 
L 112.844206 -133.346316 
L 114.003928 -133.455243 
L 115.936799 -133.562881 
L 116.323373 -133.669252 
L 117.483095 -133.179378 
L 117.869669 -132.418772 
L 123.281706 -132.089606 
L 125.987724 -131.798071 
L 128.693743 -130.953354 
L 133.719206 -130.118182 
L 139.131243 -129.292394 
L 140.290965 -129.417274 
L 141.064113 -129.099974 
L 142.996984 -127.848334 
L 153.04791 -128.107004 
L 159.619669 -127.814572 
L 163.871984 -127.550854 
L 178.561798 -127.250802 
L 204.848835 -126.484191 
L 210.647446 -126.617322 
L 211.420595 -125.794352 
L 214.126613 -125.929701 
L 226.883557 -125.600988 
L 257.422909 -125.21145 
L 263.994668 -124.881215 
L 283.709946 -124.85596 
L 360.251612 -124.992644 
L 360.251612 -131.011148 
L 360.251612 -131.011148 
L 283.709946 -130.905328 
L 263.994668 -131.069394 
L 257.422909 -131.803594 
L 226.883557 -132.050728 
L 214.126613 -132.806501 
L 211.420595 -132.707345 
L 210.647446 -132.984835 
L 204.848835 -132.885574 
L 178.561798 -133.686417 
L 163.871984 -133.611656 
L 159.619669 -133.575665 
L 153.04791 -133.971365 
L 142.996984 -133.777138 
L 141.064113 -134.871171 
L 140.290965 -134.804922 
L 139.131243 -134.710309 
L 133.719206 -135.566707 
L 128.693743 -136.432837 
L 125.987724 -137.308865 
L 123.281706 -137.305111 
L 117.869669 -137.7541 
L 117.483095 -138.577107 
L 116.323373 -138.397371 
L 115.936799 -138.318976 
L 114.003928 -138.239649 
L 112.844206 -138.159371 
L 110.524762 -138.078126 
L 110.138188 -137.995897 
L 108.205317 -138.774037 
L 107.045595 -138.69458 
L 106.272447 -139.188319 
L 105.885873 -139.914351 
L 105.499299 -140.019856 
L 103.566428 -140.96314 
L 101.633558 -140.765389 
L 101.246984 -140.693806 
L 100.86041 -140.662558 
L 99.700688 -140.589335 
L 99.314113 -140.515129 
L 98.540965 -140.43992 
L 98.154391 -140.439845 
L 95.448373 -140.116075 
L 93.515502 -140.036006 
L 93.128928 -139.954817 
L 92.742354 -140.775087 
L 92.35578 -140.697989 
L 91.582632 -140.619788 
L 91.196058 -140.459988 
L 90.42291 -140.378338 
L 88.876614 -140.295487 
L 88.103465 -141.306514 
L 87.716891 -141.228184 
L 86.557169 -142.292646 
L 86.170595 -142.073427 
L 85.784021 -141.998052 
L 85.010873 -142.61719 
L 84.237725 -142.544377 
L 83.851151 -144.223265 
L 83.464577 -144.161408 
L 83.078002 -144.098512 
L 82.691428 -144.034551 
L 82.304854 -143.969495 
L 81.91828 -143.903318 
L 81.531706 -143.835991 
L 81.145132 -143.767482 
L 80.758558 -143.564813 
L 80.371984 -143.49266 
L 79.98541 -143.419206 
L 79.212262 -143.344417 
L 77.665965 -143.031149 
L 75.733095 -142.949102 
L 75.346521 -142.78023 
L 74.959947 -142.693311 
L 74.573373 -142.422016 
L 74.186799 -142.327894 
L 72.640502 -142.231831 
L 71.867354 -143.057471 
L 70.707632 -142.966103 
L 70.321058 -142.679952 
L 69.54791 -142.478468 
L 69.161336 -142.374291 
L 68.774762 -142.158669 
L 68.388188 -142.047054 
L 68.001614 -141.815753 
L 67.228465 -141.573031 
L 65.295595 -141.447118 
L 64.909021 -141.185608 
L 64.522447 -140.668035 
L 64.135873 -140.521662 
L 63.749299 -140.371333 
L 62.976151 -140.058147 
L 62.589577 -139.894938 
L 62.203003 -139.554327 
L 61.429854 -139.193381 
L 60.656706 -139.004705 
L 60.270132 -140.773883 
L 59.883558 -140.595651 
L 59.496984 -140.411478 
L 59.11041 -140.02408 
L 58.723836 -142.921624 
L 58.337262 -142.765831 
L 57.564114 -142.604373 
L 57.17754 -142.436935 
L 56.790966 -141.895224 
L 56.404391 -142.292404 
L 56.017817 -143.105499 
L 55.244669 -142.919836 
L 54.858095 -142.725921 
L 54.084947 -145.431281 
L 53.698373 -149.295647 
L 53.311799 -149.238321 
L 52.925225 -149.114849 
L 52.538651 -149.048239 
L 51.378929 -150.916038 
L 50.992354 -150.895761 
L 50.219206 -150.874325 
L 49.832632 -152.867747 
L 48.67291 -152.908472 
L 48.286336 -152.998647 
L 47.513188 -153.048744 
L 46.74004 -153.160962 
L 45.966891 -153.224085 
L 45.580317 -153.367545 
L 45.193743 -152.348085 
L 44.807169 -152.430681 
L 44.420595 -152.535302 
L 43.647447 -152.598823 
L 43.260873 -152.672115 
L 42.874299 -151.646019 
L 42.487725 -151.646019 
L 42.101151 -151.646019 
L 41.714577 -151.646019 
L 41.328003 -151.646019 
L 40.554854 -151.646019 
L 40.16828 -151.646019 
L 39.395132 -151.646019 
L 39.008558 -151.646019 
z
"/>
    </defs>
    <g clip-path="url(#pc4df0ca28c)">
     <use xlink:href="#mc435765e96" x="0" y="174.24" style="fill: #ff9848; fill-opacity: 0.4"/>
    </g>
   </g>
   <g id="PolyCollection_2">
    <defs>
     <path id="mcd218570df" d="M 34.756243 -151.646019 
L 34.756243 -151.646019 
L 35.915966 -151.646019 
L 45.580317 -95.473315 
L 46.74004 -109.516491 
L 52.538651 -117.942397 
L 55.631243 -123.559667 
L 56.404391 -101.59238 
L 57.564114 -107.849085 
L 57.950688 -112.715411 
L 59.496984 -119.793703 
L 63.749299 -122.448063 
L 65.682169 -114.834861 
L 67.228465 -117.46423 
L 73.800225 -116.470762 
L 76.892817 -111.994699 
L 78.05254 -114.19755 
L 83.078002 -116.048718 
L 84.237725 -117.743827 
L 87.330317 -119.284836 
L 87.716891 -120.691844 
L 88.490039 -121.981601 
L 91.196058 -124.263479 
L 93.515502 -120.200871 
L 94.675225 -121.285187 
L 95.061799 -122.297214 
L 99.314113 -123.24395 
L 100.473836 -123.526009 
L 100.86041 -124.37813 
L 102.406706 -125.180127 
L 103.566428 -120.762843 
L 107.045595 -118.7131 
L 108.205317 -119.603179 
L 109.365039 -120.446411 
L 111.29791 -122.006392 
L 111.684484 -122.729309 
L 114.003928 -124.074273 
L 115.16365 -121.714688 
L 116.709947 -122.961826 
L 117.096521 -123.547218 
L 117.869669 -124.109194 
L 123.281706 -124.649132 
L 123.66828 -124.361541 
L 124.054854 -124.86681 
L 124.828002 -125.353704 
L 125.60115 -125.82321 
L 132.17291 -126.276242 
L 133.719206 -126.713652 
L 134.492354 -127.136234 
L 137.584947 -127.54473 
L 139.131243 -127.939834 
L 141.064113 -126.753414 
L 142.223836 -127.148535 
L 144.54328 -127.531308 
L 144.929854 -128.611071 
L 145.316428 -127.36866 
L 147.635873 -126.125319 
L 152.661336 -125.667055 
L 155.367354 -126.032956 
L 156.140502 -126.388693 
L 156.527076 -124.322954 
L 156.91365 -125.051569 
L 157.686798 -125.401496 
L 159.619669 -123.674006 
L 160.779391 -124.264983 
L 162.712261 -124.607246 
L 163.48541 -124.941058 
L 163.871984 -125.266728 
L 164.258558 -125.584551 
L 169.284021 -125.894806 
L 169.670595 -126.197762 
L 170.443743 -124.378464 
L 171.603465 -124.691884 
L 172.763187 -123.492843 
L 174.309484 -124.118469 
L 177.015502 -124.587972 
L 180.108095 -124.17024 
L 180.494669 -124.465678 
L 183.587261 -125.037896 
L 184.746984 -125.315064 
L 185.520132 -124.147291 
L 188.612724 -124.42789 
L 189.772446 -124.702821 
L 195.571058 -124.972253 
L 196.344206 -125.236349 
L 197.503928 -125.495268 
L 198.277076 -125.720156 
L 202.915965 -125.967069 
L 207.554854 -126.016449 
L 211.03402 -126.255977 
L 214.126613 -126.49107 
L 220.311798 -125.494693 
L 222.244669 -124.760471 
L 225.337261 -125.002683 
L 228.04328 -125.24057 
L 229.203002 -125.474247 
L 229.97615 -125.703824 
L 230.362724 -125.929408 
L 233.068743 -126.151103 
L 233.455317 -125.435754 
L 237.321057 -125.876263 
L 240.027076 -126.509945 
L 241.959946 -126.714303 
L 243.506243 -126.677776 
L 243.892817 -126.877522 
L 250.078002 -125.913076 
L 251.237724 -126.115697 
L 252.397446 -124.998605 
L 258.196057 -125.205174 
L 258.582631 -125.408565 
L 259.742354 -125.608851 
L 262.061798 -125.806102 
L 262.834946 -126.000387 
L 263.994668 -126.191773 
L 264.767817 -126.380323 
L 265.927539 -126.5661 
L 269.406705 -126.749165 
L 269.793279 -126.769382 
L 270.566428 -126.199718 
L 271.339576 -125.661175 
L 274.045594 -125.067887 
L 274.432168 -124.476637 
L 275.591891 -124.380782 
L 276.751613 -124.156285 
L 277.138187 -123.190337 
L 277.911335 -123.383913 
L 278.297909 -123.574873 
L 287.962261 -122.594107 
L 288.735409 -121.979493 
L 291.828002 -122.557412 
L 295.307168 -122.745081 
L 301.105779 -122.930343 
L 304.198372 -122.039882 
L 304.584946 -121.902058 
L 307.677539 -121.029265 
L 310.770131 -121.400911 
L 312.316427 -121.587609 
L 313.089576 -121.772016 
L 314.249298 -120.970597 
L 314.635872 -121.156509 
L 315.795594 -121.305163 
L 317.728464 -121.486845 
L 323.140501 -121.843758 
L 323.527076 -122.019066 
L 338.603464 -121.206837 
L 339.376613 -121.31702 
L 344.402075 -121.492332 
L 345.561798 -121.223515 
L 345.948372 -120.323568 
L 347.494668 -120.499536 
L 348.65439 -120.051989 
L 349.814112 -119.938988 
L 350.200687 -119.853061 
L 352.520131 -119.433476 
L 352.906705 -118.688637 
L 355.226149 -118.867754 
L 356.385872 -119.220208 
L 357.545594 -118.810066 
L 359.478464 -117.601878 
L 365.663649 -117.092544 
L 366.050224 -117.157005 
L 373.395131 -117.241446 
L 376.101149 -117.419708 
L 378.420594 -117.596132 
L 379.96689 -117.500023 
L 381.899761 -117.674237 
L 407.027075 -117.559442 
L 407.027075 -125.853064 
L 407.027075 -125.853064 
L 381.899761 -126.722441 
L 379.96689 -126.594628 
L 378.420594 -127.062027 
L 376.101149 -126.934649 
L 373.395131 -126.805944 
L 366.050224 -127.02135 
L 365.663649 -127.661623 
L 359.478464 -128.18001 
L 357.545594 -129.510824 
L 356.385872 -129.258143 
L 355.226149 -129.014797 
L 352.906705 -128.891129 
L 352.520131 -129.692026 
L 350.200687 -129.438698 
L 349.814112 -129.520876 
L 348.65439 -130.048578 
L 347.494668 -129.775568 
L 345.948372 -129.652006 
L 345.561798 -129.105688 
L 344.402075 -129.685723 
L 339.376613 -129.558047 
L 338.603464 -129.854442 
L 323.527076 -130.717539 
L 323.140501 -130.593702 
L 317.728464 -130.341578 
L 315.795594 -130.213238 
L 314.635872 -130.558774 
L 314.249298 -130.430193 
L 313.089576 -130.344276 
L 312.316427 -130.212784 
L 310.770131 -130.079658 
L 307.677539 -130.329519 
L 304.584946 -131.261175 
L 304.198372 -131.877423 
L 301.105779 -132.830946 
L 295.307168 -132.709558 
L 291.828002 -132.586594 
L 288.735409 -132.20793 
L 287.962261 -132.630684 
L 278.297909 -133.033093 
L 277.911335 -132.906475 
L 277.138187 -132.778122 
L 276.751613 -133.810192 
L 275.591891 -135.026331 
L 274.432168 -135.212812 
L 274.045594 -134.907876 
L 271.339576 -134.604962 
L 270.566428 -134.962792 
L 269.793279 -134.696218 
L 269.406705 -134.72086 
L 265.927539 -134.59641 
L 264.767817 -134.470117 
L 263.994668 -134.341938 
L 262.834946 -134.211832 
L 262.061798 -134.079755 
L 259.742354 -133.945662 
L 258.582631 -133.809505 
L 258.196057 -133.671238 
L 252.397446 -133.53081 
L 251.237724 -134.715084 
L 250.078002 -134.580712 
L 243.892817 -134.622025 
L 243.506243 -134.484734 
L 241.959946 -134.790723 
L 240.027076 -134.652565 
L 237.321057 -134.224159 
L 233.455317 -133.926349 
L 233.068743 -133.558665 
L 230.362724 -133.401383 
L 229.97615 -133.241343 
L 229.203002 -133.078469 
L 228.04328 -132.912688 
L 225.337261 -132.743919 
L 222.244669 -132.572082 
L 220.311798 -132.189232 
L 214.126613 -133.111087 
L 211.03402 -132.937863 
L 207.554854 -132.761371 
L 202.915965 -133.991741 
L 198.277076 -133.821988 
L 197.503928 -134.841173 
L 196.344206 -134.674789 
L 195.571058 -134.505076 
L 189.772446 -134.331936 
L 188.612724 -134.155261 
L 185.520132 -133.974944 
L 184.746984 -134.092049 
L 183.587261 -133.90727 
L 180.494669 -133.525792 
L 180.108095 -133.328833 
L 177.015502 -135.185653 
L 174.309484 -136.107829 
L 172.763187 -135.754688 
L 171.603465 -135.986378 
L 170.443743 -135.80429 
L 169.670595 -136.451673 
L 169.284021 -136.270788 
L 164.258558 -136.085544 
L 163.871984 -135.895782 
L 163.48541 -135.701335 
L 162.712261 -135.502026 
L 160.779391 -135.297672 
L 159.619669 -136.941367 
L 157.686798 -136.869686 
L 156.91365 -136.672668 
L 156.527076 -136.262439 
L 156.140502 -137.114346 
L 155.367354 -136.909675 
L 152.661336 -136.699155 
L 147.635873 -138.090055 
L 145.316428 -137.511161 
L 144.929854 -136.953031 
L 144.54328 -136.264298 
L 142.223836 -136.020143 
L 141.064113 -135.768113 
L 139.131243 -136.675916 
L 137.584947 -136.426415 
L 134.492354 -136.168455 
L 133.719206 -135.901601 
L 132.17291 -135.625383 
L 125.60115 -135.3393 
L 124.828002 -135.042814 
L 124.054854 -134.735348 
L 123.66828 -134.416278 
L 123.281706 -137.339447 
L 117.869669 -137.053316 
L 117.096521 -136.755506 
L 116.709947 -136.445287 
L 115.16365 -135.784385 
L 114.003928 -138.067994 
L 111.684484 -137.405651 
L 111.29791 -137.049642 
L 109.365039 -136.281412 
L 108.205317 -135.866152 
L 107.045595 -135.427822 
L 103.566428 -134.381163 
L 102.406706 -135.982383 
L 100.86041 -135.507727 
L 100.473836 -135.003406 
L 99.314113 -136.559543 
L 95.061799 -136.056661 
L 94.675225 -135.519096 
L 93.515502 -134.943135 
L 91.196058 -140.139763 
L 88.490039 -139.180909 
L 87.716891 -138.638948 
L 87.330317 -138.047717 
L 84.237725 -137.400179 
L 83.078002 -136.687887 
L 78.05254 -142.283902 
L 76.892817 -141.733189 
L 73.800225 -139.425557 
L 67.228465 -143.69828 
L 65.682169 -143.086916 
L 63.749299 -145.736035 
L 59.496984 -145.198764 
L 57.950688 -143.766041 
L 57.564114 -142.781044 
L 56.404391 -141.514619 
L 55.631243 -151.646019 
L 52.538651 -151.646019 
L 46.74004 -151.646019 
L 45.580317 -151.646019 
L 35.915966 -151.646019 
L 34.756243 -151.646019 
z
"/>
    </defs>
    <g clip-path="url(#pc4df0ca28c)">
     <use xlink:href="#mcd218570df" x="0" y="174.24" style="fill: #089fff; fill-opacity: 0.4"/>
    </g>
   </g>
   <g id="PolyCollection_3">
    <defs>
     <path id="m5ed4ca853a" d="M 39.008558 -151.646019 
L 39.008558 -151.646019 
L 39.395132 -151.646019 
L 40.16828 -109.516491 
L 40.554854 -90.333156 
L 41.328003 -99.092137 
L 41.714577 -105.661372 
L 42.101151 -110.770777 
L 42.487725 -114.858301 
L 42.874299 -110.173608 
L 43.260873 -104.745692 
L 43.647447 -108.095715 
L 44.420595 -110.999069 
L 44.807169 -106.233968 
L 45.193743 -111.014184 
L 45.580317 -109.045002 
L 45.966891 -109.322636 
L 46.74004 -107.497578 
L 47.513188 -104.577155 
L 48.286336 -106.258186 
L 48.67291 -109.284041 
L 49.832632 -108.034433 
L 50.219206 -110.520949 
L 50.992354 -111.663312 
L 51.378929 -112.743926 
L 52.538651 -109.096207 
L 52.925225 -110.187228 
L 53.311799 -112.209608 
L 53.698373 -113.14857 
L 54.084947 -110.124834 
L 54.858095 -106.399178 
L 55.244669 -107.382805 
L 56.017817 -104.739084 
L 56.404391 -106.090081 
L 56.790966 -103.685498 
L 57.17754 -106.298641 
L 57.564114 -107.123139 
L 58.337262 -107.918191 
L 58.723836 -108.685345 
L 59.11041 -106.520562 
L 59.496984 -106.666624 
L 59.883558 -107.403991 
L 60.270132 -105.399538 
L 60.656706 -100.546375 
L 61.429854 -101.309056 
L 62.203003 -101.511411 
L 62.589577 -102.923653 
L 62.976151 -103.600353 
L 63.749299 -103.674515 
L 64.135873 -102.067227 
L 64.522447 -101.482001 
L 64.909021 -101.525657 
L 65.295595 -101.53733 
L 67.228465 -102.155956 
L 68.001614 -103.348488 
L 68.388188 -104.4849 
L 68.774762 -104.941857 
L 69.161336 -106.003316 
L 69.54791 -105.299324 
L 70.321058 -106.317933 
L 70.707632 -107.764574 
L 71.867354 -108.226484 
L 72.640502 -108.44393 
L 74.186799 -108.884768 
L 74.573373 -109.3167 
L 74.959947 -110.56168 
L 75.346521 -110.960557 
L 75.733095 -111.603311 
L 77.665965 -111.395176 
L 79.212262 -112.858843 
L 79.98541 -111.690096 
L 80.371984 -110.653922 
L 80.758558 -111.054552 
L 81.145132 -110.52897 
L 81.531706 -110.88651 
L 81.91828 -110.354138 
L 82.304854 -110.70706 
L 82.691428 -111.054001 
L 83.078002 -110.450889 
L 83.464577 -110.794182 
L 83.851151 -111.1318 
L 84.237725 -109.696734 
L 85.010873 -110.032329 
L 85.784021 -109.430145 
L 86.170595 -109.759957 
L 86.557169 -110.719179 
L 87.716891 -109.752579 
L 88.103465 -110.067567 
L 88.876614 -109.741656 
L 90.42291 -110.047528 
L 91.196058 -110.348966 
L 91.582632 -109.735223 
L 92.35578 -109.990985 
L 92.742354 -110.284331 
L 93.128928 -109.778469 
L 93.515502 -109.638455 
L 95.448373 -109.928162 
L 98.154391 -109.77134 
L 98.540965 -109.239745 
L 99.314113 -109.202423 
L 99.700688 -109.48538 
L 100.86041 -108.707451 
L 101.246984 -107.893215 
L 101.633558 -108.112242 
L 103.566428 -107.352866 
L 105.499299 -106.840482 
L 105.885873 -105.566145 
L 106.272447 -105.006078 
L 107.045595 -105.233863 
L 108.205317 -104.484747 
L 110.138188 -104.129082 
L 110.524762 -103.984075 
L 112.844206 -104.269475 
L 114.003928 -104.181806 
L 115.936799 -104.462659 
L 116.323373 -103.777329 
L 117.483095 -103.071777 
L 117.869669 -102.659236 
L 123.281706 -101.972274 
L 125.987724 -101.660344 
L 128.693743 -100.986864 
L 133.719206 -100.320994 
L 139.131243 -99.662606 
L 140.290965 -99.385767 
L 141.064113 -98.73989 
L 142.996984 -97.469428 
L 153.04791 -97.965229 
L 159.619669 -97.344486 
L 163.871984 -96.730419 
L 178.561798 -96.473098 
L 204.848835 -95.870198 
L 210.647446 -96.165308 
L 211.420595 -95.843393 
L 214.126613 -96.135553 
L 226.883557 -95.546972 
L 257.422909 -95.309631 
L 263.994668 -94.731375 
L 283.709946 -94.159049 
L 360.251612 -93.898977 
L 360.251612 -104.499134 
L 360.251612 -104.499134 
L 283.709946 -104.56534 
L 263.994668 -105.191306 
L 257.422909 -105.823759 
L 226.883557 -105.932041 
L 214.126613 -106.574994 
L 211.420595 -106.337778 
L 210.647446 -106.81833 
L 204.848835 -106.579885 
L 178.561798 -107.240056 
L 163.871984 -106.900371 
L 159.619669 -107.569411 
L 153.04791 -108.245724 
L 142.996984 -108.137661 
L 141.064113 -109.526658 
L 140.290965 -110.232796 
L 139.131243 -109.903067 
L 133.719206 -110.619311 
L 128.693743 -111.343694 
L 125.987724 -112.076355 
L 123.281706 -112.702481 
L 117.869669 -113.451467 
L 117.483095 -113.990233 
L 116.323373 -114.760011 
L 115.936799 -114.570323 
L 114.003928 -114.349634 
L 112.844206 -114.258962 
L 110.524762 -114.033738 
L 110.138188 -114.39324 
L 108.205317 -114.548236 
L 107.045595 -115.359472 
L 106.272447 -116.120297 
L 105.885873 -117.176355 
L 105.499299 -118.673966 
L 103.566428 -119.340031 
L 101.633558 -119.181432 
L 101.246984 -119.454806 
L 100.86041 -119.81165 
L 99.700688 -119.658689 
L 99.314113 -119.444009 
L 98.540965 -119.471642 
L 98.154391 -120.152268 
L 95.448373 -119.564565 
L 93.515502 -119.341777 
L 93.128928 -120.449772 
L 92.742354 -121.209498 
L 92.35578 -120.993636 
L 91.582632 -121.936617 
L 91.196058 -122.727192 
L 90.42291 -122.516106 
L 88.876614 -122.301915 
L 88.103465 -123.53653 
L 87.716891 -123.323579 
L 86.557169 -124.393775 
L 86.170595 -123.755051 
L 85.784021 -123.535437 
L 85.010873 -123.830247 
L 84.237725 -123.605927 
L 83.851151 -126.70279 
L 83.464577 -126.494929 
L 83.078002 -126.283576 
L 82.691428 -127.258596 
L 82.304854 -127.050157 
L 81.91828 -126.838123 
L 81.531706 -126.463658 
L 81.145132 -126.242761 
L 80.758558 -125.874159 
L 80.371984 -126.434572 
L 79.98541 -127.079242 
L 79.212262 -128.38789 
L 77.665965 -127.510225 
L 75.733095 -127.491351 
L 75.346521 -127.705604 
L 74.959947 -127.470894 
L 74.573373 -126.738314 
L 74.186799 -126.484154 
L 72.640502 -126.224753 
L 71.867354 -127.658309 
L 70.707632 -127.403121 
L 70.321058 -126.603905 
L 69.54791 -126.04116 
L 69.161336 -127.392006 
L 68.774762 -126.827959 
L 68.388188 -127.434761 
L 68.001614 -126.851357 
L 67.228465 -126.239143 
L 65.295595 -125.921557 
L 64.909021 -125.069036 
L 64.522447 -124.203012 
L 64.135873 -123.70648 
L 63.749299 -125.606191 
L 62.976151 -124.794747 
L 62.589577 -124.41656 
L 62.203003 -123.6273 
L 61.429854 -125.269513 
L 60.656706 -124.869869 
L 60.270132 -128.582632 
L 59.883558 -130.967135 
L 59.496984 -130.622487 
L 59.11041 -129.945328 
L 58.723836 -132.521073 
L 58.337262 -132.179556 
L 57.564114 -131.82562 
L 57.17754 -131.458576 
L 56.790966 -131.868867 
L 56.404391 -131.479894 
L 56.017817 -132.221357 
L 55.244669 -135.462519 
L 54.858095 -135.102886 
L 54.084947 -136.34133 
L 53.698373 -139.989268 
L 53.311799 -139.704957 
L 52.925225 -139.092595 
L 52.538651 -138.762242 
L 51.378929 -140.448133 
L 50.992354 -140.13708 
L 50.219206 -139.808254 
L 49.832632 -138.178889 
L 48.67291 -143.452563 
L 48.286336 -142.867316 
L 47.513188 -142.542179 
L 46.74004 -141.868664 
L 45.966891 -141.307492 
L 45.580317 -140.627637 
L 45.193743 -139.061608 
L 44.807169 -137.581089 
L 44.420595 -136.120265 
L 43.647447 -135.011283 
L 43.260873 -133.731688 
L 42.874299 -131.839117 
L 42.487725 -129.452398 
L 42.101151 -126.98644 
L 41.714577 -123.903992 
L 41.328003 -119.940846 
L 40.554854 -114.65665 
L 40.16828 -109.516491 
L 39.395132 -151.646019 
L 39.008558 -151.646019 
z
"/>
    </defs>
    <g clip-path="url(#pc4df0ca28c)">
     <use xlink:href="#m5ed4ca853a" x="0" y="174.24" style="fill: #ff9848; fill-opacity: 0.4"/>
    </g>
   </g>
   <g id="PolyCollection_4">
    <defs>
     <path id="mc609eb7fa5" d="M 34.756243 16.872092 
L 34.756243 16.872092 
L 35.915966 -67.386963 
L 45.580317 -29.020293 
L 46.74004 -59.676725 
L 52.538651 -78.070584 
L 55.631243 -90.333156 
L 56.404391 -79.423971 
L 57.564114 -88.451727 
L 57.950688 -75.266941 
L 59.496984 -89.154046 
L 63.749299 -94.361711 
L 65.682169 -86.831361 
L 67.228465 -90.508175 
L 73.800225 -86.084628 
L 76.892817 -84.942388 
L 78.05254 -77.958398 
L 83.078002 -84.238775 
L 84.237725 -83.152578 
L 87.330317 -86.265916 
L 87.716891 -89.10853 
L 88.490039 -91.714258 
L 91.196058 -96.324394 
L 93.515502 -92.238397 
L 94.675225 -94.286936 
L 95.061799 -96.198905 
L 99.314113 -97.987522 
L 100.473836 -96.164816 
L 100.86041 -97.846065 
L 102.406706 -96.52414 
L 103.566428 -94.277333 
L 107.045595 -93.003549 
L 108.205317 -94.588481 
L 109.365039 -96.089995 
L 111.29791 -98.867796 
L 111.684484 -100.15507 
L 114.003928 -102.549998 
L 115.16365 -101.122502 
L 116.709947 -103.227649 
L 117.096521 -104.215779 
L 117.869669 -101.971555 
L 123.281706 -102.945564 
L 123.66828 -102.883809 
L 124.054854 -103.786813 
L 124.828002 -102.881547 
L 125.60115 -103.991444 
L 132.17291 -104.959738 
L 133.719206 -105.75 
L 134.492354 -106.262208 
L 137.584947 -107.018604 
L 139.131243 -105.038803 
L 141.064113 -103.91312 
L 142.223836 -104.670785 
L 144.54328 -102.771678 
L 144.929854 -104.686595 
L 145.316428 -103.704579 
L 147.635873 -102.744911 
L 152.661336 -101.036096 
L 155.367354 -101.748912 
L 156.140502 -102.044158 
L 156.527076 -100.403917 
L 156.91365 -97.405533 
L 157.686798 -98.119223 
L 159.619669 -97.191777 
L 160.779391 -94.602303 
L 162.712261 -93.39497 
L 163.48541 -94.114119 
L 163.871984 -94.815728 
L 164.258558 -95.256673 
L 169.284021 -95.927975 
L 169.670595 -95.30966 
L 170.443743 -94.005221 
L 171.603465 -94.667759 
L 172.763187 -93.625326 
L 174.309484 -94.400596 
L 177.015502 -93.177819 
L 180.108095 -91.981625 
L 180.494669 -91.456078 
L 183.587261 -92.723235 
L 184.746984 -91.581617 
L 185.520132 -90.583716 
L 188.612724 -91.206801 
L 189.772446 -90.115095 
L 195.571058 -89.045223 
L 196.344206 -88.066186 
L 197.503928 -88.689517 
L 198.277076 -89.799744 
L 202.915965 -90.388756 
L 207.554854 -89.376862 
L 211.03402 -89.958816 
L 214.126613 -89.991578 
L 220.311798 -89.011177 
L 222.244669 -88.499752 
L 225.337261 -87.550456 
L 228.04328 -88.122738 
L 229.203002 -88.684891 
L 229.97615 -89.237182 
L 230.362724 -89.779867 
L 233.068743 -88.860454 
L 233.455317 -88.344067 
L 237.321057 -88.453886 
L 240.027076 -90.007791 
L 241.959946 -90.508915 
L 243.506243 -89.730304 
L 243.892817 -89.810155 
L 250.078002 -89.067447 
L 251.237724 -88.233277 
L 252.397446 -87.412142 
L 258.196057 -87.496698 
L 258.582631 -87.936042 
L 259.742354 -87.13598 
L 262.061798 -87.624693 
L 262.834946 -86.839003 
L 263.994668 -87.322637 
L 264.767817 -87.799106 
L 265.927539 -88.268569 
L 269.406705 -88.731178 
L 269.793279 -87.211707 
L 270.566428 -86.812404 
L 271.339576 -86.382813 
L 274.045594 -85.924946 
L 274.432168 -85.60398 
L 275.591891 -84.89234 
L 276.751613 -84.960305 
L 277.138187 -84.262823 
L 277.911335 -84.721212 
L 278.297909 -85.009995 
L 287.962261 -84.488537 
L 288.735409 -83.128438 
L 291.828002 -84.463196 
L 295.307168 -84.913755 
L 301.105779 -85.335044 
L 304.198372 -84.684044 
L 304.584946 -84.750565 
L 307.677539 -84.111429 
L 310.770131 -83.749578 
L 312.316427 -84.168691 
L 313.089576 -84.582663 
L 314.249298 -84.115311 
L 314.635872 -84.524588 
L 315.795594 -84.114233 
L 317.728464 -84.518615 
L 323.140501 -84.969313 
L 323.527076 -85.361529 
L 338.603464 -84.763672 
L 339.376613 -84.973834 
L 344.402075 -85.359223 
L 345.561798 -84.508256 
L 345.948372 -84.008825 
L 347.494668 -84.38881 
L 348.65439 -83.823106 
L 349.814112 -83.255938 
L 350.200687 -83.280173 
L 352.520131 -83.056858 
L 352.906705 -82.510798 
L 355.226149 -82.886533 
L 356.385872 -83.625882 
L 357.545594 -83.08846 
L 359.478464 -82.156933 
L 365.663649 -81.635728 
L 366.050224 -81.796807 
L 373.395131 -81.850735 
L 376.101149 -81.899459 
L 378.420594 -82.185144 
L 379.96689 -81.677158 
L 381.899761 -81.793504 
L 407.027075 -81.829068 
L 407.027075 -90.155711 
L 407.027075 -90.155711 
L 381.899761 -90.811019 
L 379.96689 -90.689271 
L 378.420594 -91.243711 
L 376.101149 -91.72968 
L 373.395131 -92.419624 
L 366.050224 -93.121487 
L 365.663649 -93.493852 
L 359.478464 -94.077799 
L 357.545594 -94.941453 
L 356.385872 -95.542601 
L 355.226149 -94.932781 
L 352.906705 -94.622873 
L 352.520131 -95.235482 
L 350.200687 -94.787081 
L 349.814112 -95.051834 
L 348.65439 -95.198593 
L 347.494668 -95.828203 
L 345.948372 -95.512848 
L 345.561798 -94.56186 
L 344.402075 -95.197081 
L 339.376613 -94.86889 
L 338.603464 -94.84987 
L 323.527076 -95.507058 
L 323.140501 -95.174874 
L 317.728464 -95.664384 
L 315.795594 -95.327145 
L 314.635872 -95.187502 
L 314.249298 -94.843242 
L 313.089576 -95.163889 
L 312.316427 -94.815234 
L 310.770131 -94.462247 
L 307.677539 -95.176716 
L 304.584946 -95.885886 
L 304.198372 -96.244525 
L 301.105779 -96.969632 
L 295.307168 -97.153965 
L 291.828002 -97.364489 
L 288.735409 -96.286048 
L 287.962261 -97.221642 
L 278.297909 -97.586639 
L 277.911335 -97.627556 
L 277.138187 -97.257566 
L 276.751613 -98.044667 
L 275.591891 -99.032702 
L 274.432168 -99.843225 
L 274.045594 -99.285739 
L 271.339576 -99.18558 
L 270.566428 -99.720657 
L 269.793279 -99.693722 
L 269.406705 -101.395413 
L 265.927539 -101.025923 
L 264.767817 -100.650959 
L 263.994668 -100.270399 
L 262.834946 -99.884116 
L 262.061798 -100.768633 
L 259.742354 -100.380256 
L 258.582631 -101.282197 
L 258.196057 -101.490419 
L 252.397446 -101.998516 
L 251.237724 -102.934505 
L 250.078002 -103.885351 
L 243.892817 -103.608074 
L 243.506243 -104.160863 
L 241.959946 -104.547913 
L 240.027076 -104.161863 
L 237.321057 -102.964784 
L 233.455317 -102.602564 
L 233.068743 -103.296795 
L 230.362724 -104.341742 
L 229.97615 -103.926792 
L 229.203002 -103.504498 
L 228.04328 -103.074663 
L 225.337261 -102.637083 
L 222.244669 -103.723531 
L 220.311798 -103.739164 
L 214.126613 -104.855935 
L 211.03402 -105.450132 
L 207.554854 -105.014321 
L 202.915965 -106.175144 
L 198.277076 -105.737924 
L 197.503928 -106.387459 
L 196.344206 -105.939354 
L 195.571058 -106.395224 
L 189.772446 -107.640349 
L 188.612724 -108.910884 
L 185.520132 -108.470315 
L 184.746984 -108.141999 
L 183.587261 -109.457937 
L 180.494669 -108.550666 
L 180.108095 -107.818312 
L 177.015502 -109.188537 
L 174.309484 -110.58921 
L 172.763187 -111.045317 
L 171.603465 -111.77479 
L 170.443743 -111.311171 
L 169.670595 -112.819209 
L 169.284021 -112.071084 
L 164.258558 -111.594277 
L 163.871984 -111.886661 
L 163.48541 -111.395805 
L 162.712261 -110.892677 
L 160.779391 -110.565266 
L 159.619669 -113.087017 
L 157.686798 -114.261728 
L 156.91365 -113.763271 
L 156.527076 -114.012131 
L 156.140502 -114.648295 
L 155.367354 -114.910576 
L 152.661336 -114.385784 
L 147.635873 -116.288072 
L 145.316428 -115.328403 
L 144.929854 -114.346387 
L 144.54328 -113.628209 
L 142.223836 -115.699642 
L 141.064113 -115.119862 
L 139.131243 -115.375476 
L 137.584947 -116.227331 
L 134.492354 -115.627014 
L 133.719206 -117.641209 
L 132.17291 -118.507931 
L 125.60115 -119.555416 
L 124.828002 -120.747384 
L 124.054854 -119.927228 
L 123.66828 -119.328761 
L 123.281706 -121.043833 
L 117.869669 -120.431789 
L 117.096521 -119.975921 
L 116.709947 -119.316128 
L 115.16365 -117.91048 
L 114.003928 -120.40201 
L 111.684484 -118.877912 
L 111.29791 -118.05871 
L 109.365039 -116.290956 
L 108.205317 -115.335414 
L 107.045595 -114.326786 
L 103.566428 -115.126043 
L 102.406706 -117.552428 
L 100.86041 -116.080308 
L 100.473836 -114.968879 
L 99.314113 -118.327426 
L 95.061799 -117.216807 
L 94.675225 -116.029592 
L 93.515502 -114.757577 
L 91.196058 -119.467856 
L 88.490039 -116.786342 
L 87.716891 -115.270704 
L 87.330317 -113.617281 
L 84.237725 -111.806388 
L 83.078002 -109.516491 
L 78.05254 -112.988233 
L 76.892817 -114.264934 
L 73.800225 -111.88359 
L 67.228465 -110.469295 
L 65.682169 -112.757224 
L 63.749299 -117.649684 
L 59.496984 -114.559108 
L 57.950688 -106.317572 
L 57.564114 -109.516491 
L 56.404391 -103.497987 
L 55.631243 -114.65665 
L 52.538651 -107.258777 
L 46.74004 -96.161966 
L 45.580317 -77.667282 
L 35.915966 -67.386963 
L 34.756243 16.872092 
z
"/>
    </defs>
    <g clip-path="url(#pc4df0ca28c)">
     <use xlink:href="#mc609eb7fa5" x="0" y="174.24" style="fill: #089fff; fill-opacity: 0.4"/>
    </g>
   </g>
   <g id="matplotlib.axis_1">
    <g id="xtick_1">
     <g id="line2d_1">
      <defs>
       <path id="m947db114b7" d="M 0 0 
L 0 3.5 
" style="stroke: #000000; stroke-width: 0.8"/>
      </defs>
      <g>
       <use xlink:href="#m947db114b7" x="30.503929" y="140.556659" style="stroke: #000000; stroke-width: 0.8"/>
      </g>
     </g>
     <g id="text_1">
      <!-- 0 -->
      <g transform="translate(27.322679 155.155096) scale(0.1 -0.1)">
       <defs>
        <path id="DejaVuSans-30" d="M 2034 4250 
Q 1547 4250 1301 3770 
Q 1056 3291 1056 2328 
Q 1056 1369 1301 889 
Q 1547 409 2034 409 
Q 2525 409 2770 889 
Q 3016 1369 3016 2328 
Q 3016 3291 2770 3770 
Q 2525 4250 2034 4250 
z
M 2034 4750 
Q 2819 4750 3233 4129 
Q 3647 3509 3647 2328 
Q 3647 1150 3233 529 
Q 2819 -91 2034 -91 
Q 1250 -91 836 529 
Q 422 1150 422 2328 
Q 422 3509 836 4129 
Q 1250 4750 2034 4750 
z
" transform="scale(0.015625)"/>
       </defs>
       <use xlink:href="#DejaVuSans-30"/>
      </g>
     </g>
    </g>
    <g id="xtick_2">
     <g id="line2d_2">
      <g>
       <use xlink:href="#m947db114b7" x="107.818743" y="140.556659" style="stroke: #000000; stroke-width: 0.8"/>
      </g>
     </g>
     <g id="text_2">
      <!-- 200 -->
      <g transform="translate(98.274993 155.155096) scale(0.1 -0.1)">
       <defs>
        <path id="DejaVuSans-32" d="M 1228 531 
L 3431 531 
L 3431 0 
L 469 0 
L 469 531 
Q 828 903 1448 1529 
Q 2069 2156 2228 2338 
Q 2531 2678 2651 2914 
Q 2772 3150 2772 3378 
Q 2772 3750 2511 3984 
Q 2250 4219 1831 4219 
Q 1534 4219 1204 4116 
Q 875 4013 500 3803 
L 500 4441 
Q 881 4594 1212 4672 
Q 1544 4750 1819 4750 
Q 2544 4750 2975 4387 
Q 3406 4025 3406 3419 
Q 3406 3131 3298 2873 
Q 3191 2616 2906 2266 
Q 2828 2175 2409 1742 
Q 1991 1309 1228 531 
z
" transform="scale(0.015625)"/>
       </defs>
       <use xlink:href="#DejaVuSans-32"/>
       <use xlink:href="#DejaVuSans-30" x="63.623047"/>
       <use xlink:href="#DejaVuSans-30" x="127.246094"/>
      </g>
     </g>
    </g>
    <g id="xtick_3">
     <g id="line2d_3">
      <g>
       <use xlink:href="#m947db114b7" x="185.133558" y="140.556659" style="stroke: #000000; stroke-width: 0.8"/>
      </g>
     </g>
     <g id="text_3">
      <!-- 400 -->
      <g transform="translate(175.589808 155.155096) scale(0.1 -0.1)">
       <defs>
        <path id="DejaVuSans-34" d="M 2419 4116 
L 825 1625 
L 2419 1625 
L 2419 4116 
z
M 2253 4666 
L 3047 4666 
L 3047 1625 
L 3713 1625 
L 3713 1100 
L 3047 1100 
L 3047 0 
L 2419 0 
L 2419 1100 
L 313 1100 
L 313 1709 
L 2253 4666 
z
" transform="scale(0.015625)"/>
       </defs>
       <use xlink:href="#DejaVuSans-34"/>
       <use xlink:href="#DejaVuSans-30" x="63.623047"/>
       <use xlink:href="#DejaVuSans-30" x="127.246094"/>
      </g>
     </g>
    </g>
    <g id="xtick_4">
     <g id="line2d_4">
      <g>
       <use xlink:href="#m947db114b7" x="262.448372" y="140.556659" style="stroke: #000000; stroke-width: 0.8"/>
      </g>
     </g>
     <g id="text_4">
      <!-- 600 -->
      <g transform="translate(252.904622 155.155096) scale(0.1 -0.1)">
       <defs>
        <path id="DejaVuSans-36" d="M 2113 2584 
Q 1688 2584 1439 2293 
Q 1191 2003 1191 1497 
Q 1191 994 1439 701 
Q 1688 409 2113 409 
Q 2538 409 2786 701 
Q 3034 994 3034 1497 
Q 3034 2003 2786 2293 
Q 2538 2584 2113 2584 
z
M 3366 4563 
L 3366 3988 
Q 3128 4100 2886 4159 
Q 2644 4219 2406 4219 
Q 1781 4219 1451 3797 
Q 1122 3375 1075 2522 
Q 1259 2794 1537 2939 
Q 1816 3084 2150 3084 
Q 2853 3084 3261 2657 
Q 3669 2231 3669 1497 
Q 3669 778 3244 343 
Q 2819 -91 2113 -91 
Q 1303 -91 875 529 
Q 447 1150 447 2328 
Q 447 3434 972 4092 
Q 1497 4750 2381 4750 
Q 2619 4750 2861 4703 
Q 3103 4656 3366 4563 
z
" transform="scale(0.015625)"/>
       </defs>
       <use xlink:href="#DejaVuSans-36"/>
       <use xlink:href="#DejaVuSans-30" x="63.623047"/>
       <use xlink:href="#DejaVuSans-30" x="127.246094"/>
      </g>
     </g>
    </g>
    <g id="xtick_5">
     <g id="line2d_5">
      <g>
       <use xlink:href="#m947db114b7" x="339.763187" y="140.556659" style="stroke: #000000; stroke-width: 0.8"/>
      </g>
     </g>
     <g id="text_5">
      <!-- 800 -->
      <g transform="translate(330.219437 155.155096) scale(0.1 -0.1)">
       <defs>
        <path id="DejaVuSans-38" d="M 2034 2216 
Q 1584 2216 1326 1975 
Q 1069 1734 1069 1313 
Q 1069 891 1326 650 
Q 1584 409 2034 409 
Q 2484 409 2743 651 
Q 3003 894 3003 1313 
Q 3003 1734 2745 1975 
Q 2488 2216 2034 2216 
z
M 1403 2484 
Q 997 2584 770 2862 
Q 544 3141 544 3541 
Q 544 4100 942 4425 
Q 1341 4750 2034 4750 
Q 2731 4750 3128 4425 
Q 3525 4100 3525 3541 
Q 3525 3141 3298 2862 
Q 3072 2584 2669 2484 
Q 3125 2378 3379 2068 
Q 3634 1759 3634 1313 
Q 3634 634 3220 271 
Q 2806 -91 2034 -91 
Q 1263 -91 848 271 
Q 434 634 434 1313 
Q 434 1759 690 2068 
Q 947 2378 1403 2484 
z
M 1172 3481 
Q 1172 3119 1398 2916 
Q 1625 2713 2034 2713 
Q 2441 2713 2670 2916 
Q 2900 3119 2900 3481 
Q 2900 3844 2670 4047 
Q 2441 4250 2034 4250 
Q 1625 4250 1398 4047 
Q 1172 3844 1172 3481 
z
" transform="scale(0.015625)"/>
       </defs>
       <use xlink:href="#DejaVuSans-38"/>
       <use xlink:href="#DejaVuSans-30" x="63.623047"/>
       <use xlink:href="#DejaVuSans-30" x="127.246094"/>
      </g>
     </g>
    </g>
    <g id="xtick_6">
     <g id="line2d_6">
      <g>
       <use xlink:href="#m947db114b7" x="417.078001" y="140.556659" style="stroke: #000000; stroke-width: 0.8"/>
      </g>
     </g>
     <g id="text_6">
      <!-- 1000 -->
      <g transform="translate(404.353001 155.155096) scale(0.1 -0.1)">
       <defs>
        <path id="DejaVuSans-31" d="M 794 531 
L 1825 531 
L 1825 4091 
L 703 3866 
L 703 4441 
L 1819 4666 
L 2450 4666 
L 2450 531 
L 3481 531 
L 3481 0 
L 794 0 
L 794 531 
z
" transform="scale(0.015625)"/>
       </defs>
       <use xlink:href="#DejaVuSans-31"/>
       <use xlink:href="#DejaVuSans-30" x="63.623047"/>
       <use xlink:href="#DejaVuSans-30" x="127.246094"/>
       <use xlink:href="#DejaVuSans-30" x="190.869141"/>
      </g>
     </g>
    </g>
    <g id="text_7">
     <!-- iteration -->
     <g transform="translate(202.668309 168.833221) scale(0.1 -0.1)">
      <defs>
       <path id="DejaVuSans-69" d="M 603 3500 
L 1178 3500 
L 1178 0 
L 603 0 
L 603 3500 
z
M 603 4863 
L 1178 4863 
L 1178 4134 
L 603 4134 
L 603 4863 
z
" transform="scale(0.015625)"/>
       <path id="DejaVuSans-74" d="M 1172 4494 
L 1172 3500 
L 2356 3500 
L 2356 3053 
L 1172 3053 
L 1172 1153 
Q 1172 725 1289 603 
Q 1406 481 1766 481 
L 2356 481 
L 2356 0 
L 1766 0 
Q 1100 0 847 248 
Q 594 497 594 1153 
L 594 3053 
L 172 3053 
L 172 3500 
L 594 3500 
L 594 4494 
L 1172 4494 
z
" transform="scale(0.015625)"/>
       <path id="DejaVuSans-65" d="M 3597 1894 
L 3597 1613 
L 953 1613 
Q 991 1019 1311 708 
Q 1631 397 2203 397 
Q 2534 397 2845 478 
Q 3156 559 3463 722 
L 3463 178 
Q 3153 47 2828 -22 
Q 2503 -91 2169 -91 
Q 1331 -91 842 396 
Q 353 884 353 1716 
Q 353 2575 817 3079 
Q 1281 3584 2069 3584 
Q 2775 3584 3186 3129 
Q 3597 2675 3597 1894 
z
M 3022 2063 
Q 3016 2534 2758 2815 
Q 2500 3097 2075 3097 
Q 1594 3097 1305 2825 
Q 1016 2553 972 2059 
L 3022 2063 
z
" transform="scale(0.015625)"/>
       <path id="DejaVuSans-72" d="M 2631 2963 
Q 2534 3019 2420 3045 
Q 2306 3072 2169 3072 
Q 1681 3072 1420 2755 
Q 1159 2438 1159 1844 
L 1159 0 
L 581 0 
L 581 3500 
L 1159 3500 
L 1159 2956 
Q 1341 3275 1631 3429 
Q 1922 3584 2338 3584 
Q 2397 3584 2469 3576 
Q 2541 3569 2628 3553 
L 2631 2963 
z
" transform="scale(0.015625)"/>
       <path id="DejaVuSans-61" d="M 2194 1759 
Q 1497 1759 1228 1600 
Q 959 1441 959 1056 
Q 959 750 1161 570 
Q 1363 391 1709 391 
Q 2188 391 2477 730 
Q 2766 1069 2766 1631 
L 2766 1759 
L 2194 1759 
z
M 3341 1997 
L 3341 0 
L 2766 0 
L 2766 531 
Q 2569 213 2275 61 
Q 1981 -91 1556 -91 
Q 1019 -91 701 211 
Q 384 513 384 1019 
Q 384 1609 779 1909 
Q 1175 2209 1959 2209 
L 2766 2209 
L 2766 2266 
Q 2766 2663 2505 2880 
Q 2244 3097 1772 3097 
Q 1472 3097 1187 3025 
Q 903 2953 641 2809 
L 641 3341 
Q 956 3463 1253 3523 
Q 1550 3584 1831 3584 
Q 2591 3584 2966 3190 
Q 3341 2797 3341 1997 
z
" transform="scale(0.015625)"/>
       <path id="DejaVuSans-6f" d="M 1959 3097 
Q 1497 3097 1228 2736 
Q 959 2375 959 1747 
Q 959 1119 1226 758 
Q 1494 397 1959 397 
Q 2419 397 2687 759 
Q 2956 1122 2956 1747 
Q 2956 2369 2687 2733 
Q 2419 3097 1959 3097 
z
M 1959 3584 
Q 2709 3584 3137 3096 
Q 3566 2609 3566 1747 
Q 3566 888 3137 398 
Q 2709 -91 1959 -91 
Q 1206 -91 779 398 
Q 353 888 353 1747 
Q 353 2609 779 3096 
Q 1206 3584 1959 3584 
z
" transform="scale(0.015625)"/>
       <path id="DejaVuSans-6e" d="M 3513 2113 
L 3513 0 
L 2938 0 
L 2938 2094 
Q 2938 2591 2744 2837 
Q 2550 3084 2163 3084 
Q 1697 3084 1428 2787 
Q 1159 2491 1159 1978 
L 1159 0 
L 581 0 
L 581 3500 
L 1159 3500 
L 1159 2956 
Q 1366 3272 1645 3428 
Q 1925 3584 2291 3584 
Q 2894 3584 3203 3211 
Q 3513 2838 3513 2113 
z
" transform="scale(0.015625)"/>
      </defs>
      <use xlink:href="#DejaVuSans-69"/>
      <use xlink:href="#DejaVuSans-74" x="27.783203"/>
      <use xlink:href="#DejaVuSans-65" x="66.992188"/>
      <use xlink:href="#DejaVuSans-72" x="128.515625"/>
      <use xlink:href="#DejaVuSans-61" x="169.628906"/>
      <use xlink:href="#DejaVuSans-74" x="230.908203"/>
      <use xlink:href="#DejaVuSans-69" x="270.117188"/>
      <use xlink:href="#DejaVuSans-6f" x="297.900391"/>
      <use xlink:href="#DejaVuSans-6e" x="359.082031"/>
     </g>
    </g>
   </g>
   <g id="matplotlib.axis_2">
    <g id="ytick_1">
     <g id="line2d_7">
      <defs>
       <path id="m4da1a58bbc" d="M 0 0 
L -3.5 0 
" style="stroke: #000000; stroke-width: 0.8"/>
      </defs>
      <g>
       <use xlink:href="#m4da1a58bbc" x="30.503929" y="123.704848" style="stroke: #000000; stroke-width: 0.8"/>
      </g>
     </g>
     <g id="text_8">
      <!-- 0.4 -->
      <g transform="translate(7.600804 127.504066) scale(0.1 -0.1)">
       <defs>
        <path id="DejaVuSans-2e" d="M 684 794 
L 1344 794 
L 1344 0 
L 684 0 
L 684 794 
z
" transform="scale(0.015625)"/>
       </defs>
       <use xlink:href="#DejaVuSans-30"/>
       <use xlink:href="#DejaVuSans-2e" x="63.623047"/>
       <use xlink:href="#DejaVuSans-34" x="95.410156"/>
      </g>
     </g>
    </g>
    <g id="ytick_2">
     <g id="line2d_8">
      <g>
       <use xlink:href="#m4da1a58bbc" x="30.503929" y="90.001225" style="stroke: #000000; stroke-width: 0.8"/>
      </g>
     </g>
     <g id="text_9">
      <!-- 0.6 -->
      <g transform="translate(7.600804 93.800444) scale(0.1 -0.1)">
       <use xlink:href="#DejaVuSans-30"/>
       <use xlink:href="#DejaVuSans-2e" x="63.623047"/>
       <use xlink:href="#DejaVuSans-36" x="95.410156"/>
      </g>
     </g>
    </g>
    <g id="ytick_3">
     <g id="line2d_9">
      <g>
       <use xlink:href="#m4da1a58bbc" x="30.503929" y="56.297603" style="stroke: #000000; stroke-width: 0.8"/>
      </g>
     </g>
     <g id="text_10">
      <!-- 0.8 -->
      <g transform="translate(7.600804 60.096822) scale(0.1 -0.1)">
       <use xlink:href="#DejaVuSans-30"/>
       <use xlink:href="#DejaVuSans-2e" x="63.623047"/>
       <use xlink:href="#DejaVuSans-38" x="95.410156"/>
      </g>
     </g>
    </g>
    <g id="ytick_4">
     <g id="line2d_10">
      <g>
       <use xlink:href="#m4da1a58bbc" x="30.503929" y="22.593981" style="stroke: #000000; stroke-width: 0.8"/>
      </g>
     </g>
     <g id="text_11">
      <!-- 1.0 -->
      <g transform="translate(7.600804 26.3932) scale(0.1 -0.1)">
       <use xlink:href="#DejaVuSans-31"/>
       <use xlink:href="#DejaVuSans-2e" x="63.623047"/>
       <use xlink:href="#DejaVuSans-30" x="95.410156"/>
      </g>
     </g>
    </g>
   </g>
   <g id="line2d_11">
    <path d="M 39.008558 22.593981 
L 40.16828 22.593981 
L 40.554854 36.637157 
L 41.328003 34.630989 
L 42.101151 31.956098 
L 42.874299 30.253895 
L 43.260873 32.31618 
L 43.647447 31.621737 
L 44.420595 31.019887 
L 45.193743 29.246012 
L 45.580317 30.253895 
L 45.966891 29.615569 
L 46.74004 29.334706 
L 47.513188 28.835393 
L 48.286336 28.612485 
L 48.67291 28.211251 
L 49.832632 28.030049 
L 50.219206 28.612485 
L 51.378929 28.287161 
L 52.538651 31.463355 
L 52.925225 31.235936 
L 53.311799 30.814377 
L 53.698373 30.618653 
L 54.084947 34.351059 
L 54.858095 35.700945 
L 55.244669 35.416011 
L 56.017817 35.143202 
L 56.404391 36.07543 
L 56.790966 36.637157 
L 57.17754 35.856981 
L 57.564114 35.615835 
L 58.723836 35.158928 
L 59.11041 37.121404 
L 59.496984 36.637157 
L 60.270132 36.184151 
L 60.656706 38.552136 
L 61.429854 38.313954 
L 62.203003 37.858303 
L 62.589577 37.428322 
L 64.522447 36.452378 
L 64.909021 36.637157 
L 65.295595 36.286078 
L 67.228465 36.117039 
L 68.001614 35.791183 
L 68.388188 35.48066 
L 68.774762 35.330815 
L 69.161336 35.041342 
L 70.321058 34.630989 
L 70.707632 34.246829 
L 71.867354 34.124168 
L 72.640502 34.755082 
L 74.573373 34.509403 
L 74.959947 34.15895 
L 75.733095 33.828522 
L 77.665965 33.722536 
L 80.371984 33.126363 
L 80.758558 33.033156 
L 81.145132 33.311142 
L 83.851151 32.691141 
L 84.237725 34.145626 
L 85.010873 34.053213 
L 85.784021 34.204481 
L 86.170595 34.113774 
L 86.557169 33.849962 
L 87.716891 34.403015 
L 88.103465 34.314226 
L 88.876614 35.294795 
L 91.196058 35.110725 
L 91.582632 34.931914 
L 92.742354 34.758141 
L 93.128928 35.262301 
L 93.515502 35.174326 
L 95.448373 35.087565 
L 98.154391 35.20418 
L 98.540965 35.688294 
L 100.86041 35.428142 
L 101.246984 35.898042 
L 101.633558 35.811088 
L 103.566428 35.998831 
L 105.885873 37.167088 
L 106.272447 37.771078 
L 107.045595 38.19751 
L 108.205317 38.101783 
L 110.138188 38.679801 
L 110.524762 38.582898 
L 115.936799 38.299071 
L 116.323373 38.206688 
L 117.483095 38.361758 
L 117.869669 39.153564 
L 125.987724 39.686532 
L 128.693743 40.546905 
L 139.131243 42.238649 
L 140.290965 42.128902 
L 141.064113 42.254427 
L 142.996984 43.427264 
L 153.04791 43.200815 
L 163.871984 43.658745 
L 178.561798 43.771391 
L 204.848835 44.555118 
L 210.647446 44.438921 
L 211.420595 44.989151 
L 214.126613 44.871899 
L 226.883557 45.414142 
L 257.422909 45.732478 
L 263.994668 46.264695 
L 283.709946 46.359356 
L 360.251612 46.238104 
L 360.251612 46.238104 
" clip-path="url(#pc4df0ca28c)" style="fill: none; stroke: #cc4f1b; stroke-width: 1.5; stroke-linecap: square"/>
   </g>
   <g id="line2d_12">
    <path d="M 34.756243 22.593981 
L 35.915966 22.593981 
L 45.580317 50.680333 
L 46.74004 43.658745 
L 52.538651 39.445792 
L 55.631243 36.637157 
L 56.404391 52.686501 
L 57.564114 48.924936 
L 57.950688 45.999274 
L 59.496984 41.743766 
L 63.749299 40.147951 
L 65.682169 45.279111 
L 67.228465 43.658745 
L 73.800225 46.29184 
L 76.892817 47.376056 
L 78.05254 45.999274 
L 83.078002 47.871698 
L 84.237725 46.667997 
L 87.330317 45.573724 
L 87.716891 44.574604 
L 88.490039 43.658745 
L 91.196058 42.038379 
L 93.515502 46.667997 
L 94.675225 45.837858 
L 95.061799 45.063063 
L 99.314113 44.338253 
L 100.473836 44.975293 
L 100.86041 44.297071 
L 102.406706 43.658745 
L 103.566428 46.667997 
L 107.045595 47.169539 
L 111.29791 44.711983 
L 111.684484 44.17252 
L 114.003928 43.168867 
L 115.16365 45.490464 
L 116.709947 44.536443 
L 117.096521 44.088638 
L 117.869669 43.658745 
L 123.281706 43.24571 
L 123.66828 44.85109 
L 124.054854 44.438921 
L 125.60115 43.658745 
L 132.17291 43.289188 
L 133.719206 42.932374 
L 134.492354 42.587655 
L 137.584947 42.254427 
L 139.131243 41.932125 
L 141.064113 42.979236 
L 142.223836 42.655661 
L 144.54328 42.342197 
L 144.929854 41.457949 
L 145.316428 41.800089 
L 147.635873 42.132313 
L 152.661336 43.056895 
L 155.367354 42.768685 
L 156.140502 42.48848 
L 156.527076 43.947303 
L 156.91365 43.377881 
L 157.686798 43.104409 
L 160.779391 44.458673 
L 162.712261 44.185364 
L 163.48541 43.918804 
L 164.258558 43.404953 
L 169.284021 43.157203 
L 169.670595 42.915283 
L 170.443743 44.148623 
L 171.603465 43.900869 
L 172.763187 44.616234 
L 174.309484 44.126851 
L 177.015502 44.353188 
L 180.108095 45.490464 
L 180.494669 45.244265 
L 184.746984 44.536443 
L 185.520132 45.178883 
L 188.612724 44.948424 
L 189.772446 44.722622 
L 195.571058 44.501336 
L 197.503928 44.07178 
L 198.277076 44.468928 
L 202.915965 44.260595 
L 207.554854 44.85109 
L 214.126613 44.438921 
L 220.311798 45.398037 
L 222.244669 45.573724 
L 228.04328 45.163371 
L 229.97615 44.767417 
L 230.362724 44.574604 
L 233.068743 44.385116 
L 233.455317 44.558949 
L 237.321057 44.189789 
L 240.027076 43.658745 
L 241.959946 43.487487 
L 243.506243 43.658745 
L 243.892817 43.490227 
L 250.078002 43.993106 
L 251.237724 43.824609 
L 252.397446 44.975293 
L 258.196057 44.801794 
L 258.582631 44.630965 
L 259.742354 44.462744 
L 262.834946 44.13389 
L 265.927539 43.658745 
L 269.793279 43.5072 
L 270.566428 43.658745 
L 271.339576 44.106931 
L 274.045594 44.252119 
L 274.432168 44.395275 
L 275.591891 44.536443 
L 276.751613 45.256762 
L 277.138187 46.255771 
L 278.297909 45.936017 
L 287.962261 46.627604 
L 288.735409 47.146289 
L 291.828002 46.667997 
L 301.105779 46.359356 
L 304.198372 47.281348 
L 304.584946 47.658384 
L 307.677539 48.560608 
L 310.770131 48.499716 
L 313.089576 48.181854 
L 314.249298 48.539605 
L 314.635872 48.382359 
L 315.795594 48.480799 
L 317.728464 48.325788 
L 323.140501 48.02127 
L 323.527076 47.871698 
L 339.376613 48.802466 
L 344.402075 48.650972 
L 345.948372 49.252213 
L 347.494668 49.102448 
L 348.65439 49.189716 
L 350.200687 49.59412 
L 352.520131 49.677249 
L 352.906705 50.450117 
L 355.226149 50.298725 
L 356.385872 50.000824 
L 357.545594 50.079555 
L 359.478464 51.349056 
L 365.663649 51.862916 
L 366.050224 52.150823 
L 373.395131 52.216305 
L 378.420594 51.910921 
L 379.96689 52.192675 
L 381.899761 52.041661 
L 407.027075 52.533747 
L 407.027075 52.533747 
" clip-path="url(#pc4df0ca28c)" style="fill: none; stroke: #1b2acc; stroke-width: 1.5; stroke-linecap: square"/>
   </g>
   <g id="line2d_13">
    <path d="M 39.008558 22.593981 
L 39.395132 22.593981 
L 40.16828 64.723509 
L 40.554854 71.745097 
L 41.328003 64.723509 
L 42.101151 55.361392 
L 42.487725 52.084651 
L 42.874299 53.233638 
L 43.260873 55.00131 
L 43.647447 52.686501 
L 44.420595 50.680333 
L 44.807169 52.332471 
L 45.193743 49.202104 
L 45.580317 49.403681 
L 45.966891 48.924936 
L 46.74004 49.556879 
L 47.513188 50.680333 
L 48.286336 49.677249 
L 48.67291 47.871698 
L 49.832632 51.133339 
L 50.219206 49.075399 
L 50.992354 48.339804 
L 51.378929 47.643971 
L 52.538651 50.310776 
L 52.925225 49.600089 
L 53.311799 48.282718 
L 53.698373 47.671081 
L 54.084947 51.006918 
L 54.858095 53.488968 
L 55.244669 52.817338 
L 56.017817 55.75978 
L 56.404391 55.455013 
L 56.790966 56.462817 
L 57.17754 55.361392 
L 57.564114 54.76562 
L 58.337262 54.191127 
L 58.723836 53.636791 
L 59.11041 56.007055 
L 59.883558 55.054437 
L 60.270132 57.248915 
L 60.656706 61.531878 
L 61.429854 60.950715 
L 62.203003 61.670645 
L 62.589577 60.569893 
L 62.976151 60.04245 
L 63.749299 59.599647 
L 64.135873 61.353147 
L 64.522447 61.397493 
L 65.295595 60.510556 
L 67.228465 60.04245 
L 68.001614 59.140077 
L 68.388188 58.280169 
L 68.774762 58.355092 
L 69.161336 57.542339 
L 69.54791 58.569758 
L 70.321058 57.779081 
L 70.707632 56.656152 
L 71.867354 56.297603 
L 72.640502 56.905658 
L 74.186799 56.555539 
L 74.573373 56.212493 
L 74.959947 55.223713 
L 75.733095 54.692669 
L 77.665965 54.787299 
L 79.212262 53.616633 
L 79.98541 54.855331 
L 80.371984 55.695753 
L 81.145132 55.854135 
L 81.531706 55.564916 
L 81.91828 55.643869 
L 82.691428 55.083702 
L 83.078002 55.872768 
L 83.851151 55.322705 
L 84.237725 57.588669 
L 85.010873 57.308712 
L 85.784021 57.757209 
L 86.170595 57.482496 
L 86.557169 56.683523 
L 87.716891 57.701921 
L 88.103465 57.437951 
L 88.876614 58.218214 
L 90.42291 57.958183 
L 91.196058 57.701921 
L 91.582632 58.40408 
L 92.35578 58.747689 
L 92.742354 58.493086 
L 93.515502 59.749884 
L 95.448373 59.493636 
L 98.154391 59.278196 
L 98.540965 59.884306 
L 99.314113 59.916784 
L 99.700688 59.667966 
L 100.86041 59.980449 
L 101.246984 60.56599 
L 101.633558 60.593163 
L 103.566428 60.893552 
L 105.499299 61.482776 
L 105.885873 62.86875 
L 106.272447 63.676813 
L 107.045595 63.943332 
L 108.205317 64.723509 
L 110.138188 64.978839 
L 110.524762 65.231094 
L 112.844206 64.975781 
L 114.003928 64.97428 
L 115.936799 64.723509 
L 117.483095 65.708995 
L 117.869669 66.184649 
L 125.987724 67.371651 
L 128.693743 68.074721 
L 139.131243 69.457164 
L 140.290965 69.430719 
L 141.064113 70.106726 
L 142.996984 71.436456 
L 153.04791 71.134524 
L 159.619669 71.783051 
L 163.871984 72.424605 
L 178.561798 72.383423 
L 204.848835 73.014958 
L 210.647446 72.748181 
L 211.420595 73.149414 
L 214.126613 72.884726 
L 226.883557 73.500494 
L 257.422909 73.673305 
L 263.994668 74.278659 
L 283.709946 74.877805 
L 360.251612 75.040944 
L 360.251612 75.040944 
" clip-path="url(#pc4df0ca28c)" style="fill: none; stroke-dasharray: 5.55,2.4; stroke-dashoffset: 0; stroke: #cc4f1b; stroke-width: 1.5"/>
   </g>
   <g id="line2d_14">
    <path d="M 34.974703 175.24 
L 35.915966 106.853037 
L 45.580317 120.896212 
L 46.74004 96.320655 
L 52.538651 81.57532 
L 55.631243 71.745097 
L 56.404391 82.779021 
L 57.564114 75.255891 
L 57.950688 83.447743 
L 59.496984 72.383423 
L 63.749299 68.234303 
L 65.682169 74.445708 
L 67.228465 73.751265 
L 73.800225 75.255891 
L 76.892817 74.636339 
L 78.05254 78.766685 
L 83.078002 77.362367 
L 84.237725 76.760517 
L 87.330317 74.298402 
L 87.716891 72.050383 
L 88.490039 69.9897 
L 91.196058 66.343875 
L 93.515502 70.742013 
L 94.675225 69.081736 
L 95.061799 67.532144 
L 99.314113 66.082526 
L 100.473836 68.673152 
L 100.86041 67.276814 
L 102.406706 67.201716 
L 103.566428 69.538312 
L 107.045595 70.574832 
L 111.29791 65.776747 
L 111.684484 64.723509 
L 114.003928 62.763996 
L 115.16365 64.723509 
L 116.709947 62.968112 
L 117.096521 62.14415 
L 117.869669 63.038328 
L 123.281706 62.245301 
L 123.66828 63.133715 
L 124.054854 62.38298 
L 125.60115 62.46657 
L 133.719206 62.544395 
L 134.492354 63.295389 
L 137.584947 62.617032 
L 139.131243 64.032861 
L 141.064113 64.723509 
L 142.223836 64.054786 
L 144.54328 66.040057 
L 144.929854 64.723509 
L 147.635873 64.723509 
L 152.661336 66.52906 
L 155.367354 65.910256 
L 156.140502 65.893774 
L 156.527076 67.031976 
L 156.91365 68.655598 
L 157.686798 68.049524 
L 159.619669 69.100603 
L 160.779391 71.656216 
L 162.712261 72.096176 
L 163.48541 71.485038 
L 163.871984 70.888806 
L 164.258558 70.814525 
L 169.670595 70.175565 
L 170.443743 71.581804 
L 171.603465 71.018726 
L 172.763187 71.904678 
L 174.309484 71.745097 
L 177.015502 73.056822 
L 180.108095 74.340031 
L 180.494669 74.236628 
L 183.587261 73.149414 
L 184.746984 74.378192 
L 185.520132 74.712984 
L 188.612724 74.181158 
L 189.772446 75.362278 
L 195.571058 76.519777 
L 196.344206 77.23723 
L 197.503928 76.701512 
L 198.277076 76.471166 
L 202.915965 75.95805 
L 207.554854 77.044408 
L 211.03402 76.535526 
L 214.126613 76.816244 
L 222.244669 78.128359 
L 225.337261 79.14623 
L 228.04328 78.641299 
L 229.203002 78.145305 
L 229.97615 77.658013 
L 230.362724 77.179195 
L 233.068743 78.161375 
L 233.455317 78.766685 
L 237.321057 78.530665 
L 240.027076 77.155173 
L 241.959946 76.711586 
L 243.892817 77.530885 
L 250.078002 77.763601 
L 252.397446 79.534671 
L 258.196057 79.746441 
L 258.582631 79.63088 
L 259.742354 80.481882 
L 262.061798 80.043337 
L 262.834946 80.878441 
L 263.994668 80.443482 
L 264.767817 80.014967 
L 265.927539 79.592754 
L 269.406705 79.176704 
L 269.793279 80.787286 
L 270.566428 80.97347 
L 271.339576 81.455804 
L 274.045594 81.634657 
L 274.432168 81.516398 
L 275.591891 82.277479 
L 276.751613 82.737514 
L 277.138187 83.479805 
L 278.297909 82.941683 
L 287.962261 83.38491 
L 288.735409 84.532757 
L 291.828002 83.326157 
L 301.105779 83.087662 
L 310.770131 85.134087 
L 312.316427 84.748037 
L 313.089576 84.366724 
L 314.249298 84.760723 
L 314.635872 84.383955 
L 315.795594 84.519311 
L 317.728464 84.148501 
L 323.140501 84.167906 
L 323.527076 83.805707 
L 338.603464 84.433229 
L 339.376613 84.318638 
L 344.402075 83.961848 
L 345.561798 84.704942 
L 345.948372 84.479163 
L 347.494668 84.131494 
L 348.65439 84.729151 
L 350.200687 85.206373 
L 352.520131 85.09383 
L 352.906705 85.673165 
L 355.226149 85.330343 
L 356.385872 84.655759 
L 359.478464 86.122634 
L 366.050224 86.780853 
L 373.395131 87.10482 
L 376.101149 87.425431 
L 378.420594 87.525573 
L 379.96689 88.056786 
L 381.899761 87.937738 
L 407.027075 88.247611 
L 407.027075 88.247611 
" clip-path="url(#pc4df0ca28c)" style="fill: none; stroke-dasharray: 5.55,2.4; stroke-dashoffset: 0; stroke: #1b2acc; stroke-width: 1.5"/>
   </g>
   <g id="patch_3">
    <path d="M 30.503929 140.556659 
L 30.503929 20.9088 
" style="fill: none; stroke: #000000; stroke-width: 0.8; stroke-linejoin: miter; stroke-linecap: square"/>
   </g>
   <g id="patch_4">
    <path d="M 417.078001 140.556659 
L 417.078001 20.9088 
" style="fill: none; stroke: #000000; stroke-width: 0.8; stroke-linejoin: miter; stroke-linecap: square"/>
   </g>
   <g id="patch_5">
    <path d="M 30.503929 140.556659 
L 417.078001 140.556659 
" style="fill: none; stroke: #000000; stroke-width: 0.8; stroke-linejoin: miter; stroke-linecap: square"/>
   </g>
   <g id="patch_6">
    <path d="M 30.503929 20.9088 
L 417.078001 20.9088 
" style="fill: none; stroke: #000000; stroke-width: 0.8; stroke-linejoin: miter; stroke-linecap: square"/>
   </g>
   <g id="text_12">
    <!-- Results of human assessments -->
    <g transform="translate(131.00659 14.9088) scale(0.12 -0.12)">
     <defs>
      <path id="DejaVuSans-52" d="M 2841 2188 
Q 3044 2119 3236 1894 
Q 3428 1669 3622 1275 
L 4263 0 
L 3584 0 
L 2988 1197 
Q 2756 1666 2539 1819 
Q 2322 1972 1947 1972 
L 1259 1972 
L 1259 0 
L 628 0 
L 628 4666 
L 2053 4666 
Q 2853 4666 3247 4331 
Q 3641 3997 3641 3322 
Q 3641 2881 3436 2590 
Q 3231 2300 2841 2188 
z
M 1259 4147 
L 1259 2491 
L 2053 2491 
Q 2509 2491 2742 2702 
Q 2975 2913 2975 3322 
Q 2975 3731 2742 3939 
Q 2509 4147 2053 4147 
L 1259 4147 
z
" transform="scale(0.015625)"/>
      <path id="DejaVuSans-73" d="M 2834 3397 
L 2834 2853 
Q 2591 2978 2328 3040 
Q 2066 3103 1784 3103 
Q 1356 3103 1142 2972 
Q 928 2841 928 2578 
Q 928 2378 1081 2264 
Q 1234 2150 1697 2047 
L 1894 2003 
Q 2506 1872 2764 1633 
Q 3022 1394 3022 966 
Q 3022 478 2636 193 
Q 2250 -91 1575 -91 
Q 1294 -91 989 -36 
Q 684 19 347 128 
L 347 722 
Q 666 556 975 473 
Q 1284 391 1588 391 
Q 1994 391 2212 530 
Q 2431 669 2431 922 
Q 2431 1156 2273 1281 
Q 2116 1406 1581 1522 
L 1381 1569 
Q 847 1681 609 1914 
Q 372 2147 372 2553 
Q 372 3047 722 3315 
Q 1072 3584 1716 3584 
Q 2034 3584 2315 3537 
Q 2597 3491 2834 3397 
z
" transform="scale(0.015625)"/>
      <path id="DejaVuSans-75" d="M 544 1381 
L 544 3500 
L 1119 3500 
L 1119 1403 
Q 1119 906 1312 657 
Q 1506 409 1894 409 
Q 2359 409 2629 706 
Q 2900 1003 2900 1516 
L 2900 3500 
L 3475 3500 
L 3475 0 
L 2900 0 
L 2900 538 
Q 2691 219 2414 64 
Q 2138 -91 1772 -91 
Q 1169 -91 856 284 
Q 544 659 544 1381 
z
M 1991 3584 
L 1991 3584 
z
" transform="scale(0.015625)"/>
      <path id="DejaVuSans-6c" d="M 603 4863 
L 1178 4863 
L 1178 0 
L 603 0 
L 603 4863 
z
" transform="scale(0.015625)"/>
      <path id="DejaVuSans-20" transform="scale(0.015625)"/>
      <path id="DejaVuSans-66" d="M 2375 4863 
L 2375 4384 
L 1825 4384 
Q 1516 4384 1395 4259 
Q 1275 4134 1275 3809 
L 1275 3500 
L 2222 3500 
L 2222 3053 
L 1275 3053 
L 1275 0 
L 697 0 
L 697 3053 
L 147 3053 
L 147 3500 
L 697 3500 
L 697 3744 
Q 697 4328 969 4595 
Q 1241 4863 1831 4863 
L 2375 4863 
z
" transform="scale(0.015625)"/>
      <path id="DejaVuSans-68" d="M 3513 2113 
L 3513 0 
L 2938 0 
L 2938 2094 
Q 2938 2591 2744 2837 
Q 2550 3084 2163 3084 
Q 1697 3084 1428 2787 
Q 1159 2491 1159 1978 
L 1159 0 
L 581 0 
L 581 4863 
L 1159 4863 
L 1159 2956 
Q 1366 3272 1645 3428 
Q 1925 3584 2291 3584 
Q 2894 3584 3203 3211 
Q 3513 2838 3513 2113 
z
" transform="scale(0.015625)"/>
      <path id="DejaVuSans-6d" d="M 3328 2828 
Q 3544 3216 3844 3400 
Q 4144 3584 4550 3584 
Q 5097 3584 5394 3201 
Q 5691 2819 5691 2113 
L 5691 0 
L 5113 0 
L 5113 2094 
Q 5113 2597 4934 2840 
Q 4756 3084 4391 3084 
Q 3944 3084 3684 2787 
Q 3425 2491 3425 1978 
L 3425 0 
L 2847 0 
L 2847 2094 
Q 2847 2600 2669 2842 
Q 2491 3084 2119 3084 
Q 1678 3084 1418 2786 
Q 1159 2488 1159 1978 
L 1159 0 
L 581 0 
L 581 3500 
L 1159 3500 
L 1159 2956 
Q 1356 3278 1631 3431 
Q 1906 3584 2284 3584 
Q 2666 3584 2933 3390 
Q 3200 3197 3328 2828 
z
" transform="scale(0.015625)"/>
     </defs>
     <use xlink:href="#DejaVuSans-52"/>
     <use xlink:href="#DejaVuSans-65" x="64.982422"/>
     <use xlink:href="#DejaVuSans-73" x="126.505859"/>
     <use xlink:href="#DejaVuSans-75" x="178.605469"/>
     <use xlink:href="#DejaVuSans-6c" x="241.984375"/>
     <use xlink:href="#DejaVuSans-74" x="269.767578"/>
     <use xlink:href="#DejaVuSans-73" x="308.976562"/>
     <use xlink:href="#DejaVuSans-20" x="361.076172"/>
     <use xlink:href="#DejaVuSans-6f" x="392.863281"/>
     <use xlink:href="#DejaVuSans-66" x="454.044922"/>
     <use xlink:href="#DejaVuSans-20" x="489.25"/>
     <use xlink:href="#DejaVuSans-68" x="521.037109"/>
     <use xlink:href="#DejaVuSans-75" x="584.416016"/>
     <use xlink:href="#DejaVuSans-6d" x="647.794922"/>
     <use xlink:href="#DejaVuSans-61" x="745.207031"/>
     <use xlink:href="#DejaVuSans-6e" x="806.486328"/>
     <use xlink:href="#DejaVuSans-20" x="869.865234"/>
     <use xlink:href="#DejaVuSans-61" x="901.652344"/>
     <use xlink:href="#DejaVuSans-73" x="962.931641"/>
     <use xlink:href="#DejaVuSans-73" x="1015.03125"/>
     <use xlink:href="#DejaVuSans-65" x="1067.130859"/>
     <use xlink:href="#DejaVuSans-73" x="1128.654297"/>
     <use xlink:href="#DejaVuSans-73" x="1180.753906"/>
     <use xlink:href="#DejaVuSans-6d" x="1232.853516"/>
     <use xlink:href="#DejaVuSans-65" x="1330.265625"/>
     <use xlink:href="#DejaVuSans-6e" x="1391.789062"/>
     <use xlink:href="#DejaVuSans-74" x="1455.167969"/>
     <use xlink:href="#DejaVuSans-73" x="1494.376953"/>
    </g>
   </g>
   <g id="legend_1">
    <g id="patch_7">
     <path d="M 425.478001 144.634979 
L 567.741751 144.634979 
Q 570.141751 144.634979 570.141751 142.234979 
L 570.141751 19.230479 
Q 570.141751 16.830479 567.741751 16.830479 
L 425.478001 16.830479 
Q 423.078001 16.830479 423.078001 19.230479 
L 423.078001 142.234979 
Q 423.078001 144.634979 425.478001 144.634979 
z
" style="fill: #ffffff; opacity: 0.8; stroke: #cccccc; stroke-linejoin: miter"/>
    </g>
    <g id="line2d_15">
     <path d="M 427.878001 34.515104 
L 439.878001 34.515104 
L 451.878001 34.515104 
" style="fill: none; stroke: #cc4f1b; stroke-width: 1.5; stroke-linecap: square"/>
    </g>
    <g id="text_13">
     <!-- XMutant  -->
     <g transform="translate(461.478001 30.748604) scale(0.12 -0.12)">
      <defs>
       <path id="DejaVuSans-58" d="M 403 4666 
L 1081 4666 
L 2241 2931 
L 3406 4666 
L 4084 4666 
L 2584 2425 
L 4184 0 
L 3506 0 
L 2194 1984 
L 872 0 
L 191 0 
L 1856 2491 
L 403 4666 
z
" transform="scale(0.015625)"/>
       <path id="DejaVuSans-4d" d="M 628 4666 
L 1569 4666 
L 2759 1491 
L 3956 4666 
L 4897 4666 
L 4897 0 
L 4281 0 
L 4281 4097 
L 3078 897 
L 2444 897 
L 1241 4097 
L 1241 0 
L 628 0 
L 628 4666 
z
" transform="scale(0.015625)"/>
      </defs>
      <use xlink:href="#DejaVuSans-58"/>
      <use xlink:href="#DejaVuSans-4d" x="68.505859"/>
      <use xlink:href="#DejaVuSans-75" x="154.785156"/>
      <use xlink:href="#DejaVuSans-74" x="218.164062"/>
      <use xlink:href="#DejaVuSans-61" x="257.373047"/>
      <use xlink:href="#DejaVuSans-6e" x="318.652344"/>
      <use xlink:href="#DejaVuSans-74" x="382.03125"/>
      <use xlink:href="#DejaVuSans-20" x="421.240234"/>
     </g>
     <!-- validity rate -->
     <g transform="translate(461.478001 44.185979) scale(0.12 -0.12)">
      <defs>
       <path id="DejaVuSans-76" d="M 191 3500 
L 800 3500 
L 1894 563 
L 2988 3500 
L 3597 3500 
L 2284 0 
L 1503 0 
L 191 3500 
z
" transform="scale(0.015625)"/>
       <path id="DejaVuSans-64" d="M 2906 2969 
L 2906 4863 
L 3481 4863 
L 3481 0 
L 2906 0 
L 2906 525 
Q 2725 213 2448 61 
Q 2172 -91 1784 -91 
Q 1150 -91 751 415 
Q 353 922 353 1747 
Q 353 2572 751 3078 
Q 1150 3584 1784 3584 
Q 2172 3584 2448 3432 
Q 2725 3281 2906 2969 
z
M 947 1747 
Q 947 1113 1208 752 
Q 1469 391 1925 391 
Q 2381 391 2643 752 
Q 2906 1113 2906 1747 
Q 2906 2381 2643 2742 
Q 2381 3103 1925 3103 
Q 1469 3103 1208 2742 
Q 947 2381 947 1747 
z
" transform="scale(0.015625)"/>
       <path id="DejaVuSans-79" d="M 2059 -325 
Q 1816 -950 1584 -1140 
Q 1353 -1331 966 -1331 
L 506 -1331 
L 506 -850 
L 844 -850 
Q 1081 -850 1212 -737 
Q 1344 -625 1503 -206 
L 1606 56 
L 191 3500 
L 800 3500 
L 1894 763 
L 2988 3500 
L 3597 3500 
L 2059 -325 
z
" transform="scale(0.015625)"/>
      </defs>
      <use xlink:href="#DejaVuSans-76"/>
      <use xlink:href="#DejaVuSans-61" x="59.179688"/>
      <use xlink:href="#DejaVuSans-6c" x="120.458984"/>
      <use xlink:href="#DejaVuSans-69" x="148.242188"/>
      <use xlink:href="#DejaVuSans-64" x="176.025391"/>
      <use xlink:href="#DejaVuSans-69" x="239.501953"/>
      <use xlink:href="#DejaVuSans-74" x="267.285156"/>
      <use xlink:href="#DejaVuSans-79" x="306.494141"/>
      <use xlink:href="#DejaVuSans-20" x="365.673828"/>
      <use xlink:href="#DejaVuSans-72" x="397.460938"/>
      <use xlink:href="#DejaVuSans-61" x="438.574219"/>
      <use xlink:href="#DejaVuSans-74" x="499.853516"/>
      <use xlink:href="#DejaVuSans-65" x="539.0625"/>
     </g>
    </g>
    <g id="line2d_16">
     <path d="M 427.878001 65.566229 
L 439.878001 65.566229 
L 451.878001 65.566229 
" style="fill: none; stroke: #1b2acc; stroke-width: 1.5; stroke-linecap: square"/>
    </g>
    <g id="text_14">
     <!-- Random  -->
     <g transform="translate(461.478001 61.799729) scale(0.12 -0.12)">
      <use xlink:href="#DejaVuSans-52"/>
      <use xlink:href="#DejaVuSans-61" x="67.232422"/>
      <use xlink:href="#DejaVuSans-6e" x="128.511719"/>
      <use xlink:href="#DejaVuSans-64" x="191.890625"/>
      <use xlink:href="#DejaVuSans-6f" x="255.367188"/>
      <use xlink:href="#DejaVuSans-6d" x="316.548828"/>
      <use xlink:href="#DejaVuSans-20" x="413.960938"/>
     </g>
     <!-- validity rate -->
     <g transform="translate(461.478001 75.237104) scale(0.12 -0.12)">
      <use xlink:href="#DejaVuSans-76"/>
      <use xlink:href="#DejaVuSans-61" x="59.179688"/>
      <use xlink:href="#DejaVuSans-6c" x="120.458984"/>
      <use xlink:href="#DejaVuSans-69" x="148.242188"/>
      <use xlink:href="#DejaVuSans-64" x="176.025391"/>
      <use xlink:href="#DejaVuSans-69" x="239.501953"/>
      <use xlink:href="#DejaVuSans-74" x="267.285156"/>
      <use xlink:href="#DejaVuSans-79" x="306.494141"/>
      <use xlink:href="#DejaVuSans-20" x="365.673828"/>
      <use xlink:href="#DejaVuSans-72" x="397.460938"/>
      <use xlink:href="#DejaVuSans-61" x="438.574219"/>
      <use xlink:href="#DejaVuSans-74" x="499.853516"/>
      <use xlink:href="#DejaVuSans-65" x="539.0625"/>
     </g>
    </g>
    <g id="line2d_17">
     <path d="M 427.878001 96.617354 
L 439.878001 96.617354 
L 451.878001 96.617354 
" style="fill: none; stroke-dasharray: 5.55,2.4; stroke-dashoffset: 0; stroke: #cc4f1b; stroke-width: 1.5"/>
    </g>
    <g id="text_15">
     <!-- XMutant  -->
     <g transform="translate(461.478001 92.850854) scale(0.12 -0.12)">
      <use xlink:href="#DejaVuSans-58"/>
      <use xlink:href="#DejaVuSans-4d" x="68.505859"/>
      <use xlink:href="#DejaVuSans-75" x="154.785156"/>
      <use xlink:href="#DejaVuSans-74" x="218.164062"/>
      <use xlink:href="#DejaVuSans-61" x="257.373047"/>
      <use xlink:href="#DejaVuSans-6e" x="318.652344"/>
      <use xlink:href="#DejaVuSans-74" x="382.03125"/>
      <use xlink:href="#DejaVuSans-20" x="421.240234"/>
     </g>
     <!-- preservation rate -->
     <g transform="translate(461.478001 106.288229) scale(0.12 -0.12)">
      <defs>
       <path id="DejaVuSans-70" d="M 1159 525 
L 1159 -1331 
L 581 -1331 
L 581 3500 
L 1159 3500 
L 1159 2969 
Q 1341 3281 1617 3432 
Q 1894 3584 2278 3584 
Q 2916 3584 3314 3078 
Q 3713 2572 3713 1747 
Q 3713 922 3314 415 
Q 2916 -91 2278 -91 
Q 1894 -91 1617 61 
Q 1341 213 1159 525 
z
M 3116 1747 
Q 3116 2381 2855 2742 
Q 2594 3103 2138 3103 
Q 1681 3103 1420 2742 
Q 1159 2381 1159 1747 
Q 1159 1113 1420 752 
Q 1681 391 2138 391 
Q 2594 391 2855 752 
Q 3116 1113 3116 1747 
z
" transform="scale(0.015625)"/>
      </defs>
      <use xlink:href="#DejaVuSans-70"/>
      <use xlink:href="#DejaVuSans-72" x="63.476562"/>
      <use xlink:href="#DejaVuSans-65" x="102.339844"/>
      <use xlink:href="#DejaVuSans-73" x="163.863281"/>
      <use xlink:href="#DejaVuSans-65" x="215.962891"/>
      <use xlink:href="#DejaVuSans-72" x="277.486328"/>
      <use xlink:href="#DejaVuSans-76" x="318.599609"/>
      <use xlink:href="#DejaVuSans-61" x="377.779297"/>
      <use xlink:href="#DejaVuSans-74" x="439.058594"/>
      <use xlink:href="#DejaVuSans-69" x="478.267578"/>
      <use xlink:href="#DejaVuSans-6f" x="506.050781"/>
      <use xlink:href="#DejaVuSans-6e" x="567.232422"/>
      <use xlink:href="#DejaVuSans-20" x="630.611328"/>
      <use xlink:href="#DejaVuSans-72" x="662.398438"/>
      <use xlink:href="#DejaVuSans-61" x="703.511719"/>
      <use xlink:href="#DejaVuSans-74" x="764.791016"/>
      <use xlink:href="#DejaVuSans-65" x="804"/>
     </g>
    </g>
    <g id="line2d_18">
     <path d="M 427.878001 127.668479 
L 439.878001 127.668479 
L 451.878001 127.668479 
" style="fill: none; stroke-dasharray: 5.55,2.4; stroke-dashoffset: 0; stroke: #1b2acc; stroke-width: 1.5"/>
    </g>
    <g id="text_16">
     <!-- Random  -->
     <g transform="translate(461.478001 123.901979) scale(0.12 -0.12)">
      <use xlink:href="#DejaVuSans-52"/>
      <use xlink:href="#DejaVuSans-61" x="67.232422"/>
      <use xlink:href="#DejaVuSans-6e" x="128.511719"/>
      <use xlink:href="#DejaVuSans-64" x="191.890625"/>
      <use xlink:href="#DejaVuSans-6f" x="255.367188"/>
      <use xlink:href="#DejaVuSans-6d" x="316.548828"/>
      <use xlink:href="#DejaVuSans-20" x="413.960938"/>
     </g>
     <!-- preservation rate -->
     <g transform="translate(461.478001 137.339354) scale(0.12 -0.12)">
      <use xlink:href="#DejaVuSans-70"/>
      <use xlink:href="#DejaVuSans-72" x="63.476562"/>
      <use xlink:href="#DejaVuSans-65" x="102.339844"/>
      <use xlink:href="#DejaVuSans-73" x="163.863281"/>
      <use xlink:href="#DejaVuSans-65" x="215.962891"/>
      <use xlink:href="#DejaVuSans-72" x="277.486328"/>
      <use xlink:href="#DejaVuSans-76" x="318.599609"/>
      <use xlink:href="#DejaVuSans-61" x="377.779297"/>
      <use xlink:href="#DejaVuSans-74" x="439.058594"/>
      <use xlink:href="#DejaVuSans-69" x="478.267578"/>
      <use xlink:href="#DejaVuSans-6f" x="506.050781"/>
      <use xlink:href="#DejaVuSans-6e" x="567.232422"/>
      <use xlink:href="#DejaVuSans-20" x="630.611328"/>
      <use xlink:href="#DejaVuSans-72" x="662.398438"/>
      <use xlink:href="#DejaVuSans-61" x="703.511719"/>
      <use xlink:href="#DejaVuSans-74" x="764.791016"/>
      <use xlink:href="#DejaVuSans-65" x="804"/>
     </g>
    </g>
   </g>
  </g>
 </g>
 <defs>
  <clipPath id="pc4df0ca28c">
   <rect x="30.503929" y="20.9088" width="386.574073" height="119.647859"/>
  </clipPath>
 </defs>
</svg>
