<?xml version="1.0" encoding="utf-8" standalone="no"?>
<!DOCTYPE svg PUBLIC "-//W3C//DTD SVG 1.1//EN"
  "http://www.w3.org/Graphics/SVG/1.1/DTD/svg11.dtd">
<svg xmlns:xlink="http://www.w3.org/1999/xlink" width="432pt" height="154.8pt" viewBox="0 0 432 154.8" xmlns="http://www.w3.org/2000/svg" version="1.1">
 <metadata>
  <rdf:RDF xmlns:dc="http://purl.org/dc/elements/1.1/" xmlns:cc="http://creativecommons.org/ns#" xmlns:rdf="http://www.w3.org/1999/02/22-rdf-syntax-ns#">
   <cc:Work>
    <dc:type rdf:resource="http://purl.org/dc/dcmitype/StillImage"/>
    <dc:date>2024-04-08T21:39:23.302185</dc:date>
    <dc:format>image/svg+xml</dc:format>
    <dc:creator>
     <cc:Agent>
      <dc:title>Matplotlib v3.7.3, https://matplotlib.org/</dc:title>
     </cc:Agent>
    </dc:creator>
   </cc:Work>
  </rdf:RDF>
 </metadata>
 <defs>
  <style type="text/css">*{stroke-linejoin: round; stroke-linecap: butt}</style>
 </defs>
 <g id="figure_1">
  <g id="patch_1">
   <path d="M 0 154.8 
L 432 154.8 
L 432 0 
L 0 0 
z
" style="fill: #ffffff"/>
  </g>
  <g id="axes_1">
   <g id="patch_2">
    <path d="M 42.306435 122.079511 
L 320.015416 122.079511 
L 320.015416 21.386636 
L 42.306435 21.386636 
z
" style="fill: #ffffff"/>
   </g>
   <g id="matplotlib.axis_1">
    <g id="xtick_1">
     <g id="line2d_1">
      <defs>
       <path id="mf0affa1a16" d="M 0 0 
L 0 3.5 
" style="stroke: #000000; stroke-width: 0.8"/>
      </defs>
      <g>
       <use xlink:href="#mf0affa1a16" x="54.676094" y="122.079511" style="stroke: #000000; stroke-width: 0.8"/>
      </g>
     </g>
     <g id="text_1">
      <!-- 0 -->
      <g transform="translate(51.494844 136.677949) scale(0.1 -0.1)">
       <defs>
        <path id="DejaVuSans-30" d="M 2034 4250 
Q 1547 4250 1301 3770 
Q 1056 3291 1056 2328 
Q 1056 1369 1301 889 
Q 1547 409 2034 409 
Q 2525 409 2770 889 
Q 3016 1369 3016 2328 
Q 3016 3291 2770 3770 
Q 2525 4250 2034 4250 
z
M 2034 4750 
Q 2819 4750 3233 4129 
Q 3647 3509 3647 2328 
Q 3647 1150 3233 529 
Q 2819 -91 2034 -91 
Q 1250 -91 836 529 
Q 422 1150 422 2328 
Q 422 3509 836 4129 
Q 1250 4750 2034 4750 
z
" transform="scale(0.015625)"/>
       </defs>
       <use xlink:href="#DejaVuSans-30"/>
      </g>
     </g>
    </g>
    <g id="xtick_2">
     <g id="line2d_2">
      <g>
       <use xlink:href="#mf0affa1a16" x="105.371417" y="122.079511" style="stroke: #000000; stroke-width: 0.8"/>
      </g>
     </g>
     <g id="text_2">
      <!-- 200 -->
      <g transform="translate(95.827667 136.677949) scale(0.1 -0.1)">
       <defs>
        <path id="DejaVuSans-32" d="M 1228 531 
L 3431 531 
L 3431 0 
L 469 0 
L 469 531 
Q 828 903 1448 1529 
Q 2069 2156 2228 2338 
Q 2531 2678 2651 2914 
Q 2772 3150 2772 3378 
Q 2772 3750 2511 3984 
Q 2250 4219 1831 4219 
Q 1534 4219 1204 4116 
Q 875 4013 500 3803 
L 500 4441 
Q 881 4594 1212 4672 
Q 1544 4750 1819 4750 
Q 2544 4750 2975 4387 
Q 3406 4025 3406 3419 
Q 3406 3131 3298 2873 
Q 3191 2616 2906 2266 
Q 2828 2175 2409 1742 
Q 1991 1309 1228 531 
z
" transform="scale(0.015625)"/>
       </defs>
       <use xlink:href="#DejaVuSans-32"/>
       <use xlink:href="#DejaVuSans-30" x="63.623047"/>
       <use xlink:href="#DejaVuSans-30" x="127.246094"/>
      </g>
     </g>
    </g>
    <g id="xtick_3">
     <g id="line2d_3">
      <g>
       <use xlink:href="#mf0affa1a16" x="156.06674" y="122.079511" style="stroke: #000000; stroke-width: 0.8"/>
      </g>
     </g>
     <g id="text_3">
      <!-- 400 -->
      <g transform="translate(146.52299 136.677949) scale(0.1 -0.1)">
       <defs>
        <path id="DejaVuSans-34" d="M 2419 4116 
L 825 1625 
L 2419 1625 
L 2419 4116 
z
M 2253 4666 
L 3047 4666 
L 3047 1625 
L 3713 1625 
L 3713 1100 
L 3047 1100 
L 3047 0 
L 2419 0 
L 2419 1100 
L 313 1100 
L 313 1709 
L 2253 4666 
z
" transform="scale(0.015625)"/>
       </defs>
       <use xlink:href="#DejaVuSans-34"/>
       <use xlink:href="#DejaVuSans-30" x="63.623047"/>
       <use xlink:href="#DejaVuSans-30" x="127.246094"/>
      </g>
     </g>
    </g>
    <g id="xtick_4">
     <g id="line2d_4">
      <g>
       <use xlink:href="#mf0affa1a16" x="206.762064" y="122.079511" style="stroke: #000000; stroke-width: 0.8"/>
      </g>
     </g>
     <g id="text_4">
      <!-- 600 -->
      <g transform="translate(197.218314 136.677949) scale(0.1 -0.1)">
       <defs>
        <path id="DejaVuSans-36" d="M 2113 2584 
Q 1688 2584 1439 2293 
Q 1191 2003 1191 1497 
Q 1191 994 1439 701 
Q 1688 409 2113 409 
Q 2538 409 2786 701 
Q 3034 994 3034 1497 
Q 3034 2003 2786 2293 
Q 2538 2584 2113 2584 
z
M 3366 4563 
L 3366 3988 
Q 3128 4100 2886 4159 
Q 2644 4219 2406 4219 
Q 1781 4219 1451 3797 
Q 1122 3375 1075 2522 
Q 1259 2794 1537 2939 
Q 1816 3084 2150 3084 
Q 2853 3084 3261 2657 
Q 3669 2231 3669 1497 
Q 3669 778 3244 343 
Q 2819 -91 2113 -91 
Q 1303 -91 875 529 
Q 447 1150 447 2328 
Q 447 3434 972 4092 
Q 1497 4750 2381 4750 
Q 2619 4750 2861 4703 
Q 3103 4656 3366 4563 
z
" transform="scale(0.015625)"/>
       </defs>
       <use xlink:href="#DejaVuSans-36"/>
       <use xlink:href="#DejaVuSans-30" x="63.623047"/>
       <use xlink:href="#DejaVuSans-30" x="127.246094"/>
      </g>
     </g>
    </g>
    <g id="xtick_5">
     <g id="line2d_5">
      <g>
       <use xlink:href="#mf0affa1a16" x="257.457387" y="122.079511" style="stroke: #000000; stroke-width: 0.8"/>
      </g>
     </g>
     <g id="text_5">
      <!-- 800 -->
      <g transform="translate(247.913637 136.677949) scale(0.1 -0.1)">
       <defs>
        <path id="DejaVuSans-38" d="M 2034 2216 
Q 1584 2216 1326 1975 
Q 1069 1734 1069 1313 
Q 1069 891 1326 650 
Q 1584 409 2034 409 
Q 2484 409 2743 651 
Q 3003 894 3003 1313 
Q 3003 1734 2745 1975 
Q 2488 2216 2034 2216 
z
M 1403 2484 
Q 997 2584 770 2862 
Q 544 3141 544 3541 
Q 544 4100 942 4425 
Q 1341 4750 2034 4750 
Q 2731 4750 3128 4425 
Q 3525 4100 3525 3541 
Q 3525 3141 3298 2862 
Q 3072 2584 2669 2484 
Q 3125 2378 3379 2068 
Q 3634 1759 3634 1313 
Q 3634 634 3220 271 
Q 2806 -91 2034 -91 
Q 1263 -91 848 271 
Q 434 634 434 1313 
Q 434 1759 690 2068 
Q 947 2378 1403 2484 
z
M 1172 3481 
Q 1172 3119 1398 2916 
Q 1625 2713 2034 2713 
Q 2441 2713 2670 2916 
Q 2900 3119 2900 3481 
Q 2900 3844 2670 4047 
Q 2441 4250 2034 4250 
Q 1625 4250 1398 4047 
Q 1172 3844 1172 3481 
z
" transform="scale(0.015625)"/>
       </defs>
       <use xlink:href="#DejaVuSans-38"/>
       <use xlink:href="#DejaVuSans-30" x="63.623047"/>
       <use xlink:href="#DejaVuSans-30" x="127.246094"/>
      </g>
     </g>
    </g>
    <g id="xtick_6">
     <g id="line2d_6">
      <g>
       <use xlink:href="#mf0affa1a16" x="308.15271" y="122.079511" style="stroke: #000000; stroke-width: 0.8"/>
      </g>
     </g>
     <g id="text_6">
      <!-- 1000 -->
      <g transform="translate(295.42771 136.677949) scale(0.1 -0.1)">
       <defs>
        <path id="DejaVuSans-31" d="M 794 531 
L 1825 531 
L 1825 4091 
L 703 3866 
L 703 4441 
L 1819 4666 
L 2450 4666 
L 2450 531 
L 3481 531 
L 3481 0 
L 794 0 
L 794 531 
z
" transform="scale(0.015625)"/>
       </defs>
       <use xlink:href="#DejaVuSans-31"/>
       <use xlink:href="#DejaVuSans-30" x="63.623047"/>
       <use xlink:href="#DejaVuSans-30" x="127.246094"/>
       <use xlink:href="#DejaVuSans-30" x="190.869141"/>
      </g>
     </g>
    </g>
    <g id="text_7">
     <!-- Iteration -->
     <g transform="translate(159.952332 150.356074) scale(0.1 -0.1)">
      <defs>
       <path id="DejaVuSans-49" d="M 628 4666 
L 1259 4666 
L 1259 0 
L 628 0 
L 628 4666 
z
" transform="scale(0.015625)"/>
       <path id="DejaVuSans-74" d="M 1172 4494 
L 1172 3500 
L 2356 3500 
L 2356 3053 
L 1172 3053 
L 1172 1153 
Q 1172 725 1289 603 
Q 1406 481 1766 481 
L 2356 481 
L 2356 0 
L 1766 0 
Q 1100 0 847 248 
Q 594 497 594 1153 
L 594 3053 
L 172 3053 
L 172 3500 
L 594 3500 
L 594 4494 
L 1172 4494 
z
" transform="scale(0.015625)"/>
       <path id="DejaVuSans-65" d="M 3597 1894 
L 3597 1613 
L 953 1613 
Q 991 1019 1311 708 
Q 1631 397 2203 397 
Q 2534 397 2845 478 
Q 3156 559 3463 722 
L 3463 178 
Q 3153 47 2828 -22 
Q 2503 -91 2169 -91 
Q 1331 -91 842 396 
Q 353 884 353 1716 
Q 353 2575 817 3079 
Q 1281 3584 2069 3584 
Q 2775 3584 3186 3129 
Q 3597 2675 3597 1894 
z
M 3022 2063 
Q 3016 2534 2758 2815 
Q 2500 3097 2075 3097 
Q 1594 3097 1305 2825 
Q 1016 2553 972 2059 
L 3022 2063 
z
" transform="scale(0.015625)"/>
       <path id="DejaVuSans-72" d="M 2631 2963 
Q 2534 3019 2420 3045 
Q 2306 3072 2169 3072 
Q 1681 3072 1420 2755 
Q 1159 2438 1159 1844 
L 1159 0 
L 581 0 
L 581 3500 
L 1159 3500 
L 1159 2956 
Q 1341 3275 1631 3429 
Q 1922 3584 2338 3584 
Q 2397 3584 2469 3576 
Q 2541 3569 2628 3553 
L 2631 2963 
z
" transform="scale(0.015625)"/>
       <path id="DejaVuSans-61" d="M 2194 1759 
Q 1497 1759 1228 1600 
Q 959 1441 959 1056 
Q 959 750 1161 570 
Q 1363 391 1709 391 
Q 2188 391 2477 730 
Q 2766 1069 2766 1631 
L 2766 1759 
L 2194 1759 
z
M 3341 1997 
L 3341 0 
L 2766 0 
L 2766 531 
Q 2569 213 2275 61 
Q 1981 -91 1556 -91 
Q 1019 -91 701 211 
Q 384 513 384 1019 
Q 384 1609 779 1909 
Q 1175 2209 1959 2209 
L 2766 2209 
L 2766 2266 
Q 2766 2663 2505 2880 
Q 2244 3097 1772 3097 
Q 1472 3097 1187 3025 
Q 903 2953 641 2809 
L 641 3341 
Q 956 3463 1253 3523 
Q 1550 3584 1831 3584 
Q 2591 3584 2966 3190 
Q 3341 2797 3341 1997 
z
" transform="scale(0.015625)"/>
       <path id="DejaVuSans-69" d="M 603 3500 
L 1178 3500 
L 1178 0 
L 603 0 
L 603 3500 
z
M 603 4863 
L 1178 4863 
L 1178 4134 
L 603 4134 
L 603 4863 
z
" transform="scale(0.015625)"/>
       <path id="DejaVuSans-6f" d="M 1959 3097 
Q 1497 3097 1228 2736 
Q 959 2375 959 1747 
Q 959 1119 1226 758 
Q 1494 397 1959 397 
Q 2419 397 2687 759 
Q 2956 1122 2956 1747 
Q 2956 2369 2687 2733 
Q 2419 3097 1959 3097 
z
M 1959 3584 
Q 2709 3584 3137 3096 
Q 3566 2609 3566 1747 
Q 3566 888 3137 398 
Q 2709 -91 1959 -91 
Q 1206 -91 779 398 
Q 353 888 353 1747 
Q 353 2609 779 3096 
Q 1206 3584 1959 3584 
z
" transform="scale(0.015625)"/>
       <path id="DejaVuSans-6e" d="M 3513 2113 
L 3513 0 
L 2938 0 
L 2938 2094 
Q 2938 2591 2744 2837 
Q 2550 3084 2163 3084 
Q 1697 3084 1428 2787 
Q 1159 2491 1159 1978 
L 1159 0 
L 581 0 
L 581 3500 
L 1159 3500 
L 1159 2956 
Q 1366 3272 1645 3428 
Q 1925 3584 2291 3584 
Q 2894 3584 3203 3211 
Q 3513 2838 3513 2113 
z
" transform="scale(0.015625)"/>
      </defs>
      <use xlink:href="#DejaVuSans-49"/>
      <use xlink:href="#DejaVuSans-74" x="29.492188"/>
      <use xlink:href="#DejaVuSans-65" x="68.701172"/>
      <use xlink:href="#DejaVuSans-72" x="130.224609"/>
      <use xlink:href="#DejaVuSans-61" x="171.337891"/>
      <use xlink:href="#DejaVuSans-74" x="232.617188"/>
      <use xlink:href="#DejaVuSans-69" x="271.826172"/>
      <use xlink:href="#DejaVuSans-6f" x="299.609375"/>
      <use xlink:href="#DejaVuSans-6e" x="360.791016"/>
     </g>
    </g>
   </g>
   <g id="matplotlib.axis_2">
    <g id="ytick_1">
     <g id="line2d_7">
      <defs>
       <path id="m8c8d895923" d="M 0 0 
L -3.5 0 
" style="stroke: #000000; stroke-width: 0.8"/>
      </defs>
      <g>
       <use xlink:href="#m8c8d895923" x="42.306435" y="116.156401" style="stroke: #000000; stroke-width: 0.8"/>
      </g>
     </g>
     <g id="text_8">
      <!-- 0.7 -->
      <g transform="translate(19.40331 119.95562) scale(0.1 -0.1)">
       <defs>
        <path id="DejaVuSans-2e" d="M 684 794 
L 1344 794 
L 1344 0 
L 684 0 
L 684 794 
z
" transform="scale(0.015625)"/>
        <path id="DejaVuSans-37" d="M 525 4666 
L 3525 4666 
L 3525 4397 
L 1831 0 
L 1172 0 
L 2766 4134 
L 525 4134 
L 525 4666 
z
" transform="scale(0.015625)"/>
       </defs>
       <use xlink:href="#DejaVuSans-30"/>
       <use xlink:href="#DejaVuSans-2e" x="63.623047"/>
       <use xlink:href="#DejaVuSans-37" x="95.410156"/>
      </g>
     </g>
    </g>
    <g id="ytick_2">
     <g id="line2d_8">
      <g>
       <use xlink:href="#m8c8d895923" x="42.306435" y="86.540849" style="stroke: #000000; stroke-width: 0.8"/>
      </g>
     </g>
     <g id="text_9">
      <!-- 0.8 -->
      <g transform="translate(19.40331 90.340068) scale(0.1 -0.1)">
       <use xlink:href="#DejaVuSans-30"/>
       <use xlink:href="#DejaVuSans-2e" x="63.623047"/>
       <use xlink:href="#DejaVuSans-38" x="95.410156"/>
      </g>
     </g>
    </g>
    <g id="ytick_3">
     <g id="line2d_9">
      <g>
       <use xlink:href="#m8c8d895923" x="42.306435" y="56.925298" style="stroke: #000000; stroke-width: 0.8"/>
      </g>
     </g>
     <g id="text_10">
      <!-- 0.9 -->
      <g transform="translate(19.40331 60.724517) scale(0.1 -0.1)">
       <defs>
        <path id="DejaVuSans-39" d="M 703 97 
L 703 672 
Q 941 559 1184 500 
Q 1428 441 1663 441 
Q 2288 441 2617 861 
Q 2947 1281 2994 2138 
Q 2813 1869 2534 1725 
Q 2256 1581 1919 1581 
Q 1219 1581 811 2004 
Q 403 2428 403 3163 
Q 403 3881 828 4315 
Q 1253 4750 1959 4750 
Q 2769 4750 3195 4129 
Q 3622 3509 3622 2328 
Q 3622 1225 3098 567 
Q 2575 -91 1691 -91 
Q 1453 -91 1209 -44 
Q 966 3 703 97 
z
M 1959 2075 
Q 2384 2075 2632 2365 
Q 2881 2656 2881 3163 
Q 2881 3666 2632 3958 
Q 2384 4250 1959 4250 
Q 1534 4250 1286 3958 
Q 1038 3666 1038 3163 
Q 1038 2656 1286 2365 
Q 1534 2075 1959 2075 
z
" transform="scale(0.015625)"/>
       </defs>
       <use xlink:href="#DejaVuSans-30"/>
       <use xlink:href="#DejaVuSans-2e" x="63.623047"/>
       <use xlink:href="#DejaVuSans-39" x="95.410156"/>
      </g>
     </g>
    </g>
    <g id="ytick_4">
     <g id="line2d_10">
      <g>
       <use xlink:href="#m8c8d895923" x="42.306435" y="27.309746" style="stroke: #000000; stroke-width: 0.8"/>
      </g>
     </g>
     <g id="text_11">
      <!-- 1.0 -->
      <g transform="translate(19.40331 31.108965) scale(0.1 -0.1)">
       <use xlink:href="#DejaVuSans-31"/>
       <use xlink:href="#DejaVuSans-2e" x="63.623047"/>
       <use xlink:href="#DejaVuSans-30" x="95.410156"/>
      </g>
     </g>
    </g>
    <g id="text_12">
     <!-- validity rate -->
     <g transform="translate(13.323622 101.762761) rotate(-90) scale(0.1 -0.1)">
      <defs>
       <path id="DejaVuSans-76" d="M 191 3500 
L 800 3500 
L 1894 563 
L 2988 3500 
L 3597 3500 
L 2284 0 
L 1503 0 
L 191 3500 
z
" transform="scale(0.015625)"/>
       <path id="DejaVuSans-6c" d="M 603 4863 
L 1178 4863 
L 1178 0 
L 603 0 
L 603 4863 
z
" transform="scale(0.015625)"/>
       <path id="DejaVuSans-64" d="M 2906 2969 
L 2906 4863 
L 3481 4863 
L 3481 0 
L 2906 0 
L 2906 525 
Q 2725 213 2448 61 
Q 2172 -91 1784 -91 
Q 1150 -91 751 415 
Q 353 922 353 1747 
Q 353 2572 751 3078 
Q 1150 3584 1784 3584 
Q 2172 3584 2448 3432 
Q 2725 3281 2906 2969 
z
M 947 1747 
Q 947 1113 1208 752 
Q 1469 391 1925 391 
Q 2381 391 2643 752 
Q 2906 1113 2906 1747 
Q 2906 2381 2643 2742 
Q 2381 3103 1925 3103 
Q 1469 3103 1208 2742 
Q 947 2381 947 1747 
z
" transform="scale(0.015625)"/>
       <path id="DejaVuSans-79" d="M 2059 -325 
Q 1816 -950 1584 -1140 
Q 1353 -1331 966 -1331 
L 506 -1331 
L 506 -850 
L 844 -850 
Q 1081 -850 1212 -737 
Q 1344 -625 1503 -206 
L 1606 56 
L 191 3500 
L 800 3500 
L 1894 763 
L 2988 3500 
L 3597 3500 
L 2059 -325 
z
" transform="scale(0.015625)"/>
       <path id="DejaVuSans-20" transform="scale(0.015625)"/>
      </defs>
      <use xlink:href="#DejaVuSans-76"/>
      <use xlink:href="#DejaVuSans-61" x="59.179688"/>
      <use xlink:href="#DejaVuSans-6c" x="120.458984"/>
      <use xlink:href="#DejaVuSans-69" x="148.242188"/>
      <use xlink:href="#DejaVuSans-64" x="176.025391"/>
      <use xlink:href="#DejaVuSans-69" x="239.501953"/>
      <use xlink:href="#DejaVuSans-74" x="267.285156"/>
      <use xlink:href="#DejaVuSans-79" x="306.494141"/>
      <use xlink:href="#DejaVuSans-20" x="365.673828"/>
      <use xlink:href="#DejaVuSans-72" x="397.460938"/>
      <use xlink:href="#DejaVuSans-61" x="438.574219"/>
      <use xlink:href="#DejaVuSans-74" x="499.853516"/>
      <use xlink:href="#DejaVuSans-65" x="539.0625"/>
     </g>
    </g>
   </g>
   <g id="line2d_11">
    <path d="M 54.92957 27.309746 
L 57.717813 27.309746 
L 57.97129 37.082878 
L 58.478243 35.898256 
L 58.73172 35.00979 
L 58.985196 41.525211 
L 59.492149 37.675189 
L 59.745626 36.490567 
L 60.252579 35.305945 
L 60.759533 33.825168 
L 61.013009 33.529012 
L 61.773439 39.155967 
L 62.026916 38.563656 
L 62.280392 37.675189 
L 62.533869 42.709833 
L 62.787345 43.302144 
L 63.294299 42.117522 
L 64.308205 38.859811 
L 64.561682 38.563656 
L 64.815158 37.971345 
L 65.068635 38.563656 
L 65.322112 38.563656 
L 65.575588 37.971345 
L 65.829065 38.859811 
L 66.082541 38.2675 
L 66.336018 37.971345 
L 66.589495 38.563656 
L 66.842971 40.044434 
L 67.096448 39.748278 
L 67.349925 41.229056 
L 67.603401 41.229056 
L 67.856878 40.9329 
L 68.617308 41.821367 
L 68.870784 41.525211 
L 69.377737 42.117522 
L 69.631214 41.525211 
L 70.391644 42.413678 
L 70.645121 42.117522 
L 70.898597 41.525211 
L 71.152074 41.525211 
L 71.40555 40.9329 
L 71.659027 41.229056 
L 71.912504 40.9329 
L 72.16598 41.229056 
L 72.419457 40.9329 
L 72.672933 42.117522 
L 72.92641 41.821367 
L 73.433363 42.413678 
L 73.68684 42.413678 
L 73.940317 43.005989 
L 74.193793 43.005989 
L 74.44727 43.5983 
L 74.700746 43.302144 
L 74.954223 43.5983 
L 75.2077 43.5983 
L 75.461176 44.190611 
L 75.714653 43.894455 
L 75.96813 44.190611 
L 76.221606 45.079077 
L 76.728559 45.079077 
L 77.235513 45.671388 
L 77.488989 45.375233 
L 77.742466 45.375233 
L 77.995942 45.671388 
L 79.009849 45.671388 
L 79.263326 45.967544 
L 79.516802 45.671388 
L 79.770279 45.671388 
L 80.023755 45.375233 
L 80.277232 45.375233 
L 80.530709 45.079077 
L 80.784185 45.671388 
L 81.037662 45.671388 
L 81.291138 45.967544 
L 82.051568 45.967544 
L 82.305045 46.263699 
L 82.558522 45.967544 
L 82.811998 46.263699 
L 83.318951 46.263699 
L 83.572428 46.559855 
L 84.079381 45.967544 
L 84.332858 46.263699 
L 84.586334 45.967544 
L 84.839811 46.263699 
L 85.093288 46.85601 
L 85.346764 46.85601 
L 85.600241 47.448321 
L 86.107194 47.448321 
L 86.360671 47.744477 
L 86.867624 47.744477 
L 88.135007 49.225255 
L 88.388484 49.225255 
L 88.64196 50.113721 
L 89.148914 50.113721 
L 89.40239 50.706032 
L 89.655867 51.002188 
L 89.909343 51.002188 
L 90.16282 51.594499 
L 90.92325 51.594499 
L 91.176726 51.298343 
L 91.430203 51.298343 
L 91.68368 51.002188 
L 91.937156 51.594499 
L 92.190633 51.594499 
L 92.44411 51.890654 
L 92.697586 51.890654 
L 92.951063 51.594499 
L 94.471922 51.594499 
L 94.725399 51.890654 
L 95.992782 51.890654 
L 96.246259 51.594499 
L 96.499735 51.890654 
L 96.753212 51.890654 
L 97.006689 52.18681 
L 97.767119 52.18681 
L 98.020595 52.482965 
L 98.274072 52.18681 
L 98.781025 52.18681 
L 99.034502 52.482965 
L 99.287978 52.18681 
L 99.794931 52.779121 
L 100.048408 52.482965 
L 101.822744 52.482965 
L 102.076221 52.18681 
L 102.329698 52.482965 
L 102.583174 52.18681 
L 102.836651 52.482965 
L 103.343604 52.482965 
L 103.597081 52.18681 
L 104.104034 52.18681 
L 104.357511 51.890654 
L 105.11794 51.890654 
L 105.371417 51.594499 
L 106.385323 51.594499 
L 106.6388 51.298343 
L 106.892277 51.298343 
L 107.145753 51.594499 
L 107.39923 51.594499 
L 107.652707 51.298343 
L 107.906183 51.594499 
L 108.413136 51.594499 
L 108.666613 51.298343 
L 110.947903 51.298343 
L 111.201379 51.002188 
L 113.229192 51.002188 
L 113.482669 51.298343 
L 114.750052 51.298343 
L 115.003528 51.002188 
L 116.524388 51.002188 
L 117.031341 50.706032 
L 117.284818 50.706032 
L 117.538295 51.002188 
L 118.298724 51.002188 
L 118.552201 50.706032 
L 120.833491 50.706032 
L 121.086967 51.002188 
L 121.847397 51.002188 
L 122.100874 50.706032 
L 129.958649 50.706032 
L 130.212125 50.409877 
L 133.000368 50.409877 
L 133.253845 50.113721 
L 137.309471 50.113721 
L 137.816424 49.817566 
L 145.674199 49.817566 
L 145.927676 49.52141 
L 158.601506 49.52141 
L 159.10846 49.225255 
L 170.261431 49.225255 
L 171.528814 48.929099 
L 192.82085 48.929099 
L 193.074326 48.632943 
L 245.797462 48.632943 
L 253.655238 48.336788 
L 305.364467 48.336788 
L 305.364467 48.336788 
" clip-path="url(#p5a8d4e47cc)" style="fill: none; stroke: #1f77b4; stroke-width: 1.5; stroke-linecap: square"/>
   </g>
   <g id="line2d_12">
    <path d="M 54.92957 27.309746 
L 55.183047 27.309746 
L 55.69 86.540849 
L 55.943477 69.659985 
L 56.45043 60.183009 
L 56.703907 51.890654 
L 57.21086 45.671388 
L 57.97129 44.782922 
L 58.478243 43.005989 
L 58.985196 42.117522 
L 59.999103 36.786723 
L 60.252579 36.194412 
L 60.506056 50.706032 
L 61.519962 45.671388 
L 62.026916 42.709833 
L 62.280392 45.967544 
L 62.533869 44.190611 
L 63.040822 42.709833 
L 63.547775 41.525211 
L 63.801252 40.340589 
L 64.054729 43.005989 
L 64.308205 43.894455 
L 64.561682 42.413678 
L 64.815158 42.117522 
L 65.068635 43.005989 
L 65.322112 42.117522 
L 65.575588 41.821367 
L 65.829065 41.229056 
L 66.082541 40.340589 
L 66.336018 40.9329 
L 66.842971 42.413678 
L 67.096448 42.117522 
L 67.349925 42.709833 
L 68.363831 40.340589 
L 68.617308 40.044434 
L 68.870784 41.821367 
L 69.124261 41.525211 
L 69.631214 40.340589 
L 69.884691 40.9329 
L 70.138167 40.340589 
L 70.391644 40.9329 
L 70.645121 40.9329 
L 70.898597 41.229056 
L 71.152074 40.636745 
L 71.40555 40.9329 
L 71.912504 40.340589 
L 72.16598 40.9329 
L 72.419457 41.229056 
L 72.672933 40.636745 
L 72.92641 41.229056 
L 73.179887 40.636745 
L 73.433363 40.340589 
L 73.68684 40.636745 
L 73.940317 40.340589 
L 74.193793 40.9329 
L 74.44727 41.229056 
L 75.461176 40.044434 
L 75.714653 40.044434 
L 75.96813 40.340589 
L 76.221606 40.044434 
L 76.475083 40.044434 
L 76.728559 39.748278 
L 76.982036 39.748278 
L 77.235513 39.452123 
L 77.488989 39.452123 
L 78.249419 38.563656 
L 78.502896 38.859811 
L 78.756372 38.859811 
L 79.009849 38.563656 
L 79.263326 38.859811 
L 79.770279 38.2675 
L 80.023755 39.155967 
L 80.277232 38.859811 
L 80.530709 39.155967 
L 80.784185 38.859811 
L 81.037662 39.155967 
L 81.291138 38.859811 
L 81.544615 38.859811 
L 81.798092 40.044434 
L 82.051568 40.044434 
L 82.811998 40.9329 
L 83.318951 42.117522 
L 83.572428 42.413678 
L 83.825905 42.413678 
L 84.079381 42.709833 
L 84.586334 42.709833 
L 84.839811 42.413678 
L 85.346764 42.413678 
L 85.600241 42.117522 
L 86.107194 43.302144 
L 86.614147 42.709833 
L 86.867624 43.005989 
L 87.628054 43.005989 
L 87.88153 42.709833 
L 88.135007 42.709833 
L 88.388484 43.005989 
L 88.64196 43.5983 
L 88.895437 43.302144 
L 89.148914 43.894455 
L 89.40239 43.894455 
L 89.655867 44.190611 
L 89.909343 44.190611 
L 90.16282 43.894455 
L 90.416297 44.190611 
L 90.669773 43.894455 
L 90.92325 43.894455 
L 91.176726 44.190611 
L 91.937156 44.190611 
L 92.190633 44.486766 
L 92.44411 44.190611 
L 93.204539 44.190611 
L 93.458016 43.894455 
L 94.218446 43.894455 
L 94.471922 43.5983 
L 95.232352 43.5983 
L 95.485829 43.302144 
L 95.739306 43.5983 
L 96.246259 43.5983 
L 96.499735 43.302144 
L 96.753212 43.5983 
L 97.006689 43.5983 
L 97.260165 43.894455 
L 98.527548 43.894455 
L 98.781025 44.190611 
L 99.034502 43.894455 
L 99.287978 44.190611 
L 99.541455 43.894455 
L 101.315791 43.894455 
L 101.569268 43.5983 
L 103.090127 43.5983 
L 103.343604 43.302144 
L 105.87837 43.302144 
L 106.131847 43.005989 
L 106.6388 43.005989 
L 106.892277 43.302144 
L 107.145753 43.005989 
L 108.666613 43.005989 
L 108.92009 42.709833 
L 110.947903 42.709833 
L 111.201379 42.413678 
L 114.243099 42.413678 
L 114.496575 42.709833 
L 114.750052 42.709833 
L 115.003528 42.413678 
L 115.510482 42.413678 
L 115.763958 42.709833 
L 116.270912 42.709833 
L 116.524388 42.413678 
L 116.777865 42.709833 
L 119.059154 42.709833 
L 119.566108 43.005989 
L 126.1565 43.005989 
L 126.663453 42.709833 
L 127.170406 42.709833 
L 127.677359 43.005989 
L 128.437789 43.005989 
L 128.691266 42.709833 
L 128.944742 43.005989 
L 135.028181 43.005989 
L 135.281658 42.709833 
L 136.295564 42.709833 
L 136.549041 43.005989 
L 139.083807 43.005989 
L 139.337284 42.709833 
L 150.743731 42.709833 
L 151.757638 43.005989 
L 153.025021 43.005989 
L 153.531974 42.709833 
L 168.740571 42.709833 
L 169.247524 42.413678 
L 201.692531 42.413678 
L 202.706438 42.709833 
L 224.758903 42.709833 
L 225.265857 42.413678 
L 305.871421 42.413678 
L 305.871421 42.413678 
" clip-path="url(#p5a8d4e47cc)" style="fill: none; stroke: #ff7f0e; stroke-width: 1.5; stroke-linecap: square"/>
   </g>
   <g id="line2d_13">
    <path d="M 54.92957 27.309746 
L 55.183047 101.348625 
L 55.436524 86.540849 
L 55.943477 76.767717 
L 56.45043 56.925298 
L 56.703907 76.767717 
L 56.957383 72.917696 
L 57.464337 69.659985 
L 57.717813 62.256097 
L 57.97129 60.183009 
L 58.478243 54.259898 
L 58.73172 53.075276 
L 58.985196 51.002188 
L 59.238673 50.113721 
L 59.999103 44.190611 
L 60.759533 38.563656 
L 61.266486 35.898256 
L 61.519962 38.859811 
L 61.773439 38.2675 
L 62.026916 41.229056 
L 63.040822 37.971345 
L 63.294299 37.379034 
L 63.801252 35.898256 
L 64.054729 35.602101 
L 64.308205 38.859811 
L 64.815158 37.675189 
L 65.068635 37.379034 
L 65.322112 38.2675 
L 65.575588 37.971345 
L 66.082541 39.748278 
L 66.336018 41.229056 
L 66.842971 39.748278 
L 67.096448 39.155967 
L 67.349925 38.859811 
L 67.603401 39.452123 
L 67.856878 39.155967 
L 68.110354 39.748278 
L 68.363831 39.155967 
L 68.617308 38.859811 
L 68.870784 39.452123 
L 69.124261 38.859811 
L 69.377737 39.452123 
L 69.631214 39.155967 
L 69.884691 39.748278 
L 70.138167 40.044434 
L 70.645121 39.452123 
L 70.898597 39.452123 
L 72.16598 37.971345 
L 72.419457 38.563656 
L 72.672933 38.859811 
L 72.92641 40.340589 
L 73.433363 39.748278 
L 73.68684 39.748278 
L 73.940317 39.452123 
L 74.44727 41.229056 
L 74.700746 41.525211 
L 75.461176 40.636745 
L 75.714653 40.636745 
L 75.96813 40.9329 
L 76.221606 40.636745 
L 76.475083 40.9329 
L 76.728559 41.821367 
L 76.982036 42.117522 
L 77.235513 42.117522 
L 77.488989 42.709833 
L 77.742466 43.005989 
L 77.995942 42.709833 
L 78.249419 43.5983 
L 78.502896 43.302144 
L 78.756372 43.894455 
L 79.009849 43.5983 
L 79.263326 43.894455 
L 79.516802 43.5983 
L 80.023755 44.782922 
L 80.277232 44.486766 
L 80.530709 44.486766 
L 80.784185 45.671388 
L 81.544615 46.559855 
L 81.798092 48.336788 
L 82.051568 48.929099 
L 82.305045 48.929099 
L 82.558522 49.225255 
L 82.811998 48.929099 
L 83.065475 49.225255 
L 83.318951 49.225255 
L 83.572428 48.929099 
L 83.825905 48.929099 
L 84.079381 49.225255 
L 84.839811 49.225255 
L 85.093288 49.817566 
L 85.346764 50.113721 
L 85.600241 50.113721 
L 86.107194 49.52141 
L 86.360671 49.817566 
L 86.614147 49.52141 
L 86.867624 50.113721 
L 87.121101 49.817566 
L 87.374577 49.817566 
L 87.628054 50.409877 
L 87.88153 50.113721 
L 88.135007 50.409877 
L 88.388484 50.409877 
L 89.148914 51.298343 
L 89.655867 52.482965 
L 89.909343 52.482965 
L 90.16282 52.18681 
L 90.416297 52.482965 
L 90.669773 52.18681 
L 90.92325 52.482965 
L 91.176726 53.075276 
L 92.951063 53.075276 
L 93.204539 53.371432 
L 95.485829 53.371432 
L 95.992782 53.963743 
L 96.753212 53.963743 
L 97.006689 54.259898 
L 97.260165 54.259898 
L 97.767119 54.852209 
L 98.020595 54.556054 
L 98.274072 54.556054 
L 98.527548 54.852209 
L 98.781025 54.556054 
L 99.287978 54.556054 
L 99.541455 54.259898 
L 100.048408 54.259898 
L 100.301885 53.963743 
L 101.315791 53.963743 
L 101.569268 54.259898 
L 101.822744 53.963743 
L 102.329698 53.963743 
L 102.583174 53.667587 
L 103.850557 53.667587 
L 104.104034 53.371432 
L 104.357511 53.667587 
L 105.11794 53.667587 
L 105.371417 53.963743 
L 105.624894 53.963743 
L 105.87837 53.667587 
L 107.652707 53.667587 
L 107.906183 53.963743 
L 108.413136 53.963743 
L 108.666613 53.667587 
L 109.680519 53.667587 
L 109.933996 53.371432 
L 110.947903 53.371432 
L 111.201379 53.667587 
L 111.454856 53.667587 
L 111.708332 53.371432 
L 113.736145 53.371432 
L 113.989622 53.075276 
L 117.031341 53.075276 
L 117.284818 53.371432 
L 118.045248 53.371432 
L 118.298724 53.075276 
L 120.580014 53.075276 
L 120.833491 52.779121 
L 121.340444 52.779121 
L 121.59392 53.075276 
L 121.847397 53.075276 
L 122.35435 53.667587 
L 122.861304 53.667587 
L 123.11478 53.371432 
L 123.368257 53.667587 
L 124.128687 53.667587 
L 124.382163 53.371432 
L 124.63564 53.667587 
L 125.142593 53.667587 
L 125.649546 53.963743 
L 126.1565 53.963743 
L 126.409976 53.667587 
L 128.691266 53.667587 
L 128.944742 53.963743 
L 130.972555 53.963743 
L 131.226032 53.667587 
L 131.479508 53.667587 
L 131.732985 53.963743 
L 132.239938 53.963743 
L 132.493415 53.667587 
L 135.281658 53.667587 
L 135.535134 53.371432 
L 138.323377 53.371432 
L 138.83033 53.667587 
L 141.365097 53.667587 
L 141.618573 53.371432 
L 141.87205 53.667587 
L 142.885956 53.667587 
L 143.139433 53.371432 
L 149.476348 53.371432 
L 149.729825 53.075276 
L 151.250685 53.075276 
L 151.504161 53.371432 
L 152.771544 53.371432 
L 153.025021 53.075276 
L 157.841077 53.075276 
L 158.094553 52.779121 
L 163.924515 52.779121 
L 164.431469 53.075276 
L 164.684945 53.075276 
L 164.938422 52.779121 
L 165.191898 53.075276 
L 167.473188 53.075276 
L 167.726665 52.779121 
L 176.851823 52.779121 
L 179.133112 52.482965 
L 191.046513 52.482965 
L 192.06042 52.18681 
L 203.213391 52.18681 
L 203.720344 51.890654 
L 256.44348 51.890654 
L 257.20391 51.594499 
L 261.006059 51.594499 
L 262.780396 51.890654 
L 307.39228 51.890654 
L 307.39228 51.890654 
" clip-path="url(#p5a8d4e47cc)" style="fill: none; stroke: #2ca02c; stroke-width: 1.5; stroke-linecap: square"/>
   </g>
   <g id="line2d_14">
    <path d="M 54.92957 125.929533 
L 55.436524 101.348625 
L 55.69 76.767717 
L 56.45043 54.259898 
L 56.957383 51.890654 
L 57.21086 47.152166 
L 57.464337 62.256097 
L 58.224766 58.406075 
L 59.238673 56.925298 
L 59.492149 55.44452 
L 61.519962 54.259898 
L 62.280392 51.002188 
L 63.294299 50.113721 
L 63.801252 47.152166 
L 64.815158 44.782922 
L 65.322112 44.190611 
L 65.829065 43.894455 
L 66.082541 42.413678 
L 66.336018 48.929099 
L 66.589495 48.336788 
L 67.096448 46.263699 
L 68.870784 43.302144 
L 69.377737 41.525211 
L 69.631214 41.525211 
L 69.884691 45.671388 
L 70.138167 45.671388 
L 70.391644 45.375233 
L 70.645121 44.782922 
L 70.898597 43.894455 
L 71.152074 47.744477 
L 71.659027 47.448321 
L 72.16598 46.85601 
L 72.419457 45.967544 
L 72.672933 45.671388 
L 72.92641 45.671388 
L 73.433363 45.375233 
L 73.68684 44.190611 
L 73.940317 44.190611 
L 74.193793 43.894455 
L 74.700746 43.894455 
L 75.2077 43.5983 
L 75.714653 43.005989 
L 76.221606 42.709833 
L 76.475083 47.744477 
L 76.728559 47.152166 
L 77.235513 47.152166 
L 78.249419 45.967544 
L 78.502896 45.079077 
L 79.009849 44.486766 
L 79.770279 46.85601 
L 80.023755 45.967544 
L 80.277232 45.967544 
L 80.784185 45.671388 
L 81.291138 45.671388 
L 81.798092 45.375233 
L 82.305045 45.375233 
L 82.558522 45.079077 
L 83.065475 44.782922 
L 84.079381 44.486766 
L 85.093288 44.486766 
L 86.614147 42.709833 
L 86.867624 42.709833 
L 87.121101 42.413678 
L 87.374577 42.413678 
L 87.628054 45.671388 
L 88.388484 45.671388 
L 88.64196 45.375233 
L 88.895437 46.85601 
L 89.148914 46.559855 
L 89.909343 46.559855 
L 90.416297 46.263699 
L 90.669773 46.263699 
L 91.176726 45.671388 
L 91.68368 45.671388 
L 92.190633 45.079077 
L 92.44411 46.559855 
L 92.697586 45.967544 
L 92.951063 45.967544 
L 93.204539 45.671388 
L 93.458016 45.671388 
L 94.218446 44.782922 
L 94.471922 44.190611 
L 94.978876 43.894455 
L 95.232352 43.894455 
L 95.485829 43.5983 
L 95.739306 43.5983 
L 96.246259 43.005989 
L 96.499735 43.894455 
L 97.006689 43.302144 
L 97.260165 43.302144 
L 97.513642 44.486766 
L 98.020595 44.190611 
L 98.781025 44.190611 
L 99.034502 43.894455 
L 99.541455 43.894455 
L 99.794931 43.5983 
L 100.048408 44.486766 
L 100.301885 44.486766 
L 100.808838 43.894455 
L 101.315791 43.894455 
L 101.822744 43.5983 
L 102.076221 43.302144 
L 102.329698 43.302144 
L 102.583174 43.005989 
L 102.836651 44.190611 
L 103.343604 43.894455 
L 103.597081 43.894455 
L 104.104034 44.782922 
L 104.357511 44.782922 
L 104.610987 45.671388 
L 105.11794 45.079077 
L 105.371417 46.263699 
L 105.624894 45.967544 
L 105.87837 45.967544 
L 106.131847 46.85601 
L 106.385323 46.85601 
L 106.6388 47.744477 
L 106.892277 47.448321 
L 107.39923 47.448321 
L 107.906183 46.85601 
L 108.15966 47.744477 
L 108.666613 47.744477 
L 109.173566 48.336788 
L 109.427043 48.929099 
L 109.680519 48.632943 
L 109.933996 48.632943 
L 110.187473 49.225255 
L 110.440949 49.225255 
L 110.694426 49.817566 
L 110.947903 49.52141 
L 111.201379 50.113721 
L 111.454856 49.817566 
L 111.708332 50.706032 
L 111.961809 50.409877 
L 112.468762 51.298343 
L 112.722239 51.002188 
L 112.975715 51.890654 
L 113.229192 51.594499 
L 113.482669 51.594499 
L 113.736145 51.298343 
L 113.989622 51.298343 
L 114.243099 51.002188 
L 114.750052 52.18681 
L 115.003528 52.18681 
L 115.257005 52.779121 
L 115.510482 53.667587 
L 115.763958 53.371432 
L 116.017435 53.667587 
L 116.524388 54.852209 
L 116.777865 54.556054 
L 117.031341 55.44452 
L 117.538295 55.148365 
L 117.791771 55.740676 
L 118.045248 55.44452 
L 118.298724 55.44452 
L 118.552201 55.148365 
L 118.805678 55.148365 
L 119.059154 55.740676 
L 119.312631 55.740676 
L 119.566108 55.44452 
L 119.819584 55.44452 
L 120.073061 56.036831 
L 120.580014 55.44452 
L 121.340444 55.44452 
L 121.59392 56.036831 
L 122.100874 56.629142 
L 122.35435 56.629142 
L 122.607827 56.332987 
L 122.861304 56.925298 
L 123.368257 57.517609 
L 123.621733 57.517609 
L 124.128687 57.221453 
L 124.382163 57.221453 
L 124.889116 56.629142 
L 125.649546 56.629142 
L 126.1565 57.813764 
L 126.409976 58.10992 
L 126.663453 58.998387 
L 126.916929 58.998387 
L 127.170406 58.702231 
L 127.423883 58.702231 
L 127.677359 58.406075 
L 127.930836 58.406075 
L 128.184312 58.998387 
L 128.437789 58.702231 
L 128.944742 58.702231 
L 129.198219 58.406075 
L 129.451696 59.590698 
L 129.705172 59.886853 
L 129.958649 59.886853 
L 130.465602 61.071475 
L 130.719079 61.071475 
L 130.972555 61.367631 
L 131.479508 61.663786 
L 131.732985 61.367631 
L 132.239938 61.367631 
L 132.493415 61.071475 
L 133.000368 62.552253 
L 133.507321 62.848408 
L 134.014275 62.848408 
L 134.267751 62.552253 
L 134.774704 62.552253 
L 135.281658 62.848408 
L 135.535134 62.848408 
L 135.788611 62.552253 
L 136.042088 62.552253 
L 136.549041 64.03303 
L 136.802517 63.736875 
L 137.562947 64.625341 
L 138.069901 64.921497 
L 138.576854 64.329186 
L 139.083807 64.329186 
L 139.337284 64.625341 
L 139.844237 64.625341 
L 140.097713 65.217652 
L 140.604667 65.809963 
L 140.858143 66.402274 
L 141.365097 65.809963 
L 141.87205 65.809963 
L 142.125526 66.106119 
L 143.392909 66.106119 
L 143.646386 65.809963 
L 143.899863 66.402274 
L 144.153339 66.106119 
L 144.406816 66.106119 
L 144.913769 65.809963 
L 145.167246 66.402274 
L 145.674199 66.994585 
L 145.927676 66.69843 
L 146.181152 67.290741 
L 146.434629 67.586896 
L 146.941582 66.994585 
L 147.195059 67.883052 
L 147.448535 67.883052 
L 147.955489 67.586896 
L 148.715918 68.179208 
L 148.969395 68.771519 
L 149.222872 68.475363 
L 150.236778 68.475363 
L 150.490255 68.771519 
L 150.743731 69.36383 
L 151.250685 70.252296 
L 151.504161 69.956141 
L 151.757638 69.956141 
L 152.011114 70.252296 
L 152.771544 70.252296 
L 153.531974 71.140763 
L 154.038927 70.844607 
L 154.292404 70.844607 
L 154.545881 70.548452 
L 154.799357 70.548452 
L 155.052834 70.252296 
L 155.813264 69.956141 
L 156.320217 70.252296 
L 156.573694 70.252296 
L 156.82717 69.956141 
L 157.080647 70.844607 
L 157.5876 71.140763 
L 157.841077 71.140763 
L 158.094553 71.436918 
L 158.34803 72.029229 
L 158.601506 72.029229 
L 158.854983 72.62154 
L 159.10846 73.806162 
L 159.361936 73.510007 
L 159.86889 73.510007 
L 160.375843 73.806162 
L 160.629319 73.510007 
L 160.882796 73.806162 
L 161.136273 73.510007 
L 161.643226 73.510007 
L 162.150179 73.213851 
L 162.403656 73.806162 
L 163.164086 73.806162 
L 163.417562 74.398473 
L 163.671039 74.694629 
L 163.924515 74.694629 
L 164.177992 74.990784 
L 165.952328 74.990784 
L 166.205805 74.694629 
L 166.712758 74.694629 
L 167.219711 74.990784 
L 167.726665 74.990784 
L 167.980141 75.28694 
L 168.233618 75.28694 
L 168.487094 75.583095 
L 168.740571 75.28694 
L 168.994048 75.583095 
L 169.247524 75.583095 
L 169.501001 75.879251 
L 169.754478 75.583095 
L 170.768384 76.175406 
L 171.275337 76.767717 
L 171.78229 76.767717 
L 172.035767 76.471562 
L 172.289244 76.471562 
L 172.54272 76.767717 
L 172.796197 76.767717 
L 173.049674 77.063873 
L 173.30315 76.767717 
L 174.570533 76.767717 
L 174.82401 76.471562 
L 175.077487 76.471562 
L 175.330963 76.175406 
L 175.837916 76.175406 
L 176.34487 76.471562 
L 176.851823 76.471562 
L 177.105299 76.175406 
L 177.358776 76.175406 
L 177.612253 76.471562 
L 177.865729 76.471562 
L 178.119206 77.063873 
L 178.879636 76.767717 
L 179.133112 77.063873 
L 179.640066 77.063873 
L 180.400495 77.95234 
L 180.653972 77.656184 
L 181.160925 77.656184 
L 181.667879 78.248495 
L 182.174832 78.248495 
L 182.428308 78.544651 
L 182.935262 78.840806 
L 183.442215 79.433117 
L 183.695691 79.433117 
L 184.202645 79.729273 
L 184.709598 79.729273 
L 184.963075 79.433117 
L 185.723504 80.321584 
L 185.976981 80.321584 
L 186.230458 80.617739 
L 186.483934 81.21005 
L 186.990887 80.913895 
L 187.497841 81.506206 
L 187.751317 81.21005 
L 188.258271 81.506206 
L 188.511747 81.802361 
L 189.0187 81.802361 
L 189.525654 82.986983 
L 189.77913 82.986983 
L 190.032607 82.690828 
L 190.286083 82.986983 
L 191.29999 82.986983 
L 191.553467 82.690828 
L 192.06042 83.283139 
L 192.313896 83.283139 
L 192.82085 83.87545 
L 193.074326 83.87545 
L 193.327803 84.467761 
L 193.581279 84.763916 
L 193.834756 84.467761 
L 194.595186 84.467761 
L 194.848663 84.763916 
L 195.102139 84.763916 
L 195.355616 84.467761 
L 198.143859 84.467761 
L 198.397335 84.171605 
L 198.904288 84.171605 
L 199.411242 83.87545 
L 199.664718 83.87545 
L 199.918195 84.467761 
L 200.171672 84.763916 
L 200.425148 84.763916 
L 200.932101 85.060072 
L 201.185578 85.060072 
L 201.692531 85.652383 
L 202.199484 85.652383 
L 202.452961 85.948538 
L 203.213391 85.948538 
L 203.466868 86.244694 
L 203.720344 85.948538 
L 204.480774 85.948538 
L 204.987727 85.652383 
L 205.241204 85.652383 
L 205.49468 85.948538 
L 206.001634 86.244694 
L 206.762064 87.13316 
L 208.029447 87.13316 
L 209.043353 88.317783 
L 209.29683 88.910094 
L 210.564213 88.910094 
L 211.071166 89.502405 
L 211.324643 89.502405 
L 211.578119 89.79856 
L 211.831596 89.79856 
L 212.085072 90.094716 
L 212.592026 90.094716 
L 212.845502 90.687027 
L 213.352456 90.390871 
L 213.859409 90.687027 
L 214.619839 90.687027 
L 214.873315 90.983182 
L 215.887222 91.575493 
L 216.140698 91.575493 
L 216.394175 91.871649 
L 216.647652 91.871649 
L 216.901128 92.167804 
L 217.154605 92.760115 
L 217.408081 93.056271 
L 217.915035 93.352426 
L 218.928941 93.352426 
L 219.435894 93.944737 
L 219.689371 93.648582 
L 219.942848 93.944737 
L 220.449801 93.944737 
L 220.956754 94.240893 
L 221.463707 93.944737 
L 221.970661 94.240893 
L 222.224137 94.537048 
L 223.238044 94.537048 
L 223.744997 95.129359 
L 223.998473 95.129359 
L 224.25195 95.425515 
L 224.505427 96.017826 
L 226.279763 96.017826 
L 226.53324 95.72167 
L 227.040193 96.017826 
L 227.800623 96.017826 
L 228.307576 96.610137 
L 228.561053 96.610137 
L 229.068006 96.313981 
L 229.574959 96.610137 
L 229.828436 96.610137 
L 230.081912 96.313981 
L 230.588865 96.610137 
L 230.842342 96.906292 
L 231.095819 96.610137 
L 232.616678 96.610137 
L 233.884061 96.313981 
L 234.391015 96.313981 
L 235.404921 97.498604 
L 236.165351 97.498604 
L 236.418828 98.090915 
L 237.432734 98.090915 
L 237.686211 98.38707 
L 238.446641 98.38707 
L 238.700117 98.683226 
L 239.20707 98.683226 
L 239.460547 98.38707 
L 239.9675 98.979381 
L 240.474454 99.275537 
L 240.72793 99.275537 
L 240.981407 100.164003 
L 241.741837 100.164003 
L 241.995313 100.460159 
L 243.00922 100.756314 
L 244.530079 100.756314 
L 244.783556 101.05247 
L 245.543986 101.05247 
L 245.797462 101.348625 
L 246.304416 101.05247 
L 246.557892 101.348625 
L 246.811369 101.940936 
L 247.064846 101.644781 
L 247.318322 101.940936 
L 248.332229 101.940936 
L 249.346135 101.644781 
L 249.853088 101.940936 
L 250.866995 101.940936 
L 251.120471 102.237092 
L 252.387854 102.237092 
L 252.641331 102.533247 
L 252.894808 102.237092 
L 253.908714 102.237092 
L 254.162191 102.533247 
L 254.415667 102.533247 
L 254.669144 103.125558 
L 255.176097 103.125558 
L 256.696957 103.421714 
L 256.950434 103.125558 
L 257.20391 103.421714 
L 257.710863 103.717869 
L 259.738676 104.31018 
L 260.24563 104.31018 
L 260.499106 104.606336 
L 261.006059 104.606336 
L 261.259536 104.902491 
L 261.513013 104.606336 
L 262.019966 104.902491 
L 262.273443 105.198647 
L 262.526919 105.198647 
L 263.287349 105.494802 
L 263.540826 105.790958 
L 264.047779 106.087113 
L 264.301255 106.087113 
L 264.554732 106.383269 
L 265.822115 106.383269 
L 266.075592 106.679424 
L 267.596451 106.679424 
L 268.103405 106.97558 
L 268.356881 107.567891 
L 269.117311 107.567891 
L 269.370788 107.864047 
L 269.877741 107.567891 
L 270.131218 107.864047 
L 270.891647 107.864047 
L 271.145124 108.160202 
L 271.398601 108.752513 
L 272.91946 108.752513 
L 273.172937 109.048669 
L 273.426414 108.752513 
L 273.933367 109.344824 
L 274.44032 109.64098 
L 274.693797 109.344824 
L 275.707703 109.64098 
L 276.214656 110.233291 
L 277.228563 110.825602 
L 277.988993 111.121757 
L 278.495946 111.121757 
L 279.509852 111.714068 
L 279.763329 111.417913 
L 280.270282 111.417913 
L 280.777236 111.714068 
L 281.030712 111.714068 
L 281.284189 112.010224 
L 281.791142 112.306379 
L 282.044619 112.306379 
L 282.298095 112.602535 
L 283.312002 112.602535 
L 283.565478 112.89869 
L 283.818955 112.89869 
L 284.579385 113.194846 
L 285.339815 113.194846 
L 285.593291 112.89869 
L 285.846768 113.194846 
L 289.902394 113.194846 
L 291.423253 113.787157 
L 294.971926 113.787157 
L 298.267122 114.083312 
L 298.520599 114.379468 
L 300.801888 114.379468 
L 301.055365 114.675623 
L 301.562318 114.971779 
L 303.336654 115.267934 
L 303.843608 115.860245 
L 304.097084 115.860245 
L 304.604037 116.452556 
L 304.857514 116.156401 
L 305.364467 116.452556 
L 307.138804 116.452556 
L 307.138804 116.452556 
" clip-path="url(#p5a8d4e47cc)" style="fill: none; stroke-dasharray: 5.55,2.4; stroke-dashoffset: 0; stroke: #000000; stroke-width: 1.5"/>
   </g>
   <g id="patch_3">
    <path d="M 42.306435 122.079511 
L 42.306435 21.386636 
" style="fill: none; stroke: #000000; stroke-width: 0.8; stroke-linejoin: miter; stroke-linecap: square"/>
   </g>
   <g id="patch_4">
    <path d="M 320.015416 122.079511 
L 320.015416 21.386636 
" style="fill: none; stroke: #000000; stroke-width: 0.8; stroke-linejoin: miter; stroke-linecap: square"/>
   </g>
   <g id="patch_5">
    <path d="M 42.306435 122.079511 
L 320.015416 122.079511 
" style="fill: none; stroke: #000000; stroke-width: 0.8; stroke-linejoin: miter; stroke-linecap: square"/>
   </g>
   <g id="patch_6">
    <path d="M 42.306435 21.386636 
L 320.015416 21.386636 
" style="fill: none; stroke: #000000; stroke-width: 0.8; stroke-linejoin: miter; stroke-linecap: square"/>
   </g>
   <g id="text_13">
    <!-- cumulative validity rate per iteration by VAE validator -->
    <g transform="translate(19.499363 15.386636) scale(0.12 -0.12)">
     <defs>
      <path id="DejaVuSans-63" d="M 3122 3366 
L 3122 2828 
Q 2878 2963 2633 3030 
Q 2388 3097 2138 3097 
Q 1578 3097 1268 2742 
Q 959 2388 959 1747 
Q 959 1106 1268 751 
Q 1578 397 2138 397 
Q 2388 397 2633 464 
Q 2878 531 3122 666 
L 3122 134 
Q 2881 22 2623 -34 
Q 2366 -91 2075 -91 
Q 1284 -91 818 406 
Q 353 903 353 1747 
Q 353 2603 823 3093 
Q 1294 3584 2113 3584 
Q 2378 3584 2631 3529 
Q 2884 3475 3122 3366 
z
" transform="scale(0.015625)"/>
      <path id="DejaVuSans-75" d="M 544 1381 
L 544 3500 
L 1119 3500 
L 1119 1403 
Q 1119 906 1312 657 
Q 1506 409 1894 409 
Q 2359 409 2629 706 
Q 2900 1003 2900 1516 
L 2900 3500 
L 3475 3500 
L 3475 0 
L 2900 0 
L 2900 538 
Q 2691 219 2414 64 
Q 2138 -91 1772 -91 
Q 1169 -91 856 284 
Q 544 659 544 1381 
z
M 1991 3584 
L 1991 3584 
z
" transform="scale(0.015625)"/>
      <path id="DejaVuSans-6d" d="M 3328 2828 
Q 3544 3216 3844 3400 
Q 4144 3584 4550 3584 
Q 5097 3584 5394 3201 
Q 5691 2819 5691 2113 
L 5691 0 
L 5113 0 
L 5113 2094 
Q 5113 2597 4934 2840 
Q 4756 3084 4391 3084 
Q 3944 3084 3684 2787 
Q 3425 2491 3425 1978 
L 3425 0 
L 2847 0 
L 2847 2094 
Q 2847 2600 2669 2842 
Q 2491 3084 2119 3084 
Q 1678 3084 1418 2786 
Q 1159 2488 1159 1978 
L 1159 0 
L 581 0 
L 581 3500 
L 1159 3500 
L 1159 2956 
Q 1356 3278 1631 3431 
Q 1906 3584 2284 3584 
Q 2666 3584 2933 3390 
Q 3200 3197 3328 2828 
z
" transform="scale(0.015625)"/>
      <path id="DejaVuSans-70" d="M 1159 525 
L 1159 -1331 
L 581 -1331 
L 581 3500 
L 1159 3500 
L 1159 2969 
Q 1341 3281 1617 3432 
Q 1894 3584 2278 3584 
Q 2916 3584 3314 3078 
Q 3713 2572 3713 1747 
Q 3713 922 3314 415 
Q 2916 -91 2278 -91 
Q 1894 -91 1617 61 
Q 1341 213 1159 525 
z
M 3116 1747 
Q 3116 2381 2855 2742 
Q 2594 3103 2138 3103 
Q 1681 3103 1420 2742 
Q 1159 2381 1159 1747 
Q 1159 1113 1420 752 
Q 1681 391 2138 391 
Q 2594 391 2855 752 
Q 3116 1113 3116 1747 
z
" transform="scale(0.015625)"/>
      <path id="DejaVuSans-62" d="M 3116 1747 
Q 3116 2381 2855 2742 
Q 2594 3103 2138 3103 
Q 1681 3103 1420 2742 
Q 1159 2381 1159 1747 
Q 1159 1113 1420 752 
Q 1681 391 2138 391 
Q 2594 391 2855 752 
Q 3116 1113 3116 1747 
z
M 1159 2969 
Q 1341 3281 1617 3432 
Q 1894 3584 2278 3584 
Q 2916 3584 3314 3078 
Q 3713 2572 3713 1747 
Q 3713 922 3314 415 
Q 2916 -91 2278 -91 
Q 1894 -91 1617 61 
Q 1341 213 1159 525 
L 1159 0 
L 581 0 
L 581 4863 
L 1159 4863 
L 1159 2969 
z
" transform="scale(0.015625)"/>
      <path id="DejaVuSans-56" d="M 1831 0 
L 50 4666 
L 709 4666 
L 2188 738 
L 3669 4666 
L 4325 4666 
L 2547 0 
L 1831 0 
z
" transform="scale(0.015625)"/>
      <path id="DejaVuSans-41" d="M 2188 4044 
L 1331 1722 
L 3047 1722 
L 2188 4044 
z
M 1831 4666 
L 2547 4666 
L 4325 0 
L 3669 0 
L 3244 1197 
L 1141 1197 
L 716 0 
L 50 0 
L 1831 4666 
z
" transform="scale(0.015625)"/>
      <path id="DejaVuSans-45" d="M 628 4666 
L 3578 4666 
L 3578 4134 
L 1259 4134 
L 1259 2753 
L 3481 2753 
L 3481 2222 
L 1259 2222 
L 1259 531 
L 3634 531 
L 3634 0 
L 628 0 
L 628 4666 
z
" transform="scale(0.015625)"/>
     </defs>
     <use xlink:href="#DejaVuSans-63"/>
     <use xlink:href="#DejaVuSans-75" x="54.980469"/>
     <use xlink:href="#DejaVuSans-6d" x="118.359375"/>
     <use xlink:href="#DejaVuSans-75" x="215.771484"/>
     <use xlink:href="#DejaVuSans-6c" x="279.150391"/>
     <use xlink:href="#DejaVuSans-61" x="306.933594"/>
     <use xlink:href="#DejaVuSans-74" x="368.212891"/>
     <use xlink:href="#DejaVuSans-69" x="407.421875"/>
     <use xlink:href="#DejaVuSans-76" x="435.205078"/>
     <use xlink:href="#DejaVuSans-65" x="494.384766"/>
     <use xlink:href="#DejaVuSans-20" x="555.908203"/>
     <use xlink:href="#DejaVuSans-76" x="587.695312"/>
     <use xlink:href="#DejaVuSans-61" x="646.875"/>
     <use xlink:href="#DejaVuSans-6c" x="708.154297"/>
     <use xlink:href="#DejaVuSans-69" x="735.9375"/>
     <use xlink:href="#DejaVuSans-64" x="763.720703"/>
     <use xlink:href="#DejaVuSans-69" x="827.197266"/>
     <use xlink:href="#DejaVuSans-74" x="854.980469"/>
     <use xlink:href="#DejaVuSans-79" x="894.189453"/>
     <use xlink:href="#DejaVuSans-20" x="953.369141"/>
     <use xlink:href="#DejaVuSans-72" x="985.15625"/>
     <use xlink:href="#DejaVuSans-61" x="1026.269531"/>
     <use xlink:href="#DejaVuSans-74" x="1087.548828"/>
     <use xlink:href="#DejaVuSans-65" x="1126.757812"/>
     <use xlink:href="#DejaVuSans-20" x="1188.28125"/>
     <use xlink:href="#DejaVuSans-70" x="1220.068359"/>
     <use xlink:href="#DejaVuSans-65" x="1283.544922"/>
     <use xlink:href="#DejaVuSans-72" x="1345.068359"/>
     <use xlink:href="#DejaVuSans-20" x="1386.181641"/>
     <use xlink:href="#DejaVuSans-69" x="1417.96875"/>
     <use xlink:href="#DejaVuSans-74" x="1445.751953"/>
     <use xlink:href="#DejaVuSans-65" x="1484.960938"/>
     <use xlink:href="#DejaVuSans-72" x="1546.484375"/>
     <use xlink:href="#DejaVuSans-61" x="1587.597656"/>
     <use xlink:href="#DejaVuSans-74" x="1648.876953"/>
     <use xlink:href="#DejaVuSans-69" x="1688.085938"/>
     <use xlink:href="#DejaVuSans-6f" x="1715.869141"/>
     <use xlink:href="#DejaVuSans-6e" x="1777.050781"/>
     <use xlink:href="#DejaVuSans-20" x="1840.429688"/>
     <use xlink:href="#DejaVuSans-62" x="1872.216797"/>
     <use xlink:href="#DejaVuSans-79" x="1935.693359"/>
     <use xlink:href="#DejaVuSans-20" x="1994.873047"/>
     <use xlink:href="#DejaVuSans-56" x="2026.660156"/>
     <use xlink:href="#DejaVuSans-41" x="2088.693359"/>
     <use xlink:href="#DejaVuSans-45" x="2157.101562"/>
     <use xlink:href="#DejaVuSans-20" x="2220.285156"/>
     <use xlink:href="#DejaVuSans-76" x="2252.072266"/>
     <use xlink:href="#DejaVuSans-61" x="2311.251953"/>
     <use xlink:href="#DejaVuSans-6c" x="2372.53125"/>
     <use xlink:href="#DejaVuSans-69" x="2400.314453"/>
     <use xlink:href="#DejaVuSans-64" x="2428.097656"/>
     <use xlink:href="#DejaVuSans-61" x="2491.574219"/>
     <use xlink:href="#DejaVuSans-74" x="2552.853516"/>
     <use xlink:href="#DejaVuSans-6f" x="2592.0625"/>
     <use xlink:href="#DejaVuSans-72" x="2653.244141"/>
    </g>
   </g>
   <g id="legend_1">
    <g id="patch_7">
     <path d="M 327.015416 102.589324 
L 426.170103 102.589324 
Q 428.170103 102.589324 428.170103 100.589324 
L 428.170103 42.876824 
Q 428.170103 40.876824 426.170103 40.876824 
L 327.015416 40.876824 
Q 325.015416 40.876824 325.015416 42.876824 
L 325.015416 100.589324 
Q 325.015416 102.589324 327.015416 102.589324 
z
" style="fill: #ffffff; opacity: 0.8; stroke: #cccccc; stroke-linejoin: miter"/>
    </g>
    <g id="line2d_15">
     <path d="M 329.015416 48.975261 
L 339.015416 48.975261 
L 349.015416 48.975261 
" style="fill: none; stroke: #1f77b4; stroke-width: 1.5; stroke-linecap: square"/>
    </g>
    <g id="text_14">
     <!-- SmoothGrad -->
     <g transform="translate(357.015416 52.475261) scale(0.1 -0.1)">
      <defs>
       <path id="DejaVuSans-53" d="M 3425 4513 
L 3425 3897 
Q 3066 4069 2747 4153 
Q 2428 4238 2131 4238 
Q 1616 4238 1336 4038 
Q 1056 3838 1056 3469 
Q 1056 3159 1242 3001 
Q 1428 2844 1947 2747 
L 2328 2669 
Q 3034 2534 3370 2195 
Q 3706 1856 3706 1288 
Q 3706 609 3251 259 
Q 2797 -91 1919 -91 
Q 1588 -91 1214 -16 
Q 841 59 441 206 
L 441 856 
Q 825 641 1194 531 
Q 1563 422 1919 422 
Q 2459 422 2753 634 
Q 3047 847 3047 1241 
Q 3047 1584 2836 1778 
Q 2625 1972 2144 2069 
L 1759 2144 
Q 1053 2284 737 2584 
Q 422 2884 422 3419 
Q 422 4038 858 4394 
Q 1294 4750 2059 4750 
Q 2388 4750 2728 4690 
Q 3069 4631 3425 4513 
z
" transform="scale(0.015625)"/>
       <path id="DejaVuSans-68" d="M 3513 2113 
L 3513 0 
L 2938 0 
L 2938 2094 
Q 2938 2591 2744 2837 
Q 2550 3084 2163 3084 
Q 1697 3084 1428 2787 
Q 1159 2491 1159 1978 
L 1159 0 
L 581 0 
L 581 4863 
L 1159 4863 
L 1159 2956 
Q 1366 3272 1645 3428 
Q 1925 3584 2291 3584 
Q 2894 3584 3203 3211 
Q 3513 2838 3513 2113 
z
" transform="scale(0.015625)"/>
       <path id="DejaVuSans-47" d="M 3809 666 
L 3809 1919 
L 2778 1919 
L 2778 2438 
L 4434 2438 
L 4434 434 
Q 4069 175 3628 42 
Q 3188 -91 2688 -91 
Q 1594 -91 976 548 
Q 359 1188 359 2328 
Q 359 3472 976 4111 
Q 1594 4750 2688 4750 
Q 3144 4750 3555 4637 
Q 3966 4525 4313 4306 
L 4313 3634 
Q 3963 3931 3569 4081 
Q 3175 4231 2741 4231 
Q 1884 4231 1454 3753 
Q 1025 3275 1025 2328 
Q 1025 1384 1454 906 
Q 1884 428 2741 428 
Q 3075 428 3337 486 
Q 3600 544 3809 666 
z
" transform="scale(0.015625)"/>
      </defs>
      <use xlink:href="#DejaVuSans-53"/>
      <use xlink:href="#DejaVuSans-6d" x="63.476562"/>
      <use xlink:href="#DejaVuSans-6f" x="160.888672"/>
      <use xlink:href="#DejaVuSans-6f" x="222.070312"/>
      <use xlink:href="#DejaVuSans-74" x="283.251953"/>
      <use xlink:href="#DejaVuSans-68" x="322.460938"/>
      <use xlink:href="#DejaVuSans-47" x="385.839844"/>
      <use xlink:href="#DejaVuSans-72" x="463.330078"/>
      <use xlink:href="#DejaVuSans-61" x="504.443359"/>
      <use xlink:href="#DejaVuSans-64" x="565.722656"/>
     </g>
    </g>
    <g id="line2d_16">
     <path d="M 329.015416 63.653386 
L 339.015416 63.653386 
L 349.015416 63.653386 
" style="fill: none; stroke: #ff7f0e; stroke-width: 1.5; stroke-linecap: square"/>
    </g>
    <g id="text_15">
     <!-- Grad-CAM++ -->
     <g transform="translate(357.015416 67.153386) scale(0.1 -0.1)">
      <defs>
       <path id="DejaVuSans-2d" d="M 313 2009 
L 1997 2009 
L 1997 1497 
L 313 1497 
L 313 2009 
z
" transform="scale(0.015625)"/>
       <path id="DejaVuSans-43" d="M 4122 4306 
L 4122 3641 
Q 3803 3938 3442 4084 
Q 3081 4231 2675 4231 
Q 1875 4231 1450 3742 
Q 1025 3253 1025 2328 
Q 1025 1406 1450 917 
Q 1875 428 2675 428 
Q 3081 428 3442 575 
Q 3803 722 4122 1019 
L 4122 359 
Q 3791 134 3420 21 
Q 3050 -91 2638 -91 
Q 1578 -91 968 557 
Q 359 1206 359 2328 
Q 359 3453 968 4101 
Q 1578 4750 2638 4750 
Q 3056 4750 3426 4639 
Q 3797 4528 4122 4306 
z
" transform="scale(0.015625)"/>
       <path id="DejaVuSans-4d" d="M 628 4666 
L 1569 4666 
L 2759 1491 
L 3956 4666 
L 4897 4666 
L 4897 0 
L 4281 0 
L 4281 4097 
L 3078 897 
L 2444 897 
L 1241 4097 
L 1241 0 
L 628 0 
L 628 4666 
z
" transform="scale(0.015625)"/>
       <path id="DejaVuSans-2b" d="M 2944 4013 
L 2944 2272 
L 4684 2272 
L 4684 1741 
L 2944 1741 
L 2944 0 
L 2419 0 
L 2419 1741 
L 678 1741 
L 678 2272 
L 2419 2272 
L 2419 4013 
L 2944 4013 
z
" transform="scale(0.015625)"/>
      </defs>
      <use xlink:href="#DejaVuSans-47"/>
      <use xlink:href="#DejaVuSans-72" x="77.490234"/>
      <use xlink:href="#DejaVuSans-61" x="118.603516"/>
      <use xlink:href="#DejaVuSans-64" x="179.882812"/>
      <use xlink:href="#DejaVuSans-2d" x="243.359375"/>
      <use xlink:href="#DejaVuSans-43" x="279.443359"/>
      <use xlink:href="#DejaVuSans-41" x="349.267578"/>
      <use xlink:href="#DejaVuSans-4d" x="417.675781"/>
      <use xlink:href="#DejaVuSans-2b" x="503.955078"/>
      <use xlink:href="#DejaVuSans-2b" x="587.744141"/>
     </g>
    </g>
    <g id="line2d_17">
     <path d="M 329.015416 78.331511 
L 339.015416 78.331511 
L 349.015416 78.331511 
" style="fill: none; stroke: #2ca02c; stroke-width: 1.5; stroke-linecap: square"/>
    </g>
    <g id="text_16">
     <!-- Score-CAM -->
     <g transform="translate(357.015416 81.831511) scale(0.1 -0.1)">
      <use xlink:href="#DejaVuSans-53"/>
      <use xlink:href="#DejaVuSans-63" x="63.476562"/>
      <use xlink:href="#DejaVuSans-6f" x="118.457031"/>
      <use xlink:href="#DejaVuSans-72" x="179.638672"/>
      <use xlink:href="#DejaVuSans-65" x="218.501953"/>
      <use xlink:href="#DejaVuSans-2d" x="280.025391"/>
      <use xlink:href="#DejaVuSans-43" x="316.109375"/>
      <use xlink:href="#DejaVuSans-41" x="385.933594"/>
      <use xlink:href="#DejaVuSans-4d" x="454.341797"/>
     </g>
    </g>
    <g id="line2d_18">
     <path d="M 329.015416 93.009636 
L 339.015416 93.009636 
L 349.015416 93.009636 
" style="fill: none; stroke-dasharray: 5.55,2.4; stroke-dashoffset: 0; stroke: #000000; stroke-width: 1.5"/>
    </g>
    <g id="text_17">
     <!-- Random -->
     <g transform="translate(357.015416 96.509636) scale(0.1 -0.1)">
      <defs>
       <path id="DejaVuSans-52" d="M 2841 2188 
Q 3044 2119 3236 1894 
Q 3428 1669 3622 1275 
L 4263 0 
L 3584 0 
L 2988 1197 
Q 2756 1666 2539 1819 
Q 2322 1972 1947 1972 
L 1259 1972 
L 1259 0 
L 628 0 
L 628 4666 
L 2053 4666 
Q 2853 4666 3247 4331 
Q 3641 3997 3641 3322 
Q 3641 2881 3436 2590 
Q 3231 2300 2841 2188 
z
M 1259 4147 
L 1259 2491 
L 2053 2491 
Q 2509 2491 2742 2702 
Q 2975 2913 2975 3322 
Q 2975 3731 2742 3939 
Q 2509 4147 2053 4147 
L 1259 4147 
z
" transform="scale(0.015625)"/>
      </defs>
      <use xlink:href="#DejaVuSans-52"/>
      <use xlink:href="#DejaVuSans-61" x="67.232422"/>
      <use xlink:href="#DejaVuSans-6e" x="128.511719"/>
      <use xlink:href="#DejaVuSans-64" x="191.890625"/>
      <use xlink:href="#DejaVuSans-6f" x="255.367188"/>
      <use xlink:href="#DejaVuSans-6d" x="316.548828"/>
     </g>
    </g>
   </g>
  </g>
 </g>
 <defs>
  <clipPath id="p5a8d4e47cc">
   <rect x="42.306435" y="21.386636" width="277.708981" height="100.692875"/>
  </clipPath>
 </defs>
</svg>
