<?xml version="1.0" encoding="utf-8" standalone="no"?>
<!DOCTYPE svg PUBLIC "-//W3C//DTD SVG 1.1//EN"
  "http://www.w3.org/Graphics/SVG/1.1/DTD/svg11.dtd">
<svg xmlns:xlink="http://www.w3.org/1999/xlink" width="576pt" height="432pt" viewBox="0 0 576 432" xmlns="http://www.w3.org/2000/svg" version="1.1">
 <metadata>
  <rdf:RDF xmlns:dc="http://purl.org/dc/elements/1.1/" xmlns:cc="http://creativecommons.org/ns#" xmlns:rdf="http://www.w3.org/1999/02/22-rdf-syntax-ns#">
   <cc:Work>
    <dc:type rdf:resource="http://purl.org/dc/dcmitype/StillImage"/>
    <dc:date>2024-06-10T15:57:58.718010</dc:date>
    <dc:format>image/svg+xml</dc:format>
    <dc:creator>
     <cc:Agent>
      <dc:title>Matplotlib v3.7.3, https://matplotlib.org/</dc:title>
     </cc:Agent>
    </dc:creator>
   </cc:Work>
  </rdf:RDF>
 </metadata>
 <defs>
  <style type="text/css">*{stroke-linejoin: round; stroke-linecap: butt}</style>
 </defs>
 <g id="figure_1">
  <g id="patch_1">
   <path d="M 0 432 
L 576 432 
L 576 0 
L 0 0 
z
" style="fill: #ffffff"/>
  </g>
  <g id="axes_1">
   <g id="patch_2">
    <path d="M 72 203.04 
L 518.4 203.04 
L 518.4 51.84 
L 72 51.84 
z
" style="fill: #ffffff"/>
   </g>
   <g id="matplotlib.axis_1">
    <g id="xtick_1">
     <g id="line2d_1">
      <defs>
       <path id="mc24e2d96c0" d="M 0 0 
L 0 3.5 
" style="stroke: #000000; stroke-width: 0.8"/>
      </defs>
      <g>
       <use xlink:href="#mc24e2d96c0" x="91.884685" y="203.04" style="stroke: #000000; stroke-width: 0.8"/>
      </g>
     </g>
     <g id="text_1">
      <!-- 0 -->
      <g transform="translate(88.703435 217.638437) scale(0.1 -0.1)">
       <defs>
        <path id="DejaVuSans-30" d="M 2034 4250 
Q 1547 4250 1301 3770 
Q 1056 3291 1056 2328 
Q 1056 1369 1301 889 
Q 1547 409 2034 409 
Q 2525 409 2770 889 
Q 3016 1369 3016 2328 
Q 3016 3291 2770 3770 
Q 2525 4250 2034 4250 
z
M 2034 4750 
Q 2819 4750 3233 4129 
Q 3647 3509 3647 2328 
Q 3647 1150 3233 529 
Q 2819 -91 2034 -91 
Q 1250 -91 836 529 
Q 422 1150 422 2328 
Q 422 3509 836 4129 
Q 1250 4750 2034 4750 
z
" transform="scale(0.015625)"/>
       </defs>
       <use xlink:href="#DejaVuSans-30"/>
      </g>
     </g>
    </g>
    <g id="xtick_2">
     <g id="line2d_2">
      <g>
       <use xlink:href="#mc24e2d96c0" x="173.129566" y="203.04" style="stroke: #000000; stroke-width: 0.8"/>
      </g>
     </g>
     <g id="text_2">
      <!-- 200 -->
      <g transform="translate(163.585816 217.638437) scale(0.1 -0.1)">
       <defs>
        <path id="DejaVuSans-32" d="M 1228 531 
L 3431 531 
L 3431 0 
L 469 0 
L 469 531 
Q 828 903 1448 1529 
Q 2069 2156 2228 2338 
Q 2531 2678 2651 2914 
Q 2772 3150 2772 3378 
Q 2772 3750 2511 3984 
Q 2250 4219 1831 4219 
Q 1534 4219 1204 4116 
Q 875 4013 500 3803 
L 500 4441 
Q 881 4594 1212 4672 
Q 1544 4750 1819 4750 
Q 2544 4750 2975 4387 
Q 3406 4025 3406 3419 
Q 3406 3131 3298 2873 
Q 3191 2616 2906 2266 
Q 2828 2175 2409 1742 
Q 1991 1309 1228 531 
z
" transform="scale(0.015625)"/>
       </defs>
       <use xlink:href="#DejaVuSans-32"/>
       <use xlink:href="#DejaVuSans-30" x="63.623047"/>
       <use xlink:href="#DejaVuSans-30" x="127.246094"/>
      </g>
     </g>
    </g>
    <g id="xtick_3">
     <g id="line2d_3">
      <g>
       <use xlink:href="#mc24e2d96c0" x="254.374447" y="203.04" style="stroke: #000000; stroke-width: 0.8"/>
      </g>
     </g>
     <g id="text_3">
      <!-- 400 -->
      <g transform="translate(244.830697 217.638437) scale(0.1 -0.1)">
       <defs>
        <path id="DejaVuSans-34" d="M 2419 4116 
L 825 1625 
L 2419 1625 
L 2419 4116 
z
M 2253 4666 
L 3047 4666 
L 3047 1625 
L 3713 1625 
L 3713 1100 
L 3047 1100 
L 3047 0 
L 2419 0 
L 2419 1100 
L 313 1100 
L 313 1709 
L 2253 4666 
z
" transform="scale(0.015625)"/>
       </defs>
       <use xlink:href="#DejaVuSans-34"/>
       <use xlink:href="#DejaVuSans-30" x="63.623047"/>
       <use xlink:href="#DejaVuSans-30" x="127.246094"/>
      </g>
     </g>
    </g>
    <g id="xtick_4">
     <g id="line2d_4">
      <g>
       <use xlink:href="#mc24e2d96c0" x="335.619328" y="203.04" style="stroke: #000000; stroke-width: 0.8"/>
      </g>
     </g>
     <g id="text_4">
      <!-- 600 -->
      <g transform="translate(326.075578 217.638437) scale(0.1 -0.1)">
       <defs>
        <path id="DejaVuSans-36" d="M 2113 2584 
Q 1688 2584 1439 2293 
Q 1191 2003 1191 1497 
Q 1191 994 1439 701 
Q 1688 409 2113 409 
Q 2538 409 2786 701 
Q 3034 994 3034 1497 
Q 3034 2003 2786 2293 
Q 2538 2584 2113 2584 
z
M 3366 4563 
L 3366 3988 
Q 3128 4100 2886 4159 
Q 2644 4219 2406 4219 
Q 1781 4219 1451 3797 
Q 1122 3375 1075 2522 
Q 1259 2794 1537 2939 
Q 1816 3084 2150 3084 
Q 2853 3084 3261 2657 
Q 3669 2231 3669 1497 
Q 3669 778 3244 343 
Q 2819 -91 2113 -91 
Q 1303 -91 875 529 
Q 447 1150 447 2328 
Q 447 3434 972 4092 
Q 1497 4750 2381 4750 
Q 2619 4750 2861 4703 
Q 3103 4656 3366 4563 
z
" transform="scale(0.015625)"/>
       </defs>
       <use xlink:href="#DejaVuSans-36"/>
       <use xlink:href="#DejaVuSans-30" x="63.623047"/>
       <use xlink:href="#DejaVuSans-30" x="127.246094"/>
      </g>
     </g>
    </g>
    <g id="xtick_5">
     <g id="line2d_5">
      <g>
       <use xlink:href="#mc24e2d96c0" x="416.86421" y="203.04" style="stroke: #000000; stroke-width: 0.8"/>
      </g>
     </g>
     <g id="text_5">
      <!-- 800 -->
      <g transform="translate(407.32046 217.638437) scale(0.1 -0.1)">
       <defs>
        <path id="DejaVuSans-38" d="M 2034 2216 
Q 1584 2216 1326 1975 
Q 1069 1734 1069 1313 
Q 1069 891 1326 650 
Q 1584 409 2034 409 
Q 2484 409 2743 651 
Q 3003 894 3003 1313 
Q 3003 1734 2745 1975 
Q 2488 2216 2034 2216 
z
M 1403 2484 
Q 997 2584 770 2862 
Q 544 3141 544 3541 
Q 544 4100 942 4425 
Q 1341 4750 2034 4750 
Q 2731 4750 3128 4425 
Q 3525 4100 3525 3541 
Q 3525 3141 3298 2862 
Q 3072 2584 2669 2484 
Q 3125 2378 3379 2068 
Q 3634 1759 3634 1313 
Q 3634 634 3220 271 
Q 2806 -91 2034 -91 
Q 1263 -91 848 271 
Q 434 634 434 1313 
Q 434 1759 690 2068 
Q 947 2378 1403 2484 
z
M 1172 3481 
Q 1172 3119 1398 2916 
Q 1625 2713 2034 2713 
Q 2441 2713 2670 2916 
Q 2900 3119 2900 3481 
Q 2900 3844 2670 4047 
Q 2441 4250 2034 4250 
Q 1625 4250 1398 4047 
Q 1172 3844 1172 3481 
z
" transform="scale(0.015625)"/>
       </defs>
       <use xlink:href="#DejaVuSans-38"/>
       <use xlink:href="#DejaVuSans-30" x="63.623047"/>
       <use xlink:href="#DejaVuSans-30" x="127.246094"/>
      </g>
     </g>
    </g>
    <g id="xtick_6">
     <g id="line2d_6">
      <g>
       <use xlink:href="#mc24e2d96c0" x="498.109091" y="203.04" style="stroke: #000000; stroke-width: 0.8"/>
      </g>
     </g>
     <g id="text_6">
      <!-- 1000 -->
      <g transform="translate(485.384091 217.638437) scale(0.1 -0.1)">
       <defs>
        <path id="DejaVuSans-31" d="M 794 531 
L 1825 531 
L 1825 4091 
L 703 3866 
L 703 4441 
L 1819 4666 
L 2450 4666 
L 2450 531 
L 3481 531 
L 3481 0 
L 794 0 
L 794 531 
z
" transform="scale(0.015625)"/>
       </defs>
       <use xlink:href="#DejaVuSans-31"/>
       <use xlink:href="#DejaVuSans-30" x="63.623047"/>
       <use xlink:href="#DejaVuSans-30" x="127.246094"/>
       <use xlink:href="#DejaVuSans-30" x="190.869141"/>
      </g>
     </g>
    </g>
    <g id="text_7">
     <!-- Iteration -->
     <g transform="translate(273.991406 231.316562) scale(0.1 -0.1)">
      <defs>
       <path id="DejaVuSans-49" d="M 628 4666 
L 1259 4666 
L 1259 0 
L 628 0 
L 628 4666 
z
" transform="scale(0.015625)"/>
       <path id="DejaVuSans-74" d="M 1172 4494 
L 1172 3500 
L 2356 3500 
L 2356 3053 
L 1172 3053 
L 1172 1153 
Q 1172 725 1289 603 
Q 1406 481 1766 481 
L 2356 481 
L 2356 0 
L 1766 0 
Q 1100 0 847 248 
Q 594 497 594 1153 
L 594 3053 
L 172 3053 
L 172 3500 
L 594 3500 
L 594 4494 
L 1172 4494 
z
" transform="scale(0.015625)"/>
       <path id="DejaVuSans-65" d="M 3597 1894 
L 3597 1613 
L 953 1613 
Q 991 1019 1311 708 
Q 1631 397 2203 397 
Q 2534 397 2845 478 
Q 3156 559 3463 722 
L 3463 178 
Q 3153 47 2828 -22 
Q 2503 -91 2169 -91 
Q 1331 -91 842 396 
Q 353 884 353 1716 
Q 353 2575 817 3079 
Q 1281 3584 2069 3584 
Q 2775 3584 3186 3129 
Q 3597 2675 3597 1894 
z
M 3022 2063 
Q 3016 2534 2758 2815 
Q 2500 3097 2075 3097 
Q 1594 3097 1305 2825 
Q 1016 2553 972 2059 
L 3022 2063 
z
" transform="scale(0.015625)"/>
       <path id="DejaVuSans-72" d="M 2631 2963 
Q 2534 3019 2420 3045 
Q 2306 3072 2169 3072 
Q 1681 3072 1420 2755 
Q 1159 2438 1159 1844 
L 1159 0 
L 581 0 
L 581 3500 
L 1159 3500 
L 1159 2956 
Q 1341 3275 1631 3429 
Q 1922 3584 2338 3584 
Q 2397 3584 2469 3576 
Q 2541 3569 2628 3553 
L 2631 2963 
z
" transform="scale(0.015625)"/>
       <path id="DejaVuSans-61" d="M 2194 1759 
Q 1497 1759 1228 1600 
Q 959 1441 959 1056 
Q 959 750 1161 570 
Q 1363 391 1709 391 
Q 2188 391 2477 730 
Q 2766 1069 2766 1631 
L 2766 1759 
L 2194 1759 
z
M 3341 1997 
L 3341 0 
L 2766 0 
L 2766 531 
Q 2569 213 2275 61 
Q 1981 -91 1556 -91 
Q 1019 -91 701 211 
Q 384 513 384 1019 
Q 384 1609 779 1909 
Q 1175 2209 1959 2209 
L 2766 2209 
L 2766 2266 
Q 2766 2663 2505 2880 
Q 2244 3097 1772 3097 
Q 1472 3097 1187 3025 
Q 903 2953 641 2809 
L 641 3341 
Q 956 3463 1253 3523 
Q 1550 3584 1831 3584 
Q 2591 3584 2966 3190 
Q 3341 2797 3341 1997 
z
" transform="scale(0.015625)"/>
       <path id="DejaVuSans-69" d="M 603 3500 
L 1178 3500 
L 1178 0 
L 603 0 
L 603 3500 
z
M 603 4863 
L 1178 4863 
L 1178 4134 
L 603 4134 
L 603 4863 
z
" transform="scale(0.015625)"/>
       <path id="DejaVuSans-6f" d="M 1959 3097 
Q 1497 3097 1228 2736 
Q 959 2375 959 1747 
Q 959 1119 1226 758 
Q 1494 397 1959 397 
Q 2419 397 2687 759 
Q 2956 1122 2956 1747 
Q 2956 2369 2687 2733 
Q 2419 3097 1959 3097 
z
M 1959 3584 
Q 2709 3584 3137 3096 
Q 3566 2609 3566 1747 
Q 3566 888 3137 398 
Q 2709 -91 1959 -91 
Q 1206 -91 779 398 
Q 353 888 353 1747 
Q 353 2609 779 3096 
Q 1206 3584 1959 3584 
z
" transform="scale(0.015625)"/>
       <path id="DejaVuSans-6e" d="M 3513 2113 
L 3513 0 
L 2938 0 
L 2938 2094 
Q 2938 2591 2744 2837 
Q 2550 3084 2163 3084 
Q 1697 3084 1428 2787 
Q 1159 2491 1159 1978 
L 1159 0 
L 581 0 
L 581 3500 
L 1159 3500 
L 1159 2956 
Q 1366 3272 1645 3428 
Q 1925 3584 2291 3584 
Q 2894 3584 3203 3211 
Q 3513 2838 3513 2113 
z
" transform="scale(0.015625)"/>
      </defs>
      <use xlink:href="#DejaVuSans-49"/>
      <use xlink:href="#DejaVuSans-74" x="29.492188"/>
      <use xlink:href="#DejaVuSans-65" x="68.701172"/>
      <use xlink:href="#DejaVuSans-72" x="130.224609"/>
      <use xlink:href="#DejaVuSans-61" x="171.337891"/>
      <use xlink:href="#DejaVuSans-74" x="232.617188"/>
      <use xlink:href="#DejaVuSans-69" x="271.826172"/>
      <use xlink:href="#DejaVuSans-6f" x="299.609375"/>
      <use xlink:href="#DejaVuSans-6e" x="360.791016"/>
     </g>
    </g>
   </g>
   <g id="matplotlib.axis_2">
    <g id="ytick_1">
     <g id="line2d_7">
      <defs>
       <path id="mff17bb3382" d="M 0 0 
L -3.5 0 
" style="stroke: #000000; stroke-width: 0.8"/>
      </defs>
      <g>
       <use xlink:href="#mff17bb3382" x="72" y="196.307963" style="stroke: #000000; stroke-width: 0.8"/>
      </g>
     </g>
     <g id="text_8">
      <!-- 0 -->
      <g transform="translate(58.6375 200.107182) scale(0.1 -0.1)">
       <use xlink:href="#DejaVuSans-30"/>
      </g>
     </g>
    </g>
    <g id="ytick_2">
     <g id="line2d_8">
      <g>
       <use xlink:href="#mff17bb3382" x="72" y="161.135357" style="stroke: #000000; stroke-width: 0.8"/>
      </g>
     </g>
     <g id="text_9">
      <!-- 500 -->
      <g transform="translate(45.9125 164.934576) scale(0.1 -0.1)">
       <defs>
        <path id="DejaVuSans-35" d="M 691 4666 
L 3169 4666 
L 3169 4134 
L 1269 4134 
L 1269 2991 
Q 1406 3038 1543 3061 
Q 1681 3084 1819 3084 
Q 2600 3084 3056 2656 
Q 3513 2228 3513 1497 
Q 3513 744 3044 326 
Q 2575 -91 1722 -91 
Q 1428 -91 1123 -41 
Q 819 9 494 109 
L 494 744 
Q 775 591 1075 516 
Q 1375 441 1709 441 
Q 2250 441 2565 725 
Q 2881 1009 2881 1497 
Q 2881 1984 2565 2268 
Q 2250 2553 1709 2553 
Q 1456 2553 1204 2497 
Q 953 2441 691 2322 
L 691 4666 
z
" transform="scale(0.015625)"/>
       </defs>
       <use xlink:href="#DejaVuSans-35"/>
       <use xlink:href="#DejaVuSans-30" x="63.623047"/>
       <use xlink:href="#DejaVuSans-30" x="127.246094"/>
      </g>
     </g>
    </g>
    <g id="ytick_3">
     <g id="line2d_9">
      <g>
       <use xlink:href="#mff17bb3382" x="72" y="125.962751" style="stroke: #000000; stroke-width: 0.8"/>
      </g>
     </g>
     <g id="text_10">
      <!-- 1000 -->
      <g transform="translate(39.55 129.761969) scale(0.1 -0.1)">
       <use xlink:href="#DejaVuSans-31"/>
       <use xlink:href="#DejaVuSans-30" x="63.623047"/>
       <use xlink:href="#DejaVuSans-30" x="127.246094"/>
       <use xlink:href="#DejaVuSans-30" x="190.869141"/>
      </g>
     </g>
    </g>
    <g id="ytick_4">
     <g id="line2d_10">
      <g>
       <use xlink:href="#mff17bb3382" x="72" y="90.790144" style="stroke: #000000; stroke-width: 0.8"/>
      </g>
     </g>
     <g id="text_11">
      <!-- 1500 -->
      <g transform="translate(39.55 94.589363) scale(0.1 -0.1)">
       <use xlink:href="#DejaVuSans-31"/>
       <use xlink:href="#DejaVuSans-35" x="63.623047"/>
       <use xlink:href="#DejaVuSans-30" x="127.246094"/>
       <use xlink:href="#DejaVuSans-30" x="190.869141"/>
      </g>
     </g>
    </g>
    <g id="ytick_5">
     <g id="line2d_11">
      <g>
       <use xlink:href="#mff17bb3382" x="72" y="55.617538" style="stroke: #000000; stroke-width: 0.8"/>
      </g>
     </g>
     <g id="text_12">
      <!-- 2000 -->
      <g transform="translate(39.55 59.416757) scale(0.1 -0.1)">
       <use xlink:href="#DejaVuSans-32"/>
       <use xlink:href="#DejaVuSans-30" x="63.623047"/>
       <use xlink:href="#DejaVuSans-30" x="127.246094"/>
       <use xlink:href="#DejaVuSans-30" x="190.869141"/>
      </g>
     </g>
    </g>
    <g id="text_13">
     <!-- MNIST -->
     <g transform="translate(33.470312 143.197812) rotate(-90) scale(0.1 -0.1)">
      <defs>
       <path id="DejaVuSans-4d" d="M 628 4666 
L 1569 4666 
L 2759 1491 
L 3956 4666 
L 4897 4666 
L 4897 0 
L 4281 0 
L 4281 4097 
L 3078 897 
L 2444 897 
L 1241 4097 
L 1241 0 
L 628 0 
L 628 4666 
z
" transform="scale(0.015625)"/>
       <path id="DejaVuSans-4e" d="M 628 4666 
L 1478 4666 
L 3547 763 
L 3547 4666 
L 4159 4666 
L 4159 0 
L 3309 0 
L 1241 3903 
L 1241 0 
L 628 0 
L 628 4666 
z
" transform="scale(0.015625)"/>
       <path id="DejaVuSans-53" d="M 3425 4513 
L 3425 3897 
Q 3066 4069 2747 4153 
Q 2428 4238 2131 4238 
Q 1616 4238 1336 4038 
Q 1056 3838 1056 3469 
Q 1056 3159 1242 3001 
Q 1428 2844 1947 2747 
L 2328 2669 
Q 3034 2534 3370 2195 
Q 3706 1856 3706 1288 
Q 3706 609 3251 259 
Q 2797 -91 1919 -91 
Q 1588 -91 1214 -16 
Q 841 59 441 206 
L 441 856 
Q 825 641 1194 531 
Q 1563 422 1919 422 
Q 2459 422 2753 634 
Q 3047 847 3047 1241 
Q 3047 1584 2836 1778 
Q 2625 1972 2144 2069 
L 1759 2144 
Q 1053 2284 737 2584 
Q 422 2884 422 3419 
Q 422 4038 858 4394 
Q 1294 4750 2059 4750 
Q 2388 4750 2728 4690 
Q 3069 4631 3425 4513 
z
" transform="scale(0.015625)"/>
       <path id="DejaVuSans-54" d="M -19 4666 
L 3928 4666 
L 3928 4134 
L 2272 4134 
L 2272 0 
L 1638 0 
L 1638 4134 
L -19 4134 
L -19 4666 
z
" transform="scale(0.015625)"/>
      </defs>
      <use xlink:href="#DejaVuSans-4d"/>
      <use xlink:href="#DejaVuSans-4e" x="86.279297"/>
      <use xlink:href="#DejaVuSans-49" x="161.083984"/>
      <use xlink:href="#DejaVuSans-53" x="190.576172"/>
      <use xlink:href="#DejaVuSans-54" x="254.052734"/>
     </g>
    </g>
   </g>
   <g id="line2d_12">
    <path d="M 92.290909 196.167273 
L 92.697133 196.167273 
L 95.946929 194.971404 
L 96.353153 194.690023 
L 96.759378 194.549333 
L 97.165602 194.197607 
L 97.571826 194.197607 
L 98.384275 193.634845 
L 98.7905 193.353464 
L 100.009173 191.80587 
L 101.227846 190.398965 
L 101.63407 189.836204 
L 102.040295 189.484478 
L 104.071417 186.318943 
L 104.883866 184.489967 
L 105.696314 183.645825 
L 106.508763 182.027885 
L 107.321212 180.269255 
L 108.133661 178.651315 
L 108.539885 178.018208 
L 108.94611 177.596137 
L 110.571007 174.993364 
L 111.383456 173.516114 
L 112.195905 172.10921 
L 112.602129 170.983687 
L 113.008354 170.35058 
L 113.820803 168.310569 
L 114.633251 167.1147 
L 117.883047 160.009833 
L 118.289271 159.376727 
L 119.914169 155.789121 
L 120.320393 155.156014 
L 120.726618 154.100836 
L 121.132842 153.538074 
L 122.351515 150.864956 
L 122.75774 150.161504 
L 123.163964 149.809778 
L 125.60131 144.744922 
L 126.413759 143.619399 
L 126.819984 143.338018 
L 128.038657 141.509043 
L 128.851106 140.102138 
L 129.25733 139.469031 
L 129.663554 139.257996 
L 130.069779 138.835924 
L 132.507125 134.896593 
L 134.944472 130.886915 
L 135.756921 130.042773 
L 136.569369 128.424833 
L 136.975594 127.651036 
L 137.381818 127.228964 
L 138.194267 125.470334 
L 140.225389 122.093764 
L 141.444062 120.616514 
L 141.850287 120.335134 
L 142.256511 119.913062 
L 142.662735 119.702027 
L 143.475184 118.787539 
L 144.693857 117.239944 
L 145.506306 116.325456 
L 145.912531 116.114421 
L 146.72498 114.496481 
L 147.943653 113.019231 
L 148.349877 112.245434 
L 149.162326 111.260601 
L 149.56855 110.557149 
L 151.599672 108.306102 
L 152.818346 106.969543 
L 153.22457 106.758507 
L 153.630794 106.125401 
L 154.037019 105.773675 
L 154.443243 105.703329 
L 155.661916 104.859187 
L 158.099263 102.045378 
L 158.911712 101.201236 
L 159.317936 100.9902 
L 160.130385 100.286748 
L 160.536609 100.005367 
L 161.349058 99.020534 
L 161.755283 98.598463 
L 162.161507 98.457772 
L 165.411302 95.221893 
L 166.629975 94.37775 
L 167.0362 94.37775 
L 169.067322 92.689465 
L 169.473546 92.548775 
L 170.692219 91.774977 
L 171.098444 91.212216 
L 171.910893 90.579109 
L 172.317117 90.086692 
L 173.129566 89.664621 
L 173.53579 89.312895 
L 173.942015 89.172204 
L 175.973137 87.7653 
L 176.785586 87.483919 
L 178.004259 86.710122 
L 179.629156 85.795634 
L 180.035381 85.373563 
L 180.441605 85.232872 
L 181.254054 84.599766 
L 181.660278 83.896313 
L 182.472727 83.544587 
L 182.878952 83.474242 
L 183.285176 83.263206 
L 184.097625 82.559754 
L 184.503849 82.348719 
L 184.910074 82.278373 
L 185.722523 81.715612 
L 186.941196 81.434231 
L 187.34742 81.223195 
L 188.159869 81.082505 
L 188.566093 80.801124 
L 190.190991 80.168017 
L 190.597215 79.816291 
L 191.00344 79.675601 
L 191.409664 79.675601 
L 191.815889 79.464565 
L 192.628337 78.901803 
L 193.034562 78.761113 
L 193.847011 78.690768 
L 195.065684 78.198351 
L 195.878133 77.846625 
L 196.284357 77.77628 
L 196.690581 77.565244 
L 197.096806 77.494899 
L 197.50303 77.283863 
L 201.15905 76.580411 
L 201.971499 76.15834 
L 202.783948 76.01765 
L 203.190172 75.665924 
L 206.033743 75.103162 
L 206.439967 74.821781 
L 210.095987 74.118329 
L 210.908436 73.766603 
L 213.345782 73.414877 
L 214.158231 73.344531 
L 216.189353 72.570734 
L 217.001802 72.078318 
L 220.657821 71.374866 
L 221.876495 71.023139 
L 222.688943 70.882449 
L 223.095168 70.671413 
L 227.157412 69.897616 
L 227.563636 69.68658 
L 229.188534 69.334854 
L 229.594758 69.194164 
L 230.000983 69.194164 
L 230.407207 69.053474 
L 231.62588 68.983128 
L 235.688124 68.350021 
L 236.094349 68.350021 
L 236.500573 68.209331 
L 237.313022 68.138986 
L 237.719247 67.92795 
L 238.125471 67.576224 
L 239.750369 67.224498 
L 240.562817 67.013462 
L 242.187715 66.943117 
L 243.000164 66.872772 
L 243.406388 66.591391 
L 245.843735 66.521046 
L 246.656183 66.450701 
L 247.062408 66.450701 
L 247.468632 66.31001 
L 247.874857 66.31001 
L 248.281081 66.16932 
L 252.74955 66.16932 
L 253.155774 65.958284 
L 253.968223 65.887939 
L 255.186896 65.817594 
L 258.842916 65.184487 
L 259.24914 64.973451 
L 259.655364 64.973451 
L 260.467813 64.762416 
L 263.717609 64.69207 
L 266.561179 64.269999 
L 267.373628 64.269999 
L 267.779853 64.058963 
L 269.810975 63.988618 
L 270.623423 63.918273 
L 271.435872 63.847928 
L 271.842097 63.707237 
L 273.466994 63.636892 
L 275.091892 63.425857 
L 276.71679 63.425857 
L 277.123014 63.285166 
L 280.779034 63.214821 
L 281.997707 63.07413 
L 283.622604 63.003785 
L 285.653726 62.722404 
L 290.934644 62.652059 
L 291.747093 62.581714 
L 295.403112 62.511369 
L 296.215561 62.441024 
L 301.496478 62.370678 
L 302.308927 62.300333 
L 303.933825 62.300333 
L 304.340049 62.159643 
L 305.964947 62.089297 
L 306.777396 62.018952 
L 307.589844 62.018952 
L 308.402293 61.807917 
L 310.83964 61.737571 
L 312.464537 61.526536 
L 313.276986 61.456191 
L 314.495659 61.3155 
L 316.120557 61.245155 
L 316.933006 61.17481 
L 320.589025 61.104465 
L 321.401474 61.034119 
L 327.088616 60.963774 
L 327.49484 60.823084 
L 336.838002 60.752738 
L 337.65045 60.682393 
L 348.212285 60.612048 
L 349.024734 60.541703 
L 352.680753 60.471358 
L 353.493202 60.401012 
L 356.742998 60.330667 
L 358.367895 60.119632 
L 368.92973 60.049286 
L 370.148403 59.908596 
L 384.366257 59.838251 
L 385.58493 59.69756 
L 397.771663 59.627215 
L 398.584111 59.55687 
L 410.364619 59.486525 
L 411.177068 59.416179 
L 417.270434 59.345834 
L 418.082883 59.275489 
L 437.987879 59.205144 
L 438.394103 59.064453 
L 467.236036 58.994108 
L 468.048485 58.923763 
L 477.797871 58.853418 
L 478.610319 58.783072 
L 498.109091 58.712727 
L 498.109091 58.712727 
" clip-path="url(#p2676e20e17)" style="fill: none; stroke: #0000ff; stroke-width: 1.5; stroke-linecap: square"/>
   </g>
   <g id="line2d_13">
    <path d="M 92.290909 196.096928 
L 95.540704 195.463821 
L 97.165602 194.830714 
L 97.571826 194.619678 
L 98.384275 194.478988 
L 99.602948 193.916226 
L 100.009173 193.775535 
L 100.415397 193.775535 
L 100.821622 193.634845 
L 101.227846 193.283119 
L 101.63407 193.212774 
L 102.040295 192.931393 
L 102.446519 192.790703 
L 102.852744 192.790703 
L 103.665192 192.438976 
L 104.071417 192.298286 
L 105.29009 192.227941 
L 106.102539 191.876215 
L 106.508763 191.524489 
L 107.321212 191.313453 
L 109.352334 190.610001 
L 109.758559 190.610001 
L 111.789681 189.836204 
L 112.195905 189.484478 
L 112.602129 189.414132 
L 113.008354 189.203097 
L 113.820803 189.203097 
L 114.227027 188.921716 
L 115.039476 188.851371 
L 115.4457 188.781025 
L 115.851925 188.499645 
L 116.258149 188.499645 
L 116.664373 188.147918 
L 118.695495 187.514812 
L 119.10172 187.444466 
L 119.507944 187.233431 
L 120.320393 186.670669 
L 121.132842 186.318943 
L 121.539066 186.248598 
L 121.945291 185.967217 
L 122.351515 185.826526 
L 122.75774 185.545146 
L 123.976413 185.263765 
L 125.195086 184.349277 
L 125.60131 184.278932 
L 126.007535 183.786515 
L 126.413759 183.505134 
L 126.819984 183.505134 
L 127.226208 183.294099 
L 127.632432 183.223754 
L 128.444881 182.660992 
L 129.25733 182.309266 
L 129.663554 181.95754 
L 130.476003 181.605814 
L 131.288452 181.043052 
L 131.694676 180.902362 
L 132.507125 180.902362 
L 132.91335 180.620981 
L 133.319574 180.620981 
L 134.944472 179.987874 
L 137.788043 178.440279 
L 138.194267 178.088553 
L 138.600491 178.018208 
L 139.41294 177.666482 
L 140.225389 177.314756 
L 141.850287 176.259578 
L 143.475184 175.696816 
L 144.693857 174.923019 
L 145.100082 174.782328 
L 145.912531 174.078876 
L 146.318755 173.938186 
L 146.72498 173.586459 
L 147.131204 173.516114 
L 147.537428 173.305079 
L 147.943653 173.234733 
L 148.349877 173.023698 
L 149.162326 172.883007 
L 149.56855 172.531281 
L 150.787224 172.2499 
L 151.193448 171.827829 
L 152.005897 171.687139 
L 152.412121 171.405758 
L 153.22457 171.194722 
L 154.443243 171.124377 
L 155.255692 170.561615 
L 155.661916 170.420925 
L 156.88059 169.506437 
L 157.286814 169.295402 
L 158.099263 169.084366 
L 158.505487 168.943675 
L 158.911712 168.943675 
L 159.317936 168.73264 
L 159.724161 168.73264 
L 160.130385 168.451259 
L 162.973956 167.396081 
L 163.38018 167.185045 
L 164.192629 166.974009 
L 164.598853 166.833319 
L 165.411302 166.270557 
L 165.817527 166.129867 
L 166.223751 165.848486 
L 167.442424 165.49676 
L 168.254873 165.35607 
L 168.661097 165.145034 
L 169.067322 165.145034 
L 169.473546 164.722963 
L 171.098444 164.230546 
L 171.504668 163.87882 
L 172.317117 163.667784 
L 173.129566 163.105023 
L 173.53579 162.823642 
L 173.942015 162.682952 
L 175.160688 161.487083 
L 175.973137 161.276047 
L 176.379361 160.924321 
L 176.785586 160.853976 
L 177.19181 160.572595 
L 177.598034 160.50225 
L 178.004259 160.291214 
L 178.816708 159.728453 
L 180.035381 159.025 
L 180.441605 158.673274 
L 181.254054 158.391894 
L 181.660278 158.391894 
L 182.066503 158.251203 
L 182.472727 158.251203 
L 183.285176 157.969822 
L 184.097625 157.12568 
L 184.910074 156.914644 
L 185.316298 156.773954 
L 186.534971 155.859466 
L 186.941196 155.64843 
L 187.34742 155.578085 
L 187.753645 155.367049 
L 188.159869 155.296704 
L 188.566093 155.085669 
L 189.378542 154.522907 
L 190.190991 154.311871 
L 190.597215 154.171181 
L 191.00344 153.8898 
L 191.409664 153.8898 
L 193.034562 153.116003 
L 193.440786 152.975312 
L 194.659459 152.060824 
L 195.471908 151.849789 
L 196.284357 151.568408 
L 196.690581 151.568408 
L 197.909255 150.724265 
L 198.315479 150.724265 
L 199.534152 149.809778 
L 199.940377 149.387706 
L 200.752826 149.106325 
L 201.15905 149.106325 
L 201.565274 148.824945 
L 201.971499 148.754599 
L 202.377723 148.473219 
L 202.783948 148.402873 
L 203.190172 148.121493 
L 204.408845 147.840112 
L 206.033743 147.207005 
L 206.439967 146.925624 
L 206.846192 146.784933 
L 207.252416 146.503553 
L 207.65864 146.503553 
L 208.471089 146.222172 
L 209.689762 145.307684 
L 210.908436 144.604232 
L 211.31466 144.182161 
L 211.720885 144.111815 
L 212.533333 143.549054 
L 213.345782 143.478708 
L 214.158231 143.197328 
L 214.97068 142.704911 
L 215.376904 142.634566 
L 215.783129 142.28284 
L 216.189353 142.142149 
L 217.408026 142.071804 
L 218.220475 141.860769 
L 219.032924 141.649733 
L 219.845373 141.579388 
L 220.251597 141.298007 
L 220.657821 141.298007 
L 221.876495 140.6649 
L 222.282719 140.313174 
L 223.501392 140.102138 
L 223.907617 139.891103 
L 224.720066 139.750412 
L 225.12629 139.469031 
L 225.532514 139.328341 
L 226.344963 138.765579 
L 228.376085 138.484198 
L 228.78231 138.484198 
L 229.188534 138.343508 
L 229.594758 138.062127 
L 230.000983 137.921437 
L 230.407207 137.569711 
L 232.032105 137.006949 
L 232.438329 136.725568 
L 233.250778 136.514532 
L 233.657002 136.373842 
L 234.469451 136.303497 
L 235.2819 135.951771 
L 235.688124 135.951771 
L 236.906798 135.600045 
L 238.531695 135.248319 
L 239.344144 134.896593 
L 240.156593 134.896593 
L 241.375266 134.474521 
L 241.781491 134.122795 
L 242.593939 133.841414 
L 243.000164 133.560033 
L 244.218837 133.137962 
L 244.625061 132.786236 
L 245.031286 132.715891 
L 245.43751 132.364165 
L 245.843735 132.364165 
L 246.249959 132.153129 
L 250.312203 131.520022 
L 250.718428 131.238641 
L 251.937101 130.81657 
L 252.74955 130.746225 
L 254.374447 130.394499 
L 254.780672 130.113118 
L 255.999345 129.761392 
L 256.405569 129.409666 
L 256.811794 129.339321 
L 258.436691 128.565523 
L 259.24914 128.354488 
L 260.061589 128.143452 
L 261.686486 128.073107 
L 262.092711 127.862071 
L 262.498935 127.862071 
L 263.311384 127.510345 
L 264.123833 127.29931 
L 264.936282 127.088274 
L 265.342506 126.736548 
L 265.748731 126.736548 
L 266.154955 126.595857 
L 266.561179 126.595857 
L 268.186077 125.751715 
L 273.06077 124.837227 
L 274.685667 124.274465 
L 275.091892 124.274465 
L 275.498116 124.133775 
L 276.71679 124.06343 
L 277.123014 123.782049 
L 277.935463 123.711704 
L 278.747912 123.641359 
L 280.372809 123.148942 
L 282.403931 122.726871 
L 284.028829 122.164109 
L 284.841278 122.093764 
L 285.247502 122.023419 
L 287.278624 121.038586 
L 289.309746 120.96824 
L 290.122195 120.82755 
L 290.934644 120.475824 
L 292.153317 120.335134 
L 292.559541 120.053753 
L 294.184439 119.983407 
L 294.590663 119.772372 
L 296.215561 119.420646 
L 297.840459 118.928229 
L 298.652907 118.787539 
L 299.059132 118.576503 
L 300.277805 118.435813 
L 301.090254 118.435813 
L 301.902703 118.224777 
L 302.308927 117.873051 
L 303.121376 117.732361 
L 303.5276 117.45098 
L 304.340049 117.239944 
L 305.152498 117.028909 
L 305.558722 116.958563 
L 305.964947 116.747528 
L 306.777396 116.677182 
L 308.402293 116.184766 
L 309.214742 116.184766 
L 310.027191 115.83304 
L 310.433415 115.692349 
L 311.652088 115.622004 
L 312.058313 115.481314 
L 312.870762 115.481314 
L 313.276986 115.270278 
L 314.495659 114.988897 
L 316.933006 114.2151 
L 318.557903 113.933719 
L 318.964128 113.722684 
L 319.776577 113.722684 
L 320.182801 113.511648 
L 325.869943 112.45647 
L 327.088616 112.104744 
L 327.901065 112.104744 
L 328.713514 111.893708 
L 329.932187 111.823363 
L 330.338411 111.612327 
L 331.557084 111.471637 
L 331.963309 111.471637 
L 332.369533 111.260601 
L 333.181982 111.190256 
L 334.400655 110.908875 
L 335.619328 110.486804 
L 336.838002 110.416459 
L 338.056675 110.275768 
L 338.462899 110.275768 
L 338.869124 110.135078 
L 339.681572 110.064732 
L 340.087797 109.924042 
L 340.900246 109.853697 
L 341.30647 109.713006 
L 342.118919 109.642661 
L 342.931368 109.431626 
L 344.96249 109.0799 
L 345.774939 108.728173 
L 346.181163 108.587483 
L 346.993612 108.587483 
L 347.806061 108.376447 
L 349.430958 108.165412 
L 350.649631 108.095067 
L 352.274529 107.74334 
L 353.493202 107.321269 
L 354.305651 107.250924 
L 355.524324 106.969543 
L 355.930549 106.828853 
L 357.149222 106.758507 
L 357.961671 106.547472 
L 359.180344 106.477127 
L 365.27371 105.492294 
L 366.492383 105.421948 
L 367.304832 105.210913 
L 367.711057 104.999877 
L 369.335954 104.788842 
L 369.742179 104.788842 
L 370.554627 104.577806 
L 371.773301 104.437115 
L 373.398198 104.36677 
L 375.835545 103.944699 
L 376.241769 103.663318 
L 377.054218 103.592973 
L 377.460442 103.522628 
L 377.866667 103.311592 
L 379.08534 103.100556 
L 379.491564 102.889521 
L 380.710238 102.819176 
L 381.522686 102.60814 
L 383.553808 102.186069 
L 383.960033 101.975033 
L 384.772482 101.904688 
L 385.178706 101.763997 
L 385.58493 101.763997 
L 385.991155 101.623307 
L 386.803604 101.552962 
L 388.428501 101.060545 
L 389.24095 100.9902 
L 390.459623 100.84951 
L 391.272072 100.84951 
L 392.084521 100.638474 
L 392.89697 100.568129 
L 394.115643 100.497784 
L 394.928092 100.427438 
L 395.740541 100.357093 
L 396.552989 100.286748 
L 396.959214 100.286748 
L 397.771663 100.075712 
L 398.584111 100.005367 
L 398.990336 99.794331 
L 400.615233 99.723986 
L 401.833907 99.37226 
L 402.240131 99.37226 
L 402.646355 99.161225 
L 403.05258 99.161225 
L 403.865029 98.950189 
L 404.677477 98.879844 
L 408.739722 98.809498 
L 410.364619 98.598463 
L 411.989517 98.528118 
L 412.395741 98.387427 
L 412.801966 98.387427 
L 413.614414 98.106046 
L 414.426863 98.035701 
L 415.239312 97.965356 
L 415.645536 97.965356 
L 416.051761 97.824665 
L 416.457985 97.543285 
L 417.270434 97.472939 
L 418.082883 97.472939 
L 420.114005 96.839833 
L 421.332678 96.769487 
L 422.551351 96.628797 
L 423.770025 96.628797 
L 424.176249 96.488106 
L 424.988698 96.488106 
L 425.394922 96.347416 
L 425.801147 96.347416 
L 426.207371 96.206726 
L 428.238493 96.13638 
L 430.269615 95.855 
L 431.488288 95.784654 
L 433.113186 95.432928 
L 433.51941 95.292238 
L 434.738084 95.292238 
L 435.144308 95.151547 
L 435.956757 95.081202 
L 436.769206 95.010857 
L 437.17543 95.010857 
L 437.581654 94.799821 
L 437.987879 94.799821 
L 438.800328 94.588786 
L 439.612776 94.51844 
L 440.425225 94.448095 
L 440.83145 94.307405 
L 441.237674 94.307405 
L 441.643898 94.166714 
L 443.268796 94.166714 
L 443.67502 94.026024 
L 444.487469 93.955679 
L 444.893694 93.814988 
L 446.518591 93.744643 
L 448.143489 93.533608 
L 448.955938 93.463262 
L 449.768387 93.252227 
L 450.98706 93.181881 
L 451.393284 92.900501 
L 452.205733 92.830155 
L 452.611957 92.689465 
L 454.643079 92.689465 
L 455.049304 92.478429 
L 456.674201 92.408084 
L 457.48665 92.197048 
L 458.299099 92.126703 
L 460.736446 91.774977 
L 463.580016 91.704632 
L 464.79869 91.563942 
L 466.017363 91.493596 
L 466.423587 91.352906 
L 468.048485 91.282561 
L 473.329402 90.438418 
L 473.735627 90.438418 
L 474.141851 90.297728 
L 474.9543 90.227383 
L 477.391646 89.875656 
L 478.610319 89.805311 
L 480.235217 89.594276 
L 482.266339 89.52393 
L 482.672563 89.453585 
L 483.485012 89.101859 
L 484.297461 89.031514 
L 485.10991 88.961169 
L 485.922359 88.890823 
L 486.734808 88.820478 
L 491.203276 88.750133 
L 492.015725 88.679788 
L 492.421949 88.679788 
L 493.234398 88.398407 
L 495.671744 88.328062 
L 496.890418 88.187371 
L 498.109091 88.187371 
L 498.109091 88.187371 
" clip-path="url(#p2676e20e17)" style="fill: none; stroke: #ff0000; stroke-width: 1.5; stroke-linecap: square"/>
   </g>
   <g id="line2d_14">
    <path d="M 92.290909 196.096928 
L 93.103358 196.026582 
L 93.915807 195.815547 
L 94.322031 195.745201 
L 94.728256 195.534166 
L 95.540704 195.463821 
L 96.353153 195.112095 
L 97.165602 195.112095 
L 97.571826 194.971404 
L 99.196724 194.901059 
L 100.009173 194.830714 
L 102.852744 194.760368 
L 104.477641 194.549333 
L 105.696314 194.478988 
L 106.914988 194.127262 
L 107.321212 194.127262 
L 108.133661 193.916226 
L 109.352334 193.845881 
L 109.758559 193.775535 
L 110.571007 193.423809 
L 111.383456 193.212774 
L 111.789681 193.001738 
L 112.602129 193.001738 
L 113.008354 192.790703 
L 114.227027 192.509322 
L 115.039476 192.157596 
L 115.4457 191.94656 
L 117.476822 191.524489 
L 117.883047 191.313453 
L 119.914169 190.961727 
L 120.320393 190.750691 
L 121.945291 190.539656 
L 122.351515 190.18793 
L 123.976413 189.976894 
L 124.788862 189.906549 
L 125.60131 189.695513 
L 126.007535 189.695513 
L 127.226208 188.992061 
L 128.038657 188.921716 
L 129.25733 188.640335 
L 129.663554 188.499645 
L 130.069779 188.147918 
L 131.288452 187.796192 
L 132.100901 187.725847 
L 132.507125 187.444466 
L 134.538247 187.163086 
L 135.756921 187.09274 
L 138.194267 186.741014 
L 140.225389 186.670669 
L 141.850287 186.037562 
L 142.256511 185.826526 
L 142.662735 185.756181 
L 143.475184 185.404455 
L 144.287633 185.263765 
L 144.693857 185.052729 
L 146.72498 184.630658 
L 147.537428 184.419622 
L 148.756102 184.349277 
L 149.56855 184.208587 
L 149.974775 183.997551 
L 151.193448 183.786515 
L 152.005897 183.434789 
L 152.412121 183.364444 
L 152.818346 183.012718 
L 154.849468 182.309266 
L 155.661916 181.465123 
L 156.068141 181.465123 
L 157.693038 180.902362 
L 159.317936 179.565803 
L 160.536609 179.214076 
L 161.349058 179.143731 
L 163.786405 178.792005 
L 164.598853 178.229244 
L 165.005078 178.158898 
L 165.817527 177.596137 
L 167.0362 177.385101 
L 167.848649 176.892684 
L 168.661097 176.540958 
L 169.067322 176.400268 
L 169.879771 176.329923 
L 170.285995 176.118887 
L 171.098444 176.048542 
L 171.910893 175.907851 
L 172.317117 175.696816 
L 172.723342 175.34509 
L 174.754464 174.923019 
L 175.566912 174.711983 
L 176.379361 174.500947 
L 176.785586 174.149221 
L 177.598034 173.86784 
L 178.816708 173.797495 
L 179.629156 173.234733 
L 180.035381 172.953353 
L 180.441605 172.812662 
L 180.84783 172.531281 
L 181.254054 172.460936 
L 181.660278 172.179555 
L 182.066503 172.038865 
L 182.878952 171.476103 
L 183.6914 171.194722 
L 184.097625 171.194722 
L 184.503849 170.983687 
L 185.722523 170.702306 
L 186.128747 170.420925 
L 187.753645 169.787818 
L 188.159869 169.576782 
L 189.378542 169.295402 
L 189.784767 169.084366 
L 190.190991 168.662295 
L 191.00344 168.310569 
L 191.815889 168.029188 
L 192.222113 168.029188 
L 192.628337 167.888497 
L 193.034562 167.607116 
L 193.847011 167.396081 
L 194.253235 167.1147 
L 196.284357 166.692629 
L 196.690581 166.551938 
L 197.096806 166.129867 
L 199.127928 165.707796 
L 199.940377 165.145034 
L 200.346601 164.933998 
L 200.752826 164.863653 
L 201.15905 164.582272 
L 201.971499 164.511927 
L 203.596396 164.230546 
L 204.408845 163.73813 
L 205.627518 163.667784 
L 206.439967 163.386404 
L 207.252416 162.823642 
L 210.095987 161.909154 
L 210.908436 161.768464 
L 211.31466 161.487083 
L 211.720885 161.346392 
L 212.533333 160.64294 
L 213.752007 160.36156 
L 214.158231 160.150524 
L 214.564455 160.150524 
L 215.376904 159.587762 
L 216.189353 159.517417 
L 216.595577 159.306381 
L 217.001802 159.306381 
L 217.408026 158.954655 
L 218.626699 158.88431 
L 220.251597 158.391894 
L 221.064046 158.321548 
L 223.095168 157.688441 
L 223.501392 157.336715 
L 224.313841 156.984989 
L 224.720066 156.562918 
L 225.12629 156.562918 
L 225.532514 156.281537 
L 226.344963 155.929811 
L 226.751188 155.718775 
L 228.376085 155.437395 
L 230.813432 154.241526 
L 235.2819 153.397383 
L 235.688124 153.256693 
L 236.094349 153.256693 
L 236.906798 153.045657 
L 237.313022 153.045657 
L 238.125471 152.482896 
L 238.93792 152.27186 
L 239.344144 151.990479 
L 240.562817 151.568408 
L 240.969042 151.568408 
L 241.375266 151.357372 
L 242.593939 151.287027 
L 243.000164 150.935301 
L 243.812613 150.864956 
L 244.218837 150.864956 
L 246.656183 150.091158 
L 248.687305 149.669087 
L 249.499754 149.176671 
L 250.718428 149.106325 
L 252.343325 148.543564 
L 252.74955 148.191838 
L 253.561998 148.191838 
L 253.968223 147.980802 
L 254.374447 147.980802 
L 254.780672 147.699421 
L 255.59312 147.488386 
L 255.999345 147.066314 
L 256.405569 147.066314 
L 258.030467 146.573898 
L 258.436691 146.503553 
L 259.655364 145.940791 
L 260.467813 145.65941 
L 261.280262 145.589065 
L 262.092711 145.307684 
L 262.498935 144.955958 
L 264.123833 144.604232 
L 264.530057 144.322851 
L 264.936282 144.252506 
L 265.342506 143.971125 
L 266.967404 143.478708 
L 267.373628 143.408363 
L 268.186077 142.915947 
L 268.592301 142.915947 
L 269.40475 142.564221 
L 269.810975 142.564221 
L 270.623423 142.353185 
L 271.842097 142.28284 
L 273.06077 142.001459 
L 273.466994 141.720078 
L 276.310565 140.80559 
L 276.71679 140.80559 
L 277.123014 140.6649 
L 277.935463 140.594555 
L 278.747912 140.383519 
L 279.154136 140.383519 
L 279.966585 140.031793 
L 281.185258 139.469031 
L 281.997707 139.187651 
L 283.622604 139.117305 
L 284.028829 139.04696 
L 284.435053 138.835924 
L 284.841278 138.765579 
L 285.247502 138.484198 
L 292.153317 137.217985 
L 292.559541 137.077294 
L 292.965766 136.795913 
L 293.37199 136.655223 
L 293.778215 136.303497 
L 295.403112 135.951771 
L 296.215561 135.740735 
L 296.621785 135.389009 
L 297.02801 135.389009 
L 298.652907 134.896593 
L 299.059132 134.896593 
L 299.465356 134.685557 
L 300.277805 134.615212 
L 303.5276 133.560033 
L 304.340049 133.419343 
L 304.746274 133.137962 
L 305.152498 132.997272 
L 305.964947 132.926927 
L 306.371171 132.715891 
L 306.777396 132.715891 
L 307.996069 131.942094 
L 308.808518 131.731058 
L 309.214742 131.590368 
L 310.433415 131.520022 
L 311.652088 131.238641 
L 312.058313 130.886915 
L 313.276986 130.605535 
L 314.901884 130.113118 
L 315.308108 130.113118 
L 316.120557 129.831737 
L 316.526781 129.550356 
L 317.745455 129.409666 
L 318.964128 129.409666 
L 319.370352 129.268976 
L 321.401474 129.19863 
L 322.213923 128.987595 
L 323.026372 128.776559 
L 323.838821 128.706214 
L 324.245045 128.635869 
L 325.057494 128.213797 
L 327.49484 127.721381 
L 329.525962 127.088274 
L 330.744636 126.806893 
L 331.557084 126.595857 
L 332.775758 126.314477 
L 333.181982 126.103441 
L 334.80688 125.82206 
L 335.619328 125.329644 
L 336.838002 125.048263 
L 337.65045 124.837227 
L 339.275348 124.485501 
L 339.681572 124.20412 
L 341.30647 124.133775 
L 342.525143 123.852394 
L 345.368714 122.867561 
L 346.587387 122.797216 
L 347.806061 122.515835 
L 348.212285 122.304799 
L 348.618509 121.953073 
L 349.024734 121.953073 
L 349.430958 121.671693 
L 349.837183 121.671693 
L 350.243407 121.460657 
L 350.649631 121.390312 
L 351.46208 121.038586 
L 353.086978 120.546169 
L 354.305651 120.405479 
L 355.1181 120.335134 
L 360.805242 119.420646 
L 361.61769 119.350301 
L 362.836364 118.857884 
L 363.242588 118.576503 
L 363.648812 118.506158 
L 364.055037 118.224777 
L 364.867486 118.154432 
L 366.086159 117.943396 
L 366.492383 117.732361 
L 368.117281 117.521325 
L 368.92973 117.45098 
L 369.742179 117.239944 
L 371.367076 117.028909 
L 372.179525 116.958563 
L 376.241769 116.325456 
L 376.647993 116.325456 
L 377.054218 116.184766 
L 378.272891 116.184766 
L 379.08534 115.97373 
L 380.304013 115.762695 
L 380.710238 115.551659 
L 382.74136 115.270278 
L 383.553808 114.707517 
L 385.178706 114.496481 
L 385.991155 114.426136 
L 386.803604 114.2151 
L 387.616052 114.144755 
L 389.24095 113.933719 
L 389.647174 113.652338 
L 390.053399 113.581993 
L 390.459623 113.300612 
L 391.678296 113.230267 
L 392.490745 113.159922 
L 393.303194 113.159922 
L 393.709419 113.019231 
L 394.521867 112.948886 
L 395.334316 112.878541 
L 395.740541 112.878541 
L 396.552989 112.526815 
L 397.771663 112.45647 
L 398.177887 112.315779 
L 398.584111 112.315779 
L 400.209009 111.823363 
L 401.021458 111.753018 
L 401.833907 111.682672 
L 402.646355 111.612327 
L 404.271253 111.541982 
L 404.677477 111.330946 
L 406.302375 111.260601 
L 407.927273 110.768185 
L 408.739722 110.697839 
L 409.958395 110.557149 
L 410.770844 110.557149 
L 411.583292 110.346113 
L 414.020639 109.994387 
L 415.645536 109.924042 
L 417.676658 109.642661 
L 418.895332 109.572316 
L 419.707781 109.501971 
L 420.926454 109.431626 
L 422.957576 109.009554 
L 423.3638 108.868864 
L 424.176249 108.798519 
L 425.394922 108.657828 
L 425.801147 108.657828 
L 426.207371 108.446793 
L 429.457166 107.954376 
L 430.269615 107.884031 
L 431.082064 107.813686 
L 432.706962 107.813686 
L 433.113186 107.672995 
L 433.51941 107.672995 
L 434.331859 107.321269 
L 434.738084 107.110234 
L 435.550532 107.039888 
L 438.394103 106.477127 
L 439.206552 106.125401 
L 440.425225 106.055055 
L 440.83145 105.914365 
L 441.643898 105.84402 
L 442.456347 105.632984 
L 442.862572 105.632984 
L 443.268796 105.421948 
L 444.081245 105.351603 
L 444.893694 105.281258 
L 445.706143 105.281258 
L 446.518591 104.929532 
L 447.33104 104.859187 
L 447.737265 104.577806 
L 448.143489 104.577806 
L 448.549713 104.36677 
L 450.174611 104.296425 
L 451.393284 104.155735 
L 452.205733 104.085389 
L 453.424406 103.944699 
L 454.236855 103.874354 
L 455.455528 103.733663 
L 455.861753 103.452282 
L 456.267977 103.311592 
L 456.674201 103.030211 
L 457.892875 102.959866 
L 459.517772 102.74883 
L 460.736446 102.678485 
L 463.580016 102.256414 
L 465.204914 102.186069 
L 466.017363 101.975033 
L 467.64226 101.904688 
L 469.673382 101.623307 
L 470.892056 101.623307 
L 471.29828 101.482617 
L 472.516953 101.482617 
L 472.923178 101.271581 
L 474.141851 101.13089 
L 475.766749 101.13089 
L 476.172973 100.9902 
L 480.641441 100.919855 
L 481.047666 100.779164 
L 481.860115 100.708819 
L 483.078788 100.568129 
L 483.891237 100.497784 
L 485.10991 100.357093 
L 485.922359 100.286748 
L 487.141032 100.075712 
L 487.547256 99.864677 
L 489.984603 99.794331 
L 491.6095 99.442605 
L 492.015725 99.23157 
L 494.859296 98.809498 
L 496.077969 98.739153 
L 496.890418 98.668808 
L 498.109091 98.668808 
L 498.109091 98.668808 
" clip-path="url(#p2676e20e17)" style="fill: none; stroke: #000000; stroke-width: 1.5; stroke-linecap: square"/>
   </g>
   <g id="line2d_15">
    <path d="M 173.129566 203.04 
L 173.129566 51.84 
" clip-path="url(#p2676e20e17)" style="fill: none; stroke-dasharray: 7.4,3.2; stroke-dashoffset: 0; stroke: #008000; stroke-opacity: 0.75; stroke-width: 2"/>
   </g>
   <g id="patch_3">
    <path d="M 72 203.04 
L 72 51.84 
" style="fill: none; stroke: #000000; stroke-width: 0.8; stroke-linejoin: miter; stroke-linecap: square"/>
   </g>
   <g id="patch_4">
    <path d="M 518.4 203.04 
L 518.4 51.84 
" style="fill: none; stroke: #000000; stroke-width: 0.8; stroke-linejoin: miter; stroke-linecap: square"/>
   </g>
   <g id="patch_5">
    <path d="M 72 203.04 
L 518.4 203.04 
" style="fill: none; stroke: #000000; stroke-width: 0.8; stroke-linejoin: miter; stroke-linecap: square"/>
   </g>
   <g id="patch_6">
    <path d="M 72 51.84 
L 518.4 51.84 
" style="fill: none; stroke: #000000; stroke-width: 0.8; stroke-linejoin: miter; stroke-linecap: square"/>
   </g>
   <g id="text_14">
    <!-- Number of misbehavior over the Fuzz iteration -->
    <g transform="translate(155.102812 45.84) scale(0.12 -0.12)">
     <defs>
      <path id="DejaVuSans-75" d="M 544 1381 
L 544 3500 
L 1119 3500 
L 1119 1403 
Q 1119 906 1312 657 
Q 1506 409 1894 409 
Q 2359 409 2629 706 
Q 2900 1003 2900 1516 
L 2900 3500 
L 3475 3500 
L 3475 0 
L 2900 0 
L 2900 538 
Q 2691 219 2414 64 
Q 2138 -91 1772 -91 
Q 1169 -91 856 284 
Q 544 659 544 1381 
z
M 1991 3584 
L 1991 3584 
z
" transform="scale(0.015625)"/>
      <path id="DejaVuSans-6d" d="M 3328 2828 
Q 3544 3216 3844 3400 
Q 4144 3584 4550 3584 
Q 5097 3584 5394 3201 
Q 5691 2819 5691 2113 
L 5691 0 
L 5113 0 
L 5113 2094 
Q 5113 2597 4934 2840 
Q 4756 3084 4391 3084 
Q 3944 3084 3684 2787 
Q 3425 2491 3425 1978 
L 3425 0 
L 2847 0 
L 2847 2094 
Q 2847 2600 2669 2842 
Q 2491 3084 2119 3084 
Q 1678 3084 1418 2786 
Q 1159 2488 1159 1978 
L 1159 0 
L 581 0 
L 581 3500 
L 1159 3500 
L 1159 2956 
Q 1356 3278 1631 3431 
Q 1906 3584 2284 3584 
Q 2666 3584 2933 3390 
Q 3200 3197 3328 2828 
z
" transform="scale(0.015625)"/>
      <path id="DejaVuSans-62" d="M 3116 1747 
Q 3116 2381 2855 2742 
Q 2594 3103 2138 3103 
Q 1681 3103 1420 2742 
Q 1159 2381 1159 1747 
Q 1159 1113 1420 752 
Q 1681 391 2138 391 
Q 2594 391 2855 752 
Q 3116 1113 3116 1747 
z
M 1159 2969 
Q 1341 3281 1617 3432 
Q 1894 3584 2278 3584 
Q 2916 3584 3314 3078 
Q 3713 2572 3713 1747 
Q 3713 922 3314 415 
Q 2916 -91 2278 -91 
Q 1894 -91 1617 61 
Q 1341 213 1159 525 
L 1159 0 
L 581 0 
L 581 4863 
L 1159 4863 
L 1159 2969 
z
" transform="scale(0.015625)"/>
      <path id="DejaVuSans-20" transform="scale(0.015625)"/>
      <path id="DejaVuSans-66" d="M 2375 4863 
L 2375 4384 
L 1825 4384 
Q 1516 4384 1395 4259 
Q 1275 4134 1275 3809 
L 1275 3500 
L 2222 3500 
L 2222 3053 
L 1275 3053 
L 1275 0 
L 697 0 
L 697 3053 
L 147 3053 
L 147 3500 
L 697 3500 
L 697 3744 
Q 697 4328 969 4595 
Q 1241 4863 1831 4863 
L 2375 4863 
z
" transform="scale(0.015625)"/>
      <path id="DejaVuSans-73" d="M 2834 3397 
L 2834 2853 
Q 2591 2978 2328 3040 
Q 2066 3103 1784 3103 
Q 1356 3103 1142 2972 
Q 928 2841 928 2578 
Q 928 2378 1081 2264 
Q 1234 2150 1697 2047 
L 1894 2003 
Q 2506 1872 2764 1633 
Q 3022 1394 3022 966 
Q 3022 478 2636 193 
Q 2250 -91 1575 -91 
Q 1294 -91 989 -36 
Q 684 19 347 128 
L 347 722 
Q 666 556 975 473 
Q 1284 391 1588 391 
Q 1994 391 2212 530 
Q 2431 669 2431 922 
Q 2431 1156 2273 1281 
Q 2116 1406 1581 1522 
L 1381 1569 
Q 847 1681 609 1914 
Q 372 2147 372 2553 
Q 372 3047 722 3315 
Q 1072 3584 1716 3584 
Q 2034 3584 2315 3537 
Q 2597 3491 2834 3397 
z
" transform="scale(0.015625)"/>
      <path id="DejaVuSans-68" d="M 3513 2113 
L 3513 0 
L 2938 0 
L 2938 2094 
Q 2938 2591 2744 2837 
Q 2550 3084 2163 3084 
Q 1697 3084 1428 2787 
Q 1159 2491 1159 1978 
L 1159 0 
L 581 0 
L 581 4863 
L 1159 4863 
L 1159 2956 
Q 1366 3272 1645 3428 
Q 1925 3584 2291 3584 
Q 2894 3584 3203 3211 
Q 3513 2838 3513 2113 
z
" transform="scale(0.015625)"/>
      <path id="DejaVuSans-76" d="M 191 3500 
L 800 3500 
L 1894 563 
L 2988 3500 
L 3597 3500 
L 2284 0 
L 1503 0 
L 191 3500 
z
" transform="scale(0.015625)"/>
      <path id="DejaVuSans-46" d="M 628 4666 
L 3309 4666 
L 3309 4134 
L 1259 4134 
L 1259 2759 
L 3109 2759 
L 3109 2228 
L 1259 2228 
L 1259 0 
L 628 0 
L 628 4666 
z
" transform="scale(0.015625)"/>
      <path id="DejaVuSans-7a" d="M 353 3500 
L 3084 3500 
L 3084 2975 
L 922 459 
L 3084 459 
L 3084 0 
L 275 0 
L 275 525 
L 2438 3041 
L 353 3041 
L 353 3500 
z
" transform="scale(0.015625)"/>
     </defs>
     <use xlink:href="#DejaVuSans-4e"/>
     <use xlink:href="#DejaVuSans-75" x="74.804688"/>
     <use xlink:href="#DejaVuSans-6d" x="138.183594"/>
     <use xlink:href="#DejaVuSans-62" x="235.595703"/>
     <use xlink:href="#DejaVuSans-65" x="299.072266"/>
     <use xlink:href="#DejaVuSans-72" x="360.595703"/>
     <use xlink:href="#DejaVuSans-20" x="401.708984"/>
     <use xlink:href="#DejaVuSans-6f" x="433.496094"/>
     <use xlink:href="#DejaVuSans-66" x="494.677734"/>
     <use xlink:href="#DejaVuSans-20" x="529.882812"/>
     <use xlink:href="#DejaVuSans-6d" x="561.669922"/>
     <use xlink:href="#DejaVuSans-69" x="659.082031"/>
     <use xlink:href="#DejaVuSans-73" x="686.865234"/>
     <use xlink:href="#DejaVuSans-62" x="738.964844"/>
     <use xlink:href="#DejaVuSans-65" x="802.441406"/>
     <use xlink:href="#DejaVuSans-68" x="863.964844"/>
     <use xlink:href="#DejaVuSans-61" x="927.34375"/>
     <use xlink:href="#DejaVuSans-76" x="988.623047"/>
     <use xlink:href="#DejaVuSans-69" x="1047.802734"/>
     <use xlink:href="#DejaVuSans-6f" x="1075.585938"/>
     <use xlink:href="#DejaVuSans-72" x="1136.767578"/>
     <use xlink:href="#DejaVuSans-20" x="1177.880859"/>
     <use xlink:href="#DejaVuSans-6f" x="1209.667969"/>
     <use xlink:href="#DejaVuSans-76" x="1270.849609"/>
     <use xlink:href="#DejaVuSans-65" x="1330.029297"/>
     <use xlink:href="#DejaVuSans-72" x="1391.552734"/>
     <use xlink:href="#DejaVuSans-20" x="1432.666016"/>
     <use xlink:href="#DejaVuSans-74" x="1464.453125"/>
     <use xlink:href="#DejaVuSans-68" x="1503.662109"/>
     <use xlink:href="#DejaVuSans-65" x="1567.041016"/>
     <use xlink:href="#DejaVuSans-20" x="1628.564453"/>
     <use xlink:href="#DejaVuSans-46" x="1660.351562"/>
     <use xlink:href="#DejaVuSans-75" x="1712.371094"/>
     <use xlink:href="#DejaVuSans-7a" x="1775.75"/>
     <use xlink:href="#DejaVuSans-7a" x="1828.240234"/>
     <use xlink:href="#DejaVuSans-20" x="1880.730469"/>
     <use xlink:href="#DejaVuSans-69" x="1912.517578"/>
     <use xlink:href="#DejaVuSans-74" x="1940.300781"/>
     <use xlink:href="#DejaVuSans-65" x="1979.509766"/>
     <use xlink:href="#DejaVuSans-72" x="2041.033203"/>
     <use xlink:href="#DejaVuSans-61" x="2082.146484"/>
     <use xlink:href="#DejaVuSans-74" x="2143.425781"/>
     <use xlink:href="#DejaVuSans-69" x="2182.634766"/>
     <use xlink:href="#DejaVuSans-6f" x="2210.417969"/>
     <use xlink:href="#DejaVuSans-6e" x="2271.599609"/>
    </g>
   </g>
   <g id="legend_1">
    <g id="patch_7">
     <path d="M 314.139062 198.04 
L 511.4 198.04 
Q 513.4 198.04 513.4 196.04 
L 513.4 153.005625 
Q 513.4 151.005625 511.4 151.005625 
L 314.139062 151.005625 
Q 312.139062 151.005625 312.139062 153.005625 
L 312.139062 196.04 
Q 312.139062 198.04 314.139062 198.04 
z
" style="fill: #ffffff; opacity: 0.8; stroke: #cccccc; stroke-linejoin: miter"/>
    </g>
    <g id="line2d_16">
     <path d="M 316.139062 159.104062 
L 326.139062 159.104062 
L 336.139062 159.104062 
" style="fill: none; stroke: #0000ff; stroke-width: 1.5; stroke-linecap: square"/>
    </g>
    <g id="text_15">
     <!-- SmoothGrad-Clustering-Attractor -->
     <g transform="translate(344.139062 162.604062) scale(0.1 -0.1)">
      <defs>
       <path id="DejaVuSans-47" d="M 3809 666 
L 3809 1919 
L 2778 1919 
L 2778 2438 
L 4434 2438 
L 4434 434 
Q 4069 175 3628 42 
Q 3188 -91 2688 -91 
Q 1594 -91 976 548 
Q 359 1188 359 2328 
Q 359 3472 976 4111 
Q 1594 4750 2688 4750 
Q 3144 4750 3555 4637 
Q 3966 4525 4313 4306 
L 4313 3634 
Q 3963 3931 3569 4081 
Q 3175 4231 2741 4231 
Q 1884 4231 1454 3753 
Q 1025 3275 1025 2328 
Q 1025 1384 1454 906 
Q 1884 428 2741 428 
Q 3075 428 3337 486 
Q 3600 544 3809 666 
z
" transform="scale(0.015625)"/>
       <path id="DejaVuSans-64" d="M 2906 2969 
L 2906 4863 
L 3481 4863 
L 3481 0 
L 2906 0 
L 2906 525 
Q 2725 213 2448 61 
Q 2172 -91 1784 -91 
Q 1150 -91 751 415 
Q 353 922 353 1747 
Q 353 2572 751 3078 
Q 1150 3584 1784 3584 
Q 2172 3584 2448 3432 
Q 2725 3281 2906 2969 
z
M 947 1747 
Q 947 1113 1208 752 
Q 1469 391 1925 391 
Q 2381 391 2643 752 
Q 2906 1113 2906 1747 
Q 2906 2381 2643 2742 
Q 2381 3103 1925 3103 
Q 1469 3103 1208 2742 
Q 947 2381 947 1747 
z
" transform="scale(0.015625)"/>
       <path id="DejaVuSans-2d" d="M 313 2009 
L 1997 2009 
L 1997 1497 
L 313 1497 
L 313 2009 
z
" transform="scale(0.015625)"/>
       <path id="DejaVuSans-43" d="M 4122 4306 
L 4122 3641 
Q 3803 3938 3442 4084 
Q 3081 4231 2675 4231 
Q 1875 4231 1450 3742 
Q 1025 3253 1025 2328 
Q 1025 1406 1450 917 
Q 1875 428 2675 428 
Q 3081 428 3442 575 
Q 3803 722 4122 1019 
L 4122 359 
Q 3791 134 3420 21 
Q 3050 -91 2638 -91 
Q 1578 -91 968 557 
Q 359 1206 359 2328 
Q 359 3453 968 4101 
Q 1578 4750 2638 4750 
Q 3056 4750 3426 4639 
Q 3797 4528 4122 4306 
z
" transform="scale(0.015625)"/>
       <path id="DejaVuSans-6c" d="M 603 4863 
L 1178 4863 
L 1178 0 
L 603 0 
L 603 4863 
z
" transform="scale(0.015625)"/>
       <path id="DejaVuSans-67" d="M 2906 1791 
Q 2906 2416 2648 2759 
Q 2391 3103 1925 3103 
Q 1463 3103 1205 2759 
Q 947 2416 947 1791 
Q 947 1169 1205 825 
Q 1463 481 1925 481 
Q 2391 481 2648 825 
Q 2906 1169 2906 1791 
z
M 3481 434 
Q 3481 -459 3084 -895 
Q 2688 -1331 1869 -1331 
Q 1566 -1331 1297 -1286 
Q 1028 -1241 775 -1147 
L 775 -588 
Q 1028 -725 1275 -790 
Q 1522 -856 1778 -856 
Q 2344 -856 2625 -561 
Q 2906 -266 2906 331 
L 2906 616 
Q 2728 306 2450 153 
Q 2172 0 1784 0 
Q 1141 0 747 490 
Q 353 981 353 1791 
Q 353 2603 747 3093 
Q 1141 3584 1784 3584 
Q 2172 3584 2450 3431 
Q 2728 3278 2906 2969 
L 2906 3500 
L 3481 3500 
L 3481 434 
z
" transform="scale(0.015625)"/>
       <path id="DejaVuSans-41" d="M 2188 4044 
L 1331 1722 
L 3047 1722 
L 2188 4044 
z
M 1831 4666 
L 2547 4666 
L 4325 0 
L 3669 0 
L 3244 1197 
L 1141 1197 
L 716 0 
L 50 0 
L 1831 4666 
z
" transform="scale(0.015625)"/>
       <path id="DejaVuSans-63" d="M 3122 3366 
L 3122 2828 
Q 2878 2963 2633 3030 
Q 2388 3097 2138 3097 
Q 1578 3097 1268 2742 
Q 959 2388 959 1747 
Q 959 1106 1268 751 
Q 1578 397 2138 397 
Q 2388 397 2633 464 
Q 2878 531 3122 666 
L 3122 134 
Q 2881 22 2623 -34 
Q 2366 -91 2075 -91 
Q 1284 -91 818 406 
Q 353 903 353 1747 
Q 353 2603 823 3093 
Q 1294 3584 2113 3584 
Q 2378 3584 2631 3529 
Q 2884 3475 3122 3366 
z
" transform="scale(0.015625)"/>
      </defs>
      <use xlink:href="#DejaVuSans-53"/>
      <use xlink:href="#DejaVuSans-6d" x="63.476562"/>
      <use xlink:href="#DejaVuSans-6f" x="160.888672"/>
      <use xlink:href="#DejaVuSans-6f" x="222.070312"/>
      <use xlink:href="#DejaVuSans-74" x="283.251953"/>
      <use xlink:href="#DejaVuSans-68" x="322.460938"/>
      <use xlink:href="#DejaVuSans-47" x="385.839844"/>
      <use xlink:href="#DejaVuSans-72" x="463.330078"/>
      <use xlink:href="#DejaVuSans-61" x="504.443359"/>
      <use xlink:href="#DejaVuSans-64" x="565.722656"/>
      <use xlink:href="#DejaVuSans-2d" x="629.199219"/>
      <use xlink:href="#DejaVuSans-43" x="665.283203"/>
      <use xlink:href="#DejaVuSans-6c" x="735.107422"/>
      <use xlink:href="#DejaVuSans-75" x="762.890625"/>
      <use xlink:href="#DejaVuSans-73" x="826.269531"/>
      <use xlink:href="#DejaVuSans-74" x="878.369141"/>
      <use xlink:href="#DejaVuSans-65" x="917.578125"/>
      <use xlink:href="#DejaVuSans-72" x="979.101562"/>
      <use xlink:href="#DejaVuSans-69" x="1020.214844"/>
      <use xlink:href="#DejaVuSans-6e" x="1047.998047"/>
      <use xlink:href="#DejaVuSans-67" x="1111.376953"/>
      <use xlink:href="#DejaVuSans-2d" x="1174.853516"/>
      <use xlink:href="#DejaVuSans-41" x="1208.6875"/>
      <use xlink:href="#DejaVuSans-74" x="1275.345703"/>
      <use xlink:href="#DejaVuSans-74" x="1314.554688"/>
      <use xlink:href="#DejaVuSans-72" x="1353.763672"/>
      <use xlink:href="#DejaVuSans-61" x="1394.876953"/>
      <use xlink:href="#DejaVuSans-63" x="1456.15625"/>
      <use xlink:href="#DejaVuSans-74" x="1511.136719"/>
      <use xlink:href="#DejaVuSans-6f" x="1550.345703"/>
      <use xlink:href="#DejaVuSans-72" x="1611.527344"/>
     </g>
    </g>
    <g id="line2d_17">
     <path d="M 316.139062 173.782187 
L 326.139062 173.782187 
L 336.139062 173.782187 
" style="fill: none; stroke: #ff0000; stroke-width: 1.5; stroke-linecap: square"/>
    </g>
    <g id="text_16">
     <!-- SmoothGrad-Clustering-Random -->
     <g transform="translate(344.139062 177.282187) scale(0.1 -0.1)">
      <defs>
       <path id="DejaVuSans-52" d="M 2841 2188 
Q 3044 2119 3236 1894 
Q 3428 1669 3622 1275 
L 4263 0 
L 3584 0 
L 2988 1197 
Q 2756 1666 2539 1819 
Q 2322 1972 1947 1972 
L 1259 1972 
L 1259 0 
L 628 0 
L 628 4666 
L 2053 4666 
Q 2853 4666 3247 4331 
Q 3641 3997 3641 3322 
Q 3641 2881 3436 2590 
Q 3231 2300 2841 2188 
z
M 1259 4147 
L 1259 2491 
L 2053 2491 
Q 2509 2491 2742 2702 
Q 2975 2913 2975 3322 
Q 2975 3731 2742 3939 
Q 2509 4147 2053 4147 
L 1259 4147 
z
" transform="scale(0.015625)"/>
      </defs>
      <use xlink:href="#DejaVuSans-53"/>
      <use xlink:href="#DejaVuSans-6d" x="63.476562"/>
      <use xlink:href="#DejaVuSans-6f" x="160.888672"/>
      <use xlink:href="#DejaVuSans-6f" x="222.070312"/>
      <use xlink:href="#DejaVuSans-74" x="283.251953"/>
      <use xlink:href="#DejaVuSans-68" x="322.460938"/>
      <use xlink:href="#DejaVuSans-47" x="385.839844"/>
      <use xlink:href="#DejaVuSans-72" x="463.330078"/>
      <use xlink:href="#DejaVuSans-61" x="504.443359"/>
      <use xlink:href="#DejaVuSans-64" x="565.722656"/>
      <use xlink:href="#DejaVuSans-2d" x="629.199219"/>
      <use xlink:href="#DejaVuSans-43" x="665.283203"/>
      <use xlink:href="#DejaVuSans-6c" x="735.107422"/>
      <use xlink:href="#DejaVuSans-75" x="762.890625"/>
      <use xlink:href="#DejaVuSans-73" x="826.269531"/>
      <use xlink:href="#DejaVuSans-74" x="878.369141"/>
      <use xlink:href="#DejaVuSans-65" x="917.578125"/>
      <use xlink:href="#DejaVuSans-72" x="979.101562"/>
      <use xlink:href="#DejaVuSans-69" x="1020.214844"/>
      <use xlink:href="#DejaVuSans-6e" x="1047.998047"/>
      <use xlink:href="#DejaVuSans-67" x="1111.376953"/>
      <use xlink:href="#DejaVuSans-2d" x="1174.853516"/>
      <use xlink:href="#DejaVuSans-52" x="1210.9375"/>
      <use xlink:href="#DejaVuSans-61" x="1278.169922"/>
      <use xlink:href="#DejaVuSans-6e" x="1339.449219"/>
      <use xlink:href="#DejaVuSans-64" x="1402.828125"/>
      <use xlink:href="#DejaVuSans-6f" x="1466.304688"/>
      <use xlink:href="#DejaVuSans-6d" x="1527.486328"/>
     </g>
    </g>
    <g id="line2d_18">
     <path d="M 316.139062 188.460312 
L 326.139062 188.460312 
L 336.139062 188.460312 
" style="fill: none; stroke: #000000; stroke-width: 1.5; stroke-linecap: square"/>
    </g>
    <g id="text_17">
     <!-- Random Baseline -->
     <g transform="translate(344.139062 191.960312) scale(0.1 -0.1)">
      <defs>
       <path id="DejaVuSans-42" d="M 1259 2228 
L 1259 519 
L 2272 519 
Q 2781 519 3026 730 
Q 3272 941 3272 1375 
Q 3272 1813 3026 2020 
Q 2781 2228 2272 2228 
L 1259 2228 
z
M 1259 4147 
L 1259 2741 
L 2194 2741 
Q 2656 2741 2882 2914 
Q 3109 3088 3109 3444 
Q 3109 3797 2882 3972 
Q 2656 4147 2194 4147 
L 1259 4147 
z
M 628 4666 
L 2241 4666 
Q 2963 4666 3353 4366 
Q 3744 4066 3744 3513 
Q 3744 3084 3544 2831 
Q 3344 2578 2956 2516 
Q 3422 2416 3680 2098 
Q 3938 1781 3938 1306 
Q 3938 681 3513 340 
Q 3088 0 2303 0 
L 628 0 
L 628 4666 
z
" transform="scale(0.015625)"/>
      </defs>
      <use xlink:href="#DejaVuSans-52"/>
      <use xlink:href="#DejaVuSans-61" x="67.232422"/>
      <use xlink:href="#DejaVuSans-6e" x="128.511719"/>
      <use xlink:href="#DejaVuSans-64" x="191.890625"/>
      <use xlink:href="#DejaVuSans-6f" x="255.367188"/>
      <use xlink:href="#DejaVuSans-6d" x="316.548828"/>
      <use xlink:href="#DejaVuSans-20" x="413.960938"/>
      <use xlink:href="#DejaVuSans-42" x="445.748047"/>
      <use xlink:href="#DejaVuSans-61" x="514.351562"/>
      <use xlink:href="#DejaVuSans-73" x="575.630859"/>
      <use xlink:href="#DejaVuSans-65" x="627.730469"/>
      <use xlink:href="#DejaVuSans-6c" x="689.253906"/>
      <use xlink:href="#DejaVuSans-69" x="717.037109"/>
      <use xlink:href="#DejaVuSans-6e" x="744.820312"/>
      <use xlink:href="#DejaVuSans-65" x="808.199219"/>
     </g>
    </g>
   </g>
  </g>
  <g id="axes_2">
   <g id="patch_8">
    <path d="M 72 384.48 
L 518.4 384.48 
L 518.4 233.28 
L 72 233.28 
z
" style="fill: #ffffff"/>
   </g>
   <g id="matplotlib.axis_3">
    <g id="xtick_7">
     <g id="line2d_19">
      <g>
       <use xlink:href="#mc24e2d96c0" x="81.611483" y="384.48" style="stroke: #000000; stroke-width: 0.8"/>
      </g>
     </g>
     <g id="text_18">
      <!-- 0 -->
      <g transform="translate(78.430233 399.078438) scale(0.1 -0.1)">
       <use xlink:href="#DejaVuSans-30"/>
      </g>
     </g>
    </g>
    <g id="xtick_8">
     <g id="line2d_20">
      <g>
       <use xlink:href="#mc24e2d96c0" x="135.008612" y="384.48" style="stroke: #000000; stroke-width: 0.8"/>
      </g>
     </g>
     <g id="text_19">
      <!-- 5 -->
      <g transform="translate(131.827362 399.078438) scale(0.1 -0.1)">
       <use xlink:href="#DejaVuSans-35"/>
      </g>
     </g>
    </g>
    <g id="xtick_9">
     <g id="line2d_21">
      <g>
       <use xlink:href="#mc24e2d96c0" x="188.405742" y="384.48" style="stroke: #000000; stroke-width: 0.8"/>
      </g>
     </g>
     <g id="text_20">
      <!-- 10 -->
      <g transform="translate(182.043242 399.078438) scale(0.1 -0.1)">
       <use xlink:href="#DejaVuSans-31"/>
       <use xlink:href="#DejaVuSans-30" x="63.623047"/>
      </g>
     </g>
    </g>
    <g id="xtick_10">
     <g id="line2d_22">
      <g>
       <use xlink:href="#mc24e2d96c0" x="241.802871" y="384.48" style="stroke: #000000; stroke-width: 0.8"/>
      </g>
     </g>
     <g id="text_21">
      <!-- 15 -->
      <g transform="translate(235.440371 399.078438) scale(0.1 -0.1)">
       <use xlink:href="#DejaVuSans-31"/>
       <use xlink:href="#DejaVuSans-35" x="63.623047"/>
      </g>
     </g>
    </g>
    <g id="xtick_11">
     <g id="line2d_23">
      <g>
       <use xlink:href="#mc24e2d96c0" x="295.2" y="384.48" style="stroke: #000000; stroke-width: 0.8"/>
      </g>
     </g>
     <g id="text_22">
      <!-- 20 -->
      <g transform="translate(288.8375 399.078438) scale(0.1 -0.1)">
       <use xlink:href="#DejaVuSans-32"/>
       <use xlink:href="#DejaVuSans-30" x="63.623047"/>
      </g>
     </g>
    </g>
    <g id="xtick_12">
     <g id="line2d_24">
      <g>
       <use xlink:href="#mc24e2d96c0" x="348.597129" y="384.48" style="stroke: #000000; stroke-width: 0.8"/>
      </g>
     </g>
     <g id="text_23">
      <!-- 25 -->
      <g transform="translate(342.234629 399.078438) scale(0.1 -0.1)">
       <use xlink:href="#DejaVuSans-32"/>
       <use xlink:href="#DejaVuSans-35" x="63.623047"/>
      </g>
     </g>
    </g>
    <g id="xtick_13">
     <g id="line2d_25">
      <g>
       <use xlink:href="#mc24e2d96c0" x="401.994258" y="384.48" style="stroke: #000000; stroke-width: 0.8"/>
      </g>
     </g>
     <g id="text_24">
      <!-- 30 -->
      <g transform="translate(395.631758 399.078438) scale(0.1 -0.1)">
       <defs>
        <path id="DejaVuSans-33" d="M 2597 2516 
Q 3050 2419 3304 2112 
Q 3559 1806 3559 1356 
Q 3559 666 3084 287 
Q 2609 -91 1734 -91 
Q 1441 -91 1130 -33 
Q 819 25 488 141 
L 488 750 
Q 750 597 1062 519 
Q 1375 441 1716 441 
Q 2309 441 2620 675 
Q 2931 909 2931 1356 
Q 2931 1769 2642 2001 
Q 2353 2234 1838 2234 
L 1294 2234 
L 1294 2753 
L 1863 2753 
Q 2328 2753 2575 2939 
Q 2822 3125 2822 3475 
Q 2822 3834 2567 4026 
Q 2313 4219 1838 4219 
Q 1578 4219 1281 4162 
Q 984 4106 628 3988 
L 628 4550 
Q 988 4650 1302 4700 
Q 1616 4750 1894 4750 
Q 2613 4750 3031 4423 
Q 3450 4097 3450 3541 
Q 3450 3153 3228 2886 
Q 3006 2619 2597 2516 
z
" transform="scale(0.015625)"/>
       </defs>
       <use xlink:href="#DejaVuSans-33"/>
       <use xlink:href="#DejaVuSans-30" x="63.623047"/>
      </g>
     </g>
    </g>
    <g id="xtick_14">
     <g id="line2d_26">
      <g>
       <use xlink:href="#mc24e2d96c0" x="455.391388" y="384.48" style="stroke: #000000; stroke-width: 0.8"/>
      </g>
     </g>
     <g id="text_25">
      <!-- 35 -->
      <g transform="translate(449.028888 399.078438) scale(0.1 -0.1)">
       <use xlink:href="#DejaVuSans-33"/>
       <use xlink:href="#DejaVuSans-35" x="63.623047"/>
      </g>
     </g>
    </g>
    <g id="xtick_15">
     <g id="line2d_27">
      <g>
       <use xlink:href="#mc24e2d96c0" x="508.788517" y="384.48" style="stroke: #000000; stroke-width: 0.8"/>
      </g>
     </g>
     <g id="text_26">
      <!-- 40 -->
      <g transform="translate(502.426017 399.078438) scale(0.1 -0.1)">
       <use xlink:href="#DejaVuSans-34"/>
       <use xlink:href="#DejaVuSans-30" x="63.623047"/>
      </g>
     </g>
    </g>
    <g id="text_27">
     <!-- Iteration -->
     <g transform="translate(273.991406 412.756563) scale(0.1 -0.1)">
      <use xlink:href="#DejaVuSans-49"/>
      <use xlink:href="#DejaVuSans-74" x="29.492188"/>
      <use xlink:href="#DejaVuSans-65" x="68.701172"/>
      <use xlink:href="#DejaVuSans-72" x="130.224609"/>
      <use xlink:href="#DejaVuSans-61" x="171.337891"/>
      <use xlink:href="#DejaVuSans-74" x="232.617188"/>
      <use xlink:href="#DejaVuSans-69" x="271.826172"/>
      <use xlink:href="#DejaVuSans-6f" x="299.609375"/>
      <use xlink:href="#DejaVuSans-6e" x="360.791016"/>
     </g>
    </g>
   </g>
   <g id="matplotlib.axis_4">
    <g id="ytick_6">
     <g id="line2d_28">
      <g>
       <use xlink:href="#mff17bb3382" x="72" y="382.997647" style="stroke: #000000; stroke-width: 0.8"/>
      </g>
     </g>
     <g id="text_28">
      <!-- 0 -->
      <g transform="translate(58.6375 386.796866) scale(0.1 -0.1)">
       <use xlink:href="#DejaVuSans-30"/>
      </g>
     </g>
    </g>
    <g id="ytick_7">
     <g id="line2d_29">
      <g>
       <use xlink:href="#mff17bb3382" x="72" y="356.045775" style="stroke: #000000; stroke-width: 0.8"/>
      </g>
     </g>
     <g id="text_29">
      <!-- 10 -->
      <g transform="translate(52.275 359.844994) scale(0.1 -0.1)">
       <use xlink:href="#DejaVuSans-31"/>
       <use xlink:href="#DejaVuSans-30" x="63.623047"/>
      </g>
     </g>
    </g>
    <g id="ytick_8">
     <g id="line2d_30">
      <g>
       <use xlink:href="#mff17bb3382" x="72" y="329.093904" style="stroke: #000000; stroke-width: 0.8"/>
      </g>
     </g>
     <g id="text_30">
      <!-- 20 -->
      <g transform="translate(52.275 332.893122) scale(0.1 -0.1)">
       <use xlink:href="#DejaVuSans-32"/>
       <use xlink:href="#DejaVuSans-30" x="63.623047"/>
      </g>
     </g>
    </g>
    <g id="ytick_9">
     <g id="line2d_31">
      <g>
       <use xlink:href="#mff17bb3382" x="72" y="302.142032" style="stroke: #000000; stroke-width: 0.8"/>
      </g>
     </g>
     <g id="text_31">
      <!-- 30 -->
      <g transform="translate(52.275 305.941251) scale(0.1 -0.1)">
       <use xlink:href="#DejaVuSans-33"/>
       <use xlink:href="#DejaVuSans-30" x="63.623047"/>
      </g>
     </g>
    </g>
    <g id="ytick_10">
     <g id="line2d_32">
      <g>
       <use xlink:href="#mff17bb3382" x="72" y="275.19016" style="stroke: #000000; stroke-width: 0.8"/>
      </g>
     </g>
     <g id="text_32">
      <!-- 40 -->
      <g transform="translate(52.275 278.989379) scale(0.1 -0.1)">
       <use xlink:href="#DejaVuSans-34"/>
       <use xlink:href="#DejaVuSans-30" x="63.623047"/>
      </g>
     </g>
    </g>
    <g id="ytick_11">
     <g id="line2d_33">
      <g>
       <use xlink:href="#mff17bb3382" x="72" y="248.238289" style="stroke: #000000; stroke-width: 0.8"/>
      </g>
     </g>
     <g id="text_33">
      <!-- 50 -->
      <g transform="translate(52.275 252.037508) scale(0.1 -0.1)">
       <use xlink:href="#DejaVuSans-35"/>
       <use xlink:href="#DejaVuSans-30" x="63.623047"/>
      </g>
     </g>
    </g>
    <g id="text_34">
     <!-- LK-ADS -->
     <g transform="translate(46.195312 326.555781) rotate(-90) scale(0.1 -0.1)">
      <defs>
       <path id="DejaVuSans-4c" d="M 628 4666 
L 1259 4666 
L 1259 531 
L 3531 531 
L 3531 0 
L 628 0 
L 628 4666 
z
" transform="scale(0.015625)"/>
       <path id="DejaVuSans-4b" d="M 628 4666 
L 1259 4666 
L 1259 2694 
L 3353 4666 
L 4166 4666 
L 1850 2491 
L 4331 0 
L 3500 0 
L 1259 2247 
L 1259 0 
L 628 0 
L 628 4666 
z
" transform="scale(0.015625)"/>
       <path id="DejaVuSans-44" d="M 1259 4147 
L 1259 519 
L 2022 519 
Q 2988 519 3436 956 
Q 3884 1394 3884 2338 
Q 3884 3275 3436 3711 
Q 2988 4147 2022 4147 
L 1259 4147 
z
M 628 4666 
L 1925 4666 
Q 3281 4666 3915 4102 
Q 4550 3538 4550 2338 
Q 4550 1131 3912 565 
Q 3275 0 1925 0 
L 628 0 
L 628 4666 
z
" transform="scale(0.015625)"/>
      </defs>
      <use xlink:href="#DejaVuSans-4c"/>
      <use xlink:href="#DejaVuSans-4b" x="55.712891"/>
      <use xlink:href="#DejaVuSans-2d" x="110.789062"/>
      <use xlink:href="#DejaVuSans-41" x="144.623047"/>
      <use xlink:href="#DejaVuSans-44" x="213.03125"/>
      <use xlink:href="#DejaVuSans-53" x="290.033203"/>
     </g>
    </g>
   </g>
   <g id="line2d_34">
    <path d="M 92.290909 369.521711 
L 102.970335 361.43615 
L 113.649761 342.56984 
L 124.329187 312.922781 
L 135.008612 299.446845 
L 145.688038 291.361283 
L 156.367464 275.19016 
L 167.04689 267.104599 
L 177.726316 264.409412 
L 188.405742 253.628663 
L 199.085167 248.238289 
L 209.764593 242.847914 
L 220.444019 242.847914 
L 231.123445 242.847914 
L 241.802871 242.847914 
L 252.482297 242.847914 
L 263.161722 242.847914 
L 273.841148 242.847914 
L 284.520574 242.847914 
L 295.2 242.847914 
L 305.879426 242.847914 
L 316.558852 242.847914 
L 327.238278 242.847914 
L 337.917703 240.152727 
L 348.597129 240.152727 
L 359.276555 240.152727 
L 369.955981 240.152727 
L 380.635407 240.152727 
L 391.314833 240.152727 
L 401.994258 240.152727 
L 412.673684 240.152727 
L 423.35311 240.152727 
L 434.032536 240.152727 
L 444.711962 240.152727 
L 455.391388 240.152727 
L 466.070813 240.152727 
L 476.750239 240.152727 
L 487.429665 240.152727 
L 498.109091 240.152727 
" clip-path="url(#p035f8148ca)" style="fill: none; stroke: #0000ff; stroke-width: 1.5; stroke-linecap: square"/>
   </g>
   <g id="line2d_35">
    <path d="M 92.290909 361.43615 
L 102.970335 345.265027 
L 113.649761 331.789091 
L 124.329187 315.617968 
L 135.008612 312.922781 
L 145.688038 304.837219 
L 156.367464 291.361283 
L 167.04689 280.580535 
L 177.726316 277.885348 
L 188.405742 275.19016 
L 199.085167 269.799786 
L 209.764593 256.32385 
L 220.444019 256.32385 
L 231.123445 250.933476 
L 241.802871 248.238289 
L 252.482297 248.238289 
L 263.161722 248.238289 
L 273.841148 248.238289 
L 284.520574 248.238289 
L 295.2 248.238289 
L 305.879426 248.238289 
L 316.558852 248.238289 
L 327.238278 248.238289 
L 337.917703 248.238289 
L 348.597129 245.543102 
L 359.276555 245.543102 
L 369.955981 245.543102 
L 380.635407 245.543102 
L 391.314833 242.847914 
L 401.994258 242.847914 
L 412.673684 242.847914 
L 423.35311 242.847914 
L 434.032536 242.847914 
L 444.711962 242.847914 
L 455.391388 242.847914 
L 466.070813 242.847914 
L 476.750239 242.847914 
L 487.429665 242.847914 
L 498.109091 242.847914 
" clip-path="url(#p035f8148ca)" style="fill: none; stroke: #ff0000; stroke-width: 1.5; stroke-linecap: square"/>
   </g>
   <g id="line2d_36">
    <path d="M 92.290909 361.43615 
L 102.970335 353.350588 
L 113.649761 337.179465 
L 124.329187 329.093904 
L 135.008612 323.703529 
L 145.688038 312.922781 
L 156.367464 312.922781 
L 167.04689 302.142032 
L 177.726316 291.361283 
L 188.405742 288.666096 
L 199.085167 275.19016 
L 209.764593 275.19016 
L 220.444019 269.799786 
L 231.123445 264.409412 
L 241.802871 261.714225 
L 252.482297 259.019037 
L 263.161722 259.019037 
L 273.841148 256.32385 
L 284.520574 253.628663 
L 295.2 250.933476 
L 305.879426 250.933476 
L 316.558852 248.238289 
L 327.238278 248.238289 
L 337.917703 245.543102 
L 348.597129 245.543102 
L 359.276555 245.543102 
L 369.955981 245.543102 
L 380.635407 245.543102 
L 391.314833 245.543102 
L 401.994258 245.543102 
L 412.673684 245.543102 
L 423.35311 245.543102 
L 434.032536 245.543102 
L 444.711962 245.543102 
L 455.391388 245.543102 
L 466.070813 245.543102 
L 476.750239 245.543102 
L 487.429665 245.543102 
L 498.109091 245.543102 
" clip-path="url(#p035f8148ca)" style="fill: none; stroke: #008000; stroke-width: 1.5; stroke-linecap: square"/>
   </g>
   <g id="line2d_37">
    <path d="M 92.290909 377.607273 
L 102.970335 369.521711 
L 113.649761 361.43615 
L 124.329187 350.655401 
L 135.008612 345.265027 
L 145.688038 331.789091 
L 156.367464 318.313155 
L 167.04689 310.227594 
L 177.726316 307.532406 
L 188.405742 299.446845 
L 199.085167 299.446845 
L 209.764593 296.751658 
L 220.444019 291.361283 
L 231.123445 285.970909 
L 241.802871 283.275722 
L 252.482297 283.275722 
L 263.161722 280.580535 
L 273.841148 280.580535 
L 284.520574 272.494973 
L 295.2 272.494973 
L 305.879426 264.409412 
L 316.558852 261.714225 
L 327.238278 261.714225 
L 337.917703 259.019037 
L 348.597129 259.019037 
L 359.276555 259.019037 
L 369.955981 259.019037 
L 380.635407 259.019037 
L 391.314833 259.019037 
L 401.994258 256.32385 
L 412.673684 250.933476 
L 423.35311 250.933476 
L 434.032536 250.933476 
L 444.711962 250.933476 
L 455.391388 250.933476 
L 466.070813 248.238289 
L 476.750239 248.238289 
L 487.429665 242.847914 
L 498.109091 242.847914 
" clip-path="url(#p035f8148ca)" style="fill: none; stroke: #000000; stroke-width: 1.5; stroke-linecap: square"/>
   </g>
   <g id="line2d_38">
    <path d="M 188.405742 384.48 
L 188.405742 233.28 
" clip-path="url(#p035f8148ca)" style="fill: none; stroke-dasharray: 7.4,3.2; stroke-dashoffset: 0; stroke: #008000; stroke-opacity: 0.75; stroke-width: 2"/>
   </g>
   <g id="patch_9">
    <path d="M 72 384.48 
L 72 233.28 
" style="fill: none; stroke: #000000; stroke-width: 0.8; stroke-linejoin: miter; stroke-linecap: square"/>
   </g>
   <g id="patch_10">
    <path d="M 518.4 384.48 
L 518.4 233.28 
" style="fill: none; stroke: #000000; stroke-width: 0.8; stroke-linejoin: miter; stroke-linecap: square"/>
   </g>
   <g id="patch_11">
    <path d="M 72 384.48 
L 518.4 384.48 
" style="fill: none; stroke: #000000; stroke-width: 0.8; stroke-linejoin: miter; stroke-linecap: square"/>
   </g>
   <g id="patch_12">
    <path d="M 72 233.28 
L 518.4 233.28 
" style="fill: none; stroke: #000000; stroke-width: 0.8; stroke-linejoin: miter; stroke-linecap: square"/>
   </g>
   <g id="legend_2">
    <g id="patch_13">
     <path d="M 383.939062 379.48 
L 511.4 379.48 
Q 513.4 379.48 513.4 377.48 
L 513.4 319.7675 
Q 513.4 317.7675 511.4 317.7675 
L 383.939062 317.7675 
Q 381.939062 317.7675 381.939062 319.7675 
L 381.939062 377.48 
Q 381.939062 379.48 383.939062 379.48 
z
" style="fill: #ffffff; opacity: 0.8; stroke: #cccccc; stroke-linejoin: miter"/>
    </g>
    <g id="line2d_39">
     <path d="M 385.939062 325.865937 
L 395.939062 325.865937 
L 405.939062 325.865937 
" style="fill: none; stroke: #0000ff; stroke-width: 1.5; stroke-linecap: square"/>
    </g>
    <g id="text_35">
     <!-- ScoreCAM-Random -->
     <g transform="translate(413.939062 329.365937) scale(0.1 -0.1)">
      <use xlink:href="#DejaVuSans-53"/>
      <use xlink:href="#DejaVuSans-63" x="63.476562"/>
      <use xlink:href="#DejaVuSans-6f" x="118.457031"/>
      <use xlink:href="#DejaVuSans-72" x="179.638672"/>
      <use xlink:href="#DejaVuSans-65" x="218.501953"/>
      <use xlink:href="#DejaVuSans-43" x="280.025391"/>
      <use xlink:href="#DejaVuSans-41" x="349.849609"/>
      <use xlink:href="#DejaVuSans-4d" x="418.257812"/>
      <use xlink:href="#DejaVuSans-2d" x="504.537109"/>
      <use xlink:href="#DejaVuSans-52" x="540.621094"/>
      <use xlink:href="#DejaVuSans-61" x="607.853516"/>
      <use xlink:href="#DejaVuSans-6e" x="669.132812"/>
      <use xlink:href="#DejaVuSans-64" x="732.511719"/>
      <use xlink:href="#DejaVuSans-6f" x="795.988281"/>
      <use xlink:href="#DejaVuSans-6d" x="857.169922"/>
     </g>
    </g>
    <g id="line2d_40">
     <path d="M 385.939062 340.544062 
L 395.939062 340.544062 
L 405.939062 340.544062 
" style="fill: none; stroke: #ff0000; stroke-width: 1.5; stroke-linecap: square"/>
    </g>
    <g id="text_36">
     <!-- ScoreCAM-High -->
     <g transform="translate(413.939062 344.044062) scale(0.1 -0.1)">
      <defs>
       <path id="DejaVuSans-48" d="M 628 4666 
L 1259 4666 
L 1259 2753 
L 3553 2753 
L 3553 4666 
L 4184 4666 
L 4184 0 
L 3553 0 
L 3553 2222 
L 1259 2222 
L 1259 0 
L 628 0 
L 628 4666 
z
" transform="scale(0.015625)"/>
      </defs>
      <use xlink:href="#DejaVuSans-53"/>
      <use xlink:href="#DejaVuSans-63" x="63.476562"/>
      <use xlink:href="#DejaVuSans-6f" x="118.457031"/>
      <use xlink:href="#DejaVuSans-72" x="179.638672"/>
      <use xlink:href="#DejaVuSans-65" x="218.501953"/>
      <use xlink:href="#DejaVuSans-43" x="280.025391"/>
      <use xlink:href="#DejaVuSans-41" x="349.849609"/>
      <use xlink:href="#DejaVuSans-4d" x="418.257812"/>
      <use xlink:href="#DejaVuSans-2d" x="504.537109"/>
      <use xlink:href="#DejaVuSans-48" x="540.621094"/>
      <use xlink:href="#DejaVuSans-69" x="615.816406"/>
      <use xlink:href="#DejaVuSans-67" x="643.599609"/>
      <use xlink:href="#DejaVuSans-68" x="707.076172"/>
     </g>
    </g>
    <g id="line2d_41">
     <path d="M 385.939062 355.222188 
L 395.939062 355.222188 
L 405.939062 355.222188 
" style="fill: none; stroke: #008000; stroke-width: 1.5; stroke-linecap: square"/>
    </g>
    <g id="text_37">
     <!-- ScoreCAM-Low -->
     <g transform="translate(413.939062 358.722188) scale(0.1 -0.1)">
      <defs>
       <path id="DejaVuSans-77" d="M 269 3500 
L 844 3500 
L 1563 769 
L 2278 3500 
L 2956 3500 
L 3675 769 
L 4391 3500 
L 4966 3500 
L 4050 0 
L 3372 0 
L 2619 2869 
L 1863 0 
L 1184 0 
L 269 3500 
z
" transform="scale(0.015625)"/>
      </defs>
      <use xlink:href="#DejaVuSans-53"/>
      <use xlink:href="#DejaVuSans-63" x="63.476562"/>
      <use xlink:href="#DejaVuSans-6f" x="118.457031"/>
      <use xlink:href="#DejaVuSans-72" x="179.638672"/>
      <use xlink:href="#DejaVuSans-65" x="218.501953"/>
      <use xlink:href="#DejaVuSans-43" x="280.025391"/>
      <use xlink:href="#DejaVuSans-41" x="349.849609"/>
      <use xlink:href="#DejaVuSans-4d" x="418.257812"/>
      <use xlink:href="#DejaVuSans-2d" x="504.537109"/>
      <use xlink:href="#DejaVuSans-4c" x="540.621094"/>
      <use xlink:href="#DejaVuSans-6f" x="594.583984"/>
      <use xlink:href="#DejaVuSans-77" x="655.765625"/>
     </g>
    </g>
    <g id="line2d_42">
     <path d="M 385.939062 369.900312 
L 395.939062 369.900312 
L 405.939062 369.900312 
" style="fill: none; stroke: #000000; stroke-width: 1.5; stroke-linecap: square"/>
    </g>
    <g id="text_38">
     <!-- Random Baseline -->
     <g transform="translate(413.939062 373.400312) scale(0.1 -0.1)">
      <use xlink:href="#DejaVuSans-52"/>
      <use xlink:href="#DejaVuSans-61" x="67.232422"/>
      <use xlink:href="#DejaVuSans-6e" x="128.511719"/>
      <use xlink:href="#DejaVuSans-64" x="191.890625"/>
      <use xlink:href="#DejaVuSans-6f" x="255.367188"/>
      <use xlink:href="#DejaVuSans-6d" x="316.548828"/>
      <use xlink:href="#DejaVuSans-20" x="413.960938"/>
      <use xlink:href="#DejaVuSans-42" x="445.748047"/>
      <use xlink:href="#DejaVuSans-61" x="514.351562"/>
      <use xlink:href="#DejaVuSans-73" x="575.630859"/>
      <use xlink:href="#DejaVuSans-65" x="627.730469"/>
      <use xlink:href="#DejaVuSans-6c" x="689.253906"/>
      <use xlink:href="#DejaVuSans-69" x="717.037109"/>
      <use xlink:href="#DejaVuSans-6e" x="744.820312"/>
      <use xlink:href="#DejaVuSans-65" x="808.199219"/>
     </g>
    </g>
   </g>
  </g>
 </g>
 <defs>
  <clipPath id="p2676e20e17">
   <rect x="72" y="51.84" width="446.4" height="151.2"/>
  </clipPath>
  <clipPath id="p035f8148ca">
   <rect x="72" y="233.28" width="446.4" height="151.2"/>
  </clipPath>
 </defs>
</svg>
